G04 #@! TF.GenerationSoftware,KiCad,Pcbnew,(5.1.10)-1*
G04 #@! TF.CreationDate,2021-10-26T21:04:21+02:00*
G04 #@! TF.ProjectId,Load,4c6f6164-2e6b-4696-9361-645f70636258,rev?*
G04 #@! TF.SameCoordinates,Original*
G04 #@! TF.FileFunction,Profile,NP*
%FSLAX46Y46*%
G04 Gerber Fmt 4.6, Leading zero omitted, Abs format (unit mm)*
G04 Created by KiCad (PCBNEW (5.1.10)-1) date 2021-10-26 21:04:21*
%MOMM*%
%LPD*%
G01*
G04 APERTURE LIST*
G04 #@! TA.AperFunction,Profile*
%ADD10C,0.050000*%
G04 #@! TD*
G04 APERTURE END LIST*
D10*
X189431500Y-113298500D02*
G75*
G02*
X189431500Y-117298500I0J-2000000D01*
G01*
X189431500Y-117298500D02*
X165331500Y-117298500D01*
X165331500Y-113298500D02*
X189431500Y-113298500D01*
X165331500Y-117298500D02*
G75*
G02*
X165331500Y-113298500I0J2000000D01*
G01*
X163800000Y-109000000D02*
X184100000Y-108982000D01*
X132700000Y-109000000D02*
X157500000Y-108998500D01*
X116831500Y-108998500D02*
X126400000Y-108999000D01*
X116831500Y-45998500D02*
X116831500Y-108998500D01*
X200831500Y-45998500D02*
X116831500Y-45998500D01*
X200831500Y-108998500D02*
X200831500Y-45998500D01*
X190300000Y-109000000D02*
X200831500Y-108998500D01*
X200831500Y-110998500D02*
X190300000Y-111000000D01*
X200831500Y-141998500D02*
X200831500Y-110998500D01*
X116831500Y-141998500D02*
X200831500Y-141998500D01*
X116831500Y-110998500D02*
X116831500Y-141998500D01*
X126400000Y-110998000D02*
X116831500Y-110998500D01*
X157500000Y-110998500D02*
X132700000Y-111030500D01*
X184100000Y-110982000D02*
X163800000Y-111000000D01*
X157500000Y-108998500D02*
G75*
G02*
X157500000Y-110998500I0J-1000000D01*
G01*
X184100000Y-108982000D02*
G75*
G02*
X184100000Y-110982000I0J-1000000D01*
G01*
X190300000Y-110998000D02*
G75*
G02*
X190300000Y-108998000I0J1000000D01*
G01*
X163800000Y-110998500D02*
G75*
G02*
X163800000Y-108998500I0J1000000D01*
G01*
X132700000Y-111030500D02*
G75*
G02*
X132700000Y-108998500I0J1016000D01*
G01*
X126400000Y-108999000D02*
G75*
G02*
X126400000Y-110998000I0J-999500D01*
G01*
M02*
