G04 #@! TF.GenerationSoftware,KiCad,Pcbnew,(5.1.10)-1*
G04 #@! TF.CreationDate,2021-10-26T21:04:21+02:00*
G04 #@! TF.ProjectId,Load,4c6f6164-2e6b-4696-9361-645f70636258,rev?*
G04 #@! TF.SameCoordinates,Original*
G04 #@! TF.FileFunction,Paste,Bot*
G04 #@! TF.FilePolarity,Positive*
%FSLAX46Y46*%
G04 Gerber Fmt 4.6, Leading zero omitted, Abs format (unit mm)*
G04 Created by KiCad (PCBNEW (5.1.10)-1) date 2021-10-26 21:04:21*
%MOMM*%
%LPD*%
G01*
G04 APERTURE LIST*
G04 APERTURE END LIST*
G36*
G01*
X157880500Y-127804500D02*
X157880500Y-128354500D01*
G75*
G02*
X157680500Y-128554500I-200000J0D01*
G01*
X157280500Y-128554500D01*
G75*
G02*
X157080500Y-128354500I0J200000D01*
G01*
X157080500Y-127804500D01*
G75*
G02*
X157280500Y-127604500I200000J0D01*
G01*
X157680500Y-127604500D01*
G75*
G02*
X157880500Y-127804500I0J-200000D01*
G01*
G37*
G36*
G01*
X159530500Y-127804500D02*
X159530500Y-128354500D01*
G75*
G02*
X159330500Y-128554500I-200000J0D01*
G01*
X158930500Y-128554500D01*
G75*
G02*
X158730500Y-128354500I0J200000D01*
G01*
X158730500Y-127804500D01*
G75*
G02*
X158930500Y-127604500I200000J0D01*
G01*
X159330500Y-127604500D01*
G75*
G02*
X159530500Y-127804500I0J-200000D01*
G01*
G37*
G36*
G01*
X153856500Y-132093500D02*
X153856500Y-131793500D01*
G75*
G02*
X154006500Y-131643500I150000J0D01*
G01*
X155756500Y-131643500D01*
G75*
G02*
X155906500Y-131793500I0J-150000D01*
G01*
X155906500Y-132093500D01*
G75*
G02*
X155756500Y-132243500I-150000J0D01*
G01*
X154006500Y-132243500D01*
G75*
G02*
X153856500Y-132093500I0J150000D01*
G01*
G37*
G36*
G01*
X153856500Y-130823500D02*
X153856500Y-130523500D01*
G75*
G02*
X154006500Y-130373500I150000J0D01*
G01*
X155756500Y-130373500D01*
G75*
G02*
X155906500Y-130523500I0J-150000D01*
G01*
X155906500Y-130823500D01*
G75*
G02*
X155756500Y-130973500I-150000J0D01*
G01*
X154006500Y-130973500D01*
G75*
G02*
X153856500Y-130823500I0J150000D01*
G01*
G37*
G36*
G01*
X153856500Y-129553500D02*
X153856500Y-129253500D01*
G75*
G02*
X154006500Y-129103500I150000J0D01*
G01*
X155756500Y-129103500D01*
G75*
G02*
X155906500Y-129253500I0J-150000D01*
G01*
X155906500Y-129553500D01*
G75*
G02*
X155756500Y-129703500I-150000J0D01*
G01*
X154006500Y-129703500D01*
G75*
G02*
X153856500Y-129553500I0J150000D01*
G01*
G37*
G36*
G01*
X153856500Y-128283500D02*
X153856500Y-127983500D01*
G75*
G02*
X154006500Y-127833500I150000J0D01*
G01*
X155756500Y-127833500D01*
G75*
G02*
X155906500Y-127983500I0J-150000D01*
G01*
X155906500Y-128283500D01*
G75*
G02*
X155756500Y-128433500I-150000J0D01*
G01*
X154006500Y-128433500D01*
G75*
G02*
X153856500Y-128283500I0J150000D01*
G01*
G37*
G36*
G01*
X153856500Y-127013500D02*
X153856500Y-126713500D01*
G75*
G02*
X154006500Y-126563500I150000J0D01*
G01*
X155756500Y-126563500D01*
G75*
G02*
X155906500Y-126713500I0J-150000D01*
G01*
X155906500Y-127013500D01*
G75*
G02*
X155756500Y-127163500I-150000J0D01*
G01*
X154006500Y-127163500D01*
G75*
G02*
X153856500Y-127013500I0J150000D01*
G01*
G37*
G36*
G01*
X153856500Y-125743500D02*
X153856500Y-125443500D01*
G75*
G02*
X154006500Y-125293500I150000J0D01*
G01*
X155756500Y-125293500D01*
G75*
G02*
X155906500Y-125443500I0J-150000D01*
G01*
X155906500Y-125743500D01*
G75*
G02*
X155756500Y-125893500I-150000J0D01*
G01*
X154006500Y-125893500D01*
G75*
G02*
X153856500Y-125743500I0J150000D01*
G01*
G37*
G36*
G01*
X153856500Y-124473500D02*
X153856500Y-124173500D01*
G75*
G02*
X154006500Y-124023500I150000J0D01*
G01*
X155756500Y-124023500D01*
G75*
G02*
X155906500Y-124173500I0J-150000D01*
G01*
X155906500Y-124473500D01*
G75*
G02*
X155756500Y-124623500I-150000J0D01*
G01*
X154006500Y-124623500D01*
G75*
G02*
X153856500Y-124473500I0J150000D01*
G01*
G37*
G36*
G01*
X153856500Y-123203500D02*
X153856500Y-122903500D01*
G75*
G02*
X154006500Y-122753500I150000J0D01*
G01*
X155756500Y-122753500D01*
G75*
G02*
X155906500Y-122903500I0J-150000D01*
G01*
X155906500Y-123203500D01*
G75*
G02*
X155756500Y-123353500I-150000J0D01*
G01*
X154006500Y-123353500D01*
G75*
G02*
X153856500Y-123203500I0J150000D01*
G01*
G37*
G36*
G01*
X144556500Y-123203500D02*
X144556500Y-122903500D01*
G75*
G02*
X144706500Y-122753500I150000J0D01*
G01*
X146456500Y-122753500D01*
G75*
G02*
X146606500Y-122903500I0J-150000D01*
G01*
X146606500Y-123203500D01*
G75*
G02*
X146456500Y-123353500I-150000J0D01*
G01*
X144706500Y-123353500D01*
G75*
G02*
X144556500Y-123203500I0J150000D01*
G01*
G37*
G36*
G01*
X144556500Y-124473500D02*
X144556500Y-124173500D01*
G75*
G02*
X144706500Y-124023500I150000J0D01*
G01*
X146456500Y-124023500D01*
G75*
G02*
X146606500Y-124173500I0J-150000D01*
G01*
X146606500Y-124473500D01*
G75*
G02*
X146456500Y-124623500I-150000J0D01*
G01*
X144706500Y-124623500D01*
G75*
G02*
X144556500Y-124473500I0J150000D01*
G01*
G37*
G36*
G01*
X144556500Y-125743500D02*
X144556500Y-125443500D01*
G75*
G02*
X144706500Y-125293500I150000J0D01*
G01*
X146456500Y-125293500D01*
G75*
G02*
X146606500Y-125443500I0J-150000D01*
G01*
X146606500Y-125743500D01*
G75*
G02*
X146456500Y-125893500I-150000J0D01*
G01*
X144706500Y-125893500D01*
G75*
G02*
X144556500Y-125743500I0J150000D01*
G01*
G37*
G36*
G01*
X144556500Y-127013500D02*
X144556500Y-126713500D01*
G75*
G02*
X144706500Y-126563500I150000J0D01*
G01*
X146456500Y-126563500D01*
G75*
G02*
X146606500Y-126713500I0J-150000D01*
G01*
X146606500Y-127013500D01*
G75*
G02*
X146456500Y-127163500I-150000J0D01*
G01*
X144706500Y-127163500D01*
G75*
G02*
X144556500Y-127013500I0J150000D01*
G01*
G37*
G36*
G01*
X144556500Y-128283500D02*
X144556500Y-127983500D01*
G75*
G02*
X144706500Y-127833500I150000J0D01*
G01*
X146456500Y-127833500D01*
G75*
G02*
X146606500Y-127983500I0J-150000D01*
G01*
X146606500Y-128283500D01*
G75*
G02*
X146456500Y-128433500I-150000J0D01*
G01*
X144706500Y-128433500D01*
G75*
G02*
X144556500Y-128283500I0J150000D01*
G01*
G37*
G36*
G01*
X144556500Y-129553500D02*
X144556500Y-129253500D01*
G75*
G02*
X144706500Y-129103500I150000J0D01*
G01*
X146456500Y-129103500D01*
G75*
G02*
X146606500Y-129253500I0J-150000D01*
G01*
X146606500Y-129553500D01*
G75*
G02*
X146456500Y-129703500I-150000J0D01*
G01*
X144706500Y-129703500D01*
G75*
G02*
X144556500Y-129553500I0J150000D01*
G01*
G37*
G36*
G01*
X144556500Y-130823500D02*
X144556500Y-130523500D01*
G75*
G02*
X144706500Y-130373500I150000J0D01*
G01*
X146456500Y-130373500D01*
G75*
G02*
X146606500Y-130523500I0J-150000D01*
G01*
X146606500Y-130823500D01*
G75*
G02*
X146456500Y-130973500I-150000J0D01*
G01*
X144706500Y-130973500D01*
G75*
G02*
X144556500Y-130823500I0J150000D01*
G01*
G37*
G36*
G01*
X144556500Y-132093500D02*
X144556500Y-131793500D01*
G75*
G02*
X144706500Y-131643500I150000J0D01*
G01*
X146456500Y-131643500D01*
G75*
G02*
X146606500Y-131793500I0J-150000D01*
G01*
X146606500Y-132093500D01*
G75*
G02*
X146456500Y-132243500I-150000J0D01*
G01*
X144706500Y-132243500D01*
G75*
G02*
X144556500Y-132093500I0J150000D01*
G01*
G37*
G36*
G01*
X135256500Y-118248500D02*
X135256500Y-117748500D01*
G75*
G02*
X135481500Y-117523500I225000J0D01*
G01*
X135931500Y-117523500D01*
G75*
G02*
X136156500Y-117748500I0J-225000D01*
G01*
X136156500Y-118248500D01*
G75*
G02*
X135931500Y-118473500I-225000J0D01*
G01*
X135481500Y-118473500D01*
G75*
G02*
X135256500Y-118248500I0J225000D01*
G01*
G37*
G36*
G01*
X133706500Y-118248500D02*
X133706500Y-117748500D01*
G75*
G02*
X133931500Y-117523500I225000J0D01*
G01*
X134381500Y-117523500D01*
G75*
G02*
X134606500Y-117748500I0J-225000D01*
G01*
X134606500Y-118248500D01*
G75*
G02*
X134381500Y-118473500I-225000J0D01*
G01*
X133931500Y-118473500D01*
G75*
G02*
X133706500Y-118248500I0J225000D01*
G01*
G37*
G36*
G01*
X150356500Y-134348500D02*
X150356500Y-133848500D01*
G75*
G02*
X150581500Y-133623500I225000J0D01*
G01*
X151031500Y-133623500D01*
G75*
G02*
X151256500Y-133848500I0J-225000D01*
G01*
X151256500Y-134348500D01*
G75*
G02*
X151031500Y-134573500I-225000J0D01*
G01*
X150581500Y-134573500D01*
G75*
G02*
X150356500Y-134348500I0J225000D01*
G01*
G37*
G36*
G01*
X148806500Y-134348500D02*
X148806500Y-133848500D01*
G75*
G02*
X149031500Y-133623500I225000J0D01*
G01*
X149481500Y-133623500D01*
G75*
G02*
X149706500Y-133848500I0J-225000D01*
G01*
X149706500Y-134348500D01*
G75*
G02*
X149481500Y-134573500I-225000J0D01*
G01*
X149031500Y-134573500D01*
G75*
G02*
X148806500Y-134348500I0J225000D01*
G01*
G37*
M02*
