M48
; DRILL file {KiCad (5.1.10)-1} date 10/26/21 21:04:36
; FORMAT={-:-/ absolute / metric / decimal}
; #@! TF.CreationDate,2021-10-26T21:04:36+02:00
; #@! TF.GenerationSoftware,Kicad,Pcbnew,(5.1.10)-1
; #@! TF.FileFunction,Plated,1,2,PTH
FMAT,2
METRIC
T1C0.300
T2C0.400
T3C0.600
T4C0.650
T5C0.700
T6C0.762
T7C0.800
T8C0.950
T9C1.000
T10C1.100
T11C1.200
T12C1.500
T13C3.200
%
G90
G05
T1
X130.6Y-97.9
X131.15Y-107.25
X134.7Y-79.7
X137.7Y-94.35
X141.231Y-100.031
X142.7Y-93.3
X144.425Y-95.275
X144.45Y-57.35
X145.1Y-103.15
X146.15Y-86.35
X149.402Y-99.998
X150.95Y-103.1
T2
X118.554Y-106.997
X119.85Y-48.45
X120.968Y-86.169
X121.094Y-68.77
X121.094Y-68.77
X122.745Y-121.73
X122.745Y-131.0
X126.7Y-87.9
X126.809Y-66.992
X127.35Y-89.55
X127.953Y-82.359
X129.857Y-71.564
X130.995Y-84.495
X131.0Y-64.453
X131.1Y-54.7
X132.9Y-61.6
X132.95Y-69.05
X132.95Y-82.359
X134.429Y-127.063
X134.6Y-84.5
X135.85Y-74.65
X136.652Y-60.896
X136.95Y-91.75
X137.05Y-100.45
X137.15Y-78.7
X137.8Y-80.75
X139.55Y-92.5
X139.65Y-94.455
X140.25Y-85.45
X141.25Y-70.5
X141.668Y-73.343
X141.75Y-103.35
X142.55Y-72.55
X142.939Y-130.365
X142.939Y-131.508
X142.939Y-132.651
X143.05Y-96.85
X144.3Y-106.2
X145.35Y-84.6
X145.8Y-60.65
X146.113Y-68.516
X146.368Y-75.755
X147.8Y-81.55
X148.0Y-91.1
X150.65Y-89.35
X151.15Y-64.7
X151.32Y-82.95
X151.55Y-58.95
X151.65Y-90.1
X152.4Y-94.9
X152.971Y-66.855
X155.2Y-106.05
X155.892Y-64.188
X155.892Y-80.825
X156.718Y-64.887
X156.781Y-82.858
X157.15Y-62.25
X157.489Y-129.404
X157.543Y-126.936
X157.543Y-130.673
X157.543Y-133.794
X157.671Y-114.871
X157.671Y-139.001
X157.734Y-64.211
X157.734Y-74.92
X158.599Y-78.849
X158.65Y-106.1
X159.398Y-76.849
X159.7Y-70.5
X160.45Y-57.35
X160.9Y-80.35
X161.55Y-63.3
X161.6Y-76.1
X162.243Y-83.365
X162.5Y-98.1
X162.687Y-53.276
X163.05Y-70.5
X163.703Y-49.847
X163.931Y-122.498
X164.909Y-72.825
X165.3Y-84.05
X165.529Y-57.15
X165.6Y-62.25
X165.608Y-58.229
X165.925Y-64.188
X165.934Y-78.849
X166.116Y-53.911
X167.005Y-59.627
X167.069Y-69.65
X167.069Y-82.222
X167.386Y-57.15
X167.513Y-53.911
X168.275Y-60.896
X168.275Y-60.896
X168.338Y-67.364
X168.7Y-63.85
X168.846Y-53.911
X169.418Y-57.15
X169.545Y-58.356
X169.545Y-62.293
X170.688Y-49.847
X170.688Y-57.15
X171.4Y-62.3
X171.831Y-53.276
X171.894Y-93.916
X171.9Y-100.85
X171.9Y-106.8
X172.212Y-57.15
X173.0Y-78.6
X173.0Y-86.1
X180.231Y-130.298
X188.15Y-135.826
X189.103Y-90.614
X197.167Y-121.73
X197.167Y-131.0
T4
X121.131Y-58.848
X121.131Y-61.348
X121.131Y-76.349
X121.131Y-78.849
X121.131Y-93.849
X121.131Y-96.349
T5
X181.924Y-57.594
X185.671Y-54.991
X189.424Y-57.594
X193.171Y-54.991
T6
X172.043Y-97.79
X172.043Y-103.632
X181.038Y-97.79
X181.038Y-100.711
X181.038Y-103.632
T7
X148.281Y-73.12
X148.281Y-75.66
X148.281Y-78.2
X155.4Y-95.65
X155.4Y-97.65
X171.767Y-70.358
X180.924Y-65.532
X181.229Y-80.581
X181.229Y-84.081
X181.673Y-60.071
X181.927Y-70.358
X185.547Y-105.981
X188.087Y-98.933
X188.087Y-101.473
X188.087Y-105.981
X188.976Y-80.962
X188.976Y-88.075
X189.802Y-61.849
X190.424Y-65.532
X191.516Y-97.663
X191.516Y-107.823
X194.556Y-94.551
X197.104Y-80.962
X197.104Y-88.075
X198.056Y-94.551
T8
X133.731Y-50.419
X136.231Y-50.419
X138.731Y-50.419
X141.231Y-50.419
X185.436Y-50.546
X187.936Y-50.546
X190.436Y-50.546
T9
X133.634Y-114.522
X134.556Y-104.775
X136.174Y-114.522
X137.056Y-104.775
X138.714Y-114.522
X138.731Y-59.898
X141.231Y-59.898
X141.254Y-114.522
X150.431Y-50.228
X150.431Y-52.768
X152.971Y-50.228
X152.971Y-52.768
X155.511Y-50.228
X155.511Y-52.768
X165.0Y-101.15
X165.0Y-106.15
X167.231Y-122.898
X169.772Y-122.898
X171.641Y-133.794
X171.641Y-136.334
X172.311Y-122.898
X174.18Y-133.794
X174.18Y-136.334
X174.851Y-122.898
X176.72Y-133.794
X176.72Y-136.334
X177.391Y-122.898
X179.931Y-122.898
X182.471Y-122.898
X185.011Y-122.898
X187.552Y-122.898
T10
X127.431Y-57.518
X127.431Y-60.058
X127.431Y-62.598
X127.431Y-74.918
X127.431Y-77.459
X127.431Y-79.998
X127.431Y-92.518
X127.431Y-95.058
X127.431Y-97.599
T11
X193.802Y-63.055
X193.802Y-68.135
T12
X121.131Y-55.095
X121.131Y-65.102
X121.131Y-72.595
X121.131Y-82.602
X121.131Y-89.995
X121.131Y-100.002
T13
X120.931Y-115.099
X120.931Y-137.999
X127.131Y-49.898
X127.231Y-104.698
X196.531Y-115.099
X196.531Y-137.999
X196.831Y-49.998
X196.831Y-104.898
T3
X162.759Y-47.526G85X162.759Y-47.125
G05
X162.759Y-51.925G85X162.759Y-51.125
G05
X171.359Y-47.526G85X171.359Y-47.125
G05
X171.359Y-51.925G85X171.359Y-51.125
G05
T5
X197.085Y-55.413G85X197.885Y-55.413
G05
X197.085Y-60.413G85X197.885Y-60.413
G05
X197.085Y-71.413G85X197.885Y-71.413
G05
X197.085Y-76.413G85X197.885Y-76.413
G05
T0
M30
