G04 #@! TF.GenerationSoftware,KiCad,Pcbnew,(5.1.9-13-g2d491f9cbd)-1*
G04 #@! TF.CreationDate,2021-06-08T14:19:33+02:00*
G04 #@! TF.ProjectId,Load,4c6f6164-2e6b-4696-9361-645f70636258,rev?*
G04 #@! TF.SameCoordinates,Original*
G04 #@! TF.FileFunction,Legend,Bot*
G04 #@! TF.FilePolarity,Positive*
%FSLAX46Y46*%
G04 Gerber Fmt 4.6, Leading zero omitted, Abs format (unit mm)*
G04 Created by KiCad (PCBNEW (5.1.9-13-g2d491f9cbd)-1) date 2021-06-08 14:19:33*
%MOMM*%
%LPD*%
G01*
G04 APERTURE LIST*
%ADD10C,0.300000*%
%ADD11C,0.120000*%
%ADD12C,0.150000*%
G04 APERTURE END LIST*
D10*
X72339428Y-94370142D02*
X72125142Y-94441571D01*
X71768000Y-94441571D01*
X71625142Y-94370142D01*
X71553714Y-94298714D01*
X71482285Y-94155857D01*
X71482285Y-94013000D01*
X71553714Y-93870142D01*
X71625142Y-93798714D01*
X71768000Y-93727285D01*
X72053714Y-93655857D01*
X72196571Y-93584428D01*
X72268000Y-93513000D01*
X72339428Y-93370142D01*
X72339428Y-93227285D01*
X72268000Y-93084428D01*
X72196571Y-93013000D01*
X72053714Y-92941571D01*
X71696571Y-92941571D01*
X71482285Y-93013000D01*
X70839428Y-94441571D02*
X70839428Y-92941571D01*
X70482285Y-92941571D01*
X70268000Y-93013000D01*
X70125142Y-93155857D01*
X70053714Y-93298714D01*
X69982285Y-93584428D01*
X69982285Y-93798714D01*
X70053714Y-94084428D01*
X70125142Y-94227285D01*
X70268000Y-94370142D01*
X70482285Y-94441571D01*
X70839428Y-94441571D01*
X69410857Y-94013000D02*
X68696571Y-94013000D01*
X69553714Y-94441571D02*
X69053714Y-92941571D01*
X68553714Y-94441571D01*
X72268000Y-91155857D02*
X71768000Y-91155857D01*
X71553714Y-91941571D02*
X72268000Y-91941571D01*
X72268000Y-90441571D01*
X71553714Y-90441571D01*
X70910857Y-91941571D02*
X70910857Y-90441571D01*
X70053714Y-91941571D01*
X70053714Y-90441571D01*
X69410857Y-91513000D02*
X68696571Y-91513000D01*
X69553714Y-91941571D02*
X69053714Y-90441571D01*
X68553714Y-91941571D01*
X72303714Y-89370142D02*
X72089428Y-89441571D01*
X71732285Y-89441571D01*
X71589428Y-89370142D01*
X71518000Y-89298714D01*
X71446571Y-89155857D01*
X71446571Y-89013000D01*
X71518000Y-88870142D01*
X71589428Y-88798714D01*
X71732285Y-88727285D01*
X72018000Y-88655857D01*
X72160857Y-88584428D01*
X72232285Y-88513000D01*
X72303714Y-88370142D01*
X72303714Y-88227285D01*
X72232285Y-88084428D01*
X72160857Y-88013000D01*
X72018000Y-87941571D01*
X71660857Y-87941571D01*
X71446571Y-88013000D01*
X69946571Y-89298714D02*
X70018000Y-89370142D01*
X70232285Y-89441571D01*
X70375142Y-89441571D01*
X70589428Y-89370142D01*
X70732285Y-89227285D01*
X70803714Y-89084428D01*
X70875142Y-88798714D01*
X70875142Y-88584428D01*
X70803714Y-88298714D01*
X70732285Y-88155857D01*
X70589428Y-88013000D01*
X70375142Y-87941571D01*
X70232285Y-87941571D01*
X70018000Y-88013000D01*
X69946571Y-88084428D01*
X68589428Y-89441571D02*
X69303714Y-89441571D01*
X69303714Y-87941571D01*
X57760857Y-90613000D02*
X57903714Y-90541571D01*
X58118000Y-90541571D01*
X58332285Y-90613000D01*
X58475142Y-90755857D01*
X58546571Y-90898714D01*
X58618000Y-91184428D01*
X58618000Y-91398714D01*
X58546571Y-91684428D01*
X58475142Y-91827285D01*
X58332285Y-91970142D01*
X58118000Y-92041571D01*
X57975142Y-92041571D01*
X57760857Y-91970142D01*
X57689428Y-91898714D01*
X57689428Y-91398714D01*
X57975142Y-91398714D01*
X57046571Y-92041571D02*
X57046571Y-90541571D01*
X56189428Y-92041571D01*
X56189428Y-90541571D01*
X55475142Y-92041571D02*
X55475142Y-90541571D01*
X55118000Y-90541571D01*
X54903714Y-90613000D01*
X54760857Y-90755857D01*
X54689428Y-90898714D01*
X54618000Y-91184428D01*
X54618000Y-91398714D01*
X54689428Y-91684428D01*
X54760857Y-91827285D01*
X54903714Y-91970142D01*
X55118000Y-92041571D01*
X55475142Y-92041571D01*
X58618000Y-87941571D02*
X58118000Y-89441571D01*
X57618000Y-87941571D01*
X57118000Y-89441571D02*
X57118000Y-87941571D01*
X56760857Y-87941571D01*
X56546571Y-88013000D01*
X56403714Y-88155857D01*
X56332285Y-88298714D01*
X56260857Y-88584428D01*
X56260857Y-88798714D01*
X56332285Y-89084428D01*
X56403714Y-89227285D01*
X56546571Y-89370142D01*
X56760857Y-89441571D01*
X57118000Y-89441571D01*
X54760857Y-89298714D02*
X54832285Y-89370142D01*
X55046571Y-89441571D01*
X55189428Y-89441571D01*
X55403714Y-89370142D01*
X55546571Y-89227285D01*
X55618000Y-89084428D01*
X55689428Y-88798714D01*
X55689428Y-88584428D01*
X55618000Y-88298714D01*
X55546571Y-88155857D01*
X55403714Y-88013000D01*
X55189428Y-87941571D01*
X55046571Y-87941571D01*
X54832285Y-88013000D01*
X54760857Y-88084428D01*
D11*
X50555258Y-85385500D02*
X50080742Y-85385500D01*
X50555258Y-84340500D02*
X50080742Y-84340500D01*
X50555258Y-82385500D02*
X50080742Y-82385500D01*
X50555258Y-81340500D02*
X50080742Y-81340500D01*
X50555258Y-80885500D02*
X50080742Y-80885500D01*
X50555258Y-79840500D02*
X50080742Y-79840500D01*
X50555258Y-83885500D02*
X50080742Y-83885500D01*
X50555258Y-82840500D02*
X50080742Y-82840500D01*
X50555258Y-85840500D02*
X50080742Y-85840500D01*
X50555258Y-86885500D02*
X50080742Y-86885500D01*
X42218000Y-79503000D02*
X46078000Y-79503000D01*
X46078000Y-79503000D02*
X46078000Y-79758000D01*
X42218000Y-79503000D02*
X38358000Y-79503000D01*
X38358000Y-79503000D02*
X38358000Y-79758000D01*
X42218000Y-90023000D02*
X46078000Y-90023000D01*
X46078000Y-90023000D02*
X46078000Y-89768000D01*
X42218000Y-90023000D02*
X38358000Y-90023000D01*
X38358000Y-90023000D02*
X38358000Y-89768000D01*
X38358000Y-89768000D02*
X36543000Y-89768000D01*
X80868000Y-78833000D02*
X80868000Y-81493000D01*
X60488000Y-78833000D02*
X80868000Y-78833000D01*
X60488000Y-81493000D02*
X80868000Y-81493000D01*
X60488000Y-78833000D02*
X60488000Y-81493000D01*
X59218000Y-78833000D02*
X57888000Y-78833000D01*
X57888000Y-78833000D02*
X57888000Y-80163000D01*
X73458000Y-86103000D02*
X79428000Y-86103000D01*
X79428000Y-86103000D02*
X79428000Y-96223000D01*
X79428000Y-96223000D02*
X73458000Y-96223000D01*
X73458000Y-96223000D02*
X73458000Y-86103000D01*
X73468000Y-89413000D02*
X74218000Y-89413000D01*
X74218000Y-89413000D02*
X74218000Y-92913000D01*
X74218000Y-92913000D02*
X73468000Y-92913000D01*
X73468000Y-92913000D02*
X73468000Y-89413000D01*
X73468000Y-86113000D02*
X74218000Y-86113000D01*
X74218000Y-86113000D02*
X74218000Y-87913000D01*
X74218000Y-87913000D02*
X73468000Y-87913000D01*
X73468000Y-87913000D02*
X73468000Y-86113000D01*
X73468000Y-94413000D02*
X74218000Y-94413000D01*
X74218000Y-94413000D02*
X74218000Y-96213000D01*
X74218000Y-96213000D02*
X73468000Y-96213000D01*
X73468000Y-96213000D02*
X73468000Y-94413000D01*
X75718000Y-86113000D02*
X75718000Y-86863000D01*
X75718000Y-86863000D02*
X77058000Y-86863000D01*
X78668000Y-91163000D02*
X78668000Y-87923000D01*
X75718000Y-96213000D02*
X75718000Y-95463000D01*
X75718000Y-95463000D02*
X78668000Y-95463000D01*
X78668000Y-95463000D02*
X78668000Y-91163000D01*
X73168000Y-87063000D02*
X73168000Y-85813000D01*
X73168000Y-85813000D02*
X74418000Y-85813000D01*
X26777420Y-75773000D02*
X27058580Y-75773000D01*
X26777420Y-74753000D02*
X27058580Y-74753000D01*
X41877420Y-91873000D02*
X42158580Y-91873000D01*
X41877420Y-90853000D02*
X42158580Y-90853000D01*
X33980742Y-81040500D02*
X34455258Y-81040500D01*
X33980742Y-82085500D02*
X34455258Y-82085500D01*
X59958000Y-86103000D02*
X65928000Y-86103000D01*
X65928000Y-86103000D02*
X65928000Y-93723000D01*
X65928000Y-93723000D02*
X59958000Y-93723000D01*
X59958000Y-93723000D02*
X59958000Y-86103000D01*
X59968000Y-89413000D02*
X60718000Y-89413000D01*
X60718000Y-89413000D02*
X60718000Y-90413000D01*
X60718000Y-90413000D02*
X59968000Y-90413000D01*
X59968000Y-90413000D02*
X59968000Y-89413000D01*
X59968000Y-86113000D02*
X60718000Y-86113000D01*
X60718000Y-86113000D02*
X60718000Y-87913000D01*
X60718000Y-87913000D02*
X59968000Y-87913000D01*
X59968000Y-87913000D02*
X59968000Y-86113000D01*
X59968000Y-91913000D02*
X60718000Y-91913000D01*
X60718000Y-91913000D02*
X60718000Y-93713000D01*
X60718000Y-93713000D02*
X59968000Y-93713000D01*
X59968000Y-93713000D02*
X59968000Y-91913000D01*
X62218000Y-86113000D02*
X62218000Y-86863000D01*
X62218000Y-86863000D02*
X63558000Y-86863000D01*
X65168000Y-89913000D02*
X65168000Y-87923000D01*
X62218000Y-93713000D02*
X62218000Y-92963000D01*
X62218000Y-92963000D02*
X65168000Y-92963000D01*
X65168000Y-92963000D02*
X65168000Y-89913000D01*
X59668000Y-87063000D02*
X59668000Y-85813000D01*
X59668000Y-85813000D02*
X60918000Y-85813000D01*
X33980742Y-83585500D02*
X34455258Y-83585500D01*
X33980742Y-82540500D02*
X34455258Y-82540500D01*
X33980742Y-85085500D02*
X34455258Y-85085500D01*
X33980742Y-84040500D02*
X34455258Y-84040500D01*
X33980742Y-86585500D02*
X34455258Y-86585500D01*
X33980742Y-85540500D02*
X34455258Y-85540500D01*
D12*
X44108666Y-53665380D02*
X44442000Y-53189190D01*
X44680095Y-53665380D02*
X44680095Y-52665380D01*
X44299142Y-52665380D01*
X44203904Y-52713000D01*
X44156285Y-52760619D01*
X44108666Y-52855857D01*
X44108666Y-52998714D01*
X44156285Y-53093952D01*
X44203904Y-53141571D01*
X44299142Y-53189190D01*
X44680095Y-53189190D01*
X43632476Y-53665380D02*
X43442000Y-53665380D01*
X43346761Y-53617761D01*
X43299142Y-53570142D01*
X43203904Y-53427285D01*
X43156285Y-53236809D01*
X43156285Y-52855857D01*
X43203904Y-52760619D01*
X43251523Y-52713000D01*
X43346761Y-52665380D01*
X43537238Y-52665380D01*
X43632476Y-52713000D01*
X43680095Y-52760619D01*
X43727714Y-52855857D01*
X43727714Y-53093952D01*
X43680095Y-53189190D01*
X43632476Y-53236809D01*
X43537238Y-53284428D01*
X43346761Y-53284428D01*
X43251523Y-53236809D01*
X43203904Y-53189190D01*
X43156285Y-53093952D01*
X47886857Y-21915380D02*
X48220190Y-21439190D01*
X48458285Y-21915380D02*
X48458285Y-20915380D01*
X48077333Y-20915380D01*
X47982095Y-20963000D01*
X47934476Y-21010619D01*
X47886857Y-21105857D01*
X47886857Y-21248714D01*
X47934476Y-21343952D01*
X47982095Y-21391571D01*
X48077333Y-21439190D01*
X48458285Y-21439190D01*
X47029714Y-21248714D02*
X47029714Y-21915380D01*
X47267809Y-20867761D02*
X47505904Y-21582047D01*
X46886857Y-21582047D01*
X46601142Y-20915380D02*
X45982095Y-20915380D01*
X46315428Y-21296333D01*
X46172571Y-21296333D01*
X46077333Y-21343952D01*
X46029714Y-21391571D01*
X45982095Y-21486809D01*
X45982095Y-21724904D01*
X46029714Y-21820142D01*
X46077333Y-21867761D01*
X46172571Y-21915380D01*
X46458285Y-21915380D01*
X46553523Y-21867761D01*
X46601142Y-21820142D01*
X47886857Y-18613380D02*
X48220190Y-18137190D01*
X48458285Y-18613380D02*
X48458285Y-17613380D01*
X48077333Y-17613380D01*
X47982095Y-17661000D01*
X47934476Y-17708619D01*
X47886857Y-17803857D01*
X47886857Y-17946714D01*
X47934476Y-18041952D01*
X47982095Y-18089571D01*
X48077333Y-18137190D01*
X48458285Y-18137190D01*
X46934476Y-18613380D02*
X47505904Y-18613380D01*
X47220190Y-18613380D02*
X47220190Y-17613380D01*
X47315428Y-17756238D01*
X47410666Y-17851476D01*
X47505904Y-17899095D01*
X46601142Y-17613380D02*
X45982095Y-17613380D01*
X46315428Y-17994333D01*
X46172571Y-17994333D01*
X46077333Y-18041952D01*
X46029714Y-18089571D01*
X45982095Y-18184809D01*
X45982095Y-18422904D01*
X46029714Y-18518142D01*
X46077333Y-18565761D01*
X46172571Y-18613380D01*
X46458285Y-18613380D01*
X46553523Y-18565761D01*
X46601142Y-18518142D01*
X74009095Y-48474380D02*
X74009095Y-49283904D01*
X73961476Y-49379142D01*
X73913857Y-49426761D01*
X73818619Y-49474380D01*
X73628142Y-49474380D01*
X73532904Y-49426761D01*
X73485285Y-49379142D01*
X73437666Y-49283904D01*
X73437666Y-48474380D01*
X72437666Y-49474380D02*
X73009095Y-49474380D01*
X72723380Y-49474380D02*
X72723380Y-48474380D01*
X72818619Y-48617238D01*
X72913857Y-48712476D01*
X73009095Y-48760095D01*
X71818619Y-48474380D02*
X71723380Y-48474380D01*
X71628142Y-48522000D01*
X71580523Y-48569619D01*
X71532904Y-48664857D01*
X71485285Y-48855333D01*
X71485285Y-49093428D01*
X71532904Y-49283904D01*
X71580523Y-49379142D01*
X71628142Y-49426761D01*
X71723380Y-49474380D01*
X71818619Y-49474380D01*
X71913857Y-49426761D01*
X71961476Y-49379142D01*
X72009095Y-49283904D01*
X72056714Y-49093428D01*
X72056714Y-48855333D01*
X72009095Y-48664857D01*
X71961476Y-48569619D01*
X71913857Y-48522000D01*
X71818619Y-48474380D01*
X84200904Y-48728380D02*
X83629476Y-48728380D01*
X83915190Y-49728380D02*
X83915190Y-48728380D01*
X82772333Y-49728380D02*
X83343761Y-49728380D01*
X83058047Y-49728380D02*
X83058047Y-48728380D01*
X83153285Y-48871238D01*
X83248523Y-48966476D01*
X83343761Y-49014095D01*
X57030857Y-63952380D02*
X57364190Y-63476190D01*
X57602285Y-63952380D02*
X57602285Y-62952380D01*
X57221333Y-62952380D01*
X57126095Y-63000000D01*
X57078476Y-63047619D01*
X57030857Y-63142857D01*
X57030857Y-63285714D01*
X57078476Y-63380952D01*
X57126095Y-63428571D01*
X57221333Y-63476190D01*
X57602285Y-63476190D01*
X56126095Y-62952380D02*
X56602285Y-62952380D01*
X56649904Y-63428571D01*
X56602285Y-63380952D01*
X56507047Y-63333333D01*
X56268952Y-63333333D01*
X56173714Y-63380952D01*
X56126095Y-63428571D01*
X56078476Y-63523809D01*
X56078476Y-63761904D01*
X56126095Y-63857142D01*
X56173714Y-63904761D01*
X56268952Y-63952380D01*
X56507047Y-63952380D01*
X56602285Y-63904761D01*
X56649904Y-63857142D01*
X55745142Y-62952380D02*
X55078476Y-62952380D01*
X55507047Y-63952380D01*
X61190095Y-63571380D02*
X61190095Y-62571380D01*
X60952000Y-62571380D01*
X60809142Y-62619000D01*
X60713904Y-62714238D01*
X60666285Y-62809476D01*
X60618666Y-62999952D01*
X60618666Y-63142809D01*
X60666285Y-63333285D01*
X60713904Y-63428523D01*
X60809142Y-63523761D01*
X60952000Y-63571380D01*
X61190095Y-63571380D01*
X60047238Y-62999952D02*
X60142476Y-62952333D01*
X60190095Y-62904714D01*
X60237714Y-62809476D01*
X60237714Y-62761857D01*
X60190095Y-62666619D01*
X60142476Y-62619000D01*
X60047238Y-62571380D01*
X59856761Y-62571380D01*
X59761523Y-62619000D01*
X59713904Y-62666619D01*
X59666285Y-62761857D01*
X59666285Y-62809476D01*
X59713904Y-62904714D01*
X59761523Y-62952333D01*
X59856761Y-62999952D01*
X60047238Y-62999952D01*
X60142476Y-63047571D01*
X60190095Y-63095190D01*
X60237714Y-63190428D01*
X60237714Y-63380904D01*
X60190095Y-63476142D01*
X60142476Y-63523761D01*
X60047238Y-63571380D01*
X59856761Y-63571380D01*
X59761523Y-63523761D01*
X59713904Y-63476142D01*
X59666285Y-63380904D01*
X59666285Y-63190428D01*
X59713904Y-63095190D01*
X59761523Y-63047571D01*
X59856761Y-62999952D01*
X90558857Y-36393380D02*
X90892190Y-35917190D01*
X91130285Y-36393380D02*
X91130285Y-35393380D01*
X90749333Y-35393380D01*
X90654095Y-35441000D01*
X90606476Y-35488619D01*
X90558857Y-35583857D01*
X90558857Y-35726714D01*
X90606476Y-35821952D01*
X90654095Y-35869571D01*
X90749333Y-35917190D01*
X91130285Y-35917190D01*
X89701714Y-35726714D02*
X89701714Y-36393380D01*
X89939809Y-35345761D02*
X90177904Y-36060047D01*
X89558857Y-36060047D01*
X89130285Y-36393380D02*
X88939809Y-36393380D01*
X88844571Y-36345761D01*
X88796952Y-36298142D01*
X88701714Y-36155285D01*
X88654095Y-35964809D01*
X88654095Y-35583857D01*
X88701714Y-35488619D01*
X88749333Y-35441000D01*
X88844571Y-35393380D01*
X89035047Y-35393380D01*
X89130285Y-35441000D01*
X89177904Y-35488619D01*
X89225523Y-35583857D01*
X89225523Y-35821952D01*
X89177904Y-35917190D01*
X89130285Y-35964809D01*
X89035047Y-36012428D01*
X88844571Y-36012428D01*
X88749333Y-35964809D01*
X88701714Y-35917190D01*
X88654095Y-35821952D01*
X89161857Y-42616380D02*
X89495190Y-42140190D01*
X89733285Y-42616380D02*
X89733285Y-41616380D01*
X89352333Y-41616380D01*
X89257095Y-41664000D01*
X89209476Y-41711619D01*
X89161857Y-41806857D01*
X89161857Y-41949714D01*
X89209476Y-42044952D01*
X89257095Y-42092571D01*
X89352333Y-42140190D01*
X89733285Y-42140190D01*
X88304714Y-41949714D02*
X88304714Y-42616380D01*
X88542809Y-41568761D02*
X88780904Y-42283047D01*
X88161857Y-42283047D01*
X87638047Y-42044952D02*
X87733285Y-41997333D01*
X87780904Y-41949714D01*
X87828523Y-41854476D01*
X87828523Y-41806857D01*
X87780904Y-41711619D01*
X87733285Y-41664000D01*
X87638047Y-41616380D01*
X87447571Y-41616380D01*
X87352333Y-41664000D01*
X87304714Y-41711619D01*
X87257095Y-41806857D01*
X87257095Y-41854476D01*
X87304714Y-41949714D01*
X87352333Y-41997333D01*
X87447571Y-42044952D01*
X87638047Y-42044952D01*
X87733285Y-42092571D01*
X87780904Y-42140190D01*
X87828523Y-42235428D01*
X87828523Y-42425904D01*
X87780904Y-42521142D01*
X87733285Y-42568761D01*
X87638047Y-42616380D01*
X87447571Y-42616380D01*
X87352333Y-42568761D01*
X87304714Y-42521142D01*
X87257095Y-42425904D01*
X87257095Y-42235428D01*
X87304714Y-42140190D01*
X87352333Y-42092571D01*
X87447571Y-42044952D01*
X56776857Y-6072142D02*
X56824476Y-6119761D01*
X56967333Y-6167380D01*
X57062571Y-6167380D01*
X57205428Y-6119761D01*
X57300666Y-6024523D01*
X57348285Y-5929285D01*
X57395904Y-5738809D01*
X57395904Y-5595952D01*
X57348285Y-5405476D01*
X57300666Y-5310238D01*
X57205428Y-5215000D01*
X57062571Y-5167380D01*
X56967333Y-5167380D01*
X56824476Y-5215000D01*
X56776857Y-5262619D01*
X56443523Y-5167380D02*
X55824476Y-5167380D01*
X56157809Y-5548333D01*
X56014952Y-5548333D01*
X55919714Y-5595952D01*
X55872095Y-5643571D01*
X55824476Y-5738809D01*
X55824476Y-5976904D01*
X55872095Y-6072142D01*
X55919714Y-6119761D01*
X56014952Y-6167380D01*
X56300666Y-6167380D01*
X56395904Y-6119761D01*
X56443523Y-6072142D01*
X54967333Y-5500714D02*
X54967333Y-6167380D01*
X55205428Y-5119761D02*
X55443523Y-5834047D01*
X54824476Y-5834047D01*
X34043857Y-53792380D02*
X34377190Y-53316190D01*
X34615285Y-53792380D02*
X34615285Y-52792380D01*
X34234333Y-52792380D01*
X34139095Y-52840000D01*
X34091476Y-52887619D01*
X34043857Y-52982857D01*
X34043857Y-53125714D01*
X34091476Y-53220952D01*
X34139095Y-53268571D01*
X34234333Y-53316190D01*
X34615285Y-53316190D01*
X33091476Y-53792380D02*
X33662904Y-53792380D01*
X33377190Y-53792380D02*
X33377190Y-52792380D01*
X33472428Y-52935238D01*
X33567666Y-53030476D01*
X33662904Y-53078095D01*
X32615285Y-53792380D02*
X32424809Y-53792380D01*
X32329571Y-53744761D01*
X32281952Y-53697142D01*
X32186714Y-53554285D01*
X32139095Y-53363809D01*
X32139095Y-52982857D01*
X32186714Y-52887619D01*
X32234333Y-52840000D01*
X32329571Y-52792380D01*
X32520047Y-52792380D01*
X32615285Y-52840000D01*
X32662904Y-52887619D01*
X32710523Y-52982857D01*
X32710523Y-53220952D01*
X32662904Y-53316190D01*
X32615285Y-53363809D01*
X32520047Y-53411428D01*
X32329571Y-53411428D01*
X32234333Y-53363809D01*
X32186714Y-53316190D01*
X32139095Y-53220952D01*
X28455857Y-53570142D02*
X28503476Y-53617761D01*
X28646333Y-53665380D01*
X28741571Y-53665380D01*
X28884428Y-53617761D01*
X28979666Y-53522523D01*
X29027285Y-53427285D01*
X29074904Y-53236809D01*
X29074904Y-53093952D01*
X29027285Y-52903476D01*
X28979666Y-52808238D01*
X28884428Y-52713000D01*
X28741571Y-52665380D01*
X28646333Y-52665380D01*
X28503476Y-52713000D01*
X28455857Y-52760619D01*
X28122523Y-52665380D02*
X27503476Y-52665380D01*
X27836809Y-53046333D01*
X27693952Y-53046333D01*
X27598714Y-53093952D01*
X27551095Y-53141571D01*
X27503476Y-53236809D01*
X27503476Y-53474904D01*
X27551095Y-53570142D01*
X27598714Y-53617761D01*
X27693952Y-53665380D01*
X27979666Y-53665380D01*
X28074904Y-53617761D01*
X28122523Y-53570142D01*
X26598714Y-52665380D02*
X27074904Y-52665380D01*
X27122523Y-53141571D01*
X27074904Y-53093952D01*
X26979666Y-53046333D01*
X26741571Y-53046333D01*
X26646333Y-53093952D01*
X26598714Y-53141571D01*
X26551095Y-53236809D01*
X26551095Y-53474904D01*
X26598714Y-53570142D01*
X26646333Y-53617761D01*
X26741571Y-53665380D01*
X26979666Y-53665380D01*
X27074904Y-53617761D01*
X27122523Y-53570142D01*
X54260857Y-85315380D02*
X54594190Y-84839190D01*
X54832285Y-85315380D02*
X54832285Y-84315380D01*
X54451333Y-84315380D01*
X54356095Y-84363000D01*
X54308476Y-84410619D01*
X54260857Y-84505857D01*
X54260857Y-84648714D01*
X54308476Y-84743952D01*
X54356095Y-84791571D01*
X54451333Y-84839190D01*
X54832285Y-84839190D01*
X53356095Y-84315380D02*
X53832285Y-84315380D01*
X53879904Y-84791571D01*
X53832285Y-84743952D01*
X53737047Y-84696333D01*
X53498952Y-84696333D01*
X53403714Y-84743952D01*
X53356095Y-84791571D01*
X53308476Y-84886809D01*
X53308476Y-85124904D01*
X53356095Y-85220142D01*
X53403714Y-85267761D01*
X53498952Y-85315380D01*
X53737047Y-85315380D01*
X53832285Y-85267761D01*
X53879904Y-85220142D01*
X52451333Y-84315380D02*
X52641809Y-84315380D01*
X52737047Y-84363000D01*
X52784666Y-84410619D01*
X52879904Y-84553476D01*
X52927523Y-84743952D01*
X52927523Y-85124904D01*
X52879904Y-85220142D01*
X52832285Y-85267761D01*
X52737047Y-85315380D01*
X52546571Y-85315380D01*
X52451333Y-85267761D01*
X52403714Y-85220142D01*
X52356095Y-85124904D01*
X52356095Y-84886809D01*
X52403714Y-84791571D01*
X52451333Y-84743952D01*
X52546571Y-84696333D01*
X52737047Y-84696333D01*
X52832285Y-84743952D01*
X52879904Y-84791571D01*
X52927523Y-84886809D01*
X54260857Y-82315380D02*
X54594190Y-81839190D01*
X54832285Y-82315380D02*
X54832285Y-81315380D01*
X54451333Y-81315380D01*
X54356095Y-81363000D01*
X54308476Y-81410619D01*
X54260857Y-81505857D01*
X54260857Y-81648714D01*
X54308476Y-81743952D01*
X54356095Y-81791571D01*
X54451333Y-81839190D01*
X54832285Y-81839190D01*
X53403714Y-81648714D02*
X53403714Y-82315380D01*
X53641809Y-81267761D02*
X53879904Y-81982047D01*
X53260857Y-81982047D01*
X52451333Y-81315380D02*
X52641809Y-81315380D01*
X52737047Y-81363000D01*
X52784666Y-81410619D01*
X52879904Y-81553476D01*
X52927523Y-81743952D01*
X52927523Y-82124904D01*
X52879904Y-82220142D01*
X52832285Y-82267761D01*
X52737047Y-82315380D01*
X52546571Y-82315380D01*
X52451333Y-82267761D01*
X52403714Y-82220142D01*
X52356095Y-82124904D01*
X52356095Y-81886809D01*
X52403714Y-81791571D01*
X52451333Y-81743952D01*
X52546571Y-81696333D01*
X52737047Y-81696333D01*
X52832285Y-81743952D01*
X52879904Y-81791571D01*
X52927523Y-81886809D01*
X54260857Y-80815380D02*
X54594190Y-80339190D01*
X54832285Y-80815380D02*
X54832285Y-79815380D01*
X54451333Y-79815380D01*
X54356095Y-79863000D01*
X54308476Y-79910619D01*
X54260857Y-80005857D01*
X54260857Y-80148714D01*
X54308476Y-80243952D01*
X54356095Y-80291571D01*
X54451333Y-80339190D01*
X54832285Y-80339190D01*
X53403714Y-80148714D02*
X53403714Y-80815380D01*
X53641809Y-79767761D02*
X53879904Y-80482047D01*
X53260857Y-80482047D01*
X52403714Y-79815380D02*
X52879904Y-79815380D01*
X52927523Y-80291571D01*
X52879904Y-80243952D01*
X52784666Y-80196333D01*
X52546571Y-80196333D01*
X52451333Y-80243952D01*
X52403714Y-80291571D01*
X52356095Y-80386809D01*
X52356095Y-80624904D01*
X52403714Y-80720142D01*
X52451333Y-80767761D01*
X52546571Y-80815380D01*
X52784666Y-80815380D01*
X52879904Y-80767761D01*
X52927523Y-80720142D01*
X54260857Y-83815380D02*
X54594190Y-83339190D01*
X54832285Y-83815380D02*
X54832285Y-82815380D01*
X54451333Y-82815380D01*
X54356095Y-82863000D01*
X54308476Y-82910619D01*
X54260857Y-83005857D01*
X54260857Y-83148714D01*
X54308476Y-83243952D01*
X54356095Y-83291571D01*
X54451333Y-83339190D01*
X54832285Y-83339190D01*
X53356095Y-82815380D02*
X53832285Y-82815380D01*
X53879904Y-83291571D01*
X53832285Y-83243952D01*
X53737047Y-83196333D01*
X53498952Y-83196333D01*
X53403714Y-83243952D01*
X53356095Y-83291571D01*
X53308476Y-83386809D01*
X53308476Y-83624904D01*
X53356095Y-83720142D01*
X53403714Y-83767761D01*
X53498952Y-83815380D01*
X53737047Y-83815380D01*
X53832285Y-83767761D01*
X53879904Y-83720142D01*
X52403714Y-82815380D02*
X52879904Y-82815380D01*
X52927523Y-83291571D01*
X52879904Y-83243952D01*
X52784666Y-83196333D01*
X52546571Y-83196333D01*
X52451333Y-83243952D01*
X52403714Y-83291571D01*
X52356095Y-83386809D01*
X52356095Y-83624904D01*
X52403714Y-83720142D01*
X52451333Y-83767761D01*
X52546571Y-83815380D01*
X52784666Y-83815380D01*
X52879904Y-83767761D01*
X52927523Y-83720142D01*
X54260857Y-86815380D02*
X54594190Y-86339190D01*
X54832285Y-86815380D02*
X54832285Y-85815380D01*
X54451333Y-85815380D01*
X54356095Y-85863000D01*
X54308476Y-85910619D01*
X54260857Y-86005857D01*
X54260857Y-86148714D01*
X54308476Y-86243952D01*
X54356095Y-86291571D01*
X54451333Y-86339190D01*
X54832285Y-86339190D01*
X53927523Y-85815380D02*
X53308476Y-85815380D01*
X53641809Y-86196333D01*
X53498952Y-86196333D01*
X53403714Y-86243952D01*
X53356095Y-86291571D01*
X53308476Y-86386809D01*
X53308476Y-86624904D01*
X53356095Y-86720142D01*
X53403714Y-86767761D01*
X53498952Y-86815380D01*
X53784666Y-86815380D01*
X53879904Y-86767761D01*
X53927523Y-86720142D01*
X52737047Y-86243952D02*
X52832285Y-86196333D01*
X52879904Y-86148714D01*
X52927523Y-86053476D01*
X52927523Y-86005857D01*
X52879904Y-85910619D01*
X52832285Y-85863000D01*
X52737047Y-85815380D01*
X52546571Y-85815380D01*
X52451333Y-85863000D01*
X52403714Y-85910619D01*
X52356095Y-86005857D01*
X52356095Y-86053476D01*
X52403714Y-86148714D01*
X52451333Y-86196333D01*
X52546571Y-86243952D01*
X52737047Y-86243952D01*
X52832285Y-86291571D01*
X52879904Y-86339190D01*
X52927523Y-86434428D01*
X52927523Y-86624904D01*
X52879904Y-86720142D01*
X52832285Y-86767761D01*
X52737047Y-86815380D01*
X52546571Y-86815380D01*
X52451333Y-86767761D01*
X52403714Y-86720142D01*
X52356095Y-86624904D01*
X52356095Y-86434428D01*
X52403714Y-86339190D01*
X52451333Y-86291571D01*
X52546571Y-86243952D01*
X38052333Y-54189380D02*
X38052333Y-54903666D01*
X38099952Y-55046523D01*
X38195190Y-55141761D01*
X38338047Y-55189380D01*
X38433285Y-55189380D01*
X37433285Y-54617952D02*
X37528523Y-54570333D01*
X37576142Y-54522714D01*
X37623761Y-54427476D01*
X37623761Y-54379857D01*
X37576142Y-54284619D01*
X37528523Y-54237000D01*
X37433285Y-54189380D01*
X37242809Y-54189380D01*
X37147571Y-54237000D01*
X37099952Y-54284619D01*
X37052333Y-54379857D01*
X37052333Y-54427476D01*
X37099952Y-54522714D01*
X37147571Y-54570333D01*
X37242809Y-54617952D01*
X37433285Y-54617952D01*
X37528523Y-54665571D01*
X37576142Y-54713190D01*
X37623761Y-54808428D01*
X37623761Y-54998904D01*
X37576142Y-55094142D01*
X37528523Y-55141761D01*
X37433285Y-55189380D01*
X37242809Y-55189380D01*
X37147571Y-55141761D01*
X37099952Y-55094142D01*
X37052333Y-54998904D01*
X37052333Y-54808428D01*
X37099952Y-54713190D01*
X37147571Y-54665571D01*
X37242809Y-54617952D01*
X31575333Y-59523380D02*
X31575333Y-60237666D01*
X31622952Y-60380523D01*
X31718190Y-60475761D01*
X31861047Y-60523380D01*
X31956285Y-60523380D01*
X31194380Y-59523380D02*
X30527714Y-59523380D01*
X30956285Y-60523380D01*
X47886857Y-23566380D02*
X48220190Y-23090190D01*
X48458285Y-23566380D02*
X48458285Y-22566380D01*
X48077333Y-22566380D01*
X47982095Y-22614000D01*
X47934476Y-22661619D01*
X47886857Y-22756857D01*
X47886857Y-22899714D01*
X47934476Y-22994952D01*
X47982095Y-23042571D01*
X48077333Y-23090190D01*
X48458285Y-23090190D01*
X47029714Y-22899714D02*
X47029714Y-23566380D01*
X47267809Y-22518761D02*
X47505904Y-23233047D01*
X46886857Y-23233047D01*
X46077333Y-22899714D02*
X46077333Y-23566380D01*
X46315428Y-22518761D02*
X46553523Y-23233047D01*
X45934476Y-23233047D01*
X40989238Y-37885619D02*
X41084476Y-37838000D01*
X41179714Y-37742761D01*
X41322571Y-37599904D01*
X41417809Y-37552285D01*
X41513047Y-37552285D01*
X41465428Y-37790380D02*
X41560666Y-37742761D01*
X41655904Y-37647523D01*
X41703523Y-37457047D01*
X41703523Y-37123714D01*
X41655904Y-36933238D01*
X41560666Y-36838000D01*
X41465428Y-36790380D01*
X41274952Y-36790380D01*
X41179714Y-36838000D01*
X41084476Y-36933238D01*
X41036857Y-37123714D01*
X41036857Y-37457047D01*
X41084476Y-37647523D01*
X41179714Y-37742761D01*
X41274952Y-37790380D01*
X41465428Y-37790380D01*
X40179714Y-36790380D02*
X40370190Y-36790380D01*
X40465428Y-36838000D01*
X40513047Y-36885619D01*
X40608285Y-37028476D01*
X40655904Y-37218952D01*
X40655904Y-37599904D01*
X40608285Y-37695142D01*
X40560666Y-37742761D01*
X40465428Y-37790380D01*
X40274952Y-37790380D01*
X40179714Y-37742761D01*
X40132095Y-37695142D01*
X40084476Y-37599904D01*
X40084476Y-37361809D01*
X40132095Y-37266571D01*
X40179714Y-37218952D01*
X40274952Y-37171333D01*
X40465428Y-37171333D01*
X40560666Y-37218952D01*
X40608285Y-37266571D01*
X40655904Y-37361809D01*
X32686523Y-14438380D02*
X32686523Y-15152666D01*
X32734142Y-15295523D01*
X32829380Y-15390761D01*
X32972238Y-15438380D01*
X33067476Y-15438380D01*
X31686523Y-15438380D02*
X32257952Y-15438380D01*
X31972238Y-15438380D02*
X31972238Y-14438380D01*
X32067476Y-14581238D01*
X32162714Y-14676476D01*
X32257952Y-14724095D01*
X31067476Y-14438380D02*
X30972238Y-14438380D01*
X30877000Y-14486000D01*
X30829380Y-14533619D01*
X30781761Y-14628857D01*
X30734142Y-14819333D01*
X30734142Y-15057428D01*
X30781761Y-15247904D01*
X30829380Y-15343142D01*
X30877000Y-15390761D01*
X30972238Y-15438380D01*
X31067476Y-15438380D01*
X31162714Y-15390761D01*
X31210333Y-15343142D01*
X31257952Y-15247904D01*
X31305571Y-15057428D01*
X31305571Y-14819333D01*
X31257952Y-14628857D01*
X31210333Y-14533619D01*
X31162714Y-14486000D01*
X31067476Y-14438380D01*
X29670333Y-7199380D02*
X29670333Y-7913666D01*
X29717952Y-8056523D01*
X29813190Y-8151761D01*
X29956047Y-8199380D01*
X30051285Y-8199380D01*
X29241761Y-7294619D02*
X29194142Y-7247000D01*
X29098904Y-7199380D01*
X28860809Y-7199380D01*
X28765571Y-7247000D01*
X28717952Y-7294619D01*
X28670333Y-7389857D01*
X28670333Y-7485095D01*
X28717952Y-7627952D01*
X29289380Y-8199380D01*
X28670333Y-8199380D01*
X45061095Y-23439380D02*
X45061095Y-22439380D01*
X44823000Y-22439380D01*
X44680142Y-22487000D01*
X44584904Y-22582238D01*
X44537285Y-22677476D01*
X44489666Y-22867952D01*
X44489666Y-23010809D01*
X44537285Y-23201285D01*
X44584904Y-23296523D01*
X44680142Y-23391761D01*
X44823000Y-23439380D01*
X45061095Y-23439380D01*
X44156333Y-22439380D02*
X43489666Y-22439380D01*
X43918238Y-23439380D01*
X64873095Y-44775380D02*
X64873095Y-43775380D01*
X64635000Y-43775380D01*
X64492142Y-43823000D01*
X64396904Y-43918238D01*
X64349285Y-44013476D01*
X64301666Y-44203952D01*
X64301666Y-44346809D01*
X64349285Y-44537285D01*
X64396904Y-44632523D01*
X64492142Y-44727761D01*
X64635000Y-44775380D01*
X64873095Y-44775380D01*
X63349285Y-44775380D02*
X63920714Y-44775380D01*
X63635000Y-44775380D02*
X63635000Y-43775380D01*
X63730238Y-43918238D01*
X63825476Y-44013476D01*
X63920714Y-44061095D01*
X76707904Y-38314380D02*
X76707904Y-39123904D01*
X76660285Y-39219142D01*
X76612666Y-39266761D01*
X76517428Y-39314380D01*
X76326952Y-39314380D01*
X76231714Y-39266761D01*
X76184095Y-39219142D01*
X76136476Y-39123904D01*
X76136476Y-38314380D01*
X75612666Y-39314380D02*
X75422190Y-39314380D01*
X75326952Y-39266761D01*
X75279333Y-39219142D01*
X75184095Y-39076285D01*
X75136476Y-38885809D01*
X75136476Y-38504857D01*
X75184095Y-38409619D01*
X75231714Y-38362000D01*
X75326952Y-38314380D01*
X75517428Y-38314380D01*
X75612666Y-38362000D01*
X75660285Y-38409619D01*
X75707904Y-38504857D01*
X75707904Y-38742952D01*
X75660285Y-38838190D01*
X75612666Y-38885809D01*
X75517428Y-38933428D01*
X75326952Y-38933428D01*
X75231714Y-38885809D01*
X75184095Y-38838190D01*
X75136476Y-38742952D01*
X42879904Y-78015380D02*
X42879904Y-78824904D01*
X42832285Y-78920142D01*
X42784666Y-78967761D01*
X42689428Y-79015380D01*
X42498952Y-79015380D01*
X42403714Y-78967761D01*
X42356095Y-78920142D01*
X42308476Y-78824904D01*
X42308476Y-78015380D01*
X41927523Y-78015380D02*
X41260857Y-78015380D01*
X41689428Y-79015380D01*
X33527904Y-37679380D02*
X33527904Y-38488904D01*
X33480285Y-38584142D01*
X33432666Y-38631761D01*
X33337428Y-38679380D01*
X33146952Y-38679380D01*
X33051714Y-38631761D01*
X33004095Y-38584142D01*
X32956476Y-38488904D01*
X32956476Y-37679380D01*
X32051714Y-37679380D02*
X32242190Y-37679380D01*
X32337428Y-37727000D01*
X32385047Y-37774619D01*
X32480285Y-37917476D01*
X32527904Y-38107952D01*
X32527904Y-38488904D01*
X32480285Y-38584142D01*
X32432666Y-38631761D01*
X32337428Y-38679380D01*
X32146952Y-38679380D01*
X32051714Y-38631761D01*
X32004095Y-38584142D01*
X31956476Y-38488904D01*
X31956476Y-38250809D01*
X32004095Y-38155571D01*
X32051714Y-38107952D01*
X32146952Y-38060333D01*
X32337428Y-38060333D01*
X32432666Y-38107952D01*
X32480285Y-38155571D01*
X32527904Y-38250809D01*
X33654904Y-48220380D02*
X33654904Y-49029904D01*
X33607285Y-49125142D01*
X33559666Y-49172761D01*
X33464428Y-49220380D01*
X33273952Y-49220380D01*
X33178714Y-49172761D01*
X33131095Y-49125142D01*
X33083476Y-49029904D01*
X33083476Y-48220380D01*
X32131095Y-48220380D02*
X32607285Y-48220380D01*
X32654904Y-48696571D01*
X32607285Y-48648952D01*
X32512047Y-48601333D01*
X32273952Y-48601333D01*
X32178714Y-48648952D01*
X32131095Y-48696571D01*
X32083476Y-48791809D01*
X32083476Y-49029904D01*
X32131095Y-49125142D01*
X32178714Y-49172761D01*
X32273952Y-49220380D01*
X32512047Y-49220380D01*
X32607285Y-49172761D01*
X32654904Y-49125142D01*
X42163904Y-49236380D02*
X42163904Y-50045904D01*
X42116285Y-50141142D01*
X42068666Y-50188761D01*
X41973428Y-50236380D01*
X41782952Y-50236380D01*
X41687714Y-50188761D01*
X41640095Y-50141142D01*
X41592476Y-50045904D01*
X41592476Y-49236380D01*
X40687714Y-49569714D02*
X40687714Y-50236380D01*
X40925809Y-49188761D02*
X41163904Y-49903047D01*
X40544857Y-49903047D01*
X43560904Y-16851380D02*
X43560904Y-17660904D01*
X43513285Y-17756142D01*
X43465666Y-17803761D01*
X43370428Y-17851380D01*
X43179952Y-17851380D01*
X43084714Y-17803761D01*
X43037095Y-17756142D01*
X42989476Y-17660904D01*
X42989476Y-16851380D01*
X42560904Y-16946619D02*
X42513285Y-16899000D01*
X42418047Y-16851380D01*
X42179952Y-16851380D01*
X42084714Y-16899000D01*
X42037095Y-16946619D01*
X41989476Y-17041857D01*
X41989476Y-17137095D01*
X42037095Y-17279952D01*
X42608523Y-17851380D01*
X41989476Y-17851380D01*
X71969238Y-22042380D02*
X72302571Y-21566190D01*
X72540666Y-22042380D02*
X72540666Y-21042380D01*
X72159714Y-21042380D01*
X72064476Y-21090000D01*
X72016857Y-21137619D01*
X71969238Y-21232857D01*
X71969238Y-21375714D01*
X72016857Y-21470952D01*
X72064476Y-21518571D01*
X72159714Y-21566190D01*
X72540666Y-21566190D01*
X71683523Y-21042380D02*
X71350190Y-22042380D01*
X71016857Y-21042380D01*
X70731142Y-21137619D02*
X70683523Y-21090000D01*
X70588285Y-21042380D01*
X70350190Y-21042380D01*
X70254952Y-21090000D01*
X70207333Y-21137619D01*
X70159714Y-21232857D01*
X70159714Y-21328095D01*
X70207333Y-21470952D01*
X70778761Y-22042380D01*
X70159714Y-22042380D01*
X42886238Y-30551380D02*
X43219571Y-30075190D01*
X43457666Y-30551380D02*
X43457666Y-29551380D01*
X43076714Y-29551380D01*
X42981476Y-29599000D01*
X42933857Y-29646619D01*
X42886238Y-29741857D01*
X42886238Y-29884714D01*
X42933857Y-29979952D01*
X42981476Y-30027571D01*
X43076714Y-30075190D01*
X43457666Y-30075190D01*
X42600523Y-29551380D02*
X42267190Y-30551380D01*
X41933857Y-29551380D01*
X41076714Y-30551380D02*
X41648142Y-30551380D01*
X41362428Y-30551380D02*
X41362428Y-29551380D01*
X41457666Y-29694238D01*
X41552904Y-29789476D01*
X41648142Y-29837095D01*
X78874857Y-64714380D02*
X79208190Y-64238190D01*
X79446285Y-64714380D02*
X79446285Y-63714380D01*
X79065333Y-63714380D01*
X78970095Y-63762000D01*
X78922476Y-63809619D01*
X78874857Y-63904857D01*
X78874857Y-64047714D01*
X78922476Y-64142952D01*
X78970095Y-64190571D01*
X79065333Y-64238190D01*
X79446285Y-64238190D01*
X77970095Y-63714380D02*
X78446285Y-63714380D01*
X78493904Y-64190571D01*
X78446285Y-64142952D01*
X78351047Y-64095333D01*
X78112952Y-64095333D01*
X78017714Y-64142952D01*
X77970095Y-64190571D01*
X77922476Y-64285809D01*
X77922476Y-64523904D01*
X77970095Y-64619142D01*
X78017714Y-64666761D01*
X78112952Y-64714380D01*
X78351047Y-64714380D01*
X78446285Y-64666761D01*
X78493904Y-64619142D01*
X77589142Y-63714380D02*
X76970095Y-63714380D01*
X77303428Y-64095333D01*
X77160571Y-64095333D01*
X77065333Y-64142952D01*
X77017714Y-64190571D01*
X76970095Y-64285809D01*
X76970095Y-64523904D01*
X77017714Y-64619142D01*
X77065333Y-64666761D01*
X77160571Y-64714380D01*
X77446285Y-64714380D01*
X77541523Y-64666761D01*
X77589142Y-64619142D01*
X76715857Y-63444380D02*
X77049190Y-62968190D01*
X77287285Y-63444380D02*
X77287285Y-62444380D01*
X76906333Y-62444380D01*
X76811095Y-62492000D01*
X76763476Y-62539619D01*
X76715857Y-62634857D01*
X76715857Y-62777714D01*
X76763476Y-62872952D01*
X76811095Y-62920571D01*
X76906333Y-62968190D01*
X77287285Y-62968190D01*
X75811095Y-62444380D02*
X76287285Y-62444380D01*
X76334904Y-62920571D01*
X76287285Y-62872952D01*
X76192047Y-62825333D01*
X75953952Y-62825333D01*
X75858714Y-62872952D01*
X75811095Y-62920571D01*
X75763476Y-63015809D01*
X75763476Y-63253904D01*
X75811095Y-63349142D01*
X75858714Y-63396761D01*
X75953952Y-63444380D01*
X76192047Y-63444380D01*
X76287285Y-63396761D01*
X76334904Y-63349142D01*
X75382523Y-62539619D02*
X75334904Y-62492000D01*
X75239666Y-62444380D01*
X75001571Y-62444380D01*
X74906333Y-62492000D01*
X74858714Y-62539619D01*
X74811095Y-62634857D01*
X74811095Y-62730095D01*
X74858714Y-62872952D01*
X75430142Y-63444380D01*
X74811095Y-63444380D01*
X84970857Y-58491380D02*
X85304190Y-58015190D01*
X85542285Y-58491380D02*
X85542285Y-57491380D01*
X85161333Y-57491380D01*
X85066095Y-57539000D01*
X85018476Y-57586619D01*
X84970857Y-57681857D01*
X84970857Y-57824714D01*
X85018476Y-57919952D01*
X85066095Y-57967571D01*
X85161333Y-58015190D01*
X85542285Y-58015190D01*
X84066095Y-57491380D02*
X84542285Y-57491380D01*
X84589904Y-57967571D01*
X84542285Y-57919952D01*
X84447047Y-57872333D01*
X84208952Y-57872333D01*
X84113714Y-57919952D01*
X84066095Y-57967571D01*
X84018476Y-58062809D01*
X84018476Y-58300904D01*
X84066095Y-58396142D01*
X84113714Y-58443761D01*
X84208952Y-58491380D01*
X84447047Y-58491380D01*
X84542285Y-58443761D01*
X84589904Y-58396142D01*
X83399428Y-57491380D02*
X83304190Y-57491380D01*
X83208952Y-57539000D01*
X83161333Y-57586619D01*
X83113714Y-57681857D01*
X83066095Y-57872333D01*
X83066095Y-58110428D01*
X83113714Y-58300904D01*
X83161333Y-58396142D01*
X83208952Y-58443761D01*
X83304190Y-58491380D01*
X83399428Y-58491380D01*
X83494666Y-58443761D01*
X83542285Y-58396142D01*
X83589904Y-58300904D01*
X83637523Y-58110428D01*
X83637523Y-57872333D01*
X83589904Y-57681857D01*
X83542285Y-57586619D01*
X83494666Y-57539000D01*
X83399428Y-57491380D01*
X69222857Y-9342380D02*
X69556190Y-8866190D01*
X69794285Y-9342380D02*
X69794285Y-8342380D01*
X69413333Y-8342380D01*
X69318095Y-8390000D01*
X69270476Y-8437619D01*
X69222857Y-8532857D01*
X69222857Y-8675714D01*
X69270476Y-8770952D01*
X69318095Y-8818571D01*
X69413333Y-8866190D01*
X69794285Y-8866190D01*
X68365714Y-8675714D02*
X68365714Y-9342380D01*
X68603809Y-8294761D02*
X68841904Y-9009047D01*
X68222857Y-9009047D01*
X67937142Y-8342380D02*
X67270476Y-8342380D01*
X67699047Y-9342380D01*
X24137857Y-15184380D02*
X24471190Y-14708190D01*
X24709285Y-15184380D02*
X24709285Y-14184380D01*
X24328333Y-14184380D01*
X24233095Y-14232000D01*
X24185476Y-14279619D01*
X24137857Y-14374857D01*
X24137857Y-14517714D01*
X24185476Y-14612952D01*
X24233095Y-14660571D01*
X24328333Y-14708190D01*
X24709285Y-14708190D01*
X23804523Y-14184380D02*
X23185476Y-14184380D01*
X23518809Y-14565333D01*
X23375952Y-14565333D01*
X23280714Y-14612952D01*
X23233095Y-14660571D01*
X23185476Y-14755809D01*
X23185476Y-14993904D01*
X23233095Y-15089142D01*
X23280714Y-15136761D01*
X23375952Y-15184380D01*
X23661666Y-15184380D01*
X23756904Y-15136761D01*
X23804523Y-15089142D01*
X22852142Y-14184380D02*
X22185476Y-14184380D01*
X22614047Y-15184380D01*
X24010857Y-32710380D02*
X24344190Y-32234190D01*
X24582285Y-32710380D02*
X24582285Y-31710380D01*
X24201333Y-31710380D01*
X24106095Y-31758000D01*
X24058476Y-31805619D01*
X24010857Y-31900857D01*
X24010857Y-32043714D01*
X24058476Y-32138952D01*
X24106095Y-32186571D01*
X24201333Y-32234190D01*
X24582285Y-32234190D01*
X23677523Y-31710380D02*
X23058476Y-31710380D01*
X23391809Y-32091333D01*
X23248952Y-32091333D01*
X23153714Y-32138952D01*
X23106095Y-32186571D01*
X23058476Y-32281809D01*
X23058476Y-32519904D01*
X23106095Y-32615142D01*
X23153714Y-32662761D01*
X23248952Y-32710380D01*
X23534666Y-32710380D01*
X23629904Y-32662761D01*
X23677523Y-32615142D01*
X22677523Y-31805619D02*
X22629904Y-31758000D01*
X22534666Y-31710380D01*
X22296571Y-31710380D01*
X22201333Y-31758000D01*
X22153714Y-31805619D01*
X22106095Y-31900857D01*
X22106095Y-31996095D01*
X22153714Y-32138952D01*
X22725142Y-32710380D01*
X22106095Y-32710380D01*
X27947857Y-38171380D02*
X28281190Y-37695190D01*
X28519285Y-38171380D02*
X28519285Y-37171380D01*
X28138333Y-37171380D01*
X28043095Y-37219000D01*
X27995476Y-37266619D01*
X27947857Y-37361857D01*
X27947857Y-37504714D01*
X27995476Y-37599952D01*
X28043095Y-37647571D01*
X28138333Y-37695190D01*
X28519285Y-37695190D01*
X27614523Y-37171380D02*
X26995476Y-37171380D01*
X27328809Y-37552333D01*
X27185952Y-37552333D01*
X27090714Y-37599952D01*
X27043095Y-37647571D01*
X26995476Y-37742809D01*
X26995476Y-37980904D01*
X27043095Y-38076142D01*
X27090714Y-38123761D01*
X27185952Y-38171380D01*
X27471666Y-38171380D01*
X27566904Y-38123761D01*
X27614523Y-38076142D01*
X26043095Y-38171380D02*
X26614523Y-38171380D01*
X26328809Y-38171380D02*
X26328809Y-37171380D01*
X26424047Y-37314238D01*
X26519285Y-37409476D01*
X26614523Y-37457095D01*
X24137857Y-50236380D02*
X24471190Y-49760190D01*
X24709285Y-50236380D02*
X24709285Y-49236380D01*
X24328333Y-49236380D01*
X24233095Y-49284000D01*
X24185476Y-49331619D01*
X24137857Y-49426857D01*
X24137857Y-49569714D01*
X24185476Y-49664952D01*
X24233095Y-49712571D01*
X24328333Y-49760190D01*
X24709285Y-49760190D01*
X23756904Y-49331619D02*
X23709285Y-49284000D01*
X23614047Y-49236380D01*
X23375952Y-49236380D01*
X23280714Y-49284000D01*
X23233095Y-49331619D01*
X23185476Y-49426857D01*
X23185476Y-49522095D01*
X23233095Y-49664952D01*
X23804523Y-50236380D01*
X23185476Y-50236380D01*
X22614047Y-49664952D02*
X22709285Y-49617333D01*
X22756904Y-49569714D01*
X22804523Y-49474476D01*
X22804523Y-49426857D01*
X22756904Y-49331619D01*
X22709285Y-49284000D01*
X22614047Y-49236380D01*
X22423571Y-49236380D01*
X22328333Y-49284000D01*
X22280714Y-49331619D01*
X22233095Y-49426857D01*
X22233095Y-49474476D01*
X22280714Y-49569714D01*
X22328333Y-49617333D01*
X22423571Y-49664952D01*
X22614047Y-49664952D01*
X22709285Y-49712571D01*
X22756904Y-49760190D01*
X22804523Y-49855428D01*
X22804523Y-50045904D01*
X22756904Y-50141142D01*
X22709285Y-50188761D01*
X22614047Y-50236380D01*
X22423571Y-50236380D01*
X22328333Y-50188761D01*
X22280714Y-50141142D01*
X22233095Y-50045904D01*
X22233095Y-49855428D01*
X22280714Y-49760190D01*
X22328333Y-49712571D01*
X22423571Y-49664952D01*
X31249857Y-53665380D02*
X31583190Y-53189190D01*
X31821285Y-53665380D02*
X31821285Y-52665380D01*
X31440333Y-52665380D01*
X31345095Y-52713000D01*
X31297476Y-52760619D01*
X31249857Y-52855857D01*
X31249857Y-52998714D01*
X31297476Y-53093952D01*
X31345095Y-53141571D01*
X31440333Y-53189190D01*
X31821285Y-53189190D01*
X30297476Y-53665380D02*
X30868904Y-53665380D01*
X30583190Y-53665380D02*
X30583190Y-52665380D01*
X30678428Y-52808238D01*
X30773666Y-52903476D01*
X30868904Y-52951095D01*
X29726047Y-53093952D02*
X29821285Y-53046333D01*
X29868904Y-52998714D01*
X29916523Y-52903476D01*
X29916523Y-52855857D01*
X29868904Y-52760619D01*
X29821285Y-52713000D01*
X29726047Y-52665380D01*
X29535571Y-52665380D01*
X29440333Y-52713000D01*
X29392714Y-52760619D01*
X29345095Y-52855857D01*
X29345095Y-52903476D01*
X29392714Y-52998714D01*
X29440333Y-53046333D01*
X29535571Y-53093952D01*
X29726047Y-53093952D01*
X29821285Y-53141571D01*
X29868904Y-53189190D01*
X29916523Y-53284428D01*
X29916523Y-53474904D01*
X29868904Y-53570142D01*
X29821285Y-53617761D01*
X29726047Y-53665380D01*
X29535571Y-53665380D01*
X29440333Y-53617761D01*
X29392714Y-53570142D01*
X29345095Y-53474904D01*
X29345095Y-53284428D01*
X29392714Y-53189190D01*
X29440333Y-53141571D01*
X29535571Y-53093952D01*
X49696666Y-60523380D02*
X50030000Y-60047190D01*
X50268095Y-60523380D02*
X50268095Y-59523380D01*
X49887142Y-59523380D01*
X49791904Y-59571000D01*
X49744285Y-59618619D01*
X49696666Y-59713857D01*
X49696666Y-59856714D01*
X49744285Y-59951952D01*
X49791904Y-59999571D01*
X49887142Y-60047190D01*
X50268095Y-60047190D01*
X48839523Y-59523380D02*
X49030000Y-59523380D01*
X49125238Y-59571000D01*
X49172857Y-59618619D01*
X49268095Y-59761476D01*
X49315714Y-59951952D01*
X49315714Y-60332904D01*
X49268095Y-60428142D01*
X49220476Y-60475761D01*
X49125238Y-60523380D01*
X48934761Y-60523380D01*
X48839523Y-60475761D01*
X48791904Y-60428142D01*
X48744285Y-60332904D01*
X48744285Y-60094809D01*
X48791904Y-59999571D01*
X48839523Y-59951952D01*
X48934761Y-59904333D01*
X49125238Y-59904333D01*
X49220476Y-59951952D01*
X49268095Y-59999571D01*
X49315714Y-60094809D01*
X44870666Y-13406380D02*
X45204000Y-12930190D01*
X45442095Y-13406380D02*
X45442095Y-12406380D01*
X45061142Y-12406380D01*
X44965904Y-12454000D01*
X44918285Y-12501619D01*
X44870666Y-12596857D01*
X44870666Y-12739714D01*
X44918285Y-12834952D01*
X44965904Y-12882571D01*
X45061142Y-12930190D01*
X45442095Y-12930190D01*
X43965904Y-12406380D02*
X44442095Y-12406380D01*
X44489714Y-12882571D01*
X44442095Y-12834952D01*
X44346857Y-12787333D01*
X44108761Y-12787333D01*
X44013523Y-12834952D01*
X43965904Y-12882571D01*
X43918285Y-12977809D01*
X43918285Y-13215904D01*
X43965904Y-13311142D01*
X44013523Y-13358761D01*
X44108761Y-13406380D01*
X44346857Y-13406380D01*
X44442095Y-13358761D01*
X44489714Y-13311142D01*
X17748238Y-13755619D02*
X17843476Y-13708000D01*
X17938714Y-13612761D01*
X18081571Y-13469904D01*
X18176809Y-13422285D01*
X18272047Y-13422285D01*
X18224428Y-13660380D02*
X18319666Y-13612761D01*
X18414904Y-13517523D01*
X18462523Y-13327047D01*
X18462523Y-12993714D01*
X18414904Y-12803238D01*
X18319666Y-12708000D01*
X18224428Y-12660380D01*
X18033952Y-12660380D01*
X17938714Y-12708000D01*
X17843476Y-12803238D01*
X17795857Y-12993714D01*
X17795857Y-13327047D01*
X17843476Y-13517523D01*
X17938714Y-13612761D01*
X18033952Y-13660380D01*
X18224428Y-13660380D01*
X16891095Y-12660380D02*
X17367285Y-12660380D01*
X17414904Y-13136571D01*
X17367285Y-13088952D01*
X17272047Y-13041333D01*
X17033952Y-13041333D01*
X16938714Y-13088952D01*
X16891095Y-13136571D01*
X16843476Y-13231809D01*
X16843476Y-13469904D01*
X16891095Y-13565142D01*
X16938714Y-13612761D01*
X17033952Y-13660380D01*
X17272047Y-13660380D01*
X17367285Y-13612761D01*
X17414904Y-13565142D01*
X17494238Y-48934619D02*
X17589476Y-48887000D01*
X17684714Y-48791761D01*
X17827571Y-48648904D01*
X17922809Y-48601285D01*
X18018047Y-48601285D01*
X17970428Y-48839380D02*
X18065666Y-48791761D01*
X18160904Y-48696523D01*
X18208523Y-48506047D01*
X18208523Y-48172714D01*
X18160904Y-47982238D01*
X18065666Y-47887000D01*
X17970428Y-47839380D01*
X17779952Y-47839380D01*
X17684714Y-47887000D01*
X17589476Y-47982238D01*
X17541857Y-48172714D01*
X17541857Y-48506047D01*
X17589476Y-48696523D01*
X17684714Y-48791761D01*
X17779952Y-48839380D01*
X17970428Y-48839380D01*
X17208523Y-47839380D02*
X16589476Y-47839380D01*
X16922809Y-48220333D01*
X16779952Y-48220333D01*
X16684714Y-48267952D01*
X16637095Y-48315571D01*
X16589476Y-48410809D01*
X16589476Y-48648904D01*
X16637095Y-48744142D01*
X16684714Y-48791761D01*
X16779952Y-48839380D01*
X17065666Y-48839380D01*
X17160904Y-48791761D01*
X17208523Y-48744142D01*
X33242238Y-24804619D02*
X33337476Y-24757000D01*
X33432714Y-24661761D01*
X33575571Y-24518904D01*
X33670809Y-24471285D01*
X33766047Y-24471285D01*
X33718428Y-24709380D02*
X33813666Y-24661761D01*
X33908904Y-24566523D01*
X33956523Y-24376047D01*
X33956523Y-24042714D01*
X33908904Y-23852238D01*
X33813666Y-23757000D01*
X33718428Y-23709380D01*
X33527952Y-23709380D01*
X33432714Y-23757000D01*
X33337476Y-23852238D01*
X33289857Y-24042714D01*
X33289857Y-24376047D01*
X33337476Y-24566523D01*
X33432714Y-24661761D01*
X33527952Y-24709380D01*
X33718428Y-24709380D01*
X32908904Y-23804619D02*
X32861285Y-23757000D01*
X32766047Y-23709380D01*
X32527952Y-23709380D01*
X32432714Y-23757000D01*
X32385095Y-23804619D01*
X32337476Y-23899857D01*
X32337476Y-23995095D01*
X32385095Y-24137952D01*
X32956523Y-24709380D01*
X32337476Y-24709380D01*
X40862238Y-41695619D02*
X40957476Y-41648000D01*
X41052714Y-41552761D01*
X41195571Y-41409904D01*
X41290809Y-41362285D01*
X41386047Y-41362285D01*
X41338428Y-41600380D02*
X41433666Y-41552761D01*
X41528904Y-41457523D01*
X41576523Y-41267047D01*
X41576523Y-40933714D01*
X41528904Y-40743238D01*
X41433666Y-40648000D01*
X41338428Y-40600380D01*
X41147952Y-40600380D01*
X41052714Y-40648000D01*
X40957476Y-40743238D01*
X40909857Y-40933714D01*
X40909857Y-41267047D01*
X40957476Y-41457523D01*
X41052714Y-41552761D01*
X41147952Y-41600380D01*
X41338428Y-41600380D01*
X39957476Y-41600380D02*
X40528904Y-41600380D01*
X40243190Y-41600380D02*
X40243190Y-40600380D01*
X40338428Y-40743238D01*
X40433666Y-40838476D01*
X40528904Y-40886095D01*
X24463333Y-59396380D02*
X24463333Y-60110666D01*
X24510952Y-60253523D01*
X24606190Y-60348761D01*
X24749047Y-60396380D01*
X24844285Y-60396380D01*
X23558571Y-59396380D02*
X23749047Y-59396380D01*
X23844285Y-59444000D01*
X23891904Y-59491619D01*
X23987142Y-59634476D01*
X24034761Y-59824952D01*
X24034761Y-60205904D01*
X23987142Y-60301142D01*
X23939523Y-60348761D01*
X23844285Y-60396380D01*
X23653809Y-60396380D01*
X23558571Y-60348761D01*
X23510952Y-60301142D01*
X23463333Y-60205904D01*
X23463333Y-59967809D01*
X23510952Y-59872571D01*
X23558571Y-59824952D01*
X23653809Y-59777333D01*
X23844285Y-59777333D01*
X23939523Y-59824952D01*
X23987142Y-59872571D01*
X24034761Y-59967809D01*
X80051333Y-76815380D02*
X80051333Y-77529666D01*
X80098952Y-77672523D01*
X80194190Y-77767761D01*
X80337047Y-77815380D01*
X80432285Y-77815380D01*
X79098952Y-76815380D02*
X79575142Y-76815380D01*
X79622761Y-77291571D01*
X79575142Y-77243952D01*
X79479904Y-77196333D01*
X79241809Y-77196333D01*
X79146571Y-77243952D01*
X79098952Y-77291571D01*
X79051333Y-77386809D01*
X79051333Y-77624904D01*
X79098952Y-77720142D01*
X79146571Y-77767761D01*
X79241809Y-77815380D01*
X79479904Y-77815380D01*
X79575142Y-77767761D01*
X79622761Y-77720142D01*
X76751333Y-84215380D02*
X76751333Y-84929666D01*
X76798952Y-85072523D01*
X76894190Y-85167761D01*
X77037047Y-85215380D01*
X77132285Y-85215380D01*
X76370380Y-84215380D02*
X75751333Y-84215380D01*
X76084666Y-84596333D01*
X75941809Y-84596333D01*
X75846571Y-84643952D01*
X75798952Y-84691571D01*
X75751333Y-84786809D01*
X75751333Y-85024904D01*
X75798952Y-85120142D01*
X75846571Y-85167761D01*
X75941809Y-85215380D01*
X76227523Y-85215380D01*
X76322761Y-85167761D01*
X76370380Y-85120142D01*
X84018285Y-40838380D02*
X84018285Y-39838380D01*
X83780190Y-39838380D01*
X83637333Y-39886000D01*
X83542095Y-39981238D01*
X83494476Y-40076476D01*
X83446857Y-40266952D01*
X83446857Y-40409809D01*
X83494476Y-40600285D01*
X83542095Y-40695523D01*
X83637333Y-40790761D01*
X83780190Y-40838380D01*
X84018285Y-40838380D01*
X82494476Y-40838380D02*
X83065904Y-40838380D01*
X82780190Y-40838380D02*
X82780190Y-39838380D01*
X82875428Y-39981238D01*
X82970666Y-40076476D01*
X83065904Y-40124095D01*
X82161142Y-39838380D02*
X81542095Y-39838380D01*
X81875428Y-40219333D01*
X81732571Y-40219333D01*
X81637333Y-40266952D01*
X81589714Y-40314571D01*
X81542095Y-40409809D01*
X81542095Y-40647904D01*
X81589714Y-40743142D01*
X81637333Y-40790761D01*
X81732571Y-40838380D01*
X82018285Y-40838380D01*
X82113523Y-40790761D01*
X82161142Y-40743142D01*
X82832285Y-11315380D02*
X82832285Y-10315380D01*
X82594190Y-10315380D01*
X82451333Y-10363000D01*
X82356095Y-10458238D01*
X82308476Y-10553476D01*
X82260857Y-10743952D01*
X82260857Y-10886809D01*
X82308476Y-11077285D01*
X82356095Y-11172523D01*
X82451333Y-11267761D01*
X82594190Y-11315380D01*
X82832285Y-11315380D01*
X81308476Y-11315380D02*
X81879904Y-11315380D01*
X81594190Y-11315380D02*
X81594190Y-10315380D01*
X81689428Y-10458238D01*
X81784666Y-10553476D01*
X81879904Y-10601095D01*
X80927523Y-10410619D02*
X80879904Y-10363000D01*
X80784666Y-10315380D01*
X80546571Y-10315380D01*
X80451333Y-10363000D01*
X80403714Y-10410619D01*
X80356095Y-10505857D01*
X80356095Y-10601095D01*
X80403714Y-10743952D01*
X80975142Y-11315380D01*
X80356095Y-11315380D01*
X28551095Y-24582380D02*
X28551095Y-23582380D01*
X28313000Y-23582380D01*
X28170142Y-23630000D01*
X28074904Y-23725238D01*
X28027285Y-23820476D01*
X27979666Y-24010952D01*
X27979666Y-24153809D01*
X28027285Y-24344285D01*
X28074904Y-24439523D01*
X28170142Y-24534761D01*
X28313000Y-24582380D01*
X28551095Y-24582380D01*
X27122523Y-23582380D02*
X27313000Y-23582380D01*
X27408238Y-23630000D01*
X27455857Y-23677619D01*
X27551095Y-23820476D01*
X27598714Y-24010952D01*
X27598714Y-24391904D01*
X27551095Y-24487142D01*
X27503476Y-24534761D01*
X27408238Y-24582380D01*
X27217761Y-24582380D01*
X27122523Y-24534761D01*
X27074904Y-24487142D01*
X27027285Y-24391904D01*
X27027285Y-24153809D01*
X27074904Y-24058571D01*
X27122523Y-24010952D01*
X27217761Y-23963333D01*
X27408238Y-23963333D01*
X27503476Y-24010952D01*
X27551095Y-24058571D01*
X27598714Y-24153809D01*
X47855095Y-17089380D02*
X47855095Y-16089380D01*
X47617000Y-16089380D01*
X47474142Y-16137000D01*
X47378904Y-16232238D01*
X47331285Y-16327476D01*
X47283666Y-16517952D01*
X47283666Y-16660809D01*
X47331285Y-16851285D01*
X47378904Y-16946523D01*
X47474142Y-17041761D01*
X47617000Y-17089380D01*
X47855095Y-17089380D01*
X46378904Y-16089380D02*
X46855095Y-16089380D01*
X46902714Y-16565571D01*
X46855095Y-16517952D01*
X46759857Y-16470333D01*
X46521761Y-16470333D01*
X46426523Y-16517952D01*
X46378904Y-16565571D01*
X46331285Y-16660809D01*
X46331285Y-16898904D01*
X46378904Y-16994142D01*
X46426523Y-17041761D01*
X46521761Y-17089380D01*
X46759857Y-17089380D01*
X46855095Y-17041761D01*
X46902714Y-16994142D01*
X39056095Y-15946380D02*
X39056095Y-14946380D01*
X38818000Y-14946380D01*
X38675142Y-14994000D01*
X38579904Y-15089238D01*
X38532285Y-15184476D01*
X38484666Y-15374952D01*
X38484666Y-15517809D01*
X38532285Y-15708285D01*
X38579904Y-15803523D01*
X38675142Y-15898761D01*
X38818000Y-15946380D01*
X39056095Y-15946380D01*
X37627523Y-15279714D02*
X37627523Y-15946380D01*
X37865619Y-14898761D02*
X38103714Y-15613047D01*
X37484666Y-15613047D01*
X49252095Y-62682380D02*
X49252095Y-61682380D01*
X49014000Y-61682380D01*
X48871142Y-61730000D01*
X48775904Y-61825238D01*
X48728285Y-61920476D01*
X48680666Y-62110952D01*
X48680666Y-62253809D01*
X48728285Y-62444285D01*
X48775904Y-62539523D01*
X48871142Y-62634761D01*
X49014000Y-62682380D01*
X49252095Y-62682380D01*
X48347333Y-61682380D02*
X47728285Y-61682380D01*
X48061619Y-62063333D01*
X47918761Y-62063333D01*
X47823523Y-62110952D01*
X47775904Y-62158571D01*
X47728285Y-62253809D01*
X47728285Y-62491904D01*
X47775904Y-62587142D01*
X47823523Y-62634761D01*
X47918761Y-62682380D01*
X48204476Y-62682380D01*
X48299714Y-62634761D01*
X48347333Y-62587142D01*
X64365095Y-32202380D02*
X64365095Y-31202380D01*
X64127000Y-31202380D01*
X63984142Y-31250000D01*
X63888904Y-31345238D01*
X63841285Y-31440476D01*
X63793666Y-31630952D01*
X63793666Y-31773809D01*
X63841285Y-31964285D01*
X63888904Y-32059523D01*
X63984142Y-32154761D01*
X64127000Y-32202380D01*
X64365095Y-32202380D01*
X63412714Y-31297619D02*
X63365095Y-31250000D01*
X63269857Y-31202380D01*
X63031761Y-31202380D01*
X62936523Y-31250000D01*
X62888904Y-31297619D01*
X62841285Y-31392857D01*
X62841285Y-31488095D01*
X62888904Y-31630952D01*
X63460333Y-32202380D01*
X62841285Y-32202380D01*
X60332857Y-57507142D02*
X60380476Y-57554761D01*
X60523333Y-57602380D01*
X60618571Y-57602380D01*
X60761428Y-57554761D01*
X60856666Y-57459523D01*
X60904285Y-57364285D01*
X60951904Y-57173809D01*
X60951904Y-57030952D01*
X60904285Y-56840476D01*
X60856666Y-56745238D01*
X60761428Y-56650000D01*
X60618571Y-56602380D01*
X60523333Y-56602380D01*
X60380476Y-56650000D01*
X60332857Y-56697619D01*
X59999523Y-56602380D02*
X59380476Y-56602380D01*
X59713809Y-56983333D01*
X59570952Y-56983333D01*
X59475714Y-57030952D01*
X59428095Y-57078571D01*
X59380476Y-57173809D01*
X59380476Y-57411904D01*
X59428095Y-57507142D01*
X59475714Y-57554761D01*
X59570952Y-57602380D01*
X59856666Y-57602380D01*
X59951904Y-57554761D01*
X59999523Y-57507142D01*
X58999523Y-56697619D02*
X58951904Y-56650000D01*
X58856666Y-56602380D01*
X58618571Y-56602380D01*
X58523333Y-56650000D01*
X58475714Y-56697619D01*
X58428095Y-56792857D01*
X58428095Y-56888095D01*
X58475714Y-57030952D01*
X59047142Y-57602380D01*
X58428095Y-57602380D01*
X83573857Y-64492142D02*
X83621476Y-64539761D01*
X83764333Y-64587380D01*
X83859571Y-64587380D01*
X84002428Y-64539761D01*
X84097666Y-64444523D01*
X84145285Y-64349285D01*
X84192904Y-64158809D01*
X84192904Y-64015952D01*
X84145285Y-63825476D01*
X84097666Y-63730238D01*
X84002428Y-63635000D01*
X83859571Y-63587380D01*
X83764333Y-63587380D01*
X83621476Y-63635000D01*
X83573857Y-63682619D01*
X83240523Y-63587380D02*
X82621476Y-63587380D01*
X82954809Y-63968333D01*
X82811952Y-63968333D01*
X82716714Y-64015952D01*
X82669095Y-64063571D01*
X82621476Y-64158809D01*
X82621476Y-64396904D01*
X82669095Y-64492142D01*
X82716714Y-64539761D01*
X82811952Y-64587380D01*
X83097666Y-64587380D01*
X83192904Y-64539761D01*
X83240523Y-64492142D01*
X81669095Y-64587380D02*
X82240523Y-64587380D01*
X81954809Y-64587380D02*
X81954809Y-63587380D01*
X82050047Y-63730238D01*
X82145285Y-63825476D01*
X82240523Y-63873095D01*
X70238857Y-60936142D02*
X70286476Y-60983761D01*
X70429333Y-61031380D01*
X70524571Y-61031380D01*
X70667428Y-60983761D01*
X70762666Y-60888523D01*
X70810285Y-60793285D01*
X70857904Y-60602809D01*
X70857904Y-60459952D01*
X70810285Y-60269476D01*
X70762666Y-60174238D01*
X70667428Y-60079000D01*
X70524571Y-60031380D01*
X70429333Y-60031380D01*
X70286476Y-60079000D01*
X70238857Y-60126619D01*
X69857904Y-60126619D02*
X69810285Y-60079000D01*
X69715047Y-60031380D01*
X69476952Y-60031380D01*
X69381714Y-60079000D01*
X69334095Y-60126619D01*
X69286476Y-60221857D01*
X69286476Y-60317095D01*
X69334095Y-60459952D01*
X69905523Y-61031380D01*
X69286476Y-61031380D01*
X68810285Y-61031380D02*
X68619809Y-61031380D01*
X68524571Y-60983761D01*
X68476952Y-60936142D01*
X68381714Y-60793285D01*
X68334095Y-60602809D01*
X68334095Y-60221857D01*
X68381714Y-60126619D01*
X68429333Y-60079000D01*
X68524571Y-60031380D01*
X68715047Y-60031380D01*
X68810285Y-60079000D01*
X68857904Y-60126619D01*
X68905523Y-60221857D01*
X68905523Y-60459952D01*
X68857904Y-60555190D01*
X68810285Y-60602809D01*
X68715047Y-60650428D01*
X68524571Y-60650428D01*
X68429333Y-60602809D01*
X68381714Y-60555190D01*
X68334095Y-60459952D01*
X73032857Y-39346142D02*
X73080476Y-39393761D01*
X73223333Y-39441380D01*
X73318571Y-39441380D01*
X73461428Y-39393761D01*
X73556666Y-39298523D01*
X73604285Y-39203285D01*
X73651904Y-39012809D01*
X73651904Y-38869952D01*
X73604285Y-38679476D01*
X73556666Y-38584238D01*
X73461428Y-38489000D01*
X73318571Y-38441380D01*
X73223333Y-38441380D01*
X73080476Y-38489000D01*
X73032857Y-38536619D01*
X72651904Y-38536619D02*
X72604285Y-38489000D01*
X72509047Y-38441380D01*
X72270952Y-38441380D01*
X72175714Y-38489000D01*
X72128095Y-38536619D01*
X72080476Y-38631857D01*
X72080476Y-38727095D01*
X72128095Y-38869952D01*
X72699523Y-39441380D01*
X72080476Y-39441380D01*
X71509047Y-38869952D02*
X71604285Y-38822333D01*
X71651904Y-38774714D01*
X71699523Y-38679476D01*
X71699523Y-38631857D01*
X71651904Y-38536619D01*
X71604285Y-38489000D01*
X71509047Y-38441380D01*
X71318571Y-38441380D01*
X71223333Y-38489000D01*
X71175714Y-38536619D01*
X71128095Y-38631857D01*
X71128095Y-38679476D01*
X71175714Y-38774714D01*
X71223333Y-38822333D01*
X71318571Y-38869952D01*
X71509047Y-38869952D01*
X71604285Y-38917571D01*
X71651904Y-38965190D01*
X71699523Y-39060428D01*
X71699523Y-39250904D01*
X71651904Y-39346142D01*
X71604285Y-39393761D01*
X71509047Y-39441380D01*
X71318571Y-39441380D01*
X71223333Y-39393761D01*
X71175714Y-39346142D01*
X71128095Y-39250904D01*
X71128095Y-39060428D01*
X71175714Y-38965190D01*
X71223333Y-38917571D01*
X71318571Y-38869952D01*
X87383857Y-34520142D02*
X87431476Y-34567761D01*
X87574333Y-34615380D01*
X87669571Y-34615380D01*
X87812428Y-34567761D01*
X87907666Y-34472523D01*
X87955285Y-34377285D01*
X88002904Y-34186809D01*
X88002904Y-34043952D01*
X87955285Y-33853476D01*
X87907666Y-33758238D01*
X87812428Y-33663000D01*
X87669571Y-33615380D01*
X87574333Y-33615380D01*
X87431476Y-33663000D01*
X87383857Y-33710619D01*
X87002904Y-33710619D02*
X86955285Y-33663000D01*
X86860047Y-33615380D01*
X86621952Y-33615380D01*
X86526714Y-33663000D01*
X86479095Y-33710619D01*
X86431476Y-33805857D01*
X86431476Y-33901095D01*
X86479095Y-34043952D01*
X87050523Y-34615380D01*
X86431476Y-34615380D01*
X86098142Y-33615380D02*
X85431476Y-33615380D01*
X85860047Y-34615380D01*
X78112857Y-28678142D02*
X78160476Y-28725761D01*
X78303333Y-28773380D01*
X78398571Y-28773380D01*
X78541428Y-28725761D01*
X78636666Y-28630523D01*
X78684285Y-28535285D01*
X78731904Y-28344809D01*
X78731904Y-28201952D01*
X78684285Y-28011476D01*
X78636666Y-27916238D01*
X78541428Y-27821000D01*
X78398571Y-27773380D01*
X78303333Y-27773380D01*
X78160476Y-27821000D01*
X78112857Y-27868619D01*
X77731904Y-27868619D02*
X77684285Y-27821000D01*
X77589047Y-27773380D01*
X77350952Y-27773380D01*
X77255714Y-27821000D01*
X77208095Y-27868619D01*
X77160476Y-27963857D01*
X77160476Y-28059095D01*
X77208095Y-28201952D01*
X77779523Y-28773380D01*
X77160476Y-28773380D01*
X76303333Y-27773380D02*
X76493809Y-27773380D01*
X76589047Y-27821000D01*
X76636666Y-27868619D01*
X76731904Y-28011476D01*
X76779523Y-28201952D01*
X76779523Y-28582904D01*
X76731904Y-28678142D01*
X76684285Y-28725761D01*
X76589047Y-28773380D01*
X76398571Y-28773380D01*
X76303333Y-28725761D01*
X76255714Y-28678142D01*
X76208095Y-28582904D01*
X76208095Y-28344809D01*
X76255714Y-28249571D01*
X76303333Y-28201952D01*
X76398571Y-28154333D01*
X76589047Y-28154333D01*
X76684285Y-28201952D01*
X76731904Y-28249571D01*
X76779523Y-28344809D01*
X78366857Y-21820142D02*
X78414476Y-21867761D01*
X78557333Y-21915380D01*
X78652571Y-21915380D01*
X78795428Y-21867761D01*
X78890666Y-21772523D01*
X78938285Y-21677285D01*
X78985904Y-21486809D01*
X78985904Y-21343952D01*
X78938285Y-21153476D01*
X78890666Y-21058238D01*
X78795428Y-20963000D01*
X78652571Y-20915380D01*
X78557333Y-20915380D01*
X78414476Y-20963000D01*
X78366857Y-21010619D01*
X77985904Y-21010619D02*
X77938285Y-20963000D01*
X77843047Y-20915380D01*
X77604952Y-20915380D01*
X77509714Y-20963000D01*
X77462095Y-21010619D01*
X77414476Y-21105857D01*
X77414476Y-21201095D01*
X77462095Y-21343952D01*
X78033523Y-21915380D01*
X77414476Y-21915380D01*
X77081142Y-20915380D02*
X76462095Y-20915380D01*
X76795428Y-21296333D01*
X76652571Y-21296333D01*
X76557333Y-21343952D01*
X76509714Y-21391571D01*
X76462095Y-21486809D01*
X76462095Y-21724904D01*
X76509714Y-21820142D01*
X76557333Y-21867761D01*
X76652571Y-21915380D01*
X76938285Y-21915380D01*
X77033523Y-21867761D01*
X77081142Y-21820142D01*
X50934857Y-11279142D02*
X50982476Y-11326761D01*
X51125333Y-11374380D01*
X51220571Y-11374380D01*
X51363428Y-11326761D01*
X51458666Y-11231523D01*
X51506285Y-11136285D01*
X51553904Y-10945809D01*
X51553904Y-10802952D01*
X51506285Y-10612476D01*
X51458666Y-10517238D01*
X51363428Y-10422000D01*
X51220571Y-10374380D01*
X51125333Y-10374380D01*
X50982476Y-10422000D01*
X50934857Y-10469619D01*
X50553904Y-10469619D02*
X50506285Y-10422000D01*
X50411047Y-10374380D01*
X50172952Y-10374380D01*
X50077714Y-10422000D01*
X50030095Y-10469619D01*
X49982476Y-10564857D01*
X49982476Y-10660095D01*
X50030095Y-10802952D01*
X50601523Y-11374380D01*
X49982476Y-11374380D01*
X49601523Y-10469619D02*
X49553904Y-10422000D01*
X49458666Y-10374380D01*
X49220571Y-10374380D01*
X49125333Y-10422000D01*
X49077714Y-10469619D01*
X49030095Y-10564857D01*
X49030095Y-10660095D01*
X49077714Y-10802952D01*
X49649142Y-11374380D01*
X49030095Y-11374380D01*
X74175857Y-10517142D02*
X74223476Y-10564761D01*
X74366333Y-10612380D01*
X74461571Y-10612380D01*
X74604428Y-10564761D01*
X74699666Y-10469523D01*
X74747285Y-10374285D01*
X74794904Y-10183809D01*
X74794904Y-10040952D01*
X74747285Y-9850476D01*
X74699666Y-9755238D01*
X74604428Y-9660000D01*
X74461571Y-9612380D01*
X74366333Y-9612380D01*
X74223476Y-9660000D01*
X74175857Y-9707619D01*
X73794904Y-9707619D02*
X73747285Y-9660000D01*
X73652047Y-9612380D01*
X73413952Y-9612380D01*
X73318714Y-9660000D01*
X73271095Y-9707619D01*
X73223476Y-9802857D01*
X73223476Y-9898095D01*
X73271095Y-10040952D01*
X73842523Y-10612380D01*
X73223476Y-10612380D01*
X72604428Y-9612380D02*
X72509190Y-9612380D01*
X72413952Y-9660000D01*
X72366333Y-9707619D01*
X72318714Y-9802857D01*
X72271095Y-9993333D01*
X72271095Y-10231428D01*
X72318714Y-10421904D01*
X72366333Y-10517142D01*
X72413952Y-10564761D01*
X72509190Y-10612380D01*
X72604428Y-10612380D01*
X72699666Y-10564761D01*
X72747285Y-10517142D01*
X72794904Y-10421904D01*
X72842523Y-10231428D01*
X72842523Y-9993333D01*
X72794904Y-9802857D01*
X72747285Y-9707619D01*
X72699666Y-9660000D01*
X72604428Y-9612380D01*
X67952857Y-19915142D02*
X68000476Y-19962761D01*
X68143333Y-20010380D01*
X68238571Y-20010380D01*
X68381428Y-19962761D01*
X68476666Y-19867523D01*
X68524285Y-19772285D01*
X68571904Y-19581809D01*
X68571904Y-19438952D01*
X68524285Y-19248476D01*
X68476666Y-19153238D01*
X68381428Y-19058000D01*
X68238571Y-19010380D01*
X68143333Y-19010380D01*
X68000476Y-19058000D01*
X67952857Y-19105619D01*
X67000476Y-20010380D02*
X67571904Y-20010380D01*
X67286190Y-20010380D02*
X67286190Y-19010380D01*
X67381428Y-19153238D01*
X67476666Y-19248476D01*
X67571904Y-19296095D01*
X66667142Y-19010380D02*
X66000476Y-19010380D01*
X66429047Y-20010380D01*
X65412857Y-10009142D02*
X65460476Y-10056761D01*
X65603333Y-10104380D01*
X65698571Y-10104380D01*
X65841428Y-10056761D01*
X65936666Y-9961523D01*
X65984285Y-9866285D01*
X66031904Y-9675809D01*
X66031904Y-9532952D01*
X65984285Y-9342476D01*
X65936666Y-9247238D01*
X65841428Y-9152000D01*
X65698571Y-9104380D01*
X65603333Y-9104380D01*
X65460476Y-9152000D01*
X65412857Y-9199619D01*
X64460476Y-10104380D02*
X65031904Y-10104380D01*
X64746190Y-10104380D02*
X64746190Y-9104380D01*
X64841428Y-9247238D01*
X64936666Y-9342476D01*
X65031904Y-9390095D01*
X63603333Y-9104380D02*
X63793809Y-9104380D01*
X63889047Y-9152000D01*
X63936666Y-9199619D01*
X64031904Y-9342476D01*
X64079523Y-9532952D01*
X64079523Y-9913904D01*
X64031904Y-10009142D01*
X63984285Y-10056761D01*
X63889047Y-10104380D01*
X63698571Y-10104380D01*
X63603333Y-10056761D01*
X63555714Y-10009142D01*
X63508095Y-9913904D01*
X63508095Y-9675809D01*
X63555714Y-9580571D01*
X63603333Y-9532952D01*
X63698571Y-9485333D01*
X63889047Y-9485333D01*
X63984285Y-9532952D01*
X64031904Y-9580571D01*
X64079523Y-9675809D01*
X27660857Y-74220142D02*
X27708476Y-74267761D01*
X27851333Y-74315380D01*
X27946571Y-74315380D01*
X28089428Y-74267761D01*
X28184666Y-74172523D01*
X28232285Y-74077285D01*
X28279904Y-73886809D01*
X28279904Y-73743952D01*
X28232285Y-73553476D01*
X28184666Y-73458238D01*
X28089428Y-73363000D01*
X27946571Y-73315380D01*
X27851333Y-73315380D01*
X27708476Y-73363000D01*
X27660857Y-73410619D01*
X26708476Y-74315380D02*
X27279904Y-74315380D01*
X26994190Y-74315380D02*
X26994190Y-73315380D01*
X27089428Y-73458238D01*
X27184666Y-73553476D01*
X27279904Y-73601095D01*
X26327523Y-73410619D02*
X26279904Y-73363000D01*
X26184666Y-73315380D01*
X25946571Y-73315380D01*
X25851333Y-73363000D01*
X25803714Y-73410619D01*
X25756095Y-73505857D01*
X25756095Y-73601095D01*
X25803714Y-73743952D01*
X26375142Y-74315380D01*
X25756095Y-74315380D01*
X39560857Y-91720142D02*
X39608476Y-91767761D01*
X39751333Y-91815380D01*
X39846571Y-91815380D01*
X39989428Y-91767761D01*
X40084666Y-91672523D01*
X40132285Y-91577285D01*
X40179904Y-91386809D01*
X40179904Y-91243952D01*
X40132285Y-91053476D01*
X40084666Y-90958238D01*
X39989428Y-90863000D01*
X39846571Y-90815380D01*
X39751333Y-90815380D01*
X39608476Y-90863000D01*
X39560857Y-90910619D01*
X38608476Y-91815380D02*
X39179904Y-91815380D01*
X38894190Y-91815380D02*
X38894190Y-90815380D01*
X38989428Y-90958238D01*
X39084666Y-91053476D01*
X39179904Y-91101095D01*
X37656095Y-91815380D02*
X38227523Y-91815380D01*
X37941809Y-91815380D02*
X37941809Y-90815380D01*
X38037047Y-90958238D01*
X38132285Y-91053476D01*
X38227523Y-91101095D01*
X26709666Y-30837142D02*
X26757285Y-30884761D01*
X26900142Y-30932380D01*
X26995380Y-30932380D01*
X27138238Y-30884761D01*
X27233476Y-30789523D01*
X27281095Y-30694285D01*
X27328714Y-30503809D01*
X27328714Y-30360952D01*
X27281095Y-30170476D01*
X27233476Y-30075238D01*
X27138238Y-29980000D01*
X26995380Y-29932380D01*
X26900142Y-29932380D01*
X26757285Y-29980000D01*
X26709666Y-30027619D01*
X25852523Y-29932380D02*
X26043000Y-29932380D01*
X26138238Y-29980000D01*
X26185857Y-30027619D01*
X26281095Y-30170476D01*
X26328714Y-30360952D01*
X26328714Y-30741904D01*
X26281095Y-30837142D01*
X26233476Y-30884761D01*
X26138238Y-30932380D01*
X25947761Y-30932380D01*
X25852523Y-30884761D01*
X25804904Y-30837142D01*
X25757285Y-30741904D01*
X25757285Y-30503809D01*
X25804904Y-30408571D01*
X25852523Y-30360952D01*
X25947761Y-30313333D01*
X26138238Y-30313333D01*
X26233476Y-30360952D01*
X26281095Y-30408571D01*
X26328714Y-30503809D01*
X48426666Y-53697142D02*
X48474285Y-53744761D01*
X48617142Y-53792380D01*
X48712380Y-53792380D01*
X48855238Y-53744761D01*
X48950476Y-53649523D01*
X48998095Y-53554285D01*
X49045714Y-53363809D01*
X49045714Y-53220952D01*
X48998095Y-53030476D01*
X48950476Y-52935238D01*
X48855238Y-52840000D01*
X48712380Y-52792380D01*
X48617142Y-52792380D01*
X48474285Y-52840000D01*
X48426666Y-52887619D01*
X47521904Y-52792380D02*
X47998095Y-52792380D01*
X48045714Y-53268571D01*
X47998095Y-53220952D01*
X47902857Y-53173333D01*
X47664761Y-53173333D01*
X47569523Y-53220952D01*
X47521904Y-53268571D01*
X47474285Y-53363809D01*
X47474285Y-53601904D01*
X47521904Y-53697142D01*
X47569523Y-53744761D01*
X47664761Y-53792380D01*
X47902857Y-53792380D01*
X47998095Y-53744761D01*
X48045714Y-53697142D01*
X47537666Y-20296142D02*
X47585285Y-20343761D01*
X47728142Y-20391380D01*
X47823380Y-20391380D01*
X47966238Y-20343761D01*
X48061476Y-20248523D01*
X48109095Y-20153285D01*
X48156714Y-19962809D01*
X48156714Y-19819952D01*
X48109095Y-19629476D01*
X48061476Y-19534238D01*
X47966238Y-19439000D01*
X47823380Y-19391380D01*
X47728142Y-19391380D01*
X47585285Y-19439000D01*
X47537666Y-19486619D01*
X46680523Y-19724714D02*
X46680523Y-20391380D01*
X46918619Y-19343761D02*
X47156714Y-20058047D01*
X46537666Y-20058047D01*
X46648666Y-14454142D02*
X46696285Y-14501761D01*
X46839142Y-14549380D01*
X46934380Y-14549380D01*
X47077238Y-14501761D01*
X47172476Y-14406523D01*
X47220095Y-14311285D01*
X47267714Y-14120809D01*
X47267714Y-13977952D01*
X47220095Y-13787476D01*
X47172476Y-13692238D01*
X47077238Y-13597000D01*
X46934380Y-13549380D01*
X46839142Y-13549380D01*
X46696285Y-13597000D01*
X46648666Y-13644619D01*
X46315333Y-13549380D02*
X45696285Y-13549380D01*
X46029619Y-13930333D01*
X45886761Y-13930333D01*
X45791523Y-13977952D01*
X45743904Y-14025571D01*
X45696285Y-14120809D01*
X45696285Y-14358904D01*
X45743904Y-14454142D01*
X45791523Y-14501761D01*
X45886761Y-14549380D01*
X46172476Y-14549380D01*
X46267714Y-14501761D01*
X46315333Y-14454142D01*
X46784666Y-12168142D02*
X46832285Y-12215761D01*
X46975142Y-12263380D01*
X47070380Y-12263380D01*
X47213238Y-12215761D01*
X47308476Y-12120523D01*
X47356095Y-12025285D01*
X47403714Y-11834809D01*
X47403714Y-11691952D01*
X47356095Y-11501476D01*
X47308476Y-11406238D01*
X47213238Y-11311000D01*
X47070380Y-11263380D01*
X46975142Y-11263380D01*
X46832285Y-11311000D01*
X46784666Y-11358619D01*
X46403714Y-11358619D02*
X46356095Y-11311000D01*
X46260857Y-11263380D01*
X46022761Y-11263380D01*
X45927523Y-11311000D01*
X45879904Y-11358619D01*
X45832285Y-11453857D01*
X45832285Y-11549095D01*
X45879904Y-11691952D01*
X46451333Y-12263380D01*
X45832285Y-12263380D01*
X42838666Y-13184142D02*
X42886285Y-13231761D01*
X43029142Y-13279380D01*
X43124380Y-13279380D01*
X43267238Y-13231761D01*
X43362476Y-13136523D01*
X43410095Y-13041285D01*
X43457714Y-12850809D01*
X43457714Y-12707952D01*
X43410095Y-12517476D01*
X43362476Y-12422238D01*
X43267238Y-12327000D01*
X43124380Y-12279380D01*
X43029142Y-12279380D01*
X42886285Y-12327000D01*
X42838666Y-12374619D01*
X41886285Y-13279380D02*
X42457714Y-13279380D01*
X42172000Y-13279380D02*
X42172000Y-12279380D01*
X42267238Y-12422238D01*
X42362476Y-12517476D01*
X42457714Y-12565095D01*
X56610095Y-56729380D02*
X56610095Y-57538904D01*
X56562476Y-57634142D01*
X56514857Y-57681761D01*
X56419619Y-57729380D01*
X56229142Y-57729380D01*
X56133904Y-57681761D01*
X56086285Y-57634142D01*
X56038666Y-57538904D01*
X56038666Y-56729380D01*
X55038666Y-57729380D02*
X55610095Y-57729380D01*
X55324380Y-57729380D02*
X55324380Y-56729380D01*
X55419619Y-56872238D01*
X55514857Y-56967476D01*
X55610095Y-57015095D01*
X54657714Y-56824619D02*
X54610095Y-56777000D01*
X54514857Y-56729380D01*
X54276761Y-56729380D01*
X54181523Y-56777000D01*
X54133904Y-56824619D01*
X54086285Y-56919857D01*
X54086285Y-57015095D01*
X54133904Y-57157952D01*
X54705333Y-57729380D01*
X54086285Y-57729380D01*
X81629095Y-62317380D02*
X81629095Y-63126904D01*
X81581476Y-63222142D01*
X81533857Y-63269761D01*
X81438619Y-63317380D01*
X81248142Y-63317380D01*
X81152904Y-63269761D01*
X81105285Y-63222142D01*
X81057666Y-63126904D01*
X81057666Y-62317380D01*
X80057666Y-63317380D02*
X80629095Y-63317380D01*
X80343380Y-63317380D02*
X80343380Y-62317380D01*
X80438619Y-62460238D01*
X80533857Y-62555476D01*
X80629095Y-62603095D01*
X79105285Y-63317380D02*
X79676714Y-63317380D01*
X79391000Y-63317380D02*
X79391000Y-62317380D01*
X79486238Y-62460238D01*
X79581476Y-62555476D01*
X79676714Y-62603095D01*
X34416904Y-31837380D02*
X34416904Y-32646904D01*
X34369285Y-32742142D01*
X34321666Y-32789761D01*
X34226428Y-32837380D01*
X34035952Y-32837380D01*
X33940714Y-32789761D01*
X33893095Y-32742142D01*
X33845476Y-32646904D01*
X33845476Y-31837380D01*
X33464523Y-31837380D02*
X32845476Y-31837380D01*
X33178809Y-32218333D01*
X33035952Y-32218333D01*
X32940714Y-32265952D01*
X32893095Y-32313571D01*
X32845476Y-32408809D01*
X32845476Y-32646904D01*
X32893095Y-32742142D01*
X32940714Y-32789761D01*
X33035952Y-32837380D01*
X33321666Y-32837380D01*
X33416904Y-32789761D01*
X33464523Y-32742142D01*
X84970857Y-63190380D02*
X85304190Y-62714190D01*
X85542285Y-63190380D02*
X85542285Y-62190380D01*
X85161333Y-62190380D01*
X85066095Y-62238000D01*
X85018476Y-62285619D01*
X84970857Y-62380857D01*
X84970857Y-62523714D01*
X85018476Y-62618952D01*
X85066095Y-62666571D01*
X85161333Y-62714190D01*
X85542285Y-62714190D01*
X84066095Y-62190380D02*
X84542285Y-62190380D01*
X84589904Y-62666571D01*
X84542285Y-62618952D01*
X84447047Y-62571333D01*
X84208952Y-62571333D01*
X84113714Y-62618952D01*
X84066095Y-62666571D01*
X84018476Y-62761809D01*
X84018476Y-62999904D01*
X84066095Y-63095142D01*
X84113714Y-63142761D01*
X84208952Y-63190380D01*
X84447047Y-63190380D01*
X84542285Y-63142761D01*
X84589904Y-63095142D01*
X83161333Y-62523714D02*
X83161333Y-63190380D01*
X83399428Y-62142761D02*
X83637523Y-62857047D01*
X83018476Y-62857047D01*
X78874857Y-60777380D02*
X79208190Y-60301190D01*
X79446285Y-60777380D02*
X79446285Y-59777380D01*
X79065333Y-59777380D01*
X78970095Y-59825000D01*
X78922476Y-59872619D01*
X78874857Y-59967857D01*
X78874857Y-60110714D01*
X78922476Y-60205952D01*
X78970095Y-60253571D01*
X79065333Y-60301190D01*
X79446285Y-60301190D01*
X77970095Y-59777380D02*
X78446285Y-59777380D01*
X78493904Y-60253571D01*
X78446285Y-60205952D01*
X78351047Y-60158333D01*
X78112952Y-60158333D01*
X78017714Y-60205952D01*
X77970095Y-60253571D01*
X77922476Y-60348809D01*
X77922476Y-60586904D01*
X77970095Y-60682142D01*
X78017714Y-60729761D01*
X78112952Y-60777380D01*
X78351047Y-60777380D01*
X78446285Y-60729761D01*
X78493904Y-60682142D01*
X76970095Y-60777380D02*
X77541523Y-60777380D01*
X77255809Y-60777380D02*
X77255809Y-59777380D01*
X77351047Y-59920238D01*
X77446285Y-60015476D01*
X77541523Y-60063095D01*
X31660857Y-82015380D02*
X31994190Y-81539190D01*
X32232285Y-82015380D02*
X32232285Y-81015380D01*
X31851333Y-81015380D01*
X31756095Y-81063000D01*
X31708476Y-81110619D01*
X31660857Y-81205857D01*
X31660857Y-81348714D01*
X31708476Y-81443952D01*
X31756095Y-81491571D01*
X31851333Y-81539190D01*
X32232285Y-81539190D01*
X30803714Y-81348714D02*
X30803714Y-82015380D01*
X31041809Y-80967761D02*
X31279904Y-81682047D01*
X30660857Y-81682047D01*
X30327523Y-81110619D02*
X30279904Y-81063000D01*
X30184666Y-81015380D01*
X29946571Y-81015380D01*
X29851333Y-81063000D01*
X29803714Y-81110619D01*
X29756095Y-81205857D01*
X29756095Y-81301095D01*
X29803714Y-81443952D01*
X30375142Y-82015380D01*
X29756095Y-82015380D01*
X22613857Y-19629380D02*
X22947190Y-19153190D01*
X23185285Y-19629380D02*
X23185285Y-18629380D01*
X22804333Y-18629380D01*
X22709095Y-18677000D01*
X22661476Y-18724619D01*
X22613857Y-18819857D01*
X22613857Y-18962714D01*
X22661476Y-19057952D01*
X22709095Y-19105571D01*
X22804333Y-19153190D01*
X23185285Y-19153190D01*
X22280523Y-18629380D02*
X21661476Y-18629380D01*
X21994809Y-19010333D01*
X21851952Y-19010333D01*
X21756714Y-19057952D01*
X21709095Y-19105571D01*
X21661476Y-19200809D01*
X21661476Y-19438904D01*
X21709095Y-19534142D01*
X21756714Y-19581761D01*
X21851952Y-19629380D01*
X22137666Y-19629380D01*
X22232904Y-19581761D01*
X22280523Y-19534142D01*
X20804333Y-18629380D02*
X20994809Y-18629380D01*
X21090047Y-18677000D01*
X21137666Y-18724619D01*
X21232904Y-18867476D01*
X21280523Y-19057952D01*
X21280523Y-19438904D01*
X21232904Y-19534142D01*
X21185285Y-19581761D01*
X21090047Y-19629380D01*
X20899571Y-19629380D01*
X20804333Y-19581761D01*
X20756714Y-19534142D01*
X20709095Y-19438904D01*
X20709095Y-19200809D01*
X20756714Y-19105571D01*
X20804333Y-19057952D01*
X20899571Y-19010333D01*
X21090047Y-19010333D01*
X21185285Y-19057952D01*
X21232904Y-19105571D01*
X21280523Y-19200809D01*
X21851857Y-26614380D02*
X22185190Y-26138190D01*
X22423285Y-26614380D02*
X22423285Y-25614380D01*
X22042333Y-25614380D01*
X21947095Y-25662000D01*
X21899476Y-25709619D01*
X21851857Y-25804857D01*
X21851857Y-25947714D01*
X21899476Y-26042952D01*
X21947095Y-26090571D01*
X22042333Y-26138190D01*
X22423285Y-26138190D01*
X21518523Y-25614380D02*
X20899476Y-25614380D01*
X21232809Y-25995333D01*
X21089952Y-25995333D01*
X20994714Y-26042952D01*
X20947095Y-26090571D01*
X20899476Y-26185809D01*
X20899476Y-26423904D01*
X20947095Y-26519142D01*
X20994714Y-26566761D01*
X21089952Y-26614380D01*
X21375666Y-26614380D01*
X21470904Y-26566761D01*
X21518523Y-26519142D01*
X19994714Y-25614380D02*
X20470904Y-25614380D01*
X20518523Y-26090571D01*
X20470904Y-26042952D01*
X20375666Y-25995333D01*
X20137571Y-25995333D01*
X20042333Y-26042952D01*
X19994714Y-26090571D01*
X19947095Y-26185809D01*
X19947095Y-26423904D01*
X19994714Y-26519142D01*
X20042333Y-26566761D01*
X20137571Y-26614380D01*
X20375666Y-26614380D01*
X20470904Y-26566761D01*
X20518523Y-26519142D01*
X38361857Y-37536380D02*
X38695190Y-37060190D01*
X38933285Y-37536380D02*
X38933285Y-36536380D01*
X38552333Y-36536380D01*
X38457095Y-36584000D01*
X38409476Y-36631619D01*
X38361857Y-36726857D01*
X38361857Y-36869714D01*
X38409476Y-36964952D01*
X38457095Y-37012571D01*
X38552333Y-37060190D01*
X38933285Y-37060190D01*
X38028523Y-36536380D02*
X37409476Y-36536380D01*
X37742809Y-36917333D01*
X37599952Y-36917333D01*
X37504714Y-36964952D01*
X37457095Y-37012571D01*
X37409476Y-37107809D01*
X37409476Y-37345904D01*
X37457095Y-37441142D01*
X37504714Y-37488761D01*
X37599952Y-37536380D01*
X37885666Y-37536380D01*
X37980904Y-37488761D01*
X38028523Y-37441142D01*
X36552333Y-36869714D02*
X36552333Y-37536380D01*
X36790428Y-36488761D02*
X37028523Y-37203047D01*
X36409476Y-37203047D01*
X31376857Y-42616380D02*
X31710190Y-42140190D01*
X31948285Y-42616380D02*
X31948285Y-41616380D01*
X31567333Y-41616380D01*
X31472095Y-41664000D01*
X31424476Y-41711619D01*
X31376857Y-41806857D01*
X31376857Y-41949714D01*
X31424476Y-42044952D01*
X31472095Y-42092571D01*
X31567333Y-42140190D01*
X31948285Y-42140190D01*
X31043523Y-41616380D02*
X30424476Y-41616380D01*
X30757809Y-41997333D01*
X30614952Y-41997333D01*
X30519714Y-42044952D01*
X30472095Y-42092571D01*
X30424476Y-42187809D01*
X30424476Y-42425904D01*
X30472095Y-42521142D01*
X30519714Y-42568761D01*
X30614952Y-42616380D01*
X30900666Y-42616380D01*
X30995904Y-42568761D01*
X31043523Y-42521142D01*
X30091142Y-41616380D02*
X29472095Y-41616380D01*
X29805428Y-41997333D01*
X29662571Y-41997333D01*
X29567333Y-42044952D01*
X29519714Y-42092571D01*
X29472095Y-42187809D01*
X29472095Y-42425904D01*
X29519714Y-42521142D01*
X29567333Y-42568761D01*
X29662571Y-42616380D01*
X29948285Y-42616380D01*
X30043523Y-42568761D01*
X30091142Y-42521142D01*
X38615857Y-49093380D02*
X38949190Y-48617190D01*
X39187285Y-49093380D02*
X39187285Y-48093380D01*
X38806333Y-48093380D01*
X38711095Y-48141000D01*
X38663476Y-48188619D01*
X38615857Y-48283857D01*
X38615857Y-48426714D01*
X38663476Y-48521952D01*
X38711095Y-48569571D01*
X38806333Y-48617190D01*
X39187285Y-48617190D01*
X37663476Y-49093380D02*
X38234904Y-49093380D01*
X37949190Y-49093380D02*
X37949190Y-48093380D01*
X38044428Y-48236238D01*
X38139666Y-48331476D01*
X38234904Y-48379095D01*
X37330142Y-48093380D02*
X36663476Y-48093380D01*
X37092047Y-49093380D01*
X29598857Y-30932380D02*
X29932190Y-30456190D01*
X30170285Y-30932380D02*
X30170285Y-29932380D01*
X29789333Y-29932380D01*
X29694095Y-29980000D01*
X29646476Y-30027619D01*
X29598857Y-30122857D01*
X29598857Y-30265714D01*
X29646476Y-30360952D01*
X29694095Y-30408571D01*
X29789333Y-30456190D01*
X30170285Y-30456190D01*
X28646476Y-30932380D02*
X29217904Y-30932380D01*
X28932190Y-30932380D02*
X28932190Y-29932380D01*
X29027428Y-30075238D01*
X29122666Y-30170476D01*
X29217904Y-30218095D01*
X27741714Y-29932380D02*
X28217904Y-29932380D01*
X28265523Y-30408571D01*
X28217904Y-30360952D01*
X28122666Y-30313333D01*
X27884571Y-30313333D01*
X27789333Y-30360952D01*
X27741714Y-30408571D01*
X27694095Y-30503809D01*
X27694095Y-30741904D01*
X27741714Y-30837142D01*
X27789333Y-30884761D01*
X27884571Y-30932380D01*
X28122666Y-30932380D01*
X28217904Y-30884761D01*
X28265523Y-30837142D01*
X29725857Y-33980380D02*
X30059190Y-33504190D01*
X30297285Y-33980380D02*
X30297285Y-32980380D01*
X29916333Y-32980380D01*
X29821095Y-33028000D01*
X29773476Y-33075619D01*
X29725857Y-33170857D01*
X29725857Y-33313714D01*
X29773476Y-33408952D01*
X29821095Y-33456571D01*
X29916333Y-33504190D01*
X30297285Y-33504190D01*
X28773476Y-33980380D02*
X29344904Y-33980380D01*
X29059190Y-33980380D02*
X29059190Y-32980380D01*
X29154428Y-33123238D01*
X29249666Y-33218476D01*
X29344904Y-33266095D01*
X27916333Y-33313714D02*
X27916333Y-33980380D01*
X28154428Y-32932761D02*
X28392523Y-33647047D01*
X27773476Y-33647047D01*
X38996857Y-14295380D02*
X39330190Y-13819190D01*
X39568285Y-14295380D02*
X39568285Y-13295380D01*
X39187333Y-13295380D01*
X39092095Y-13343000D01*
X39044476Y-13390619D01*
X38996857Y-13485857D01*
X38996857Y-13628714D01*
X39044476Y-13723952D01*
X39092095Y-13771571D01*
X39187333Y-13819190D01*
X39568285Y-13819190D01*
X38044476Y-14295380D02*
X38615904Y-14295380D01*
X38330190Y-14295380D02*
X38330190Y-13295380D01*
X38425428Y-13438238D01*
X38520666Y-13533476D01*
X38615904Y-13581095D01*
X37663523Y-13390619D02*
X37615904Y-13343000D01*
X37520666Y-13295380D01*
X37282571Y-13295380D01*
X37187333Y-13343000D01*
X37139714Y-13390619D01*
X37092095Y-13485857D01*
X37092095Y-13581095D01*
X37139714Y-13723952D01*
X37711142Y-14295380D01*
X37092095Y-14295380D01*
X26931857Y-33980380D02*
X27265190Y-33504190D01*
X27503285Y-33980380D02*
X27503285Y-32980380D01*
X27122333Y-32980380D01*
X27027095Y-33028000D01*
X26979476Y-33075619D01*
X26931857Y-33170857D01*
X26931857Y-33313714D01*
X26979476Y-33408952D01*
X27027095Y-33456571D01*
X27122333Y-33504190D01*
X27503285Y-33504190D01*
X25979476Y-33980380D02*
X26550904Y-33980380D01*
X26265190Y-33980380D02*
X26265190Y-32980380D01*
X26360428Y-33123238D01*
X26455666Y-33218476D01*
X26550904Y-33266095D01*
X25027095Y-33980380D02*
X25598523Y-33980380D01*
X25312809Y-33980380D02*
X25312809Y-32980380D01*
X25408047Y-33123238D01*
X25503285Y-33218476D01*
X25598523Y-33266095D01*
X43219666Y-47061380D02*
X43553000Y-46585190D01*
X43791095Y-47061380D02*
X43791095Y-46061380D01*
X43410142Y-46061380D01*
X43314904Y-46109000D01*
X43267285Y-46156619D01*
X43219666Y-46251857D01*
X43219666Y-46394714D01*
X43267285Y-46489952D01*
X43314904Y-46537571D01*
X43410142Y-46585190D01*
X43791095Y-46585190D01*
X42648238Y-46489952D02*
X42743476Y-46442333D01*
X42791095Y-46394714D01*
X42838714Y-46299476D01*
X42838714Y-46251857D01*
X42791095Y-46156619D01*
X42743476Y-46109000D01*
X42648238Y-46061380D01*
X42457761Y-46061380D01*
X42362523Y-46109000D01*
X42314904Y-46156619D01*
X42267285Y-46251857D01*
X42267285Y-46299476D01*
X42314904Y-46394714D01*
X42362523Y-46442333D01*
X42457761Y-46489952D01*
X42648238Y-46489952D01*
X42743476Y-46537571D01*
X42791095Y-46585190D01*
X42838714Y-46680428D01*
X42838714Y-46870904D01*
X42791095Y-46966142D01*
X42743476Y-47013761D01*
X42648238Y-47061380D01*
X42457761Y-47061380D01*
X42362523Y-47013761D01*
X42314904Y-46966142D01*
X42267285Y-46870904D01*
X42267285Y-46680428D01*
X42314904Y-46585190D01*
X42362523Y-46537571D01*
X42457761Y-46489952D01*
X40044666Y-45664380D02*
X40378000Y-45188190D01*
X40616095Y-45664380D02*
X40616095Y-44664380D01*
X40235142Y-44664380D01*
X40139904Y-44712000D01*
X40092285Y-44759619D01*
X40044666Y-44854857D01*
X40044666Y-44997714D01*
X40092285Y-45092952D01*
X40139904Y-45140571D01*
X40235142Y-45188190D01*
X40616095Y-45188190D01*
X39711333Y-44664380D02*
X39044666Y-44664380D01*
X39473238Y-45664380D01*
X41822666Y-45664380D02*
X42156000Y-45188190D01*
X42394095Y-45664380D02*
X42394095Y-44664380D01*
X42013142Y-44664380D01*
X41917904Y-44712000D01*
X41870285Y-44759619D01*
X41822666Y-44854857D01*
X41822666Y-44997714D01*
X41870285Y-45092952D01*
X41917904Y-45140571D01*
X42013142Y-45188190D01*
X42394095Y-45188190D01*
X40870285Y-45664380D02*
X41441714Y-45664380D01*
X41156000Y-45664380D02*
X41156000Y-44664380D01*
X41251238Y-44807238D01*
X41346476Y-44902476D01*
X41441714Y-44950095D01*
X17494238Y-31281619D02*
X17589476Y-31234000D01*
X17684714Y-31138761D01*
X17827571Y-30995904D01*
X17922809Y-30948285D01*
X18018047Y-30948285D01*
X17970428Y-31186380D02*
X18065666Y-31138761D01*
X18160904Y-31043523D01*
X18208523Y-30853047D01*
X18208523Y-30519714D01*
X18160904Y-30329238D01*
X18065666Y-30234000D01*
X17970428Y-30186380D01*
X17779952Y-30186380D01*
X17684714Y-30234000D01*
X17589476Y-30329238D01*
X17541857Y-30519714D01*
X17541857Y-30853047D01*
X17589476Y-31043523D01*
X17684714Y-31138761D01*
X17779952Y-31186380D01*
X17970428Y-31186380D01*
X16684714Y-30519714D02*
X16684714Y-31186380D01*
X16922809Y-30138761D02*
X17160904Y-30853047D01*
X16541857Y-30853047D01*
X67349666Y-54300380D02*
X67825857Y-54300380D01*
X67825857Y-53300380D01*
X67063952Y-53395619D02*
X67016333Y-53348000D01*
X66921095Y-53300380D01*
X66683000Y-53300380D01*
X66587761Y-53348000D01*
X66540142Y-53395619D01*
X66492523Y-53490857D01*
X66492523Y-53586095D01*
X66540142Y-53728952D01*
X67111571Y-54300380D01*
X66492523Y-54300380D01*
X87034666Y-24836380D02*
X87510857Y-24836380D01*
X87510857Y-23836380D01*
X86177523Y-24836380D02*
X86748952Y-24836380D01*
X86463238Y-24836380D02*
X86463238Y-23836380D01*
X86558476Y-23979238D01*
X86653714Y-24074476D01*
X86748952Y-24122095D01*
X57356333Y-11644380D02*
X57356333Y-12358666D01*
X57403952Y-12501523D01*
X57499190Y-12596761D01*
X57642047Y-12644380D01*
X57737285Y-12644380D01*
X56832523Y-12644380D02*
X56642047Y-12644380D01*
X56546809Y-12596761D01*
X56499190Y-12549142D01*
X56403952Y-12406285D01*
X56356333Y-12215809D01*
X56356333Y-11834857D01*
X56403952Y-11739619D01*
X56451571Y-11692000D01*
X56546809Y-11644380D01*
X56737285Y-11644380D01*
X56832523Y-11692000D01*
X56880142Y-11739619D01*
X56927761Y-11834857D01*
X56927761Y-12072952D01*
X56880142Y-12168190D01*
X56832523Y-12215809D01*
X56737285Y-12263428D01*
X56546809Y-12263428D01*
X56451571Y-12215809D01*
X56403952Y-12168190D01*
X56356333Y-12072952D01*
X63651333Y-84215380D02*
X63651333Y-84929666D01*
X63698952Y-85072523D01*
X63794190Y-85167761D01*
X63937047Y-85215380D01*
X64032285Y-85215380D01*
X62746571Y-84548714D02*
X62746571Y-85215380D01*
X62984666Y-84167761D02*
X63222761Y-84882047D01*
X62603714Y-84882047D01*
X12160095Y-17724380D02*
X12160095Y-16724380D01*
X12160095Y-17200571D02*
X11588666Y-17200571D01*
X11588666Y-17724380D02*
X11588666Y-16724380D01*
X11160095Y-17676761D02*
X11017238Y-17724380D01*
X10779142Y-17724380D01*
X10683904Y-17676761D01*
X10636285Y-17629142D01*
X10588666Y-17533904D01*
X10588666Y-17438666D01*
X10636285Y-17343428D01*
X10683904Y-17295809D01*
X10779142Y-17248190D01*
X10969619Y-17200571D01*
X11064857Y-17152952D01*
X11112476Y-17105333D01*
X11160095Y-17010095D01*
X11160095Y-16914857D01*
X11112476Y-16819619D01*
X11064857Y-16772000D01*
X10969619Y-16724380D01*
X10731523Y-16724380D01*
X10588666Y-16772000D01*
X10255333Y-16724380D02*
X9636285Y-16724380D01*
X9969619Y-17105333D01*
X9826761Y-17105333D01*
X9731523Y-17152952D01*
X9683904Y-17200571D01*
X9636285Y-17295809D01*
X9636285Y-17533904D01*
X9683904Y-17629142D01*
X9731523Y-17676761D01*
X9826761Y-17724380D01*
X10112476Y-17724380D01*
X10207714Y-17676761D01*
X10255333Y-17629142D01*
X59451333Y-8945571D02*
X59784666Y-8945571D01*
X59784666Y-9469380D02*
X59784666Y-8469380D01*
X59308476Y-8469380D01*
X58403714Y-9469380D02*
X58975142Y-9469380D01*
X58689428Y-9469380D02*
X58689428Y-8469380D01*
X58784666Y-8612238D01*
X58879904Y-8707476D01*
X58975142Y-8755095D01*
X80462285Y-57983380D02*
X80462285Y-56983380D01*
X80224190Y-56983380D01*
X80081333Y-57031000D01*
X79986095Y-57126238D01*
X79938476Y-57221476D01*
X79890857Y-57411952D01*
X79890857Y-57554809D01*
X79938476Y-57745285D01*
X79986095Y-57840523D01*
X80081333Y-57935761D01*
X80224190Y-57983380D01*
X80462285Y-57983380D01*
X78938476Y-57983380D02*
X79509904Y-57983380D01*
X79224190Y-57983380D02*
X79224190Y-56983380D01*
X79319428Y-57126238D01*
X79414666Y-57221476D01*
X79509904Y-57269095D01*
X78081333Y-57316714D02*
X78081333Y-57983380D01*
X78319428Y-56935761D02*
X78557523Y-57650047D01*
X77938476Y-57650047D01*
X61983857Y-61571142D02*
X62031476Y-61618761D01*
X62174333Y-61666380D01*
X62269571Y-61666380D01*
X62412428Y-61618761D01*
X62507666Y-61523523D01*
X62555285Y-61428285D01*
X62602904Y-61237809D01*
X62602904Y-61094952D01*
X62555285Y-60904476D01*
X62507666Y-60809238D01*
X62412428Y-60714000D01*
X62269571Y-60666380D01*
X62174333Y-60666380D01*
X62031476Y-60714000D01*
X61983857Y-60761619D01*
X61650523Y-60666380D02*
X61031476Y-60666380D01*
X61364809Y-61047333D01*
X61221952Y-61047333D01*
X61126714Y-61094952D01*
X61079095Y-61142571D01*
X61031476Y-61237809D01*
X61031476Y-61475904D01*
X61079095Y-61571142D01*
X61126714Y-61618761D01*
X61221952Y-61666380D01*
X61507666Y-61666380D01*
X61602904Y-61618761D01*
X61650523Y-61571142D01*
X60698142Y-60666380D02*
X60079095Y-60666380D01*
X60412428Y-61047333D01*
X60269571Y-61047333D01*
X60174333Y-61094952D01*
X60126714Y-61142571D01*
X60079095Y-61237809D01*
X60079095Y-61475904D01*
X60126714Y-61571142D01*
X60174333Y-61618761D01*
X60269571Y-61666380D01*
X60555285Y-61666380D01*
X60650523Y-61618761D01*
X60698142Y-61571142D01*
X81922857Y-60682142D02*
X81970476Y-60729761D01*
X82113333Y-60777380D01*
X82208571Y-60777380D01*
X82351428Y-60729761D01*
X82446666Y-60634523D01*
X82494285Y-60539285D01*
X82541904Y-60348809D01*
X82541904Y-60205952D01*
X82494285Y-60015476D01*
X82446666Y-59920238D01*
X82351428Y-59825000D01*
X82208571Y-59777380D01*
X82113333Y-59777380D01*
X81970476Y-59825000D01*
X81922857Y-59872619D01*
X81589523Y-59777380D02*
X80970476Y-59777380D01*
X81303809Y-60158333D01*
X81160952Y-60158333D01*
X81065714Y-60205952D01*
X81018095Y-60253571D01*
X80970476Y-60348809D01*
X80970476Y-60586904D01*
X81018095Y-60682142D01*
X81065714Y-60729761D01*
X81160952Y-60777380D01*
X81446666Y-60777380D01*
X81541904Y-60729761D01*
X81589523Y-60682142D01*
X80351428Y-59777380D02*
X80256190Y-59777380D01*
X80160952Y-59825000D01*
X80113333Y-59872619D01*
X80065714Y-59967857D01*
X80018095Y-60158333D01*
X80018095Y-60396428D01*
X80065714Y-60586904D01*
X80113333Y-60682142D01*
X80160952Y-60729761D01*
X80256190Y-60777380D01*
X80351428Y-60777380D01*
X80446666Y-60729761D01*
X80494285Y-60682142D01*
X80541904Y-60586904D01*
X80589523Y-60396428D01*
X80589523Y-60158333D01*
X80541904Y-59967857D01*
X80494285Y-59872619D01*
X80446666Y-59825000D01*
X80351428Y-59777380D01*
X36456857Y-29059142D02*
X36504476Y-29106761D01*
X36647333Y-29154380D01*
X36742571Y-29154380D01*
X36885428Y-29106761D01*
X36980666Y-29011523D01*
X37028285Y-28916285D01*
X37075904Y-28725809D01*
X37075904Y-28582952D01*
X37028285Y-28392476D01*
X36980666Y-28297238D01*
X36885428Y-28202000D01*
X36742571Y-28154380D01*
X36647333Y-28154380D01*
X36504476Y-28202000D01*
X36456857Y-28249619D01*
X36075904Y-28249619D02*
X36028285Y-28202000D01*
X35933047Y-28154380D01*
X35694952Y-28154380D01*
X35599714Y-28202000D01*
X35552095Y-28249619D01*
X35504476Y-28344857D01*
X35504476Y-28440095D01*
X35552095Y-28582952D01*
X36123523Y-29154380D01*
X35504476Y-29154380D01*
X34647333Y-28487714D02*
X34647333Y-29154380D01*
X34885428Y-28106761D02*
X35123523Y-28821047D01*
X34504476Y-28821047D01*
X38615857Y-52046142D02*
X38663476Y-52093761D01*
X38806333Y-52141380D01*
X38901571Y-52141380D01*
X39044428Y-52093761D01*
X39139666Y-51998523D01*
X39187285Y-51903285D01*
X39234904Y-51712809D01*
X39234904Y-51569952D01*
X39187285Y-51379476D01*
X39139666Y-51284238D01*
X39044428Y-51189000D01*
X38901571Y-51141380D01*
X38806333Y-51141380D01*
X38663476Y-51189000D01*
X38615857Y-51236619D01*
X37663476Y-52141380D02*
X38234904Y-52141380D01*
X37949190Y-52141380D02*
X37949190Y-51141380D01*
X38044428Y-51284238D01*
X38139666Y-51379476D01*
X38234904Y-51427095D01*
X36758714Y-51141380D02*
X37234904Y-51141380D01*
X37282523Y-51617571D01*
X37234904Y-51569952D01*
X37139666Y-51522333D01*
X36901571Y-51522333D01*
X36806333Y-51569952D01*
X36758714Y-51617571D01*
X36711095Y-51712809D01*
X36711095Y-51950904D01*
X36758714Y-52046142D01*
X36806333Y-52093761D01*
X36901571Y-52141380D01*
X37139666Y-52141380D01*
X37234904Y-52093761D01*
X37282523Y-52046142D01*
X38361857Y-40616142D02*
X38409476Y-40663761D01*
X38552333Y-40711380D01*
X38647571Y-40711380D01*
X38790428Y-40663761D01*
X38885666Y-40568523D01*
X38933285Y-40473285D01*
X38980904Y-40282809D01*
X38980904Y-40139952D01*
X38933285Y-39949476D01*
X38885666Y-39854238D01*
X38790428Y-39759000D01*
X38647571Y-39711380D01*
X38552333Y-39711380D01*
X38409476Y-39759000D01*
X38361857Y-39806619D01*
X37409476Y-40711380D02*
X37980904Y-40711380D01*
X37695190Y-40711380D02*
X37695190Y-39711380D01*
X37790428Y-39854238D01*
X37885666Y-39949476D01*
X37980904Y-39997095D01*
X37076142Y-39711380D02*
X36457095Y-39711380D01*
X36790428Y-40092333D01*
X36647571Y-40092333D01*
X36552333Y-40139952D01*
X36504714Y-40187571D01*
X36457095Y-40282809D01*
X36457095Y-40520904D01*
X36504714Y-40616142D01*
X36552333Y-40663761D01*
X36647571Y-40711380D01*
X36933285Y-40711380D01*
X37028523Y-40663761D01*
X37076142Y-40616142D01*
X21724857Y-24741142D02*
X21772476Y-24788761D01*
X21915333Y-24836380D01*
X22010571Y-24836380D01*
X22153428Y-24788761D01*
X22248666Y-24693523D01*
X22296285Y-24598285D01*
X22343904Y-24407809D01*
X22343904Y-24264952D01*
X22296285Y-24074476D01*
X22248666Y-23979238D01*
X22153428Y-23884000D01*
X22010571Y-23836380D01*
X21915333Y-23836380D01*
X21772476Y-23884000D01*
X21724857Y-23931619D01*
X20772476Y-24836380D02*
X21343904Y-24836380D01*
X21058190Y-24836380D02*
X21058190Y-23836380D01*
X21153428Y-23979238D01*
X21248666Y-24074476D01*
X21343904Y-24122095D01*
X20153428Y-23836380D02*
X20058190Y-23836380D01*
X19962952Y-23884000D01*
X19915333Y-23931619D01*
X19867714Y-24026857D01*
X19820095Y-24217333D01*
X19820095Y-24455428D01*
X19867714Y-24645904D01*
X19915333Y-24741142D01*
X19962952Y-24788761D01*
X20058190Y-24836380D01*
X20153428Y-24836380D01*
X20248666Y-24788761D01*
X20296285Y-24741142D01*
X20343904Y-24645904D01*
X20391523Y-24455428D01*
X20391523Y-24217333D01*
X20343904Y-24026857D01*
X20296285Y-23931619D01*
X20248666Y-23884000D01*
X20153428Y-23836380D01*
X34202666Y-42521142D02*
X34250285Y-42568761D01*
X34393142Y-42616380D01*
X34488380Y-42616380D01*
X34631238Y-42568761D01*
X34726476Y-42473523D01*
X34774095Y-42378285D01*
X34821714Y-42187809D01*
X34821714Y-42044952D01*
X34774095Y-41854476D01*
X34726476Y-41759238D01*
X34631238Y-41664000D01*
X34488380Y-41616380D01*
X34393142Y-41616380D01*
X34250285Y-41664000D01*
X34202666Y-41711619D01*
X33726476Y-42616380D02*
X33536000Y-42616380D01*
X33440761Y-42568761D01*
X33393142Y-42521142D01*
X33297904Y-42378285D01*
X33250285Y-42187809D01*
X33250285Y-41806857D01*
X33297904Y-41711619D01*
X33345523Y-41664000D01*
X33440761Y-41616380D01*
X33631238Y-41616380D01*
X33726476Y-41664000D01*
X33774095Y-41711619D01*
X33821714Y-41806857D01*
X33821714Y-42044952D01*
X33774095Y-42140190D01*
X33726476Y-42187809D01*
X33631238Y-42235428D01*
X33440761Y-42235428D01*
X33345523Y-42187809D01*
X33297904Y-42140190D01*
X33250285Y-42044952D01*
X21375666Y-42140142D02*
X21423285Y-42187761D01*
X21566142Y-42235380D01*
X21661380Y-42235380D01*
X21804238Y-42187761D01*
X21899476Y-42092523D01*
X21947095Y-41997285D01*
X21994714Y-41806809D01*
X21994714Y-41663952D01*
X21947095Y-41473476D01*
X21899476Y-41378238D01*
X21804238Y-41283000D01*
X21661380Y-41235380D01*
X21566142Y-41235380D01*
X21423285Y-41283000D01*
X21375666Y-41330619D01*
X20804238Y-41663952D02*
X20899476Y-41616333D01*
X20947095Y-41568714D01*
X20994714Y-41473476D01*
X20994714Y-41425857D01*
X20947095Y-41330619D01*
X20899476Y-41283000D01*
X20804238Y-41235380D01*
X20613761Y-41235380D01*
X20518523Y-41283000D01*
X20470904Y-41330619D01*
X20423285Y-41425857D01*
X20423285Y-41473476D01*
X20470904Y-41568714D01*
X20518523Y-41616333D01*
X20613761Y-41663952D01*
X20804238Y-41663952D01*
X20899476Y-41711571D01*
X20947095Y-41759190D01*
X20994714Y-41854428D01*
X20994714Y-42044904D01*
X20947095Y-42140142D01*
X20899476Y-42187761D01*
X20804238Y-42235380D01*
X20613761Y-42235380D01*
X20518523Y-42187761D01*
X20470904Y-42140142D01*
X20423285Y-42044904D01*
X20423285Y-41854428D01*
X20470904Y-41759190D01*
X20518523Y-41711571D01*
X20613761Y-41663952D01*
X24677666Y-54459142D02*
X24725285Y-54506761D01*
X24868142Y-54554380D01*
X24963380Y-54554380D01*
X25106238Y-54506761D01*
X25201476Y-54411523D01*
X25249095Y-54316285D01*
X25296714Y-54125809D01*
X25296714Y-53982952D01*
X25249095Y-53792476D01*
X25201476Y-53697238D01*
X25106238Y-53602000D01*
X24963380Y-53554380D01*
X24868142Y-53554380D01*
X24725285Y-53602000D01*
X24677666Y-53649619D01*
X24344333Y-53554380D02*
X23677666Y-53554380D01*
X24106238Y-54554380D01*
X22740857Y-36901380D02*
X23074190Y-36425190D01*
X23312285Y-36901380D02*
X23312285Y-35901380D01*
X22931333Y-35901380D01*
X22836095Y-35949000D01*
X22788476Y-35996619D01*
X22740857Y-36091857D01*
X22740857Y-36234714D01*
X22788476Y-36329952D01*
X22836095Y-36377571D01*
X22931333Y-36425190D01*
X23312285Y-36425190D01*
X22407523Y-35901380D02*
X21788476Y-35901380D01*
X22121809Y-36282333D01*
X21978952Y-36282333D01*
X21883714Y-36329952D01*
X21836095Y-36377571D01*
X21788476Y-36472809D01*
X21788476Y-36710904D01*
X21836095Y-36806142D01*
X21883714Y-36853761D01*
X21978952Y-36901380D01*
X22264666Y-36901380D01*
X22359904Y-36853761D01*
X22407523Y-36806142D01*
X21169428Y-35901380D02*
X21074190Y-35901380D01*
X20978952Y-35949000D01*
X20931333Y-35996619D01*
X20883714Y-36091857D01*
X20836095Y-36282333D01*
X20836095Y-36520428D01*
X20883714Y-36710904D01*
X20931333Y-36806142D01*
X20978952Y-36853761D01*
X21074190Y-36901380D01*
X21169428Y-36901380D01*
X21264666Y-36853761D01*
X21312285Y-36806142D01*
X21359904Y-36710904D01*
X21407523Y-36520428D01*
X21407523Y-36282333D01*
X21359904Y-36091857D01*
X21312285Y-35996619D01*
X21264666Y-35949000D01*
X21169428Y-35901380D01*
X21724857Y-44013380D02*
X22058190Y-43537190D01*
X22296285Y-44013380D02*
X22296285Y-43013380D01*
X21915333Y-43013380D01*
X21820095Y-43061000D01*
X21772476Y-43108619D01*
X21724857Y-43203857D01*
X21724857Y-43346714D01*
X21772476Y-43441952D01*
X21820095Y-43489571D01*
X21915333Y-43537190D01*
X22296285Y-43537190D01*
X21343904Y-43108619D02*
X21296285Y-43061000D01*
X21201047Y-43013380D01*
X20962952Y-43013380D01*
X20867714Y-43061000D01*
X20820095Y-43108619D01*
X20772476Y-43203857D01*
X20772476Y-43299095D01*
X20820095Y-43441952D01*
X21391523Y-44013380D01*
X20772476Y-44013380D01*
X20296285Y-44013380D02*
X20105809Y-44013380D01*
X20010571Y-43965761D01*
X19962952Y-43918142D01*
X19867714Y-43775285D01*
X19820095Y-43584809D01*
X19820095Y-43203857D01*
X19867714Y-43108619D01*
X19915333Y-43061000D01*
X20010571Y-43013380D01*
X20201047Y-43013380D01*
X20296285Y-43061000D01*
X20343904Y-43108619D01*
X20391523Y-43203857D01*
X20391523Y-43441952D01*
X20343904Y-43537190D01*
X20296285Y-43584809D01*
X20201047Y-43632428D01*
X20010571Y-43632428D01*
X19915333Y-43584809D01*
X19867714Y-43537190D01*
X19820095Y-43441952D01*
X22613857Y-54554380D02*
X22947190Y-54078190D01*
X23185285Y-54554380D02*
X23185285Y-53554380D01*
X22804333Y-53554380D01*
X22709095Y-53602000D01*
X22661476Y-53649619D01*
X22613857Y-53744857D01*
X22613857Y-53887714D01*
X22661476Y-53982952D01*
X22709095Y-54030571D01*
X22804333Y-54078190D01*
X23185285Y-54078190D01*
X22232904Y-53649619D02*
X22185285Y-53602000D01*
X22090047Y-53554380D01*
X21851952Y-53554380D01*
X21756714Y-53602000D01*
X21709095Y-53649619D01*
X21661476Y-53744857D01*
X21661476Y-53840095D01*
X21709095Y-53982952D01*
X22280523Y-54554380D01*
X21661476Y-54554380D01*
X21328142Y-53554380D02*
X20661476Y-53554380D01*
X21090047Y-54554380D01*
X25026857Y-52776380D02*
X25360190Y-52300190D01*
X25598285Y-52776380D02*
X25598285Y-51776380D01*
X25217333Y-51776380D01*
X25122095Y-51824000D01*
X25074476Y-51871619D01*
X25026857Y-51966857D01*
X25026857Y-52109714D01*
X25074476Y-52204952D01*
X25122095Y-52252571D01*
X25217333Y-52300190D01*
X25598285Y-52300190D01*
X24645904Y-51871619D02*
X24598285Y-51824000D01*
X24503047Y-51776380D01*
X24264952Y-51776380D01*
X24169714Y-51824000D01*
X24122095Y-51871619D01*
X24074476Y-51966857D01*
X24074476Y-52062095D01*
X24122095Y-52204952D01*
X24693523Y-52776380D01*
X24074476Y-52776380D01*
X23217333Y-51776380D02*
X23407809Y-51776380D01*
X23503047Y-51824000D01*
X23550666Y-51871619D01*
X23645904Y-52014476D01*
X23693523Y-52204952D01*
X23693523Y-52585904D01*
X23645904Y-52681142D01*
X23598285Y-52728761D01*
X23503047Y-52776380D01*
X23312571Y-52776380D01*
X23217333Y-52728761D01*
X23169714Y-52681142D01*
X23122095Y-52585904D01*
X23122095Y-52347809D01*
X23169714Y-52252571D01*
X23217333Y-52204952D01*
X23312571Y-52157333D01*
X23503047Y-52157333D01*
X23598285Y-52204952D01*
X23645904Y-52252571D01*
X23693523Y-52347809D01*
X28709857Y-49093380D02*
X29043190Y-48617190D01*
X29281285Y-49093380D02*
X29281285Y-48093380D01*
X28900333Y-48093380D01*
X28805095Y-48141000D01*
X28757476Y-48188619D01*
X28709857Y-48283857D01*
X28709857Y-48426714D01*
X28757476Y-48521952D01*
X28805095Y-48569571D01*
X28900333Y-48617190D01*
X29281285Y-48617190D01*
X28328904Y-48188619D02*
X28281285Y-48141000D01*
X28186047Y-48093380D01*
X27947952Y-48093380D01*
X27852714Y-48141000D01*
X27805095Y-48188619D01*
X27757476Y-48283857D01*
X27757476Y-48379095D01*
X27805095Y-48521952D01*
X28376523Y-49093380D01*
X27757476Y-49093380D01*
X26852714Y-48093380D02*
X27328904Y-48093380D01*
X27376523Y-48569571D01*
X27328904Y-48521952D01*
X27233666Y-48474333D01*
X26995571Y-48474333D01*
X26900333Y-48521952D01*
X26852714Y-48569571D01*
X26805095Y-48664809D01*
X26805095Y-48902904D01*
X26852714Y-48998142D01*
X26900333Y-49045761D01*
X26995571Y-49093380D01*
X27233666Y-49093380D01*
X27328904Y-49045761D01*
X27376523Y-48998142D01*
X27566857Y-15311380D02*
X27900190Y-14835190D01*
X28138285Y-15311380D02*
X28138285Y-14311380D01*
X27757333Y-14311380D01*
X27662095Y-14359000D01*
X27614476Y-14406619D01*
X27566857Y-14501857D01*
X27566857Y-14644714D01*
X27614476Y-14739952D01*
X27662095Y-14787571D01*
X27757333Y-14835190D01*
X28138285Y-14835190D01*
X27185904Y-14406619D02*
X27138285Y-14359000D01*
X27043047Y-14311380D01*
X26804952Y-14311380D01*
X26709714Y-14359000D01*
X26662095Y-14406619D01*
X26614476Y-14501857D01*
X26614476Y-14597095D01*
X26662095Y-14739952D01*
X27233523Y-15311380D01*
X26614476Y-15311380D01*
X25757333Y-14644714D02*
X25757333Y-15311380D01*
X25995428Y-14263761D02*
X26233523Y-14978047D01*
X25614476Y-14978047D01*
X28455857Y-45791380D02*
X28789190Y-45315190D01*
X29027285Y-45791380D02*
X29027285Y-44791380D01*
X28646333Y-44791380D01*
X28551095Y-44839000D01*
X28503476Y-44886619D01*
X28455857Y-44981857D01*
X28455857Y-45124714D01*
X28503476Y-45219952D01*
X28551095Y-45267571D01*
X28646333Y-45315190D01*
X29027285Y-45315190D01*
X28074904Y-44886619D02*
X28027285Y-44839000D01*
X27932047Y-44791380D01*
X27693952Y-44791380D01*
X27598714Y-44839000D01*
X27551095Y-44886619D01*
X27503476Y-44981857D01*
X27503476Y-45077095D01*
X27551095Y-45219952D01*
X28122523Y-45791380D01*
X27503476Y-45791380D01*
X27170142Y-44791380D02*
X26551095Y-44791380D01*
X26884428Y-45172333D01*
X26741571Y-45172333D01*
X26646333Y-45219952D01*
X26598714Y-45267571D01*
X26551095Y-45362809D01*
X26551095Y-45600904D01*
X26598714Y-45696142D01*
X26646333Y-45743761D01*
X26741571Y-45791380D01*
X27027285Y-45791380D01*
X27122523Y-45743761D01*
X27170142Y-45696142D01*
X31376857Y-44902380D02*
X31710190Y-44426190D01*
X31948285Y-44902380D02*
X31948285Y-43902380D01*
X31567333Y-43902380D01*
X31472095Y-43950000D01*
X31424476Y-43997619D01*
X31376857Y-44092857D01*
X31376857Y-44235714D01*
X31424476Y-44330952D01*
X31472095Y-44378571D01*
X31567333Y-44426190D01*
X31948285Y-44426190D01*
X30995904Y-43997619D02*
X30948285Y-43950000D01*
X30853047Y-43902380D01*
X30614952Y-43902380D01*
X30519714Y-43950000D01*
X30472095Y-43997619D01*
X30424476Y-44092857D01*
X30424476Y-44188095D01*
X30472095Y-44330952D01*
X31043523Y-44902380D01*
X30424476Y-44902380D01*
X30043523Y-43997619D02*
X29995904Y-43950000D01*
X29900666Y-43902380D01*
X29662571Y-43902380D01*
X29567333Y-43950000D01*
X29519714Y-43997619D01*
X29472095Y-44092857D01*
X29472095Y-44188095D01*
X29519714Y-44330952D01*
X30091142Y-44902380D01*
X29472095Y-44902380D01*
X38107857Y-45664380D02*
X38441190Y-45188190D01*
X38679285Y-45664380D02*
X38679285Y-44664380D01*
X38298333Y-44664380D01*
X38203095Y-44712000D01*
X38155476Y-44759619D01*
X38107857Y-44854857D01*
X38107857Y-44997714D01*
X38155476Y-45092952D01*
X38203095Y-45140571D01*
X38298333Y-45188190D01*
X38679285Y-45188190D01*
X37155476Y-45664380D02*
X37726904Y-45664380D01*
X37441190Y-45664380D02*
X37441190Y-44664380D01*
X37536428Y-44807238D01*
X37631666Y-44902476D01*
X37726904Y-44950095D01*
X36298333Y-44664380D02*
X36488809Y-44664380D01*
X36584047Y-44712000D01*
X36631666Y-44759619D01*
X36726904Y-44902476D01*
X36774523Y-45092952D01*
X36774523Y-45473904D01*
X36726904Y-45569142D01*
X36679285Y-45616761D01*
X36584047Y-45664380D01*
X36393571Y-45664380D01*
X36298333Y-45616761D01*
X36250714Y-45569142D01*
X36203095Y-45473904D01*
X36203095Y-45235809D01*
X36250714Y-45140571D01*
X36298333Y-45092952D01*
X36393571Y-45045333D01*
X36584047Y-45045333D01*
X36679285Y-45092952D01*
X36726904Y-45140571D01*
X36774523Y-45235809D01*
X63920666Y-35504380D02*
X64254000Y-35028190D01*
X64492095Y-35504380D02*
X64492095Y-34504380D01*
X64111142Y-34504380D01*
X64015904Y-34552000D01*
X63968285Y-34599619D01*
X63920666Y-34694857D01*
X63920666Y-34837714D01*
X63968285Y-34932952D01*
X64015904Y-34980571D01*
X64111142Y-35028190D01*
X64492095Y-35028190D01*
X63587333Y-34504380D02*
X62968285Y-34504380D01*
X63301619Y-34885333D01*
X63158761Y-34885333D01*
X63063523Y-34932952D01*
X63015904Y-34980571D01*
X62968285Y-35075809D01*
X62968285Y-35313904D01*
X63015904Y-35409142D01*
X63063523Y-35456761D01*
X63158761Y-35504380D01*
X63444476Y-35504380D01*
X63539714Y-35456761D01*
X63587333Y-35409142D01*
X64555666Y-41092380D02*
X64889000Y-40616190D01*
X65127095Y-41092380D02*
X65127095Y-40092380D01*
X64746142Y-40092380D01*
X64650904Y-40140000D01*
X64603285Y-40187619D01*
X64555666Y-40282857D01*
X64555666Y-40425714D01*
X64603285Y-40520952D01*
X64650904Y-40568571D01*
X64746142Y-40616190D01*
X65127095Y-40616190D01*
X64174714Y-40187619D02*
X64127095Y-40140000D01*
X64031857Y-40092380D01*
X63793761Y-40092380D01*
X63698523Y-40140000D01*
X63650904Y-40187619D01*
X63603285Y-40282857D01*
X63603285Y-40378095D01*
X63650904Y-40520952D01*
X64222333Y-41092380D01*
X63603285Y-41092380D01*
X31660857Y-83515380D02*
X31994190Y-83039190D01*
X32232285Y-83515380D02*
X32232285Y-82515380D01*
X31851333Y-82515380D01*
X31756095Y-82563000D01*
X31708476Y-82610619D01*
X31660857Y-82705857D01*
X31660857Y-82848714D01*
X31708476Y-82943952D01*
X31756095Y-82991571D01*
X31851333Y-83039190D01*
X32232285Y-83039190D01*
X30803714Y-82848714D02*
X30803714Y-83515380D01*
X31041809Y-82467761D02*
X31279904Y-83182047D01*
X30660857Y-83182047D01*
X29756095Y-83515380D02*
X30327523Y-83515380D01*
X30041809Y-83515380D02*
X30041809Y-82515380D01*
X30137047Y-82658238D01*
X30232285Y-82753476D01*
X30327523Y-82801095D01*
X31660857Y-85015380D02*
X31994190Y-84539190D01*
X32232285Y-85015380D02*
X32232285Y-84015380D01*
X31851333Y-84015380D01*
X31756095Y-84063000D01*
X31708476Y-84110619D01*
X31660857Y-84205857D01*
X31660857Y-84348714D01*
X31708476Y-84443952D01*
X31756095Y-84491571D01*
X31851333Y-84539190D01*
X32232285Y-84539190D01*
X30803714Y-84348714D02*
X30803714Y-85015380D01*
X31041809Y-83967761D02*
X31279904Y-84682047D01*
X30660857Y-84682047D01*
X30089428Y-84015380D02*
X29994190Y-84015380D01*
X29898952Y-84063000D01*
X29851333Y-84110619D01*
X29803714Y-84205857D01*
X29756095Y-84396333D01*
X29756095Y-84634428D01*
X29803714Y-84824904D01*
X29851333Y-84920142D01*
X29898952Y-84967761D01*
X29994190Y-85015380D01*
X30089428Y-85015380D01*
X30184666Y-84967761D01*
X30232285Y-84920142D01*
X30279904Y-84824904D01*
X30327523Y-84634428D01*
X30327523Y-84396333D01*
X30279904Y-84205857D01*
X30232285Y-84110619D01*
X30184666Y-84063000D01*
X30089428Y-84015380D01*
X31660857Y-86515380D02*
X31994190Y-86039190D01*
X32232285Y-86515380D02*
X32232285Y-85515380D01*
X31851333Y-85515380D01*
X31756095Y-85563000D01*
X31708476Y-85610619D01*
X31660857Y-85705857D01*
X31660857Y-85848714D01*
X31708476Y-85943952D01*
X31756095Y-85991571D01*
X31851333Y-86039190D01*
X32232285Y-86039190D01*
X31327523Y-85515380D02*
X30708476Y-85515380D01*
X31041809Y-85896333D01*
X30898952Y-85896333D01*
X30803714Y-85943952D01*
X30756095Y-85991571D01*
X30708476Y-86086809D01*
X30708476Y-86324904D01*
X30756095Y-86420142D01*
X30803714Y-86467761D01*
X30898952Y-86515380D01*
X31184666Y-86515380D01*
X31279904Y-86467761D01*
X31327523Y-86420142D01*
X30232285Y-86515380D02*
X30041809Y-86515380D01*
X29946571Y-86467761D01*
X29898952Y-86420142D01*
X29803714Y-86277285D01*
X29756095Y-86086809D01*
X29756095Y-85705857D01*
X29803714Y-85610619D01*
X29851333Y-85563000D01*
X29946571Y-85515380D01*
X30137047Y-85515380D01*
X30232285Y-85563000D01*
X30279904Y-85610619D01*
X30327523Y-85705857D01*
X30327523Y-85943952D01*
X30279904Y-86039190D01*
X30232285Y-86086809D01*
X30137047Y-86134428D01*
X29946571Y-86134428D01*
X29851333Y-86086809D01*
X29803714Y-86039190D01*
X29756095Y-85943952D01*
X42751333Y-5040380D02*
X42751333Y-5754666D01*
X42798952Y-5897523D01*
X42894190Y-5992761D01*
X43037047Y-6040380D01*
X43132285Y-6040380D01*
X41751333Y-6040380D02*
X42322761Y-6040380D01*
X42037047Y-6040380D02*
X42037047Y-5040380D01*
X42132285Y-5183238D01*
X42227523Y-5278476D01*
X42322761Y-5326095D01*
X39060333Y-12120571D02*
X39393666Y-12120571D01*
X39393666Y-12644380D02*
X39393666Y-11644380D01*
X38917476Y-11644380D01*
X38203190Y-12120571D02*
X38060333Y-12168190D01*
X38012714Y-12215809D01*
X37965095Y-12311047D01*
X37965095Y-12453904D01*
X38012714Y-12549142D01*
X38060333Y-12596761D01*
X38155571Y-12644380D01*
X38536523Y-12644380D01*
X38536523Y-11644380D01*
X38203190Y-11644380D01*
X38107952Y-11692000D01*
X38060333Y-11739619D01*
X38012714Y-11834857D01*
X38012714Y-11930095D01*
X38060333Y-12025333D01*
X38107952Y-12072952D01*
X38203190Y-12120571D01*
X38536523Y-12120571D01*
X37012714Y-12644380D02*
X37584142Y-12644380D01*
X37298428Y-12644380D02*
X37298428Y-11644380D01*
X37393666Y-11787238D01*
X37488904Y-11882476D01*
X37584142Y-11930095D01*
X30319604Y-78465580D02*
X30319604Y-79275104D01*
X30271985Y-79370342D01*
X30224366Y-79417961D01*
X30129128Y-79465580D01*
X29938652Y-79465580D01*
X29843414Y-79417961D01*
X29795795Y-79370342D01*
X29748176Y-79275104D01*
X29748176Y-78465580D01*
X29129128Y-78894152D02*
X29224366Y-78846533D01*
X29271985Y-78798914D01*
X29319604Y-78703676D01*
X29319604Y-78656057D01*
X29271985Y-78560819D01*
X29224366Y-78513200D01*
X29129128Y-78465580D01*
X28938652Y-78465580D01*
X28843414Y-78513200D01*
X28795795Y-78560819D01*
X28748176Y-78656057D01*
X28748176Y-78703676D01*
X28795795Y-78798914D01*
X28843414Y-78846533D01*
X28938652Y-78894152D01*
X29129128Y-78894152D01*
X29224366Y-78941771D01*
X29271985Y-78989390D01*
X29319604Y-79084628D01*
X29319604Y-79275104D01*
X29271985Y-79370342D01*
X29224366Y-79417961D01*
X29129128Y-79465580D01*
X28938652Y-79465580D01*
X28843414Y-79417961D01*
X28795795Y-79370342D01*
X28748176Y-79275104D01*
X28748176Y-79084628D01*
X28795795Y-78989390D01*
X28843414Y-78941771D01*
X28938652Y-78894152D01*
X54101904Y-35901380D02*
X54101904Y-36710904D01*
X54054285Y-36806142D01*
X54006666Y-36853761D01*
X53911428Y-36901380D01*
X53720952Y-36901380D01*
X53625714Y-36853761D01*
X53578095Y-36806142D01*
X53530476Y-36710904D01*
X53530476Y-35901380D01*
X52530476Y-36901380D02*
X53101904Y-36901380D01*
X52816190Y-36901380D02*
X52816190Y-35901380D01*
X52911428Y-36044238D01*
X53006666Y-36139476D01*
X53101904Y-36187095D01*
X34678857Y-44902380D02*
X35012190Y-44426190D01*
X35250285Y-44902380D02*
X35250285Y-43902380D01*
X34869333Y-43902380D01*
X34774095Y-43950000D01*
X34726476Y-43997619D01*
X34678857Y-44092857D01*
X34678857Y-44235714D01*
X34726476Y-44330952D01*
X34774095Y-44378571D01*
X34869333Y-44426190D01*
X35250285Y-44426190D01*
X34297904Y-43997619D02*
X34250285Y-43950000D01*
X34155047Y-43902380D01*
X33916952Y-43902380D01*
X33821714Y-43950000D01*
X33774095Y-43997619D01*
X33726476Y-44092857D01*
X33726476Y-44188095D01*
X33774095Y-44330952D01*
X34345523Y-44902380D01*
X33726476Y-44902380D01*
X32774095Y-44902380D02*
X33345523Y-44902380D01*
X33059809Y-44902380D02*
X33059809Y-43902380D01*
X33155047Y-44045238D01*
X33250285Y-44140476D01*
X33345523Y-44188095D01*
X38996857Y-19883380D02*
X39330190Y-19407190D01*
X39568285Y-19883380D02*
X39568285Y-18883380D01*
X39187333Y-18883380D01*
X39092095Y-18931000D01*
X39044476Y-18978619D01*
X38996857Y-19073857D01*
X38996857Y-19216714D01*
X39044476Y-19311952D01*
X39092095Y-19359571D01*
X39187333Y-19407190D01*
X39568285Y-19407190D01*
X38615904Y-18978619D02*
X38568285Y-18931000D01*
X38473047Y-18883380D01*
X38234952Y-18883380D01*
X38139714Y-18931000D01*
X38092095Y-18978619D01*
X38044476Y-19073857D01*
X38044476Y-19169095D01*
X38092095Y-19311952D01*
X38663523Y-19883380D01*
X38044476Y-19883380D01*
X37425428Y-18883380D02*
X37330190Y-18883380D01*
X37234952Y-18931000D01*
X37187333Y-18978619D01*
X37139714Y-19073857D01*
X37092095Y-19264333D01*
X37092095Y-19502428D01*
X37139714Y-19692904D01*
X37187333Y-19788142D01*
X37234952Y-19835761D01*
X37330190Y-19883380D01*
X37425428Y-19883380D01*
X37520666Y-19835761D01*
X37568285Y-19788142D01*
X37615904Y-19692904D01*
X37663523Y-19502428D01*
X37663523Y-19264333D01*
X37615904Y-19073857D01*
X37568285Y-18978619D01*
X37520666Y-18931000D01*
X37425428Y-18883380D01*
X32011857Y-29154380D02*
X32345190Y-28678190D01*
X32583285Y-29154380D02*
X32583285Y-28154380D01*
X32202333Y-28154380D01*
X32107095Y-28202000D01*
X32059476Y-28249619D01*
X32011857Y-28344857D01*
X32011857Y-28487714D01*
X32059476Y-28582952D01*
X32107095Y-28630571D01*
X32202333Y-28678190D01*
X32583285Y-28678190D01*
X31059476Y-29154380D02*
X31630904Y-29154380D01*
X31345190Y-29154380D02*
X31345190Y-28154380D01*
X31440428Y-28297238D01*
X31535666Y-28392476D01*
X31630904Y-28440095D01*
X30440428Y-28154380D02*
X30345190Y-28154380D01*
X30249952Y-28202000D01*
X30202333Y-28249619D01*
X30154714Y-28344857D01*
X30107095Y-28535333D01*
X30107095Y-28773428D01*
X30154714Y-28963904D01*
X30202333Y-29059142D01*
X30249952Y-29106761D01*
X30345190Y-29154380D01*
X30440428Y-29154380D01*
X30535666Y-29106761D01*
X30583285Y-29059142D01*
X30630904Y-28963904D01*
X30678523Y-28773428D01*
X30678523Y-28535333D01*
X30630904Y-28344857D01*
X30583285Y-28249619D01*
X30535666Y-28202000D01*
X30440428Y-28154380D01*
X39123857Y-17629142D02*
X39171476Y-17676761D01*
X39314333Y-17724380D01*
X39409571Y-17724380D01*
X39552428Y-17676761D01*
X39647666Y-17581523D01*
X39695285Y-17486285D01*
X39742904Y-17295809D01*
X39742904Y-17152952D01*
X39695285Y-16962476D01*
X39647666Y-16867238D01*
X39552428Y-16772000D01*
X39409571Y-16724380D01*
X39314333Y-16724380D01*
X39171476Y-16772000D01*
X39123857Y-16819619D01*
X38742904Y-16819619D02*
X38695285Y-16772000D01*
X38600047Y-16724380D01*
X38361952Y-16724380D01*
X38266714Y-16772000D01*
X38219095Y-16819619D01*
X38171476Y-16914857D01*
X38171476Y-17010095D01*
X38219095Y-17152952D01*
X38790523Y-17724380D01*
X38171476Y-17724380D01*
X37219095Y-17724380D02*
X37790523Y-17724380D01*
X37504809Y-17724380D02*
X37504809Y-16724380D01*
X37600047Y-16867238D01*
X37695285Y-16962476D01*
X37790523Y-17010095D01*
X61729857Y-26138142D02*
X61777476Y-26185761D01*
X61920333Y-26233380D01*
X62015571Y-26233380D01*
X62158428Y-26185761D01*
X62253666Y-26090523D01*
X62301285Y-25995285D01*
X62348904Y-25804809D01*
X62348904Y-25661952D01*
X62301285Y-25471476D01*
X62253666Y-25376238D01*
X62158428Y-25281000D01*
X62015571Y-25233380D01*
X61920333Y-25233380D01*
X61777476Y-25281000D01*
X61729857Y-25328619D01*
X60777476Y-26233380D02*
X61348904Y-26233380D01*
X61063190Y-26233380D02*
X61063190Y-25233380D01*
X61158428Y-25376238D01*
X61253666Y-25471476D01*
X61348904Y-25519095D01*
X60301285Y-26233380D02*
X60110809Y-26233380D01*
X60015571Y-26185761D01*
X59967952Y-26138142D01*
X59872714Y-25995285D01*
X59825095Y-25804809D01*
X59825095Y-25423857D01*
X59872714Y-25328619D01*
X59920333Y-25281000D01*
X60015571Y-25233380D01*
X60206047Y-25233380D01*
X60301285Y-25281000D01*
X60348904Y-25328619D01*
X60396523Y-25423857D01*
X60396523Y-25661952D01*
X60348904Y-25757190D01*
X60301285Y-25804809D01*
X60206047Y-25852428D01*
X60015571Y-25852428D01*
X59920333Y-25804809D01*
X59872714Y-25757190D01*
X59825095Y-25661952D01*
X12287095Y-35123380D02*
X12287095Y-34123380D01*
X12287095Y-34599571D02*
X11715666Y-34599571D01*
X11715666Y-35123380D02*
X11715666Y-34123380D01*
X11287095Y-35075761D02*
X11144238Y-35123380D01*
X10906142Y-35123380D01*
X10810904Y-35075761D01*
X10763285Y-35028142D01*
X10715666Y-34932904D01*
X10715666Y-34837666D01*
X10763285Y-34742428D01*
X10810904Y-34694809D01*
X10906142Y-34647190D01*
X11096619Y-34599571D01*
X11191857Y-34551952D01*
X11239476Y-34504333D01*
X11287095Y-34409095D01*
X11287095Y-34313857D01*
X11239476Y-34218619D01*
X11191857Y-34171000D01*
X11096619Y-34123380D01*
X10858523Y-34123380D01*
X10715666Y-34171000D01*
X10334714Y-34218619D02*
X10287095Y-34171000D01*
X10191857Y-34123380D01*
X9953761Y-34123380D01*
X9858523Y-34171000D01*
X9810904Y-34218619D01*
X9763285Y-34313857D01*
X9763285Y-34409095D01*
X9810904Y-34551952D01*
X10382333Y-35123380D01*
X9763285Y-35123380D01*
X12287095Y-52649380D02*
X12287095Y-51649380D01*
X12287095Y-52125571D02*
X11715666Y-52125571D01*
X11715666Y-52649380D02*
X11715666Y-51649380D01*
X11287095Y-52601761D02*
X11144238Y-52649380D01*
X10906142Y-52649380D01*
X10810904Y-52601761D01*
X10763285Y-52554142D01*
X10715666Y-52458904D01*
X10715666Y-52363666D01*
X10763285Y-52268428D01*
X10810904Y-52220809D01*
X10906142Y-52173190D01*
X11096619Y-52125571D01*
X11191857Y-52077952D01*
X11239476Y-52030333D01*
X11287095Y-51935095D01*
X11287095Y-51839857D01*
X11239476Y-51744619D01*
X11191857Y-51697000D01*
X11096619Y-51649380D01*
X10858523Y-51649380D01*
X10715666Y-51697000D01*
X9763285Y-52649380D02*
X10334714Y-52649380D01*
X10049000Y-52649380D02*
X10049000Y-51649380D01*
X10144238Y-51792238D01*
X10239476Y-51887476D01*
X10334714Y-51935095D01*
M02*
