G04 #@! TF.GenerationSoftware,KiCad,Pcbnew,(5.1.9-13-g2d491f9cbd)-1*
G04 #@! TF.CreationDate,2021-06-08T14:19:33+02:00*
G04 #@! TF.ProjectId,Load,4c6f6164-2e6b-4696-9361-645f70636258,rev?*
G04 #@! TF.SameCoordinates,Original*
G04 #@! TF.FileFunction,Soldermask,Top*
G04 #@! TF.FilePolarity,Negative*
%FSLAX46Y46*%
G04 Gerber Fmt 4.6, Leading zero omitted, Abs format (unit mm)*
G04 Created by KiCad (PCBNEW (5.1.9-13-g2d491f9cbd)-1) date 2021-06-08 14:19:33*
%MOMM*%
%LPD*%
G01*
G04 APERTURE LIST*
%ADD10C,0.010000*%
%ADD11R,1.500000X1.500000*%
%ADD12C,1.524000*%
%ADD13R,0.900000X1.200000*%
%ADD14O,1.600000X1.600000*%
%ADD15C,1.600000*%
%ADD16O,2.000000X1.700000*%
%ADD17O,1.950000X1.700000*%
%ADD18R,0.900000X0.800000*%
%ADD19O,1.700000X2.000000*%
%ADD20O,1.700000X1.950000*%
%ADD21R,1.200000X0.900000*%
%ADD22R,0.600000X2.000000*%
%ADD23R,2.500000X2.500000*%
%ADD24C,1.800000*%
%ADD25C,1.440000*%
%ADD26O,2.000000X1.905000*%
%ADD27R,2.000000X1.905000*%
%ADD28R,3.000000X1.600000*%
%ADD29R,6.200000X5.800000*%
%ADD30O,1.700000X1.700000*%
%ADD31R,1.700000X1.700000*%
%ADD32C,6.400000*%
%ADD33R,2.500000X1.800000*%
%ADD34R,1.400000X2.000000*%
%ADD35R,1.800000X2.500000*%
%ADD36R,0.600000X1.650000*%
%ADD37R,1.600000X1.600000*%
%ADD38C,2.000000*%
%ADD39R,2.000000X2.000000*%
%ADD40R,1.500000X2.000000*%
%ADD41R,3.800000X2.000000*%
%ADD42R,0.800000X0.900000*%
%ADD43C,1.050000*%
%ADD44C,1.700000*%
%ADD45C,3.000000*%
%ADD46O,1.000000X1.400000*%
%ADD47R,0.300000X1.450000*%
%ADD48C,2.700000*%
%ADD49R,1.100000X2.500000*%
%ADD50R,2.500000X1.100000*%
%ADD51C,5.600000*%
G04 APERTURE END LIST*
D10*
G36*
X47568000Y-63088000D02*
G01*
X47068000Y-63088000D01*
X47068000Y-62313000D01*
X47568000Y-62313000D01*
X47568000Y-63088000D01*
G37*
X47568000Y-63088000D02*
X47068000Y-63088000D01*
X47068000Y-62313000D01*
X47568000Y-62313000D01*
X47568000Y-63088000D01*
G36*
X47568000Y-62013000D02*
G01*
X47068000Y-62013000D01*
X47068000Y-61238000D01*
X47568000Y-61238000D01*
X47568000Y-62013000D01*
G37*
X47568000Y-62013000D02*
X47068000Y-62013000D01*
X47068000Y-61238000D01*
X47568000Y-61238000D01*
X47568000Y-62013000D01*
G36*
X50168000Y-62013000D02*
G01*
X49668000Y-62013000D01*
X49668000Y-61238000D01*
X50168000Y-61238000D01*
X50168000Y-62013000D01*
G37*
X50168000Y-62013000D02*
X49668000Y-62013000D01*
X49668000Y-61238000D01*
X50168000Y-61238000D01*
X50168000Y-62013000D01*
G36*
X50168000Y-63088000D02*
G01*
X49668000Y-63088000D01*
X49668000Y-62313000D01*
X50168000Y-62313000D01*
X50168000Y-63088000D01*
G37*
X50168000Y-63088000D02*
X49668000Y-63088000D01*
X49668000Y-62313000D01*
X50168000Y-62313000D01*
X50168000Y-63088000D01*
G36*
G01*
X43540000Y-53638000D02*
X44090000Y-53638000D01*
G75*
G02*
X44290000Y-53838000I0J-200000D01*
G01*
X44290000Y-54238000D01*
G75*
G02*
X44090000Y-54438000I-200000J0D01*
G01*
X43540000Y-54438000D01*
G75*
G02*
X43340000Y-54238000I0J200000D01*
G01*
X43340000Y-53838000D01*
G75*
G02*
X43540000Y-53638000I200000J0D01*
G01*
G37*
G36*
G01*
X43540000Y-51988000D02*
X44090000Y-51988000D01*
G75*
G02*
X44290000Y-52188000I0J-200000D01*
G01*
X44290000Y-52588000D01*
G75*
G02*
X44090000Y-52788000I-200000J0D01*
G01*
X43540000Y-52788000D01*
G75*
G02*
X43340000Y-52588000I0J200000D01*
G01*
X43340000Y-52188000D01*
G75*
G02*
X43540000Y-51988000I200000J0D01*
G01*
G37*
G36*
G01*
X46019000Y-21738000D02*
X46019000Y-21188000D01*
G75*
G02*
X46219000Y-20988000I200000J0D01*
G01*
X46619000Y-20988000D01*
G75*
G02*
X46819000Y-21188000I0J-200000D01*
G01*
X46819000Y-21738000D01*
G75*
G02*
X46619000Y-21938000I-200000J0D01*
G01*
X46219000Y-21938000D01*
G75*
G02*
X46019000Y-21738000I0J200000D01*
G01*
G37*
G36*
G01*
X47669000Y-21738000D02*
X47669000Y-21188000D01*
G75*
G02*
X47869000Y-20988000I200000J0D01*
G01*
X48269000Y-20988000D01*
G75*
G02*
X48469000Y-21188000I0J-200000D01*
G01*
X48469000Y-21738000D01*
G75*
G02*
X48269000Y-21938000I-200000J0D01*
G01*
X47869000Y-21938000D01*
G75*
G02*
X47669000Y-21738000I0J200000D01*
G01*
G37*
G36*
G01*
X47669000Y-18436000D02*
X47669000Y-17886000D01*
G75*
G02*
X47869000Y-17686000I200000J0D01*
G01*
X48269000Y-17686000D01*
G75*
G02*
X48469000Y-17886000I0J-200000D01*
G01*
X48469000Y-18436000D01*
G75*
G02*
X48269000Y-18636000I-200000J0D01*
G01*
X47869000Y-18636000D01*
G75*
G02*
X47669000Y-18436000I0J200000D01*
G01*
G37*
G36*
G01*
X46019000Y-18436000D02*
X46019000Y-17886000D01*
G75*
G02*
X46219000Y-17686000I200000J0D01*
G01*
X46619000Y-17686000D01*
G75*
G02*
X46819000Y-17886000I0J-200000D01*
G01*
X46819000Y-18436000D01*
G75*
G02*
X46619000Y-18636000I-200000J0D01*
G01*
X46219000Y-18636000D01*
G75*
G02*
X46019000Y-18436000I0J200000D01*
G01*
G37*
D11*
X71448000Y-44213000D03*
X73988000Y-44213000D03*
X73988000Y-53713000D03*
X71448000Y-53713000D03*
D12*
X81197000Y-44718000D03*
X84118000Y-44718000D03*
X87039000Y-44718000D03*
X87039000Y-53713000D03*
X81197000Y-53713000D03*
G36*
G01*
X56748000Y-63925000D02*
X57298000Y-63925000D01*
G75*
G02*
X57498000Y-64125000I0J-200000D01*
G01*
X57498000Y-64525000D01*
G75*
G02*
X57298000Y-64725000I-200000J0D01*
G01*
X56748000Y-64725000D01*
G75*
G02*
X56548000Y-64525000I0J200000D01*
G01*
X56548000Y-64125000D01*
G75*
G02*
X56748000Y-63925000I200000J0D01*
G01*
G37*
G36*
G01*
X56748000Y-62275000D02*
X57298000Y-62275000D01*
G75*
G02*
X57498000Y-62475000I0J-200000D01*
G01*
X57498000Y-62875000D01*
G75*
G02*
X57298000Y-63075000I-200000J0D01*
G01*
X56748000Y-63075000D01*
G75*
G02*
X56548000Y-62875000I0J200000D01*
G01*
X56548000Y-62475000D01*
G75*
G02*
X56748000Y-62275000I200000J0D01*
G01*
G37*
D13*
X62102000Y-63163000D03*
X58802000Y-63163000D03*
D14*
X90297000Y-37463000D03*
D15*
X87757000Y-37463000D03*
D14*
X87376000Y-40563000D03*
D15*
X89916000Y-40563000D03*
X51238000Y-5563000D03*
X61398000Y-5563000D03*
G36*
G01*
X32693000Y-52838000D02*
X32143000Y-52838000D01*
G75*
G02*
X31943000Y-52638000I0J200000D01*
G01*
X31943000Y-52238000D01*
G75*
G02*
X32143000Y-52038000I200000J0D01*
G01*
X32693000Y-52038000D01*
G75*
G02*
X32893000Y-52238000I0J-200000D01*
G01*
X32893000Y-52638000D01*
G75*
G02*
X32693000Y-52838000I-200000J0D01*
G01*
G37*
G36*
G01*
X32693000Y-54488000D02*
X32143000Y-54488000D01*
G75*
G02*
X31943000Y-54288000I0J200000D01*
G01*
X31943000Y-53888000D01*
G75*
G02*
X32143000Y-53688000I200000J0D01*
G01*
X32693000Y-53688000D01*
G75*
G02*
X32893000Y-53888000I0J-200000D01*
G01*
X32893000Y-54288000D01*
G75*
G02*
X32693000Y-54488000I-200000J0D01*
G01*
G37*
G36*
G01*
X28698000Y-52938000D02*
X28198000Y-52938000D01*
G75*
G02*
X27973000Y-52713000I0J225000D01*
G01*
X27973000Y-52263000D01*
G75*
G02*
X28198000Y-52038000I225000J0D01*
G01*
X28698000Y-52038000D01*
G75*
G02*
X28923000Y-52263000I0J-225000D01*
G01*
X28923000Y-52713000D01*
G75*
G02*
X28698000Y-52938000I-225000J0D01*
G01*
G37*
G36*
G01*
X28698000Y-54488000D02*
X28198000Y-54488000D01*
G75*
G02*
X27973000Y-54263000I0J225000D01*
G01*
X27973000Y-53813000D01*
G75*
G02*
X28198000Y-53588000I225000J0D01*
G01*
X28698000Y-53588000D01*
G75*
G02*
X28923000Y-53813000I0J-225000D01*
G01*
X28923000Y-54263000D01*
G75*
G02*
X28698000Y-54488000I-225000J0D01*
G01*
G37*
D16*
X33274000Y-61213000D03*
G36*
G01*
X32524000Y-57863000D02*
X34024000Y-57863000D01*
G75*
G02*
X34274000Y-58113000I0J-250000D01*
G01*
X34274000Y-59313000D01*
G75*
G02*
X34024000Y-59563000I-250000J0D01*
G01*
X32524000Y-59563000D01*
G75*
G02*
X32274000Y-59313000I0J250000D01*
G01*
X32274000Y-58113000D01*
G75*
G02*
X32524000Y-57863000I250000J0D01*
G01*
G37*
G36*
G01*
X39743000Y-62113000D02*
X38293000Y-62113000D01*
G75*
G02*
X38043000Y-61863000I0J250000D01*
G01*
X38043000Y-60663000D01*
G75*
G02*
X38293000Y-60413000I250000J0D01*
G01*
X39743000Y-60413000D01*
G75*
G02*
X39993000Y-60663000I0J-250000D01*
G01*
X39993000Y-61863000D01*
G75*
G02*
X39743000Y-62113000I-250000J0D01*
G01*
G37*
D17*
X39018000Y-58763000D03*
X39018000Y-56263000D03*
G36*
G01*
X47669000Y-23389000D02*
X47669000Y-22839000D01*
G75*
G02*
X47869000Y-22639000I200000J0D01*
G01*
X48269000Y-22639000D01*
G75*
G02*
X48469000Y-22839000I0J-200000D01*
G01*
X48469000Y-23389000D01*
G75*
G02*
X48269000Y-23589000I-200000J0D01*
G01*
X47869000Y-23589000D01*
G75*
G02*
X47669000Y-23389000I0J200000D01*
G01*
G37*
G36*
G01*
X46019000Y-23389000D02*
X46019000Y-22839000D01*
G75*
G02*
X46219000Y-22639000I200000J0D01*
G01*
X46619000Y-22639000D01*
G75*
G02*
X46819000Y-22839000I0J-200000D01*
G01*
X46819000Y-23389000D01*
G75*
G02*
X46619000Y-23589000I-200000J0D01*
G01*
X46219000Y-23589000D01*
G75*
G02*
X46019000Y-23389000I0J200000D01*
G01*
G37*
D18*
X39868000Y-37263000D03*
X41868000Y-36313000D03*
X41868000Y-38213000D03*
D19*
X30718000Y-17163000D03*
G36*
G01*
X34068000Y-16413000D02*
X34068000Y-17913000D01*
G75*
G02*
X33818000Y-18163000I-250000J0D01*
G01*
X32618000Y-18163000D01*
G75*
G02*
X32368000Y-17913000I0J250000D01*
G01*
X32368000Y-16413000D01*
G75*
G02*
X32618000Y-16163000I250000J0D01*
G01*
X33818000Y-16163000D01*
G75*
G02*
X34068000Y-16413000I0J-250000D01*
G01*
G37*
D20*
X25718000Y-9663000D03*
X28218000Y-9663000D03*
X30718000Y-9663000D03*
G36*
G01*
X34068000Y-8938000D02*
X34068000Y-10388000D01*
G75*
G02*
X33818000Y-10638000I-250000J0D01*
G01*
X32618000Y-10638000D01*
G75*
G02*
X32368000Y-10388000I0J250000D01*
G01*
X32368000Y-8938000D01*
G75*
G02*
X32618000Y-8688000I250000J0D01*
G01*
X33818000Y-8688000D01*
G75*
G02*
X34068000Y-8938000I0J-250000D01*
G01*
G37*
D21*
X44323000Y-21337000D03*
X44323000Y-24637000D03*
X64135000Y-46013000D03*
X64135000Y-42713000D03*
D22*
X74313000Y-36313000D03*
X75583000Y-36313000D03*
X76853000Y-36313000D03*
X78123000Y-36313000D03*
X78123000Y-41213000D03*
X75583000Y-41213000D03*
X74313000Y-41213000D03*
G36*
G01*
X34218000Y-36458000D02*
X34218000Y-36158000D01*
G75*
G02*
X34368000Y-36008000I150000J0D01*
G01*
X36018000Y-36008000D01*
G75*
G02*
X36168000Y-36158000I0J-150000D01*
G01*
X36168000Y-36458000D01*
G75*
G02*
X36018000Y-36608000I-150000J0D01*
G01*
X34368000Y-36608000D01*
G75*
G02*
X34218000Y-36458000I0J150000D01*
G01*
G37*
G36*
G01*
X34218000Y-37728000D02*
X34218000Y-37428000D01*
G75*
G02*
X34368000Y-37278000I150000J0D01*
G01*
X36018000Y-37278000D01*
G75*
G02*
X36168000Y-37428000I0J-150000D01*
G01*
X36168000Y-37728000D01*
G75*
G02*
X36018000Y-37878000I-150000J0D01*
G01*
X34368000Y-37878000D01*
G75*
G02*
X34218000Y-37728000I0J150000D01*
G01*
G37*
G36*
G01*
X34218000Y-38998000D02*
X34218000Y-38698000D01*
G75*
G02*
X34368000Y-38548000I150000J0D01*
G01*
X36018000Y-38548000D01*
G75*
G02*
X36168000Y-38698000I0J-150000D01*
G01*
X36168000Y-38998000D01*
G75*
G02*
X36018000Y-39148000I-150000J0D01*
G01*
X34368000Y-39148000D01*
G75*
G02*
X34218000Y-38998000I0J150000D01*
G01*
G37*
G36*
G01*
X34218000Y-40268000D02*
X34218000Y-39968000D01*
G75*
G02*
X34368000Y-39818000I150000J0D01*
G01*
X36018000Y-39818000D01*
G75*
G02*
X36168000Y-39968000I0J-150000D01*
G01*
X36168000Y-40268000D01*
G75*
G02*
X36018000Y-40418000I-150000J0D01*
G01*
X34368000Y-40418000D01*
G75*
G02*
X34218000Y-40268000I0J150000D01*
G01*
G37*
G36*
G01*
X29268000Y-40268000D02*
X29268000Y-39968000D01*
G75*
G02*
X29418000Y-39818000I150000J0D01*
G01*
X31068000Y-39818000D01*
G75*
G02*
X31218000Y-39968000I0J-150000D01*
G01*
X31218000Y-40268000D01*
G75*
G02*
X31068000Y-40418000I-150000J0D01*
G01*
X29418000Y-40418000D01*
G75*
G02*
X29268000Y-40268000I0J150000D01*
G01*
G37*
G36*
G01*
X29268000Y-38998000D02*
X29268000Y-38698000D01*
G75*
G02*
X29418000Y-38548000I150000J0D01*
G01*
X31068000Y-38548000D01*
G75*
G02*
X31218000Y-38698000I0J-150000D01*
G01*
X31218000Y-38998000D01*
G75*
G02*
X31068000Y-39148000I-150000J0D01*
G01*
X29418000Y-39148000D01*
G75*
G02*
X29268000Y-38998000I0J150000D01*
G01*
G37*
G36*
G01*
X29268000Y-37728000D02*
X29268000Y-37428000D01*
G75*
G02*
X29418000Y-37278000I150000J0D01*
G01*
X31068000Y-37278000D01*
G75*
G02*
X31218000Y-37428000I0J-150000D01*
G01*
X31218000Y-37728000D01*
G75*
G02*
X31068000Y-37878000I-150000J0D01*
G01*
X29418000Y-37878000D01*
G75*
G02*
X29268000Y-37728000I0J150000D01*
G01*
G37*
G36*
G01*
X29268000Y-36458000D02*
X29268000Y-36158000D01*
G75*
G02*
X29418000Y-36008000I150000J0D01*
G01*
X31068000Y-36008000D01*
G75*
G02*
X31218000Y-36158000I0J-150000D01*
G01*
X31218000Y-36458000D01*
G75*
G02*
X31068000Y-36608000I-150000J0D01*
G01*
X29418000Y-36608000D01*
G75*
G02*
X29268000Y-36458000I0J150000D01*
G01*
G37*
G36*
G01*
X31418000Y-50518000D02*
X31418000Y-50818000D01*
G75*
G02*
X31268000Y-50968000I-150000J0D01*
G01*
X29618000Y-50968000D01*
G75*
G02*
X29468000Y-50818000I0J150000D01*
G01*
X29468000Y-50518000D01*
G75*
G02*
X29618000Y-50368000I150000J0D01*
G01*
X31268000Y-50368000D01*
G75*
G02*
X31418000Y-50518000I0J-150000D01*
G01*
G37*
G36*
G01*
X31418000Y-49248000D02*
X31418000Y-49548000D01*
G75*
G02*
X31268000Y-49698000I-150000J0D01*
G01*
X29618000Y-49698000D01*
G75*
G02*
X29468000Y-49548000I0J150000D01*
G01*
X29468000Y-49248000D01*
G75*
G02*
X29618000Y-49098000I150000J0D01*
G01*
X31268000Y-49098000D01*
G75*
G02*
X31418000Y-49248000I0J-150000D01*
G01*
G37*
G36*
G01*
X31418000Y-47978000D02*
X31418000Y-48278000D01*
G75*
G02*
X31268000Y-48428000I-150000J0D01*
G01*
X29618000Y-48428000D01*
G75*
G02*
X29468000Y-48278000I0J150000D01*
G01*
X29468000Y-47978000D01*
G75*
G02*
X29618000Y-47828000I150000J0D01*
G01*
X31268000Y-47828000D01*
G75*
G02*
X31418000Y-47978000I0J-150000D01*
G01*
G37*
G36*
G01*
X31418000Y-46708000D02*
X31418000Y-47008000D01*
G75*
G02*
X31268000Y-47158000I-150000J0D01*
G01*
X29618000Y-47158000D01*
G75*
G02*
X29468000Y-47008000I0J150000D01*
G01*
X29468000Y-46708000D01*
G75*
G02*
X29618000Y-46558000I150000J0D01*
G01*
X31268000Y-46558000D01*
G75*
G02*
X31418000Y-46708000I0J-150000D01*
G01*
G37*
G36*
G01*
X36368000Y-46708000D02*
X36368000Y-47008000D01*
G75*
G02*
X36218000Y-47158000I-150000J0D01*
G01*
X34568000Y-47158000D01*
G75*
G02*
X34418000Y-47008000I0J150000D01*
G01*
X34418000Y-46708000D01*
G75*
G02*
X34568000Y-46558000I150000J0D01*
G01*
X36218000Y-46558000D01*
G75*
G02*
X36368000Y-46708000I0J-150000D01*
G01*
G37*
G36*
G01*
X36368000Y-47978000D02*
X36368000Y-48278000D01*
G75*
G02*
X36218000Y-48428000I-150000J0D01*
G01*
X34568000Y-48428000D01*
G75*
G02*
X34418000Y-48278000I0J150000D01*
G01*
X34418000Y-47978000D01*
G75*
G02*
X34568000Y-47828000I150000J0D01*
G01*
X36218000Y-47828000D01*
G75*
G02*
X36368000Y-47978000I0J-150000D01*
G01*
G37*
G36*
G01*
X36368000Y-49248000D02*
X36368000Y-49548000D01*
G75*
G02*
X36218000Y-49698000I-150000J0D01*
G01*
X34568000Y-49698000D01*
G75*
G02*
X34418000Y-49548000I0J150000D01*
G01*
X34418000Y-49248000D01*
G75*
G02*
X34568000Y-49098000I150000J0D01*
G01*
X36218000Y-49098000D01*
G75*
G02*
X36368000Y-49248000I0J-150000D01*
G01*
G37*
G36*
G01*
X36368000Y-50518000D02*
X36368000Y-50818000D01*
G75*
G02*
X36218000Y-50968000I-150000J0D01*
G01*
X34568000Y-50968000D01*
G75*
G02*
X34418000Y-50818000I0J150000D01*
G01*
X34418000Y-50518000D01*
G75*
G02*
X34568000Y-50368000I150000J0D01*
G01*
X36218000Y-50368000D01*
G75*
G02*
X36368000Y-50518000I0J-150000D01*
G01*
G37*
G36*
G01*
X41943000Y-48963000D02*
X41943000Y-48663000D01*
G75*
G02*
X42093000Y-48513000I150000J0D01*
G01*
X43118000Y-48513000D01*
G75*
G02*
X43268000Y-48663000I0J-150000D01*
G01*
X43268000Y-48963000D01*
G75*
G02*
X43118000Y-49113000I-150000J0D01*
G01*
X42093000Y-49113000D01*
G75*
G02*
X41943000Y-48963000I0J150000D01*
G01*
G37*
G36*
G01*
X41943000Y-49913000D02*
X41943000Y-49613000D01*
G75*
G02*
X42093000Y-49463000I150000J0D01*
G01*
X43118000Y-49463000D01*
G75*
G02*
X43268000Y-49613000I0J-150000D01*
G01*
X43268000Y-49913000D01*
G75*
G02*
X43118000Y-50063000I-150000J0D01*
G01*
X42093000Y-50063000D01*
G75*
G02*
X41943000Y-49913000I0J150000D01*
G01*
G37*
G36*
G01*
X41943000Y-50863000D02*
X41943000Y-50563000D01*
G75*
G02*
X42093000Y-50413000I150000J0D01*
G01*
X43118000Y-50413000D01*
G75*
G02*
X43268000Y-50563000I0J-150000D01*
G01*
X43268000Y-50863000D01*
G75*
G02*
X43118000Y-51013000I-150000J0D01*
G01*
X42093000Y-51013000D01*
G75*
G02*
X41943000Y-50863000I0J150000D01*
G01*
G37*
G36*
G01*
X39668000Y-50863000D02*
X39668000Y-50563000D01*
G75*
G02*
X39818000Y-50413000I150000J0D01*
G01*
X40843000Y-50413000D01*
G75*
G02*
X40993000Y-50563000I0J-150000D01*
G01*
X40993000Y-50863000D01*
G75*
G02*
X40843000Y-51013000I-150000J0D01*
G01*
X39818000Y-51013000D01*
G75*
G02*
X39668000Y-50863000I0J150000D01*
G01*
G37*
G36*
G01*
X39668000Y-49913000D02*
X39668000Y-49613000D01*
G75*
G02*
X39818000Y-49463000I150000J0D01*
G01*
X40843000Y-49463000D01*
G75*
G02*
X40993000Y-49613000I0J-150000D01*
G01*
X40993000Y-49913000D01*
G75*
G02*
X40843000Y-50063000I-150000J0D01*
G01*
X39818000Y-50063000D01*
G75*
G02*
X39668000Y-49913000I0J150000D01*
G01*
G37*
G36*
G01*
X39668000Y-48963000D02*
X39668000Y-48663000D01*
G75*
G02*
X39818000Y-48513000I150000J0D01*
G01*
X40843000Y-48513000D01*
G75*
G02*
X40993000Y-48663000I0J-150000D01*
G01*
X40993000Y-48963000D01*
G75*
G02*
X40843000Y-49113000I-150000J0D01*
G01*
X39818000Y-49113000D01*
G75*
G02*
X39668000Y-48963000I0J150000D01*
G01*
G37*
D23*
X42818000Y-17413000D03*
G36*
G01*
X43943000Y-19000500D02*
X43943000Y-19700500D01*
G75*
G02*
X43880500Y-19763000I-62500J0D01*
G01*
X43755500Y-19763000D01*
G75*
G02*
X43693000Y-19700500I0J62500D01*
G01*
X43693000Y-19000500D01*
G75*
G02*
X43755500Y-18938000I62500J0D01*
G01*
X43880500Y-18938000D01*
G75*
G02*
X43943000Y-19000500I0J-62500D01*
G01*
G37*
G36*
G01*
X43443000Y-19000500D02*
X43443000Y-19700500D01*
G75*
G02*
X43380500Y-19763000I-62500J0D01*
G01*
X43255500Y-19763000D01*
G75*
G02*
X43193000Y-19700500I0J62500D01*
G01*
X43193000Y-19000500D01*
G75*
G02*
X43255500Y-18938000I62500J0D01*
G01*
X43380500Y-18938000D01*
G75*
G02*
X43443000Y-19000500I0J-62500D01*
G01*
G37*
G36*
G01*
X42943000Y-19000500D02*
X42943000Y-19700500D01*
G75*
G02*
X42880500Y-19763000I-62500J0D01*
G01*
X42755500Y-19763000D01*
G75*
G02*
X42693000Y-19700500I0J62500D01*
G01*
X42693000Y-19000500D01*
G75*
G02*
X42755500Y-18938000I62500J0D01*
G01*
X42880500Y-18938000D01*
G75*
G02*
X42943000Y-19000500I0J-62500D01*
G01*
G37*
G36*
G01*
X42443000Y-19000500D02*
X42443000Y-19700500D01*
G75*
G02*
X42380500Y-19763000I-62500J0D01*
G01*
X42255500Y-19763000D01*
G75*
G02*
X42193000Y-19700500I0J62500D01*
G01*
X42193000Y-19000500D01*
G75*
G02*
X42255500Y-18938000I62500J0D01*
G01*
X42380500Y-18938000D01*
G75*
G02*
X42443000Y-19000500I0J-62500D01*
G01*
G37*
G36*
G01*
X41943000Y-19000500D02*
X41943000Y-19700500D01*
G75*
G02*
X41880500Y-19763000I-62500J0D01*
G01*
X41755500Y-19763000D01*
G75*
G02*
X41693000Y-19700500I0J62500D01*
G01*
X41693000Y-19000500D01*
G75*
G02*
X41755500Y-18938000I62500J0D01*
G01*
X41880500Y-18938000D01*
G75*
G02*
X41943000Y-19000500I0J-62500D01*
G01*
G37*
G36*
G01*
X41293000Y-18350500D02*
X41293000Y-18475500D01*
G75*
G02*
X41230500Y-18538000I-62500J0D01*
G01*
X40530500Y-18538000D01*
G75*
G02*
X40468000Y-18475500I0J62500D01*
G01*
X40468000Y-18350500D01*
G75*
G02*
X40530500Y-18288000I62500J0D01*
G01*
X41230500Y-18288000D01*
G75*
G02*
X41293000Y-18350500I0J-62500D01*
G01*
G37*
G36*
G01*
X41293000Y-17850500D02*
X41293000Y-17975500D01*
G75*
G02*
X41230500Y-18038000I-62500J0D01*
G01*
X40530500Y-18038000D01*
G75*
G02*
X40468000Y-17975500I0J62500D01*
G01*
X40468000Y-17850500D01*
G75*
G02*
X40530500Y-17788000I62500J0D01*
G01*
X41230500Y-17788000D01*
G75*
G02*
X41293000Y-17850500I0J-62500D01*
G01*
G37*
G36*
G01*
X41293000Y-17350500D02*
X41293000Y-17475500D01*
G75*
G02*
X41230500Y-17538000I-62500J0D01*
G01*
X40530500Y-17538000D01*
G75*
G02*
X40468000Y-17475500I0J62500D01*
G01*
X40468000Y-17350500D01*
G75*
G02*
X40530500Y-17288000I62500J0D01*
G01*
X41230500Y-17288000D01*
G75*
G02*
X41293000Y-17350500I0J-62500D01*
G01*
G37*
G36*
G01*
X41293000Y-16850500D02*
X41293000Y-16975500D01*
G75*
G02*
X41230500Y-17038000I-62500J0D01*
G01*
X40530500Y-17038000D01*
G75*
G02*
X40468000Y-16975500I0J62500D01*
G01*
X40468000Y-16850500D01*
G75*
G02*
X40530500Y-16788000I62500J0D01*
G01*
X41230500Y-16788000D01*
G75*
G02*
X41293000Y-16850500I0J-62500D01*
G01*
G37*
G36*
G01*
X41293000Y-16350500D02*
X41293000Y-16475500D01*
G75*
G02*
X41230500Y-16538000I-62500J0D01*
G01*
X40530500Y-16538000D01*
G75*
G02*
X40468000Y-16475500I0J62500D01*
G01*
X40468000Y-16350500D01*
G75*
G02*
X40530500Y-16288000I62500J0D01*
G01*
X41230500Y-16288000D01*
G75*
G02*
X41293000Y-16350500I0J-62500D01*
G01*
G37*
G36*
G01*
X41943000Y-15125500D02*
X41943000Y-15825500D01*
G75*
G02*
X41880500Y-15888000I-62500J0D01*
G01*
X41755500Y-15888000D01*
G75*
G02*
X41693000Y-15825500I0J62500D01*
G01*
X41693000Y-15125500D01*
G75*
G02*
X41755500Y-15063000I62500J0D01*
G01*
X41880500Y-15063000D01*
G75*
G02*
X41943000Y-15125500I0J-62500D01*
G01*
G37*
G36*
G01*
X42443000Y-15125500D02*
X42443000Y-15825500D01*
G75*
G02*
X42380500Y-15888000I-62500J0D01*
G01*
X42255500Y-15888000D01*
G75*
G02*
X42193000Y-15825500I0J62500D01*
G01*
X42193000Y-15125500D01*
G75*
G02*
X42255500Y-15063000I62500J0D01*
G01*
X42380500Y-15063000D01*
G75*
G02*
X42443000Y-15125500I0J-62500D01*
G01*
G37*
G36*
G01*
X42943000Y-15125500D02*
X42943000Y-15825500D01*
G75*
G02*
X42880500Y-15888000I-62500J0D01*
G01*
X42755500Y-15888000D01*
G75*
G02*
X42693000Y-15825500I0J62500D01*
G01*
X42693000Y-15125500D01*
G75*
G02*
X42755500Y-15063000I62500J0D01*
G01*
X42880500Y-15063000D01*
G75*
G02*
X42943000Y-15125500I0J-62500D01*
G01*
G37*
G36*
G01*
X43443000Y-15125500D02*
X43443000Y-15825500D01*
G75*
G02*
X43380500Y-15888000I-62500J0D01*
G01*
X43255500Y-15888000D01*
G75*
G02*
X43193000Y-15825500I0J62500D01*
G01*
X43193000Y-15125500D01*
G75*
G02*
X43255500Y-15063000I62500J0D01*
G01*
X43380500Y-15063000D01*
G75*
G02*
X43443000Y-15125500I0J-62500D01*
G01*
G37*
G36*
G01*
X43943000Y-15125500D02*
X43943000Y-15825500D01*
G75*
G02*
X43880500Y-15888000I-62500J0D01*
G01*
X43755500Y-15888000D01*
G75*
G02*
X43693000Y-15825500I0J62500D01*
G01*
X43693000Y-15125500D01*
G75*
G02*
X43755500Y-15063000I62500J0D01*
G01*
X43880500Y-15063000D01*
G75*
G02*
X43943000Y-15125500I0J-62500D01*
G01*
G37*
G36*
G01*
X45168000Y-16350500D02*
X45168000Y-16475500D01*
G75*
G02*
X45105500Y-16538000I-62500J0D01*
G01*
X44405500Y-16538000D01*
G75*
G02*
X44343000Y-16475500I0J62500D01*
G01*
X44343000Y-16350500D01*
G75*
G02*
X44405500Y-16288000I62500J0D01*
G01*
X45105500Y-16288000D01*
G75*
G02*
X45168000Y-16350500I0J-62500D01*
G01*
G37*
G36*
G01*
X45168000Y-16850500D02*
X45168000Y-16975500D01*
G75*
G02*
X45105500Y-17038000I-62500J0D01*
G01*
X44405500Y-17038000D01*
G75*
G02*
X44343000Y-16975500I0J62500D01*
G01*
X44343000Y-16850500D01*
G75*
G02*
X44405500Y-16788000I62500J0D01*
G01*
X45105500Y-16788000D01*
G75*
G02*
X45168000Y-16850500I0J-62500D01*
G01*
G37*
G36*
G01*
X45168000Y-17350500D02*
X45168000Y-17475500D01*
G75*
G02*
X45105500Y-17538000I-62500J0D01*
G01*
X44405500Y-17538000D01*
G75*
G02*
X44343000Y-17475500I0J62500D01*
G01*
X44343000Y-17350500D01*
G75*
G02*
X44405500Y-17288000I62500J0D01*
G01*
X45105500Y-17288000D01*
G75*
G02*
X45168000Y-17350500I0J-62500D01*
G01*
G37*
G36*
G01*
X45168000Y-17850500D02*
X45168000Y-17975500D01*
G75*
G02*
X45105500Y-18038000I-62500J0D01*
G01*
X44405500Y-18038000D01*
G75*
G02*
X44343000Y-17975500I0J62500D01*
G01*
X44343000Y-17850500D01*
G75*
G02*
X44405500Y-17788000I62500J0D01*
G01*
X45105500Y-17788000D01*
G75*
G02*
X45168000Y-17850500I0J-62500D01*
G01*
G37*
G36*
G01*
X45168000Y-18350500D02*
X45168000Y-18475500D01*
G75*
G02*
X45105500Y-18538000I-62500J0D01*
G01*
X44405500Y-18538000D01*
G75*
G02*
X44343000Y-18475500I0J62500D01*
G01*
X44343000Y-18350500D01*
G75*
G02*
X44405500Y-18288000I62500J0D01*
G01*
X45105500Y-18288000D01*
G75*
G02*
X45168000Y-18350500I0J-62500D01*
G01*
G37*
D24*
X70329000Y-25827000D03*
X72107000Y-17699000D03*
D25*
X40268000Y-28883000D03*
X40268000Y-31423000D03*
X40268000Y-33963000D03*
G36*
G01*
X78163000Y-62752000D02*
X77793000Y-62752000D01*
G75*
G02*
X77658000Y-62617000I0J135000D01*
G01*
X77658000Y-62347000D01*
G75*
G02*
X77793000Y-62212000I135000J0D01*
G01*
X78163000Y-62212000D01*
G75*
G02*
X78298000Y-62347000I0J-135000D01*
G01*
X78298000Y-62617000D01*
G75*
G02*
X78163000Y-62752000I-135000J0D01*
G01*
G37*
G36*
G01*
X78163000Y-63772000D02*
X77793000Y-63772000D01*
G75*
G02*
X77658000Y-63637000I0J135000D01*
G01*
X77658000Y-63367000D01*
G75*
G02*
X77793000Y-63232000I135000J0D01*
G01*
X78163000Y-63232000D01*
G75*
G02*
X78298000Y-63367000I0J-135000D01*
G01*
X78298000Y-63637000D01*
G75*
G02*
X78163000Y-63772000I-135000J0D01*
G01*
G37*
G36*
G01*
X76179000Y-63417000D02*
X76729000Y-63417000D01*
G75*
G02*
X76929000Y-63617000I0J-200000D01*
G01*
X76929000Y-64017000D01*
G75*
G02*
X76729000Y-64217000I-200000J0D01*
G01*
X76179000Y-64217000D01*
G75*
G02*
X75979000Y-64017000I0J200000D01*
G01*
X75979000Y-63617000D01*
G75*
G02*
X76179000Y-63417000I200000J0D01*
G01*
G37*
G36*
G01*
X76179000Y-61767000D02*
X76729000Y-61767000D01*
G75*
G02*
X76929000Y-61967000I0J-200000D01*
G01*
X76929000Y-62367000D01*
G75*
G02*
X76729000Y-62567000I-200000J0D01*
G01*
X76179000Y-62567000D01*
G75*
G02*
X75979000Y-62367000I0J200000D01*
G01*
X75979000Y-61967000D01*
G75*
G02*
X76179000Y-61767000I200000J0D01*
G01*
G37*
G36*
G01*
X84943003Y-57063000D02*
X83692997Y-57063000D01*
G75*
G02*
X83443000Y-56813003I0J249997D01*
G01*
X83443000Y-56187997D01*
G75*
G02*
X83692997Y-55938000I249997J0D01*
G01*
X84943003Y-55938000D01*
G75*
G02*
X85193000Y-56187997I0J-249997D01*
G01*
X85193000Y-56813003D01*
G75*
G02*
X84943003Y-57063000I-249997J0D01*
G01*
G37*
G36*
G01*
X84943003Y-59988000D02*
X83692997Y-59988000D01*
G75*
G02*
X83443000Y-59738003I0J249997D01*
G01*
X83443000Y-59112997D01*
G75*
G02*
X83692997Y-58863000I249997J0D01*
G01*
X84943003Y-58863000D01*
G75*
G02*
X85193000Y-59112997I0J-249997D01*
G01*
X85193000Y-59738003D01*
G75*
G02*
X84943003Y-59988000I-249997J0D01*
G01*
G37*
G36*
G01*
X67092999Y-10913000D02*
X69943001Y-10913000D01*
G75*
G02*
X70193000Y-11162999I0J-249999D01*
G01*
X70193000Y-11888001D01*
G75*
G02*
X69943001Y-12138000I-249999J0D01*
G01*
X67092999Y-12138000D01*
G75*
G02*
X66843000Y-11888001I0J249999D01*
G01*
X66843000Y-11162999D01*
G75*
G02*
X67092999Y-10913000I249999J0D01*
G01*
G37*
G36*
G01*
X67092999Y-4988000D02*
X69943001Y-4988000D01*
G75*
G02*
X70193000Y-5237999I0J-249999D01*
G01*
X70193000Y-5963001D01*
G75*
G02*
X69943001Y-6213000I-249999J0D01*
G01*
X67092999Y-6213000D01*
G75*
G02*
X66843000Y-5963001I0J249999D01*
G01*
X66843000Y-5237999D01*
G75*
G02*
X67092999Y-4988000I249999J0D01*
G01*
G37*
G36*
G01*
X22518000Y-14137997D02*
X22518000Y-15388003D01*
G75*
G02*
X22268003Y-15638000I-249997J0D01*
G01*
X21642997Y-15638000D01*
G75*
G02*
X21393000Y-15388003I0J249997D01*
G01*
X21393000Y-14137997D01*
G75*
G02*
X21642997Y-13888000I249997J0D01*
G01*
X22268003Y-13888000D01*
G75*
G02*
X22518000Y-14137997I0J-249997D01*
G01*
G37*
G36*
G01*
X25443000Y-14137997D02*
X25443000Y-15388003D01*
G75*
G02*
X25193003Y-15638000I-249997J0D01*
G01*
X24567997Y-15638000D01*
G75*
G02*
X24318000Y-15388003I0J249997D01*
G01*
X24318000Y-14137997D01*
G75*
G02*
X24567997Y-13888000I249997J0D01*
G01*
X25193003Y-13888000D01*
G75*
G02*
X25443000Y-14137997I0J-249997D01*
G01*
G37*
G36*
G01*
X22518000Y-31537997D02*
X22518000Y-32788003D01*
G75*
G02*
X22268003Y-33038000I-249997J0D01*
G01*
X21642997Y-33038000D01*
G75*
G02*
X21393000Y-32788003I0J249997D01*
G01*
X21393000Y-31537997D01*
G75*
G02*
X21642997Y-31288000I249997J0D01*
G01*
X22268003Y-31288000D01*
G75*
G02*
X22518000Y-31537997I0J-249997D01*
G01*
G37*
G36*
G01*
X25443000Y-31537997D02*
X25443000Y-32788003D01*
G75*
G02*
X25193003Y-33038000I-249997J0D01*
G01*
X24567997Y-33038000D01*
G75*
G02*
X24318000Y-32788003I0J249997D01*
G01*
X24318000Y-31537997D01*
G75*
G02*
X24567997Y-31288000I249997J0D01*
G01*
X25193003Y-31288000D01*
G75*
G02*
X25443000Y-31537997I0J-249997D01*
G01*
G37*
G36*
G01*
X26692997Y-38713000D02*
X27943003Y-38713000D01*
G75*
G02*
X28193000Y-38962997I0J-249997D01*
G01*
X28193000Y-39588003D01*
G75*
G02*
X27943003Y-39838000I-249997J0D01*
G01*
X26692997Y-39838000D01*
G75*
G02*
X26443000Y-39588003I0J249997D01*
G01*
X26443000Y-38962997D01*
G75*
G02*
X26692997Y-38713000I249997J0D01*
G01*
G37*
G36*
G01*
X26692997Y-35788000D02*
X27943003Y-35788000D01*
G75*
G02*
X28193000Y-36037997I0J-249997D01*
G01*
X28193000Y-36663003D01*
G75*
G02*
X27943003Y-36913000I-249997J0D01*
G01*
X26692997Y-36913000D01*
G75*
G02*
X26443000Y-36663003I0J249997D01*
G01*
X26443000Y-36037997D01*
G75*
G02*
X26692997Y-35788000I249997J0D01*
G01*
G37*
G36*
G01*
X22518000Y-49137997D02*
X22518000Y-50388003D01*
G75*
G02*
X22268003Y-50638000I-249997J0D01*
G01*
X21642997Y-50638000D01*
G75*
G02*
X21393000Y-50388003I0J249997D01*
G01*
X21393000Y-49137997D01*
G75*
G02*
X21642997Y-48888000I249997J0D01*
G01*
X22268003Y-48888000D01*
G75*
G02*
X22518000Y-49137997I0J-249997D01*
G01*
G37*
G36*
G01*
X25443000Y-49137997D02*
X25443000Y-50388003D01*
G75*
G02*
X25193003Y-50638000I-249997J0D01*
G01*
X24567997Y-50638000D01*
G75*
G02*
X24318000Y-50388003I0J249997D01*
G01*
X24318000Y-49137997D01*
G75*
G02*
X24567997Y-48888000I249997J0D01*
G01*
X25193003Y-48888000D01*
G75*
G02*
X25443000Y-49137997I0J-249997D01*
G01*
G37*
G36*
G01*
X30755000Y-52788000D02*
X30205000Y-52788000D01*
G75*
G02*
X30005000Y-52588000I0J200000D01*
G01*
X30005000Y-52188000D01*
G75*
G02*
X30205000Y-51988000I200000J0D01*
G01*
X30755000Y-51988000D01*
G75*
G02*
X30955000Y-52188000I0J-200000D01*
G01*
X30955000Y-52588000D01*
G75*
G02*
X30755000Y-52788000I-200000J0D01*
G01*
G37*
G36*
G01*
X30755000Y-54438000D02*
X30205000Y-54438000D01*
G75*
G02*
X30005000Y-54238000I0J200000D01*
G01*
X30005000Y-53838000D01*
G75*
G02*
X30205000Y-53638000I200000J0D01*
G01*
X30755000Y-53638000D01*
G75*
G02*
X30955000Y-53838000I0J-200000D01*
G01*
X30955000Y-54238000D01*
G75*
G02*
X30755000Y-54438000I-200000J0D01*
G01*
G37*
G36*
G01*
X49193000Y-59788000D02*
X49193000Y-60338000D01*
G75*
G02*
X48993000Y-60538000I-200000J0D01*
G01*
X48593000Y-60538000D01*
G75*
G02*
X48393000Y-60338000I0J200000D01*
G01*
X48393000Y-59788000D01*
G75*
G02*
X48593000Y-59588000I200000J0D01*
G01*
X48993000Y-59588000D01*
G75*
G02*
X49193000Y-59788000I0J-200000D01*
G01*
G37*
G36*
G01*
X50843000Y-59788000D02*
X50843000Y-60338000D01*
G75*
G02*
X50643000Y-60538000I-200000J0D01*
G01*
X50243000Y-60538000D01*
G75*
G02*
X50043000Y-60338000I0J200000D01*
G01*
X50043000Y-59788000D01*
G75*
G02*
X50243000Y-59588000I200000J0D01*
G01*
X50643000Y-59588000D01*
G75*
G02*
X50843000Y-59788000I0J-200000D01*
G01*
G37*
G36*
G01*
X44893000Y-12388000D02*
X44343000Y-12388000D01*
G75*
G02*
X44143000Y-12188000I0J200000D01*
G01*
X44143000Y-11788000D01*
G75*
G02*
X44343000Y-11588000I200000J0D01*
G01*
X44893000Y-11588000D01*
G75*
G02*
X45093000Y-11788000I0J-200000D01*
G01*
X45093000Y-12188000D01*
G75*
G02*
X44893000Y-12388000I-200000J0D01*
G01*
G37*
G36*
G01*
X44893000Y-14038000D02*
X44343000Y-14038000D01*
G75*
G02*
X44143000Y-13838000I0J200000D01*
G01*
X44143000Y-13438000D01*
G75*
G02*
X44343000Y-13238000I200000J0D01*
G01*
X44893000Y-13238000D01*
G75*
G02*
X45093000Y-13438000I0J-200000D01*
G01*
X45093000Y-13838000D01*
G75*
G02*
X44893000Y-14038000I-200000J0D01*
G01*
G37*
D26*
X19418000Y-14783000D03*
X19418000Y-17323000D03*
D27*
X19418000Y-19863000D03*
D26*
X19418000Y-49783000D03*
X19418000Y-52323000D03*
D27*
X19418000Y-54863000D03*
D28*
X40518000Y-26113000D03*
X40518000Y-21963000D03*
D29*
X33318000Y-24013000D03*
D18*
X39868000Y-41113000D03*
X41868000Y-40163000D03*
X41868000Y-42063000D03*
D16*
X26416000Y-61213000D03*
G36*
G01*
X25666000Y-57863000D02*
X27166000Y-57863000D01*
G75*
G02*
X27416000Y-58113000I0J-250000D01*
G01*
X27416000Y-59313000D01*
G75*
G02*
X27166000Y-59563000I-250000J0D01*
G01*
X25666000Y-59563000D01*
G75*
G02*
X25416000Y-59313000I0J250000D01*
G01*
X25416000Y-58113000D01*
G75*
G02*
X25666000Y-57863000I250000J0D01*
G01*
G37*
D30*
X79538000Y-80163000D03*
X76998000Y-80163000D03*
X74458000Y-80163000D03*
X71918000Y-80163000D03*
X69378000Y-80163000D03*
X66838000Y-80163000D03*
X64298000Y-80163000D03*
X61758000Y-80163000D03*
D31*
X59218000Y-80163000D03*
G36*
G01*
X75193000Y-87813000D02*
X76643000Y-87813000D01*
G75*
G02*
X76893000Y-88063000I0J-250000D01*
G01*
X76893000Y-89263000D01*
G75*
G02*
X76643000Y-89513000I-250000J0D01*
G01*
X75193000Y-89513000D01*
G75*
G02*
X74943000Y-89263000I0J250000D01*
G01*
X74943000Y-88063000D01*
G75*
G02*
X75193000Y-87813000I250000J0D01*
G01*
G37*
D17*
X75918000Y-91163000D03*
X75918000Y-93663000D03*
D32*
X88518000Y-95263000D03*
X88518000Y-72363000D03*
X12918000Y-95263000D03*
X12918000Y-72363000D03*
D33*
X80677000Y-40363000D03*
X84677000Y-40363000D03*
D34*
X78578000Y-6037000D03*
X78578000Y-15689000D03*
X83658000Y-15689000D03*
X83658000Y-6037000D03*
D35*
X27868000Y-22063000D03*
X27868000Y-26063000D03*
G36*
G01*
X47594000Y-16766250D02*
X47594000Y-16253750D01*
G75*
G02*
X47812750Y-16035000I218750J0D01*
G01*
X48250250Y-16035000D01*
G75*
G02*
X48469000Y-16253750I0J-218750D01*
G01*
X48469000Y-16766250D01*
G75*
G02*
X48250250Y-16985000I-218750J0D01*
G01*
X47812750Y-16985000D01*
G75*
G02*
X47594000Y-16766250I0J218750D01*
G01*
G37*
G36*
G01*
X46019000Y-16766250D02*
X46019000Y-16253750D01*
G75*
G02*
X46237750Y-16035000I218750J0D01*
G01*
X46675250Y-16035000D01*
G75*
G02*
X46894000Y-16253750I0J-218750D01*
G01*
X46894000Y-16766250D01*
G75*
G02*
X46675250Y-16985000I-218750J0D01*
G01*
X46237750Y-16985000D01*
G75*
G02*
X46019000Y-16766250I0J218750D01*
G01*
G37*
G36*
G01*
X37968000Y-15256750D02*
X37968000Y-15769250D01*
G75*
G02*
X37749250Y-15988000I-218750J0D01*
G01*
X37311750Y-15988000D01*
G75*
G02*
X37093000Y-15769250I0J218750D01*
G01*
X37093000Y-15256750D01*
G75*
G02*
X37311750Y-15038000I218750J0D01*
G01*
X37749250Y-15038000D01*
G75*
G02*
X37968000Y-15256750I0J-218750D01*
G01*
G37*
G36*
G01*
X39543000Y-15256750D02*
X39543000Y-15769250D01*
G75*
G02*
X39324250Y-15988000I-218750J0D01*
G01*
X38886750Y-15988000D01*
G75*
G02*
X38668000Y-15769250I0J218750D01*
G01*
X38668000Y-15256750D01*
G75*
G02*
X38886750Y-15038000I218750J0D01*
G01*
X39324250Y-15038000D01*
G75*
G02*
X39543000Y-15256750I0J-218750D01*
G01*
G37*
D36*
X46668000Y-62163000D03*
X50568000Y-62163000D03*
G36*
G01*
X63864500Y-31400000D02*
X63389500Y-31400000D01*
G75*
G02*
X63152000Y-31162500I0J237500D01*
G01*
X63152000Y-30587500D01*
G75*
G02*
X63389500Y-30350000I237500J0D01*
G01*
X63864500Y-30350000D01*
G75*
G02*
X64102000Y-30587500I0J-237500D01*
G01*
X64102000Y-31162500D01*
G75*
G02*
X63864500Y-31400000I-237500J0D01*
G01*
G37*
G36*
G01*
X63864500Y-33150000D02*
X63389500Y-33150000D01*
G75*
G02*
X63152000Y-32912500I0J237500D01*
G01*
X63152000Y-32337500D01*
G75*
G02*
X63389500Y-32100000I237500J0D01*
G01*
X63864500Y-32100000D01*
G75*
G02*
X64102000Y-32337500I0J-237500D01*
G01*
X64102000Y-32912500D01*
G75*
G02*
X63864500Y-33150000I-237500J0D01*
G01*
G37*
D15*
X62103000Y-58134000D03*
D37*
X62103000Y-56134000D03*
G36*
G01*
X82808000Y-63288000D02*
X83308000Y-63288000D01*
G75*
G02*
X83533000Y-63513000I0J-225000D01*
G01*
X83533000Y-63963000D01*
G75*
G02*
X83308000Y-64188000I-225000J0D01*
G01*
X82808000Y-64188000D01*
G75*
G02*
X82583000Y-63963000I0J225000D01*
G01*
X82583000Y-63513000D01*
G75*
G02*
X82808000Y-63288000I225000J0D01*
G01*
G37*
G36*
G01*
X82808000Y-61738000D02*
X83308000Y-61738000D01*
G75*
G02*
X83533000Y-61963000I0J-225000D01*
G01*
X83533000Y-62413000D01*
G75*
G02*
X83308000Y-62638000I-225000J0D01*
G01*
X82808000Y-62638000D01*
G75*
G02*
X82583000Y-62413000I0J225000D01*
G01*
X82583000Y-61963000D01*
G75*
G02*
X82808000Y-61738000I225000J0D01*
G01*
G37*
D38*
X69469000Y-63163000D03*
D39*
X69469000Y-58163000D03*
G36*
G01*
X72568000Y-38638000D02*
X72068000Y-38638000D01*
G75*
G02*
X71843000Y-38413000I0J225000D01*
G01*
X71843000Y-37963000D01*
G75*
G02*
X72068000Y-37738000I225000J0D01*
G01*
X72568000Y-37738000D01*
G75*
G02*
X72793000Y-37963000I0J-225000D01*
G01*
X72793000Y-38413000D01*
G75*
G02*
X72568000Y-38638000I-225000J0D01*
G01*
G37*
G36*
G01*
X72568000Y-40188000D02*
X72068000Y-40188000D01*
G75*
G02*
X71843000Y-39963000I0J225000D01*
G01*
X71843000Y-39513000D01*
G75*
G02*
X72068000Y-39288000I225000J0D01*
G01*
X72568000Y-39288000D01*
G75*
G02*
X72793000Y-39513000I0J-225000D01*
G01*
X72793000Y-39963000D01*
G75*
G02*
X72568000Y-40188000I-225000J0D01*
G01*
G37*
D15*
X91698000Y-34063000D03*
X81538000Y-34063000D03*
X75748000Y-30099000D03*
D37*
X79248000Y-30099000D03*
D15*
X77518000Y-23163000D03*
D37*
X77518000Y-19663000D03*
G36*
G01*
X50768000Y-10513000D02*
X49668000Y-10513000D01*
G75*
G02*
X49418000Y-10263000I0J250000D01*
G01*
X49418000Y-8113000D01*
G75*
G02*
X49668000Y-7863000I250000J0D01*
G01*
X50768000Y-7863000D01*
G75*
G02*
X51018000Y-8113000I0J-250000D01*
G01*
X51018000Y-10263000D01*
G75*
G02*
X50768000Y-10513000I-250000J0D01*
G01*
G37*
G36*
G01*
X50768000Y-13863000D02*
X49668000Y-13863000D01*
G75*
G02*
X49418000Y-13613000I0J250000D01*
G01*
X49418000Y-11463000D01*
G75*
G02*
X49668000Y-11213000I250000J0D01*
G01*
X50768000Y-11213000D01*
G75*
G02*
X51018000Y-11463000I0J-250000D01*
G01*
X51018000Y-13613000D01*
G75*
G02*
X50768000Y-13863000I-250000J0D01*
G01*
G37*
D15*
X73518000Y-15112800D03*
X73518000Y-5613200D03*
X67318000Y-14583000D03*
X67318000Y-24743000D03*
X64618000Y-4683000D03*
X64618000Y-14843000D03*
G36*
G01*
X27238000Y-30613000D02*
X26898000Y-30613000D01*
G75*
G02*
X26758000Y-30473000I0J140000D01*
G01*
X26758000Y-30193000D01*
G75*
G02*
X26898000Y-30053000I140000J0D01*
G01*
X27238000Y-30053000D01*
G75*
G02*
X27378000Y-30193000I0J-140000D01*
G01*
X27378000Y-30473000D01*
G75*
G02*
X27238000Y-30613000I-140000J0D01*
G01*
G37*
G36*
G01*
X27238000Y-31573000D02*
X26898000Y-31573000D01*
G75*
G02*
X26758000Y-31433000I0J140000D01*
G01*
X26758000Y-31153000D01*
G75*
G02*
X26898000Y-31013000I140000J0D01*
G01*
X27238000Y-31013000D01*
G75*
G02*
X27378000Y-31153000I0J-140000D01*
G01*
X27378000Y-31433000D01*
G75*
G02*
X27238000Y-31573000I-140000J0D01*
G01*
G37*
X47030000Y-55245000D03*
D37*
X49530000Y-55245000D03*
G36*
G01*
X47569000Y-20062000D02*
X47569000Y-19562000D01*
G75*
G02*
X47794000Y-19337000I225000J0D01*
G01*
X48244000Y-19337000D01*
G75*
G02*
X48469000Y-19562000I0J-225000D01*
G01*
X48469000Y-20062000D01*
G75*
G02*
X48244000Y-20287000I-225000J0D01*
G01*
X47794000Y-20287000D01*
G75*
G02*
X47569000Y-20062000I0J225000D01*
G01*
G37*
G36*
G01*
X46019000Y-20062000D02*
X46019000Y-19562000D01*
G75*
G02*
X46244000Y-19337000I225000J0D01*
G01*
X46694000Y-19337000D01*
G75*
G02*
X46919000Y-19562000I0J-225000D01*
G01*
X46919000Y-20062000D01*
G75*
G02*
X46694000Y-20287000I-225000J0D01*
G01*
X46244000Y-20287000D01*
G75*
G02*
X46019000Y-20062000I0J225000D01*
G01*
G37*
G36*
G01*
X46218000Y-14388000D02*
X46718000Y-14388000D01*
G75*
G02*
X46943000Y-14613000I0J-225000D01*
G01*
X46943000Y-15063000D01*
G75*
G02*
X46718000Y-15288000I-225000J0D01*
G01*
X46218000Y-15288000D01*
G75*
G02*
X45993000Y-15063000I0J225000D01*
G01*
X45993000Y-14613000D01*
G75*
G02*
X46218000Y-14388000I225000J0D01*
G01*
G37*
G36*
G01*
X46218000Y-12838000D02*
X46718000Y-12838000D01*
G75*
G02*
X46943000Y-13063000I0J-225000D01*
G01*
X46943000Y-13513000D01*
G75*
G02*
X46718000Y-13738000I-225000J0D01*
G01*
X46218000Y-13738000D01*
G75*
G02*
X45993000Y-13513000I0J225000D01*
G01*
X45993000Y-13063000D01*
G75*
G02*
X46218000Y-12838000I225000J0D01*
G01*
G37*
G36*
G01*
X46818000Y-11933000D02*
X46818000Y-11593000D01*
G75*
G02*
X46958000Y-11453000I140000J0D01*
G01*
X47238000Y-11453000D01*
G75*
G02*
X47378000Y-11593000I0J-140000D01*
G01*
X47378000Y-11933000D01*
G75*
G02*
X47238000Y-12073000I-140000J0D01*
G01*
X46958000Y-12073000D01*
G75*
G02*
X46818000Y-11933000I0J140000D01*
G01*
G37*
G36*
G01*
X45858000Y-11933000D02*
X45858000Y-11593000D01*
G75*
G02*
X45998000Y-11453000I140000J0D01*
G01*
X46278000Y-11453000D01*
G75*
G02*
X46418000Y-11593000I0J-140000D01*
G01*
X46418000Y-11933000D01*
G75*
G02*
X46278000Y-12073000I-140000J0D01*
G01*
X45998000Y-12073000D01*
G75*
G02*
X45858000Y-11933000I0J140000D01*
G01*
G37*
G36*
G01*
X42518000Y-13138000D02*
X43018000Y-13138000D01*
G75*
G02*
X43243000Y-13363000I0J-225000D01*
G01*
X43243000Y-13813000D01*
G75*
G02*
X43018000Y-14038000I-225000J0D01*
G01*
X42518000Y-14038000D01*
G75*
G02*
X42293000Y-13813000I0J225000D01*
G01*
X42293000Y-13363000D01*
G75*
G02*
X42518000Y-13138000I225000J0D01*
G01*
G37*
G36*
G01*
X42518000Y-11588000D02*
X43018000Y-11588000D01*
G75*
G02*
X43243000Y-11813000I0J-225000D01*
G01*
X43243000Y-12263000D01*
G75*
G02*
X43018000Y-12488000I-225000J0D01*
G01*
X42518000Y-12488000D01*
G75*
G02*
X42293000Y-12263000I0J225000D01*
G01*
X42293000Y-11813000D01*
G75*
G02*
X42518000Y-11588000I225000J0D01*
G01*
G37*
D40*
X53218000Y-60313000D03*
X57818000Y-60313000D03*
X55518000Y-60313000D03*
D41*
X55518000Y-54013000D03*
D42*
X80391000Y-63865000D03*
X79441000Y-61865000D03*
X81341000Y-61865000D03*
G36*
G01*
X35068000Y-30608000D02*
X35068000Y-30308000D01*
G75*
G02*
X35218000Y-30158000I150000J0D01*
G01*
X36868000Y-30158000D01*
G75*
G02*
X37018000Y-30308000I0J-150000D01*
G01*
X37018000Y-30608000D01*
G75*
G02*
X36868000Y-30758000I-150000J0D01*
G01*
X35218000Y-30758000D01*
G75*
G02*
X35068000Y-30608000I0J150000D01*
G01*
G37*
G36*
G01*
X35068000Y-31878000D02*
X35068000Y-31578000D01*
G75*
G02*
X35218000Y-31428000I150000J0D01*
G01*
X36868000Y-31428000D01*
G75*
G02*
X37018000Y-31578000I0J-150000D01*
G01*
X37018000Y-31878000D01*
G75*
G02*
X36868000Y-32028000I-150000J0D01*
G01*
X35218000Y-32028000D01*
G75*
G02*
X35068000Y-31878000I0J150000D01*
G01*
G37*
G36*
G01*
X35068000Y-33148000D02*
X35068000Y-32848000D01*
G75*
G02*
X35218000Y-32698000I150000J0D01*
G01*
X36868000Y-32698000D01*
G75*
G02*
X37018000Y-32848000I0J-150000D01*
G01*
X37018000Y-33148000D01*
G75*
G02*
X36868000Y-33298000I-150000J0D01*
G01*
X35218000Y-33298000D01*
G75*
G02*
X35068000Y-33148000I0J150000D01*
G01*
G37*
G36*
G01*
X35068000Y-34418000D02*
X35068000Y-34118000D01*
G75*
G02*
X35218000Y-33968000I150000J0D01*
G01*
X36868000Y-33968000D01*
G75*
G02*
X37018000Y-34118000I0J-150000D01*
G01*
X37018000Y-34418000D01*
G75*
G02*
X36868000Y-34568000I-150000J0D01*
G01*
X35218000Y-34568000D01*
G75*
G02*
X35068000Y-34418000I0J150000D01*
G01*
G37*
G36*
G01*
X30118000Y-34418000D02*
X30118000Y-34118000D01*
G75*
G02*
X30268000Y-33968000I150000J0D01*
G01*
X31918000Y-33968000D01*
G75*
G02*
X32068000Y-34118000I0J-150000D01*
G01*
X32068000Y-34418000D01*
G75*
G02*
X31918000Y-34568000I-150000J0D01*
G01*
X30268000Y-34568000D01*
G75*
G02*
X30118000Y-34418000I0J150000D01*
G01*
G37*
G36*
G01*
X30118000Y-33148000D02*
X30118000Y-32848000D01*
G75*
G02*
X30268000Y-32698000I150000J0D01*
G01*
X31918000Y-32698000D01*
G75*
G02*
X32068000Y-32848000I0J-150000D01*
G01*
X32068000Y-33148000D01*
G75*
G02*
X31918000Y-33298000I-150000J0D01*
G01*
X30268000Y-33298000D01*
G75*
G02*
X30118000Y-33148000I0J150000D01*
G01*
G37*
G36*
G01*
X30118000Y-31878000D02*
X30118000Y-31578000D01*
G75*
G02*
X30268000Y-31428000I150000J0D01*
G01*
X31918000Y-31428000D01*
G75*
G02*
X32068000Y-31578000I0J-150000D01*
G01*
X32068000Y-31878000D01*
G75*
G02*
X31918000Y-32028000I-150000J0D01*
G01*
X30268000Y-32028000D01*
G75*
G02*
X30118000Y-31878000I0J150000D01*
G01*
G37*
G36*
G01*
X30118000Y-30608000D02*
X30118000Y-30308000D01*
G75*
G02*
X30268000Y-30158000I150000J0D01*
G01*
X31918000Y-30158000D01*
G75*
G02*
X32068000Y-30308000I0J-150000D01*
G01*
X32068000Y-30608000D01*
G75*
G02*
X31918000Y-30758000I-150000J0D01*
G01*
X30268000Y-30758000D01*
G75*
G02*
X30118000Y-30608000I0J150000D01*
G01*
G37*
D43*
X13118000Y-18613000D03*
X13118000Y-16113000D03*
X13118000Y-36113000D03*
X13118000Y-33613000D03*
X13118000Y-53613000D03*
X13118000Y-51113000D03*
G36*
G01*
X84434000Y-63417000D02*
X84984000Y-63417000D01*
G75*
G02*
X85184000Y-63617000I0J-200000D01*
G01*
X85184000Y-64017000D01*
G75*
G02*
X84984000Y-64217000I-200000J0D01*
G01*
X84434000Y-64217000D01*
G75*
G02*
X84234000Y-64017000I0J200000D01*
G01*
X84234000Y-63617000D01*
G75*
G02*
X84434000Y-63417000I200000J0D01*
G01*
G37*
G36*
G01*
X84434000Y-61767000D02*
X84984000Y-61767000D01*
G75*
G02*
X85184000Y-61967000I0J-200000D01*
G01*
X85184000Y-62367000D01*
G75*
G02*
X84984000Y-62567000I-200000J0D01*
G01*
X84434000Y-62567000D01*
G75*
G02*
X84234000Y-62367000I0J200000D01*
G01*
X84234000Y-61967000D01*
G75*
G02*
X84434000Y-61767000I200000J0D01*
G01*
G37*
G36*
G01*
X78657000Y-60600000D02*
X78657000Y-60050000D01*
G75*
G02*
X78857000Y-59850000I200000J0D01*
G01*
X79257000Y-59850000D01*
G75*
G02*
X79457000Y-60050000I0J-200000D01*
G01*
X79457000Y-60600000D01*
G75*
G02*
X79257000Y-60800000I-200000J0D01*
G01*
X78857000Y-60800000D01*
G75*
G02*
X78657000Y-60600000I0J200000D01*
G01*
G37*
G36*
G01*
X77007000Y-60600000D02*
X77007000Y-60050000D01*
G75*
G02*
X77207000Y-59850000I200000J0D01*
G01*
X77607000Y-59850000D01*
G75*
G02*
X77807000Y-60050000I0J-200000D01*
G01*
X77807000Y-60600000D01*
G75*
G02*
X77607000Y-60800000I-200000J0D01*
G01*
X77207000Y-60800000D01*
G75*
G02*
X77007000Y-60600000I0J200000D01*
G01*
G37*
G36*
G01*
X22193000Y-18638000D02*
X21643000Y-18638000D01*
G75*
G02*
X21443000Y-18438000I0J200000D01*
G01*
X21443000Y-18038000D01*
G75*
G02*
X21643000Y-17838000I200000J0D01*
G01*
X22193000Y-17838000D01*
G75*
G02*
X22393000Y-18038000I0J-200000D01*
G01*
X22393000Y-18438000D01*
G75*
G02*
X22193000Y-18638000I-200000J0D01*
G01*
G37*
G36*
G01*
X22193000Y-20288000D02*
X21643000Y-20288000D01*
G75*
G02*
X21443000Y-20088000I0J200000D01*
G01*
X21443000Y-19688000D01*
G75*
G02*
X21643000Y-19488000I200000J0D01*
G01*
X22193000Y-19488000D01*
G75*
G02*
X22393000Y-19688000I0J-200000D01*
G01*
X22393000Y-20088000D01*
G75*
G02*
X22193000Y-20288000I-200000J0D01*
G01*
G37*
G36*
G01*
X20693000Y-25788000D02*
X20693000Y-26338000D01*
G75*
G02*
X20493000Y-26538000I-200000J0D01*
G01*
X20093000Y-26538000D01*
G75*
G02*
X19893000Y-26338000I0J200000D01*
G01*
X19893000Y-25788000D01*
G75*
G02*
X20093000Y-25588000I200000J0D01*
G01*
X20493000Y-25588000D01*
G75*
G02*
X20693000Y-25788000I0J-200000D01*
G01*
G37*
G36*
G01*
X22343000Y-25788000D02*
X22343000Y-26338000D01*
G75*
G02*
X22143000Y-26538000I-200000J0D01*
G01*
X21743000Y-26538000D01*
G75*
G02*
X21543000Y-26338000I0J200000D01*
G01*
X21543000Y-25788000D01*
G75*
G02*
X21743000Y-25588000I200000J0D01*
G01*
X22143000Y-25588000D01*
G75*
G02*
X22343000Y-25788000I0J-200000D01*
G01*
G37*
G36*
G01*
X38293000Y-36588000D02*
X37743000Y-36588000D01*
G75*
G02*
X37543000Y-36388000I0J200000D01*
G01*
X37543000Y-35988000D01*
G75*
G02*
X37743000Y-35788000I200000J0D01*
G01*
X38293000Y-35788000D01*
G75*
G02*
X38493000Y-35988000I0J-200000D01*
G01*
X38493000Y-36388000D01*
G75*
G02*
X38293000Y-36588000I-200000J0D01*
G01*
G37*
G36*
G01*
X38293000Y-38238000D02*
X37743000Y-38238000D01*
G75*
G02*
X37543000Y-38038000I0J200000D01*
G01*
X37543000Y-37638000D01*
G75*
G02*
X37743000Y-37438000I200000J0D01*
G01*
X38293000Y-37438000D01*
G75*
G02*
X38493000Y-37638000I0J-200000D01*
G01*
X38493000Y-38038000D01*
G75*
G02*
X38293000Y-38238000I-200000J0D01*
G01*
G37*
G36*
G01*
X30293000Y-41888000D02*
X30293000Y-42438000D01*
G75*
G02*
X30093000Y-42638000I-200000J0D01*
G01*
X29693000Y-42638000D01*
G75*
G02*
X29493000Y-42438000I0J200000D01*
G01*
X29493000Y-41888000D01*
G75*
G02*
X29693000Y-41688000I200000J0D01*
G01*
X30093000Y-41688000D01*
G75*
G02*
X30293000Y-41888000I0J-200000D01*
G01*
G37*
G36*
G01*
X31943000Y-41888000D02*
X31943000Y-42438000D01*
G75*
G02*
X31743000Y-42638000I-200000J0D01*
G01*
X31343000Y-42638000D01*
G75*
G02*
X31143000Y-42438000I0J200000D01*
G01*
X31143000Y-41888000D01*
G75*
G02*
X31343000Y-41688000I200000J0D01*
G01*
X31743000Y-41688000D01*
G75*
G02*
X31943000Y-41888000I0J-200000D01*
G01*
G37*
G36*
G01*
X38293000Y-48138000D02*
X37743000Y-48138000D01*
G75*
G02*
X37543000Y-47938000I0J200000D01*
G01*
X37543000Y-47538000D01*
G75*
G02*
X37743000Y-47338000I200000J0D01*
G01*
X38293000Y-47338000D01*
G75*
G02*
X38493000Y-47538000I0J-200000D01*
G01*
X38493000Y-47938000D01*
G75*
G02*
X38293000Y-48138000I-200000J0D01*
G01*
G37*
G36*
G01*
X38293000Y-49788000D02*
X37743000Y-49788000D01*
G75*
G02*
X37543000Y-49588000I0J200000D01*
G01*
X37543000Y-49188000D01*
G75*
G02*
X37743000Y-48988000I200000J0D01*
G01*
X38293000Y-48988000D01*
G75*
G02*
X38493000Y-49188000I0J-200000D01*
G01*
X38493000Y-49588000D01*
G75*
G02*
X38293000Y-49788000I-200000J0D01*
G01*
G37*
G36*
G01*
X28443000Y-30688000D02*
X28993000Y-30688000D01*
G75*
G02*
X29193000Y-30888000I0J-200000D01*
G01*
X29193000Y-31288000D01*
G75*
G02*
X28993000Y-31488000I-200000J0D01*
G01*
X28443000Y-31488000D01*
G75*
G02*
X28243000Y-31288000I0J200000D01*
G01*
X28243000Y-30888000D01*
G75*
G02*
X28443000Y-30688000I200000J0D01*
G01*
G37*
G36*
G01*
X28443000Y-29038000D02*
X28993000Y-29038000D01*
G75*
G02*
X29193000Y-29238000I0J-200000D01*
G01*
X29193000Y-29638000D01*
G75*
G02*
X28993000Y-29838000I-200000J0D01*
G01*
X28443000Y-29838000D01*
G75*
G02*
X28243000Y-29638000I0J200000D01*
G01*
X28243000Y-29238000D01*
G75*
G02*
X28443000Y-29038000I200000J0D01*
G01*
G37*
G36*
G01*
X28993000Y-33138000D02*
X28443000Y-33138000D01*
G75*
G02*
X28243000Y-32938000I0J200000D01*
G01*
X28243000Y-32538000D01*
G75*
G02*
X28443000Y-32338000I200000J0D01*
G01*
X28993000Y-32338000D01*
G75*
G02*
X29193000Y-32538000I0J-200000D01*
G01*
X29193000Y-32938000D01*
G75*
G02*
X28993000Y-33138000I-200000J0D01*
G01*
G37*
G36*
G01*
X28993000Y-34788000D02*
X28443000Y-34788000D01*
G75*
G02*
X28243000Y-34588000I0J200000D01*
G01*
X28243000Y-34188000D01*
G75*
G02*
X28443000Y-33988000I200000J0D01*
G01*
X28993000Y-33988000D01*
G75*
G02*
X29193000Y-34188000I0J-200000D01*
G01*
X29193000Y-34588000D01*
G75*
G02*
X28993000Y-34788000I-200000J0D01*
G01*
G37*
G36*
G01*
X38793000Y-14038000D02*
X38793000Y-13488000D01*
G75*
G02*
X38993000Y-13288000I200000J0D01*
G01*
X39393000Y-13288000D01*
G75*
G02*
X39593000Y-13488000I0J-200000D01*
G01*
X39593000Y-14038000D01*
G75*
G02*
X39393000Y-14238000I-200000J0D01*
G01*
X38993000Y-14238000D01*
G75*
G02*
X38793000Y-14038000I0J200000D01*
G01*
G37*
G36*
G01*
X37143000Y-14038000D02*
X37143000Y-13488000D01*
G75*
G02*
X37343000Y-13288000I200000J0D01*
G01*
X37743000Y-13288000D01*
G75*
G02*
X37943000Y-13488000I0J-200000D01*
G01*
X37943000Y-14038000D01*
G75*
G02*
X37743000Y-14238000I-200000J0D01*
G01*
X37343000Y-14238000D01*
G75*
G02*
X37143000Y-14038000I0J200000D01*
G01*
G37*
G36*
G01*
X26593000Y-33988000D02*
X27143000Y-33988000D01*
G75*
G02*
X27343000Y-34188000I0J-200000D01*
G01*
X27343000Y-34588000D01*
G75*
G02*
X27143000Y-34788000I-200000J0D01*
G01*
X26593000Y-34788000D01*
G75*
G02*
X26393000Y-34588000I0J200000D01*
G01*
X26393000Y-34188000D01*
G75*
G02*
X26593000Y-33988000I200000J0D01*
G01*
G37*
G36*
G01*
X26593000Y-32338000D02*
X27143000Y-32338000D01*
G75*
G02*
X27343000Y-32538000I0J-200000D01*
G01*
X27343000Y-32938000D01*
G75*
G02*
X27143000Y-33138000I-200000J0D01*
G01*
X26593000Y-33138000D01*
G75*
G02*
X26393000Y-32938000I0J200000D01*
G01*
X26393000Y-32538000D01*
G75*
G02*
X26593000Y-32338000I200000J0D01*
G01*
G37*
G36*
G01*
X43328000Y-45803000D02*
X42778000Y-45803000D01*
G75*
G02*
X42578000Y-45603000I0J200000D01*
G01*
X42578000Y-45203000D01*
G75*
G02*
X42778000Y-45003000I200000J0D01*
G01*
X43328000Y-45003000D01*
G75*
G02*
X43528000Y-45203000I0J-200000D01*
G01*
X43528000Y-45603000D01*
G75*
G02*
X43328000Y-45803000I-200000J0D01*
G01*
G37*
G36*
G01*
X43328000Y-47453000D02*
X42778000Y-47453000D01*
G75*
G02*
X42578000Y-47253000I0J200000D01*
G01*
X42578000Y-46853000D01*
G75*
G02*
X42778000Y-46653000I200000J0D01*
G01*
X43328000Y-46653000D01*
G75*
G02*
X43528000Y-46853000I0J-200000D01*
G01*
X43528000Y-47253000D01*
G75*
G02*
X43328000Y-47453000I-200000J0D01*
G01*
G37*
G36*
G01*
X40026000Y-44787000D02*
X39476000Y-44787000D01*
G75*
G02*
X39276000Y-44587000I0J200000D01*
G01*
X39276000Y-44187000D01*
G75*
G02*
X39476000Y-43987000I200000J0D01*
G01*
X40026000Y-43987000D01*
G75*
G02*
X40226000Y-44187000I0J-200000D01*
G01*
X40226000Y-44587000D01*
G75*
G02*
X40026000Y-44787000I-200000J0D01*
G01*
G37*
G36*
G01*
X40026000Y-46437000D02*
X39476000Y-46437000D01*
G75*
G02*
X39276000Y-46237000I0J200000D01*
G01*
X39276000Y-45837000D01*
G75*
G02*
X39476000Y-45637000I200000J0D01*
G01*
X40026000Y-45637000D01*
G75*
G02*
X40226000Y-45837000I0J-200000D01*
G01*
X40226000Y-46237000D01*
G75*
G02*
X40026000Y-46437000I-200000J0D01*
G01*
G37*
G36*
G01*
X41677000Y-44738000D02*
X41127000Y-44738000D01*
G75*
G02*
X40927000Y-44538000I0J200000D01*
G01*
X40927000Y-44138000D01*
G75*
G02*
X41127000Y-43938000I200000J0D01*
G01*
X41677000Y-43938000D01*
G75*
G02*
X41877000Y-44138000I0J-200000D01*
G01*
X41877000Y-44538000D01*
G75*
G02*
X41677000Y-44738000I-200000J0D01*
G01*
G37*
G36*
G01*
X41677000Y-46388000D02*
X41127000Y-46388000D01*
G75*
G02*
X40927000Y-46188000I0J200000D01*
G01*
X40927000Y-45788000D01*
G75*
G02*
X41127000Y-45588000I200000J0D01*
G01*
X41677000Y-45588000D01*
G75*
G02*
X41877000Y-45788000I0J-200000D01*
G01*
X41877000Y-46188000D01*
G75*
G02*
X41677000Y-46388000I-200000J0D01*
G01*
G37*
D26*
X19418000Y-32183000D03*
X19418000Y-34723000D03*
D27*
X19418000Y-37263000D03*
G36*
G01*
X66168000Y-53062999D02*
X66168000Y-54463001D01*
G75*
G02*
X65918001Y-54713000I-249999J0D01*
G01*
X65367999Y-54713000D01*
G75*
G02*
X65118000Y-54463001I0J249999D01*
G01*
X65118000Y-53062999D01*
G75*
G02*
X65367999Y-52813000I249999J0D01*
G01*
X65918001Y-52813000D01*
G75*
G02*
X66168000Y-53062999I0J-249999D01*
G01*
G37*
G36*
G01*
X69318000Y-53062999D02*
X69318000Y-54463001D01*
G75*
G02*
X69068001Y-54713000I-249999J0D01*
G01*
X68517999Y-54713000D01*
G75*
G02*
X68268000Y-54463001I0J249999D01*
G01*
X68268000Y-53062999D01*
G75*
G02*
X68517999Y-52813000I249999J0D01*
G01*
X69068001Y-52813000D01*
G75*
G02*
X69318000Y-53062999I0J-249999D01*
G01*
G37*
D44*
X90574000Y-28627000D03*
X90574000Y-20499000D03*
X83462000Y-20499000D03*
X83462000Y-28627000D03*
G36*
G01*
X58693000Y-12813000D02*
X60143000Y-12813000D01*
G75*
G02*
X60393000Y-13063000I0J-250000D01*
G01*
X60393000Y-14263000D01*
G75*
G02*
X60143000Y-14513000I-250000J0D01*
G01*
X58693000Y-14513000D01*
G75*
G02*
X58443000Y-14263000I0J250000D01*
G01*
X58443000Y-13063000D01*
G75*
G02*
X58693000Y-12813000I250000J0D01*
G01*
G37*
D17*
X59418000Y-16163000D03*
X59418000Y-18663000D03*
D16*
X62418000Y-91163000D03*
G36*
G01*
X61668000Y-87813000D02*
X63168000Y-87813000D01*
G75*
G02*
X63418000Y-88063000I0J-250000D01*
G01*
X63418000Y-89263000D01*
G75*
G02*
X63168000Y-89513000I-250000J0D01*
G01*
X61668000Y-89513000D01*
G75*
G02*
X61418000Y-89263000I0J250000D01*
G01*
X61418000Y-88063000D01*
G75*
G02*
X61668000Y-87813000I250000J0D01*
G01*
G37*
D45*
X13118000Y-12359200D03*
X13118000Y-22366800D03*
G36*
G01*
X58343000Y-8338000D02*
X58343000Y-9588000D01*
G75*
G02*
X58093000Y-9838000I-250000J0D01*
G01*
X57343000Y-9838000D01*
G75*
G02*
X57093000Y-9588000I0J250000D01*
G01*
X57093000Y-8338000D01*
G75*
G02*
X57343000Y-8088000I250000J0D01*
G01*
X58093000Y-8088000D01*
G75*
G02*
X58343000Y-8338000I0J-250000D01*
G01*
G37*
G36*
G01*
X61143000Y-8338000D02*
X61143000Y-9588000D01*
G75*
G02*
X60893000Y-9838000I-250000J0D01*
G01*
X60143000Y-9838000D01*
G75*
G02*
X59893000Y-9588000I0J250000D01*
G01*
X59893000Y-8338000D01*
G75*
G02*
X60143000Y-8088000I250000J0D01*
G01*
X60893000Y-8088000D01*
G75*
G02*
X61143000Y-8338000I0J-250000D01*
G01*
G37*
D33*
X81218000Y-57463000D03*
X77218000Y-57463000D03*
G36*
G01*
X61666000Y-61413000D02*
X61666000Y-60913000D01*
G75*
G02*
X61891000Y-60688000I225000J0D01*
G01*
X62341000Y-60688000D01*
G75*
G02*
X62566000Y-60913000I0J-225000D01*
G01*
X62566000Y-61413000D01*
G75*
G02*
X62341000Y-61638000I-225000J0D01*
G01*
X61891000Y-61638000D01*
G75*
G02*
X61666000Y-61413000I0J225000D01*
G01*
G37*
G36*
G01*
X60116000Y-61413000D02*
X60116000Y-60913000D01*
G75*
G02*
X60341000Y-60688000I225000J0D01*
G01*
X60791000Y-60688000D01*
G75*
G02*
X61016000Y-60913000I0J-225000D01*
G01*
X61016000Y-61413000D01*
G75*
G02*
X60791000Y-61638000I-225000J0D01*
G01*
X60341000Y-61638000D01*
G75*
G02*
X60116000Y-61413000I0J225000D01*
G01*
G37*
G36*
G01*
X81643000Y-60513000D02*
X81643000Y-60013000D01*
G75*
G02*
X81868000Y-59788000I225000J0D01*
G01*
X82318000Y-59788000D01*
G75*
G02*
X82543000Y-60013000I0J-225000D01*
G01*
X82543000Y-60513000D01*
G75*
G02*
X82318000Y-60738000I-225000J0D01*
G01*
X81868000Y-60738000D01*
G75*
G02*
X81643000Y-60513000I0J225000D01*
G01*
G37*
G36*
G01*
X80093000Y-60513000D02*
X80093000Y-60013000D01*
G75*
G02*
X80318000Y-59788000I225000J0D01*
G01*
X80768000Y-59788000D01*
G75*
G02*
X80993000Y-60013000I0J-225000D01*
G01*
X80993000Y-60513000D01*
G75*
G02*
X80768000Y-60738000I-225000J0D01*
G01*
X80318000Y-60738000D01*
G75*
G02*
X80093000Y-60513000I0J225000D01*
G01*
G37*
G36*
G01*
X36093000Y-28863000D02*
X36093000Y-28363000D01*
G75*
G02*
X36318000Y-28138000I225000J0D01*
G01*
X36768000Y-28138000D01*
G75*
G02*
X36993000Y-28363000I0J-225000D01*
G01*
X36993000Y-28863000D01*
G75*
G02*
X36768000Y-29088000I-225000J0D01*
G01*
X36318000Y-29088000D01*
G75*
G02*
X36093000Y-28863000I0J225000D01*
G01*
G37*
G36*
G01*
X34543000Y-28863000D02*
X34543000Y-28363000D01*
G75*
G02*
X34768000Y-28138000I225000J0D01*
G01*
X35218000Y-28138000D01*
G75*
G02*
X35443000Y-28363000I0J-225000D01*
G01*
X35443000Y-28863000D01*
G75*
G02*
X35218000Y-29088000I-225000J0D01*
G01*
X34768000Y-29088000D01*
G75*
G02*
X34543000Y-28863000I0J225000D01*
G01*
G37*
G36*
G01*
X37768000Y-52014000D02*
X38268000Y-52014000D01*
G75*
G02*
X38493000Y-52239000I0J-225000D01*
G01*
X38493000Y-52689000D01*
G75*
G02*
X38268000Y-52914000I-225000J0D01*
G01*
X37768000Y-52914000D01*
G75*
G02*
X37543000Y-52689000I0J225000D01*
G01*
X37543000Y-52239000D01*
G75*
G02*
X37768000Y-52014000I225000J0D01*
G01*
G37*
G36*
G01*
X37768000Y-50464000D02*
X38268000Y-50464000D01*
G75*
G02*
X38493000Y-50689000I0J-225000D01*
G01*
X38493000Y-51139000D01*
G75*
G02*
X38268000Y-51364000I-225000J0D01*
G01*
X37768000Y-51364000D01*
G75*
G02*
X37543000Y-51139000I0J225000D01*
G01*
X37543000Y-50689000D01*
G75*
G02*
X37768000Y-50464000I225000J0D01*
G01*
G37*
G36*
G01*
X37768000Y-40638000D02*
X38268000Y-40638000D01*
G75*
G02*
X38493000Y-40863000I0J-225000D01*
G01*
X38493000Y-41313000D01*
G75*
G02*
X38268000Y-41538000I-225000J0D01*
G01*
X37768000Y-41538000D01*
G75*
G02*
X37543000Y-41313000I0J225000D01*
G01*
X37543000Y-40863000D01*
G75*
G02*
X37768000Y-40638000I225000J0D01*
G01*
G37*
G36*
G01*
X37768000Y-39088000D02*
X38268000Y-39088000D01*
G75*
G02*
X38493000Y-39313000I0J-225000D01*
G01*
X38493000Y-39763000D01*
G75*
G02*
X38268000Y-39988000I-225000J0D01*
G01*
X37768000Y-39988000D01*
G75*
G02*
X37543000Y-39763000I0J225000D01*
G01*
X37543000Y-39313000D01*
G75*
G02*
X37768000Y-39088000I225000J0D01*
G01*
G37*
G36*
G01*
X21443000Y-24513000D02*
X21443000Y-24013000D01*
G75*
G02*
X21668000Y-23788000I225000J0D01*
G01*
X22118000Y-23788000D01*
G75*
G02*
X22343000Y-24013000I0J-225000D01*
G01*
X22343000Y-24513000D01*
G75*
G02*
X22118000Y-24738000I-225000J0D01*
G01*
X21668000Y-24738000D01*
G75*
G02*
X21443000Y-24513000I0J225000D01*
G01*
G37*
G36*
G01*
X19893000Y-24513000D02*
X19893000Y-24013000D01*
G75*
G02*
X20118000Y-23788000I225000J0D01*
G01*
X20568000Y-23788000D01*
G75*
G02*
X20793000Y-24013000I0J-225000D01*
G01*
X20793000Y-24513000D01*
G75*
G02*
X20568000Y-24738000I-225000J0D01*
G01*
X20118000Y-24738000D01*
G75*
G02*
X19893000Y-24513000I0J225000D01*
G01*
G37*
G36*
G01*
X34418000Y-42413000D02*
X34418000Y-41913000D01*
G75*
G02*
X34643000Y-41688000I225000J0D01*
G01*
X35093000Y-41688000D01*
G75*
G02*
X35318000Y-41913000I0J-225000D01*
G01*
X35318000Y-42413000D01*
G75*
G02*
X35093000Y-42638000I-225000J0D01*
G01*
X34643000Y-42638000D01*
G75*
G02*
X34418000Y-42413000I0J225000D01*
G01*
G37*
G36*
G01*
X32868000Y-42413000D02*
X32868000Y-41913000D01*
G75*
G02*
X33093000Y-41688000I225000J0D01*
G01*
X33543000Y-41688000D01*
G75*
G02*
X33768000Y-41913000I0J-225000D01*
G01*
X33768000Y-42413000D01*
G75*
G02*
X33543000Y-42638000I-225000J0D01*
G01*
X33093000Y-42638000D01*
G75*
G02*
X32868000Y-42413000I0J225000D01*
G01*
G37*
G36*
G01*
X21443000Y-42013000D02*
X21443000Y-41513000D01*
G75*
G02*
X21668000Y-41288000I225000J0D01*
G01*
X22118000Y-41288000D01*
G75*
G02*
X22343000Y-41513000I0J-225000D01*
G01*
X22343000Y-42013000D01*
G75*
G02*
X22118000Y-42238000I-225000J0D01*
G01*
X21668000Y-42238000D01*
G75*
G02*
X21443000Y-42013000I0J225000D01*
G01*
G37*
G36*
G01*
X19893000Y-42013000D02*
X19893000Y-41513000D01*
G75*
G02*
X20118000Y-41288000I225000J0D01*
G01*
X20568000Y-41288000D01*
G75*
G02*
X20793000Y-41513000I0J-225000D01*
G01*
X20793000Y-42013000D01*
G75*
G02*
X20568000Y-42238000I-225000J0D01*
G01*
X20118000Y-42238000D01*
G75*
G02*
X19893000Y-42013000I0J225000D01*
G01*
G37*
G36*
G01*
X24093000Y-53813000D02*
X24093000Y-54313000D01*
G75*
G02*
X23868000Y-54538000I-225000J0D01*
G01*
X23418000Y-54538000D01*
G75*
G02*
X23193000Y-54313000I0J225000D01*
G01*
X23193000Y-53813000D01*
G75*
G02*
X23418000Y-53588000I225000J0D01*
G01*
X23868000Y-53588000D01*
G75*
G02*
X24093000Y-53813000I0J-225000D01*
G01*
G37*
G36*
G01*
X25643000Y-53813000D02*
X25643000Y-54313000D01*
G75*
G02*
X25418000Y-54538000I-225000J0D01*
G01*
X24968000Y-54538000D01*
G75*
G02*
X24743000Y-54313000I0J225000D01*
G01*
X24743000Y-53813000D01*
G75*
G02*
X24968000Y-53588000I225000J0D01*
G01*
X25418000Y-53588000D01*
G75*
G02*
X25643000Y-53813000I0J-225000D01*
G01*
G37*
G36*
G01*
X22193000Y-35938000D02*
X21643000Y-35938000D01*
G75*
G02*
X21443000Y-35738000I0J200000D01*
G01*
X21443000Y-35338000D01*
G75*
G02*
X21643000Y-35138000I200000J0D01*
G01*
X22193000Y-35138000D01*
G75*
G02*
X22393000Y-35338000I0J-200000D01*
G01*
X22393000Y-35738000D01*
G75*
G02*
X22193000Y-35938000I-200000J0D01*
G01*
G37*
G36*
G01*
X22193000Y-37588000D02*
X21643000Y-37588000D01*
G75*
G02*
X21443000Y-37388000I0J200000D01*
G01*
X21443000Y-36988000D01*
G75*
G02*
X21643000Y-36788000I200000J0D01*
G01*
X22193000Y-36788000D01*
G75*
G02*
X22393000Y-36988000I0J-200000D01*
G01*
X22393000Y-37388000D01*
G75*
G02*
X22193000Y-37588000I-200000J0D01*
G01*
G37*
G36*
G01*
X20718000Y-43288000D02*
X20718000Y-43838000D01*
G75*
G02*
X20518000Y-44038000I-200000J0D01*
G01*
X20118000Y-44038000D01*
G75*
G02*
X19918000Y-43838000I0J200000D01*
G01*
X19918000Y-43288000D01*
G75*
G02*
X20118000Y-43088000I200000J0D01*
G01*
X20518000Y-43088000D01*
G75*
G02*
X20718000Y-43288000I0J-200000D01*
G01*
G37*
G36*
G01*
X22368000Y-43288000D02*
X22368000Y-43838000D01*
G75*
G02*
X22168000Y-44038000I-200000J0D01*
G01*
X21768000Y-44038000D01*
G75*
G02*
X21568000Y-43838000I0J200000D01*
G01*
X21568000Y-43288000D01*
G75*
G02*
X21768000Y-43088000I200000J0D01*
G01*
X22168000Y-43088000D01*
G75*
G02*
X22368000Y-43288000I0J-200000D01*
G01*
G37*
G36*
G01*
X22193000Y-53538000D02*
X21643000Y-53538000D01*
G75*
G02*
X21443000Y-53338000I0J200000D01*
G01*
X21443000Y-52938000D01*
G75*
G02*
X21643000Y-52738000I200000J0D01*
G01*
X22193000Y-52738000D01*
G75*
G02*
X22393000Y-52938000I0J-200000D01*
G01*
X22393000Y-53338000D01*
G75*
G02*
X22193000Y-53538000I-200000J0D01*
G01*
G37*
G36*
G01*
X22193000Y-55188000D02*
X21643000Y-55188000D01*
G75*
G02*
X21443000Y-54988000I0J200000D01*
G01*
X21443000Y-54588000D01*
G75*
G02*
X21643000Y-54388000I200000J0D01*
G01*
X22193000Y-54388000D01*
G75*
G02*
X22393000Y-54588000I0J-200000D01*
G01*
X22393000Y-54988000D01*
G75*
G02*
X22193000Y-55188000I-200000J0D01*
G01*
G37*
G36*
G01*
X23993000Y-51988000D02*
X23993000Y-52538000D01*
G75*
G02*
X23793000Y-52738000I-200000J0D01*
G01*
X23393000Y-52738000D01*
G75*
G02*
X23193000Y-52538000I0J200000D01*
G01*
X23193000Y-51988000D01*
G75*
G02*
X23393000Y-51788000I200000J0D01*
G01*
X23793000Y-51788000D01*
G75*
G02*
X23993000Y-51988000I0J-200000D01*
G01*
G37*
G36*
G01*
X25643000Y-51988000D02*
X25643000Y-52538000D01*
G75*
G02*
X25443000Y-52738000I-200000J0D01*
G01*
X25043000Y-52738000D01*
G75*
G02*
X24843000Y-52538000I0J200000D01*
G01*
X24843000Y-51988000D01*
G75*
G02*
X25043000Y-51788000I200000J0D01*
G01*
X25443000Y-51788000D01*
G75*
G02*
X25643000Y-51988000I0J-200000D01*
G01*
G37*
G36*
G01*
X28293000Y-48238000D02*
X27743000Y-48238000D01*
G75*
G02*
X27543000Y-48038000I0J200000D01*
G01*
X27543000Y-47638000D01*
G75*
G02*
X27743000Y-47438000I200000J0D01*
G01*
X28293000Y-47438000D01*
G75*
G02*
X28493000Y-47638000I0J-200000D01*
G01*
X28493000Y-48038000D01*
G75*
G02*
X28293000Y-48238000I-200000J0D01*
G01*
G37*
G36*
G01*
X28293000Y-49888000D02*
X27743000Y-49888000D01*
G75*
G02*
X27543000Y-49688000I0J200000D01*
G01*
X27543000Y-49288000D01*
G75*
G02*
X27743000Y-49088000I200000J0D01*
G01*
X28293000Y-49088000D01*
G75*
G02*
X28493000Y-49288000I0J-200000D01*
G01*
X28493000Y-49688000D01*
G75*
G02*
X28293000Y-49888000I-200000J0D01*
G01*
G37*
G36*
G01*
X27043000Y-14338000D02*
X26493000Y-14338000D01*
G75*
G02*
X26293000Y-14138000I0J200000D01*
G01*
X26293000Y-13738000D01*
G75*
G02*
X26493000Y-13538000I200000J0D01*
G01*
X27043000Y-13538000D01*
G75*
G02*
X27243000Y-13738000I0J-200000D01*
G01*
X27243000Y-14138000D01*
G75*
G02*
X27043000Y-14338000I-200000J0D01*
G01*
G37*
G36*
G01*
X27043000Y-15988000D02*
X26493000Y-15988000D01*
G75*
G02*
X26293000Y-15788000I0J200000D01*
G01*
X26293000Y-15388000D01*
G75*
G02*
X26493000Y-15188000I200000J0D01*
G01*
X27043000Y-15188000D01*
G75*
G02*
X27243000Y-15388000I0J-200000D01*
G01*
X27243000Y-15788000D01*
G75*
G02*
X27043000Y-15988000I-200000J0D01*
G01*
G37*
G36*
G01*
X27743000Y-45588000D02*
X28293000Y-45588000D01*
G75*
G02*
X28493000Y-45788000I0J-200000D01*
G01*
X28493000Y-46188000D01*
G75*
G02*
X28293000Y-46388000I-200000J0D01*
G01*
X27743000Y-46388000D01*
G75*
G02*
X27543000Y-46188000I0J200000D01*
G01*
X27543000Y-45788000D01*
G75*
G02*
X27743000Y-45588000I200000J0D01*
G01*
G37*
G36*
G01*
X27743000Y-43938000D02*
X28293000Y-43938000D01*
G75*
G02*
X28493000Y-44138000I0J-200000D01*
G01*
X28493000Y-44538000D01*
G75*
G02*
X28293000Y-44738000I-200000J0D01*
G01*
X27743000Y-44738000D01*
G75*
G02*
X27543000Y-44538000I0J200000D01*
G01*
X27543000Y-44138000D01*
G75*
G02*
X27743000Y-43938000I200000J0D01*
G01*
G37*
G36*
G01*
X30293000Y-44188000D02*
X30293000Y-44738000D01*
G75*
G02*
X30093000Y-44938000I-200000J0D01*
G01*
X29693000Y-44938000D01*
G75*
G02*
X29493000Y-44738000I0J200000D01*
G01*
X29493000Y-44188000D01*
G75*
G02*
X29693000Y-43988000I200000J0D01*
G01*
X30093000Y-43988000D01*
G75*
G02*
X30293000Y-44188000I0J-200000D01*
G01*
G37*
G36*
G01*
X31943000Y-44188000D02*
X31943000Y-44738000D01*
G75*
G02*
X31743000Y-44938000I-200000J0D01*
G01*
X31343000Y-44938000D01*
G75*
G02*
X31143000Y-44738000I0J200000D01*
G01*
X31143000Y-44188000D01*
G75*
G02*
X31343000Y-43988000I200000J0D01*
G01*
X31743000Y-43988000D01*
G75*
G02*
X31943000Y-44188000I0J-200000D01*
G01*
G37*
G36*
G01*
X37743000Y-45588000D02*
X38293000Y-45588000D01*
G75*
G02*
X38493000Y-45788000I0J-200000D01*
G01*
X38493000Y-46188000D01*
G75*
G02*
X38293000Y-46388000I-200000J0D01*
G01*
X37743000Y-46388000D01*
G75*
G02*
X37543000Y-46188000I0J200000D01*
G01*
X37543000Y-45788000D01*
G75*
G02*
X37743000Y-45588000I200000J0D01*
G01*
G37*
G36*
G01*
X37743000Y-43938000D02*
X38293000Y-43938000D01*
G75*
G02*
X38493000Y-44138000I0J-200000D01*
G01*
X38493000Y-44538000D01*
G75*
G02*
X38293000Y-44738000I-200000J0D01*
G01*
X37743000Y-44738000D01*
G75*
G02*
X37543000Y-44538000I0J200000D01*
G01*
X37543000Y-44138000D01*
G75*
G02*
X37743000Y-43938000I200000J0D01*
G01*
G37*
G36*
G01*
X63352000Y-35477000D02*
X63902000Y-35477000D01*
G75*
G02*
X64102000Y-35677000I0J-200000D01*
G01*
X64102000Y-36077000D01*
G75*
G02*
X63902000Y-36277000I-200000J0D01*
G01*
X63352000Y-36277000D01*
G75*
G02*
X63152000Y-36077000I0J200000D01*
G01*
X63152000Y-35677000D01*
G75*
G02*
X63352000Y-35477000I200000J0D01*
G01*
G37*
G36*
G01*
X63352000Y-33827000D02*
X63902000Y-33827000D01*
G75*
G02*
X64102000Y-34027000I0J-200000D01*
G01*
X64102000Y-34427000D01*
G75*
G02*
X63902000Y-34627000I-200000J0D01*
G01*
X63352000Y-34627000D01*
G75*
G02*
X63152000Y-34427000I0J200000D01*
G01*
X63152000Y-34027000D01*
G75*
G02*
X63352000Y-33827000I200000J0D01*
G01*
G37*
G36*
G01*
X64808000Y-40938000D02*
X64808000Y-40388000D01*
G75*
G02*
X65008000Y-40188000I200000J0D01*
G01*
X65408000Y-40188000D01*
G75*
G02*
X65608000Y-40388000I0J-200000D01*
G01*
X65608000Y-40938000D01*
G75*
G02*
X65408000Y-41138000I-200000J0D01*
G01*
X65008000Y-41138000D01*
G75*
G02*
X64808000Y-40938000I0J200000D01*
G01*
G37*
G36*
G01*
X63158000Y-40938000D02*
X63158000Y-40388000D01*
G75*
G02*
X63358000Y-40188000I200000J0D01*
G01*
X63758000Y-40188000D01*
G75*
G02*
X63958000Y-40388000I0J-200000D01*
G01*
X63958000Y-40938000D01*
G75*
G02*
X63758000Y-41138000I-200000J0D01*
G01*
X63358000Y-41138000D01*
G75*
G02*
X63158000Y-40938000I0J200000D01*
G01*
G37*
D46*
X46518000Y-4463000D03*
G36*
G01*
X47018000Y-8263000D02*
X47018000Y-9063000D01*
G75*
G02*
X46518000Y-9563000I-500000J0D01*
G01*
X46518000Y-9563000D01*
G75*
G02*
X46018000Y-9063000I0J500000D01*
G01*
X46018000Y-8263000D01*
G75*
G02*
X46518000Y-7763000I500000J0D01*
G01*
X46518000Y-7763000D01*
G75*
G02*
X47018000Y-8263000I0J-500000D01*
G01*
G37*
D47*
X38868000Y-9613000D03*
X39668000Y-9613000D03*
X39168000Y-9613000D03*
X39968000Y-9613000D03*
X44468000Y-9613000D03*
X44768000Y-9613000D03*
X45268000Y-9613000D03*
X45568000Y-9613000D03*
D46*
X37918000Y-4463000D03*
G36*
G01*
X38418000Y-8263000D02*
X38418000Y-9063000D01*
G75*
G02*
X37918000Y-9563000I-500000J0D01*
G01*
X37918000Y-9563000D01*
G75*
G02*
X37418000Y-9063000I0J500000D01*
G01*
X37418000Y-8263000D01*
G75*
G02*
X37918000Y-7763000I500000J0D01*
G01*
X37918000Y-7763000D01*
G75*
G02*
X38418000Y-8263000I0J-500000D01*
G01*
G37*
D47*
X40468000Y-9613000D03*
X40968000Y-9613000D03*
X41468000Y-9613000D03*
X41968000Y-9613000D03*
X43968000Y-9613000D03*
X43468000Y-9613000D03*
X42968000Y-9613000D03*
X42468000Y-9613000D03*
G36*
G01*
X38793000Y-12338000D02*
X38793000Y-11788000D01*
G75*
G02*
X38993000Y-11588000I200000J0D01*
G01*
X39393000Y-11588000D01*
G75*
G02*
X39593000Y-11788000I0J-200000D01*
G01*
X39593000Y-12338000D01*
G75*
G02*
X39393000Y-12538000I-200000J0D01*
G01*
X38993000Y-12538000D01*
G75*
G02*
X38793000Y-12338000I0J200000D01*
G01*
G37*
G36*
G01*
X37143000Y-12338000D02*
X37143000Y-11788000D01*
G75*
G02*
X37343000Y-11588000I200000J0D01*
G01*
X37743000Y-11588000D01*
G75*
G02*
X37943000Y-11788000I0J-200000D01*
G01*
X37943000Y-12338000D01*
G75*
G02*
X37743000Y-12538000I-200000J0D01*
G01*
X37343000Y-12538000D01*
G75*
G02*
X37143000Y-12338000I0J200000D01*
G01*
G37*
D48*
X18918000Y-95263000D03*
X39918000Y-95263000D03*
X39918000Y-72263000D03*
D44*
X33240700Y-71786900D03*
X30700700Y-71786900D03*
X28160700Y-71786900D03*
X25620700Y-71786900D03*
D48*
X18918000Y-72263000D03*
D49*
X48428000Y-26963000D03*
X50428000Y-26963000D03*
X52428000Y-26963000D03*
X54428000Y-26963000D03*
X56428000Y-26963000D03*
X58428000Y-26963000D03*
D50*
X45718000Y-42663000D03*
X45718000Y-40663000D03*
X45718000Y-38663000D03*
X45718000Y-36663000D03*
X45718000Y-34663000D03*
X45718000Y-32663000D03*
X45718000Y-30663000D03*
X45718000Y-28663000D03*
X61118000Y-28663000D03*
X61118000Y-30663000D03*
X61118000Y-32663000D03*
X61118000Y-34663000D03*
X61118000Y-36663000D03*
X61118000Y-38663000D03*
X61118000Y-40663000D03*
X61118000Y-42663000D03*
G36*
G01*
X34543000Y-44738000D02*
X34543000Y-44188000D01*
G75*
G02*
X34743000Y-43988000I200000J0D01*
G01*
X35143000Y-43988000D01*
G75*
G02*
X35343000Y-44188000I0J-200000D01*
G01*
X35343000Y-44738000D01*
G75*
G02*
X35143000Y-44938000I-200000J0D01*
G01*
X34743000Y-44938000D01*
G75*
G02*
X34543000Y-44738000I0J200000D01*
G01*
G37*
G36*
G01*
X32893000Y-44738000D02*
X32893000Y-44188000D01*
G75*
G02*
X33093000Y-43988000I200000J0D01*
G01*
X33493000Y-43988000D01*
G75*
G02*
X33693000Y-44188000I0J-200000D01*
G01*
X33693000Y-44738000D01*
G75*
G02*
X33493000Y-44938000I-200000J0D01*
G01*
X33093000Y-44938000D01*
G75*
G02*
X32893000Y-44738000I0J200000D01*
G01*
G37*
G36*
G01*
X37993000Y-19088000D02*
X37993000Y-19638000D01*
G75*
G02*
X37793000Y-19838000I-200000J0D01*
G01*
X37393000Y-19838000D01*
G75*
G02*
X37193000Y-19638000I0J200000D01*
G01*
X37193000Y-19088000D01*
G75*
G02*
X37393000Y-18888000I200000J0D01*
G01*
X37793000Y-18888000D01*
G75*
G02*
X37993000Y-19088000I0J-200000D01*
G01*
G37*
G36*
G01*
X39643000Y-19088000D02*
X39643000Y-19638000D01*
G75*
G02*
X39443000Y-19838000I-200000J0D01*
G01*
X39043000Y-19838000D01*
G75*
G02*
X38843000Y-19638000I0J200000D01*
G01*
X38843000Y-19088000D01*
G75*
G02*
X39043000Y-18888000I200000J0D01*
G01*
X39443000Y-18888000D01*
G75*
G02*
X39643000Y-19088000I0J-200000D01*
G01*
G37*
G36*
G01*
X31793000Y-28888000D02*
X31793000Y-28338000D01*
G75*
G02*
X31993000Y-28138000I200000J0D01*
G01*
X32393000Y-28138000D01*
G75*
G02*
X32593000Y-28338000I0J-200000D01*
G01*
X32593000Y-28888000D01*
G75*
G02*
X32393000Y-29088000I-200000J0D01*
G01*
X31993000Y-29088000D01*
G75*
G02*
X31793000Y-28888000I0J200000D01*
G01*
G37*
G36*
G01*
X30143000Y-28888000D02*
X30143000Y-28338000D01*
G75*
G02*
X30343000Y-28138000I200000J0D01*
G01*
X30743000Y-28138000D01*
G75*
G02*
X30943000Y-28338000I0J-200000D01*
G01*
X30943000Y-28888000D01*
G75*
G02*
X30743000Y-29088000I-200000J0D01*
G01*
X30343000Y-29088000D01*
G75*
G02*
X30143000Y-28888000I0J200000D01*
G01*
G37*
G36*
G01*
X41193000Y-12388000D02*
X40643000Y-12388000D01*
G75*
G02*
X40443000Y-12188000I0J200000D01*
G01*
X40443000Y-11788000D01*
G75*
G02*
X40643000Y-11588000I200000J0D01*
G01*
X41193000Y-11588000D01*
G75*
G02*
X41393000Y-11788000I0J-200000D01*
G01*
X41393000Y-12188000D01*
G75*
G02*
X41193000Y-12388000I-200000J0D01*
G01*
G37*
G36*
G01*
X41193000Y-14038000D02*
X40643000Y-14038000D01*
G75*
G02*
X40443000Y-13838000I0J200000D01*
G01*
X40443000Y-13438000D01*
G75*
G02*
X40643000Y-13238000I200000J0D01*
G01*
X41193000Y-13238000D01*
G75*
G02*
X41393000Y-13438000I0J-200000D01*
G01*
X41393000Y-13838000D01*
G75*
G02*
X41193000Y-14038000I-200000J0D01*
G01*
G37*
D51*
X19118000Y-7163000D03*
X19218000Y-61963000D03*
X88818000Y-7263000D03*
X88818000Y-62163000D03*
G36*
G01*
X38043000Y-17013000D02*
X38043000Y-17513000D01*
G75*
G02*
X37818000Y-17738000I-225000J0D01*
G01*
X37368000Y-17738000D01*
G75*
G02*
X37143000Y-17513000I0J225000D01*
G01*
X37143000Y-17013000D01*
G75*
G02*
X37368000Y-16788000I225000J0D01*
G01*
X37818000Y-16788000D01*
G75*
G02*
X38043000Y-17013000I0J-225000D01*
G01*
G37*
G36*
G01*
X39593000Y-17013000D02*
X39593000Y-17513000D01*
G75*
G02*
X39368000Y-17738000I-225000J0D01*
G01*
X38918000Y-17738000D01*
G75*
G02*
X38693000Y-17513000I0J225000D01*
G01*
X38693000Y-17013000D01*
G75*
G02*
X38918000Y-16788000I225000J0D01*
G01*
X39368000Y-16788000D01*
G75*
G02*
X39593000Y-17013000I0J-225000D01*
G01*
G37*
G36*
G01*
X61443000Y-26013000D02*
X61443000Y-25513000D01*
G75*
G02*
X61668000Y-25288000I225000J0D01*
G01*
X62118000Y-25288000D01*
G75*
G02*
X62343000Y-25513000I0J-225000D01*
G01*
X62343000Y-26013000D01*
G75*
G02*
X62118000Y-26238000I-225000J0D01*
G01*
X61668000Y-26238000D01*
G75*
G02*
X61443000Y-26013000I0J225000D01*
G01*
G37*
G36*
G01*
X59893000Y-26013000D02*
X59893000Y-25513000D01*
G75*
G02*
X60118000Y-25288000I225000J0D01*
G01*
X60568000Y-25288000D01*
G75*
G02*
X60793000Y-25513000I0J-225000D01*
G01*
X60793000Y-26013000D01*
G75*
G02*
X60568000Y-26238000I-225000J0D01*
G01*
X60118000Y-26238000D01*
G75*
G02*
X59893000Y-26013000I0J225000D01*
G01*
G37*
D45*
X13118000Y-29859200D03*
X13118000Y-39866800D03*
X13118000Y-47259200D03*
X13118000Y-57266800D03*
M02*
