G04 #@! TF.GenerationSoftware,KiCad,Pcbnew,(5.1.9-13-g2d491f9cbd)-1*
G04 #@! TF.CreationDate,2021-06-08T14:19:33+02:00*
G04 #@! TF.ProjectId,Load,4c6f6164-2e6b-4696-9361-645f70636258,rev?*
G04 #@! TF.SameCoordinates,Original*
G04 #@! TF.FileFunction,Soldermask,Bot*
G04 #@! TF.FilePolarity,Negative*
%FSLAX46Y46*%
G04 Gerber Fmt 4.6, Leading zero omitted, Abs format (unit mm)*
G04 Created by KiCad (PCBNEW (5.1.9-13-g2d491f9cbd)-1) date 2021-06-08 14:19:33*
%MOMM*%
%LPD*%
G01*
G04 APERTURE LIST*
%ADD10C,1.524000*%
%ADD11O,1.600000X1.600000*%
%ADD12C,1.600000*%
%ADD13O,2.000000X1.700000*%
%ADD14O,1.950000X1.700000*%
%ADD15O,1.700000X2.000000*%
%ADD16O,1.700000X1.950000*%
%ADD17C,1.800000*%
%ADD18C,1.440000*%
%ADD19O,2.000000X1.905000*%
%ADD20R,2.000000X1.905000*%
%ADD21O,1.700000X1.700000*%
%ADD22R,1.700000X1.700000*%
%ADD23C,6.400000*%
%ADD24R,1.600000X1.600000*%
%ADD25C,2.000000*%
%ADD26R,2.000000X2.000000*%
%ADD27C,1.050000*%
%ADD28C,1.700000*%
%ADD29C,3.000000*%
%ADD30O,1.000000X1.400000*%
%ADD31C,2.700000*%
%ADD32C,5.600000*%
G04 APERTURE END LIST*
D10*
X81197000Y-44718000D03*
X84118000Y-44718000D03*
X87039000Y-44718000D03*
X87039000Y-53713000D03*
X81197000Y-53713000D03*
D11*
X90297000Y-37463000D03*
D12*
X87757000Y-37463000D03*
D11*
X87376000Y-40563000D03*
D12*
X89916000Y-40563000D03*
X51238000Y-5563000D03*
X61398000Y-5563000D03*
G36*
G01*
X49893000Y-84588000D02*
X49893000Y-85138000D01*
G75*
G02*
X49693000Y-85338000I-200000J0D01*
G01*
X49293000Y-85338000D01*
G75*
G02*
X49093000Y-85138000I0J200000D01*
G01*
X49093000Y-84588000D01*
G75*
G02*
X49293000Y-84388000I200000J0D01*
G01*
X49693000Y-84388000D01*
G75*
G02*
X49893000Y-84588000I0J-200000D01*
G01*
G37*
G36*
G01*
X51543000Y-84588000D02*
X51543000Y-85138000D01*
G75*
G02*
X51343000Y-85338000I-200000J0D01*
G01*
X50943000Y-85338000D01*
G75*
G02*
X50743000Y-85138000I0J200000D01*
G01*
X50743000Y-84588000D01*
G75*
G02*
X50943000Y-84388000I200000J0D01*
G01*
X51343000Y-84388000D01*
G75*
G02*
X51543000Y-84588000I0J-200000D01*
G01*
G37*
G36*
G01*
X49893000Y-81588000D02*
X49893000Y-82138000D01*
G75*
G02*
X49693000Y-82338000I-200000J0D01*
G01*
X49293000Y-82338000D01*
G75*
G02*
X49093000Y-82138000I0J200000D01*
G01*
X49093000Y-81588000D01*
G75*
G02*
X49293000Y-81388000I200000J0D01*
G01*
X49693000Y-81388000D01*
G75*
G02*
X49893000Y-81588000I0J-200000D01*
G01*
G37*
G36*
G01*
X51543000Y-81588000D02*
X51543000Y-82138000D01*
G75*
G02*
X51343000Y-82338000I-200000J0D01*
G01*
X50943000Y-82338000D01*
G75*
G02*
X50743000Y-82138000I0J200000D01*
G01*
X50743000Y-81588000D01*
G75*
G02*
X50943000Y-81388000I200000J0D01*
G01*
X51343000Y-81388000D01*
G75*
G02*
X51543000Y-81588000I0J-200000D01*
G01*
G37*
G36*
G01*
X49893000Y-80088000D02*
X49893000Y-80638000D01*
G75*
G02*
X49693000Y-80838000I-200000J0D01*
G01*
X49293000Y-80838000D01*
G75*
G02*
X49093000Y-80638000I0J200000D01*
G01*
X49093000Y-80088000D01*
G75*
G02*
X49293000Y-79888000I200000J0D01*
G01*
X49693000Y-79888000D01*
G75*
G02*
X49893000Y-80088000I0J-200000D01*
G01*
G37*
G36*
G01*
X51543000Y-80088000D02*
X51543000Y-80638000D01*
G75*
G02*
X51343000Y-80838000I-200000J0D01*
G01*
X50943000Y-80838000D01*
G75*
G02*
X50743000Y-80638000I0J200000D01*
G01*
X50743000Y-80088000D01*
G75*
G02*
X50943000Y-79888000I200000J0D01*
G01*
X51343000Y-79888000D01*
G75*
G02*
X51543000Y-80088000I0J-200000D01*
G01*
G37*
G36*
G01*
X49893000Y-83088000D02*
X49893000Y-83638000D01*
G75*
G02*
X49693000Y-83838000I-200000J0D01*
G01*
X49293000Y-83838000D01*
G75*
G02*
X49093000Y-83638000I0J200000D01*
G01*
X49093000Y-83088000D01*
G75*
G02*
X49293000Y-82888000I200000J0D01*
G01*
X49693000Y-82888000D01*
G75*
G02*
X49893000Y-83088000I0J-200000D01*
G01*
G37*
G36*
G01*
X51543000Y-83088000D02*
X51543000Y-83638000D01*
G75*
G02*
X51343000Y-83838000I-200000J0D01*
G01*
X50943000Y-83838000D01*
G75*
G02*
X50743000Y-83638000I0J200000D01*
G01*
X50743000Y-83088000D01*
G75*
G02*
X50943000Y-82888000I200000J0D01*
G01*
X51343000Y-82888000D01*
G75*
G02*
X51543000Y-83088000I0J-200000D01*
G01*
G37*
G36*
G01*
X49893000Y-86088000D02*
X49893000Y-86638000D01*
G75*
G02*
X49693000Y-86838000I-200000J0D01*
G01*
X49293000Y-86838000D01*
G75*
G02*
X49093000Y-86638000I0J200000D01*
G01*
X49093000Y-86088000D01*
G75*
G02*
X49293000Y-85888000I200000J0D01*
G01*
X49693000Y-85888000D01*
G75*
G02*
X49893000Y-86088000I0J-200000D01*
G01*
G37*
G36*
G01*
X51543000Y-86088000D02*
X51543000Y-86638000D01*
G75*
G02*
X51343000Y-86838000I-200000J0D01*
G01*
X50943000Y-86838000D01*
G75*
G02*
X50743000Y-86638000I0J200000D01*
G01*
X50743000Y-86088000D01*
G75*
G02*
X50943000Y-85888000I200000J0D01*
G01*
X51343000Y-85888000D01*
G75*
G02*
X51543000Y-86088000I0J-200000D01*
G01*
G37*
D13*
X33274000Y-61213000D03*
G36*
G01*
X32524000Y-57863000D02*
X34024000Y-57863000D01*
G75*
G02*
X34274000Y-58113000I0J-250000D01*
G01*
X34274000Y-59313000D01*
G75*
G02*
X34024000Y-59563000I-250000J0D01*
G01*
X32524000Y-59563000D01*
G75*
G02*
X32274000Y-59313000I0J250000D01*
G01*
X32274000Y-58113000D01*
G75*
G02*
X32524000Y-57863000I250000J0D01*
G01*
G37*
G36*
G01*
X39743000Y-62113000D02*
X38293000Y-62113000D01*
G75*
G02*
X38043000Y-61863000I0J250000D01*
G01*
X38043000Y-60663000D01*
G75*
G02*
X38293000Y-60413000I250000J0D01*
G01*
X39743000Y-60413000D01*
G75*
G02*
X39993000Y-60663000I0J-250000D01*
G01*
X39993000Y-61863000D01*
G75*
G02*
X39743000Y-62113000I-250000J0D01*
G01*
G37*
D14*
X39018000Y-58763000D03*
X39018000Y-56263000D03*
D15*
X30718000Y-17163000D03*
G36*
G01*
X34068000Y-16413000D02*
X34068000Y-17913000D01*
G75*
G02*
X33818000Y-18163000I-250000J0D01*
G01*
X32618000Y-18163000D01*
G75*
G02*
X32368000Y-17913000I0J250000D01*
G01*
X32368000Y-16413000D01*
G75*
G02*
X32618000Y-16163000I250000J0D01*
G01*
X33818000Y-16163000D01*
G75*
G02*
X34068000Y-16413000I0J-250000D01*
G01*
G37*
D16*
X25718000Y-9663000D03*
X28218000Y-9663000D03*
X30718000Y-9663000D03*
G36*
G01*
X34068000Y-8938000D02*
X34068000Y-10388000D01*
G75*
G02*
X33818000Y-10638000I-250000J0D01*
G01*
X32618000Y-10638000D01*
G75*
G02*
X32368000Y-10388000I0J250000D01*
G01*
X32368000Y-8938000D01*
G75*
G02*
X32618000Y-8688000I250000J0D01*
G01*
X33818000Y-8688000D01*
G75*
G02*
X34068000Y-8938000I0J-250000D01*
G01*
G37*
G36*
G01*
X45843000Y-89358000D02*
X45843000Y-89058000D01*
G75*
G02*
X45993000Y-88908000I150000J0D01*
G01*
X47743000Y-88908000D01*
G75*
G02*
X47893000Y-89058000I0J-150000D01*
G01*
X47893000Y-89358000D01*
G75*
G02*
X47743000Y-89508000I-150000J0D01*
G01*
X45993000Y-89508000D01*
G75*
G02*
X45843000Y-89358000I0J150000D01*
G01*
G37*
G36*
G01*
X45843000Y-88088000D02*
X45843000Y-87788000D01*
G75*
G02*
X45993000Y-87638000I150000J0D01*
G01*
X47743000Y-87638000D01*
G75*
G02*
X47893000Y-87788000I0J-150000D01*
G01*
X47893000Y-88088000D01*
G75*
G02*
X47743000Y-88238000I-150000J0D01*
G01*
X45993000Y-88238000D01*
G75*
G02*
X45843000Y-88088000I0J150000D01*
G01*
G37*
G36*
G01*
X45843000Y-86818000D02*
X45843000Y-86518000D01*
G75*
G02*
X45993000Y-86368000I150000J0D01*
G01*
X47743000Y-86368000D01*
G75*
G02*
X47893000Y-86518000I0J-150000D01*
G01*
X47893000Y-86818000D01*
G75*
G02*
X47743000Y-86968000I-150000J0D01*
G01*
X45993000Y-86968000D01*
G75*
G02*
X45843000Y-86818000I0J150000D01*
G01*
G37*
G36*
G01*
X45843000Y-85548000D02*
X45843000Y-85248000D01*
G75*
G02*
X45993000Y-85098000I150000J0D01*
G01*
X47743000Y-85098000D01*
G75*
G02*
X47893000Y-85248000I0J-150000D01*
G01*
X47893000Y-85548000D01*
G75*
G02*
X47743000Y-85698000I-150000J0D01*
G01*
X45993000Y-85698000D01*
G75*
G02*
X45843000Y-85548000I0J150000D01*
G01*
G37*
G36*
G01*
X45843000Y-84278000D02*
X45843000Y-83978000D01*
G75*
G02*
X45993000Y-83828000I150000J0D01*
G01*
X47743000Y-83828000D01*
G75*
G02*
X47893000Y-83978000I0J-150000D01*
G01*
X47893000Y-84278000D01*
G75*
G02*
X47743000Y-84428000I-150000J0D01*
G01*
X45993000Y-84428000D01*
G75*
G02*
X45843000Y-84278000I0J150000D01*
G01*
G37*
G36*
G01*
X45843000Y-83008000D02*
X45843000Y-82708000D01*
G75*
G02*
X45993000Y-82558000I150000J0D01*
G01*
X47743000Y-82558000D01*
G75*
G02*
X47893000Y-82708000I0J-150000D01*
G01*
X47893000Y-83008000D01*
G75*
G02*
X47743000Y-83158000I-150000J0D01*
G01*
X45993000Y-83158000D01*
G75*
G02*
X45843000Y-83008000I0J150000D01*
G01*
G37*
G36*
G01*
X45843000Y-81738000D02*
X45843000Y-81438000D01*
G75*
G02*
X45993000Y-81288000I150000J0D01*
G01*
X47743000Y-81288000D01*
G75*
G02*
X47893000Y-81438000I0J-150000D01*
G01*
X47893000Y-81738000D01*
G75*
G02*
X47743000Y-81888000I-150000J0D01*
G01*
X45993000Y-81888000D01*
G75*
G02*
X45843000Y-81738000I0J150000D01*
G01*
G37*
G36*
G01*
X45843000Y-80468000D02*
X45843000Y-80168000D01*
G75*
G02*
X45993000Y-80018000I150000J0D01*
G01*
X47743000Y-80018000D01*
G75*
G02*
X47893000Y-80168000I0J-150000D01*
G01*
X47893000Y-80468000D01*
G75*
G02*
X47743000Y-80618000I-150000J0D01*
G01*
X45993000Y-80618000D01*
G75*
G02*
X45843000Y-80468000I0J150000D01*
G01*
G37*
G36*
G01*
X36543000Y-80468000D02*
X36543000Y-80168000D01*
G75*
G02*
X36693000Y-80018000I150000J0D01*
G01*
X38443000Y-80018000D01*
G75*
G02*
X38593000Y-80168000I0J-150000D01*
G01*
X38593000Y-80468000D01*
G75*
G02*
X38443000Y-80618000I-150000J0D01*
G01*
X36693000Y-80618000D01*
G75*
G02*
X36543000Y-80468000I0J150000D01*
G01*
G37*
G36*
G01*
X36543000Y-81738000D02*
X36543000Y-81438000D01*
G75*
G02*
X36693000Y-81288000I150000J0D01*
G01*
X38443000Y-81288000D01*
G75*
G02*
X38593000Y-81438000I0J-150000D01*
G01*
X38593000Y-81738000D01*
G75*
G02*
X38443000Y-81888000I-150000J0D01*
G01*
X36693000Y-81888000D01*
G75*
G02*
X36543000Y-81738000I0J150000D01*
G01*
G37*
G36*
G01*
X36543000Y-83008000D02*
X36543000Y-82708000D01*
G75*
G02*
X36693000Y-82558000I150000J0D01*
G01*
X38443000Y-82558000D01*
G75*
G02*
X38593000Y-82708000I0J-150000D01*
G01*
X38593000Y-83008000D01*
G75*
G02*
X38443000Y-83158000I-150000J0D01*
G01*
X36693000Y-83158000D01*
G75*
G02*
X36543000Y-83008000I0J150000D01*
G01*
G37*
G36*
G01*
X36543000Y-84278000D02*
X36543000Y-83978000D01*
G75*
G02*
X36693000Y-83828000I150000J0D01*
G01*
X38443000Y-83828000D01*
G75*
G02*
X38593000Y-83978000I0J-150000D01*
G01*
X38593000Y-84278000D01*
G75*
G02*
X38443000Y-84428000I-150000J0D01*
G01*
X36693000Y-84428000D01*
G75*
G02*
X36543000Y-84278000I0J150000D01*
G01*
G37*
G36*
G01*
X36543000Y-85548000D02*
X36543000Y-85248000D01*
G75*
G02*
X36693000Y-85098000I150000J0D01*
G01*
X38443000Y-85098000D01*
G75*
G02*
X38593000Y-85248000I0J-150000D01*
G01*
X38593000Y-85548000D01*
G75*
G02*
X38443000Y-85698000I-150000J0D01*
G01*
X36693000Y-85698000D01*
G75*
G02*
X36543000Y-85548000I0J150000D01*
G01*
G37*
G36*
G01*
X36543000Y-86818000D02*
X36543000Y-86518000D01*
G75*
G02*
X36693000Y-86368000I150000J0D01*
G01*
X38443000Y-86368000D01*
G75*
G02*
X38593000Y-86518000I0J-150000D01*
G01*
X38593000Y-86818000D01*
G75*
G02*
X38443000Y-86968000I-150000J0D01*
G01*
X36693000Y-86968000D01*
G75*
G02*
X36543000Y-86818000I0J150000D01*
G01*
G37*
G36*
G01*
X36543000Y-88088000D02*
X36543000Y-87788000D01*
G75*
G02*
X36693000Y-87638000I150000J0D01*
G01*
X38443000Y-87638000D01*
G75*
G02*
X38593000Y-87788000I0J-150000D01*
G01*
X38593000Y-88088000D01*
G75*
G02*
X38443000Y-88238000I-150000J0D01*
G01*
X36693000Y-88238000D01*
G75*
G02*
X36543000Y-88088000I0J150000D01*
G01*
G37*
G36*
G01*
X36543000Y-89358000D02*
X36543000Y-89058000D01*
G75*
G02*
X36693000Y-88908000I150000J0D01*
G01*
X38443000Y-88908000D01*
G75*
G02*
X38593000Y-89058000I0J-150000D01*
G01*
X38593000Y-89358000D01*
G75*
G02*
X38443000Y-89508000I-150000J0D01*
G01*
X36693000Y-89508000D01*
G75*
G02*
X36543000Y-89358000I0J150000D01*
G01*
G37*
D17*
X70329000Y-25827000D03*
X72107000Y-17699000D03*
D18*
X40268000Y-28883000D03*
X40268000Y-31423000D03*
X40268000Y-33963000D03*
D19*
X19418000Y-14783000D03*
X19418000Y-17323000D03*
D20*
X19418000Y-19863000D03*
D19*
X19418000Y-49783000D03*
X19418000Y-52323000D03*
D20*
X19418000Y-54863000D03*
D13*
X26416000Y-61213000D03*
G36*
G01*
X25666000Y-57863000D02*
X27166000Y-57863000D01*
G75*
G02*
X27416000Y-58113000I0J-250000D01*
G01*
X27416000Y-59313000D01*
G75*
G02*
X27166000Y-59563000I-250000J0D01*
G01*
X25666000Y-59563000D01*
G75*
G02*
X25416000Y-59313000I0J250000D01*
G01*
X25416000Y-58113000D01*
G75*
G02*
X25666000Y-57863000I250000J0D01*
G01*
G37*
D21*
X79538000Y-80163000D03*
X76998000Y-80163000D03*
X74458000Y-80163000D03*
X71918000Y-80163000D03*
X69378000Y-80163000D03*
X66838000Y-80163000D03*
X64298000Y-80163000D03*
X61758000Y-80163000D03*
D22*
X59218000Y-80163000D03*
G36*
G01*
X75193000Y-87813000D02*
X76643000Y-87813000D01*
G75*
G02*
X76893000Y-88063000I0J-250000D01*
G01*
X76893000Y-89263000D01*
G75*
G02*
X76643000Y-89513000I-250000J0D01*
G01*
X75193000Y-89513000D01*
G75*
G02*
X74943000Y-89263000I0J250000D01*
G01*
X74943000Y-88063000D01*
G75*
G02*
X75193000Y-87813000I250000J0D01*
G01*
G37*
D14*
X75918000Y-91163000D03*
X75918000Y-93663000D03*
D23*
X88518000Y-95263000D03*
X88518000Y-72363000D03*
X12918000Y-95263000D03*
X12918000Y-72363000D03*
D12*
X62103000Y-58134000D03*
D24*
X62103000Y-56134000D03*
D25*
X69469000Y-63163000D03*
D26*
X69469000Y-58163000D03*
D12*
X91698000Y-34063000D03*
X81538000Y-34063000D03*
X75748000Y-30099000D03*
D24*
X79248000Y-30099000D03*
D12*
X77518000Y-23163000D03*
D24*
X77518000Y-19663000D03*
D12*
X73518000Y-15112800D03*
X73518000Y-5613200D03*
X67318000Y-14583000D03*
X67318000Y-24743000D03*
X64618000Y-4683000D03*
X64618000Y-14843000D03*
G36*
G01*
X27243000Y-75513000D02*
X27243000Y-75013000D01*
G75*
G02*
X27468000Y-74788000I225000J0D01*
G01*
X27918000Y-74788000D01*
G75*
G02*
X28143000Y-75013000I0J-225000D01*
G01*
X28143000Y-75513000D01*
G75*
G02*
X27918000Y-75738000I-225000J0D01*
G01*
X27468000Y-75738000D01*
G75*
G02*
X27243000Y-75513000I0J225000D01*
G01*
G37*
G36*
G01*
X25693000Y-75513000D02*
X25693000Y-75013000D01*
G75*
G02*
X25918000Y-74788000I225000J0D01*
G01*
X26368000Y-74788000D01*
G75*
G02*
X26593000Y-75013000I0J-225000D01*
G01*
X26593000Y-75513000D01*
G75*
G02*
X26368000Y-75738000I-225000J0D01*
G01*
X25918000Y-75738000D01*
G75*
G02*
X25693000Y-75513000I0J225000D01*
G01*
G37*
G36*
G01*
X42343000Y-91613000D02*
X42343000Y-91113000D01*
G75*
G02*
X42568000Y-90888000I225000J0D01*
G01*
X43018000Y-90888000D01*
G75*
G02*
X43243000Y-91113000I0J-225000D01*
G01*
X43243000Y-91613000D01*
G75*
G02*
X43018000Y-91838000I-225000J0D01*
G01*
X42568000Y-91838000D01*
G75*
G02*
X42343000Y-91613000I0J225000D01*
G01*
G37*
G36*
G01*
X40793000Y-91613000D02*
X40793000Y-91113000D01*
G75*
G02*
X41018000Y-90888000I225000J0D01*
G01*
X41468000Y-90888000D01*
G75*
G02*
X41693000Y-91113000I0J-225000D01*
G01*
X41693000Y-91613000D01*
G75*
G02*
X41468000Y-91838000I-225000J0D01*
G01*
X41018000Y-91838000D01*
G75*
G02*
X40793000Y-91613000I0J225000D01*
G01*
G37*
X47030000Y-55245000D03*
D24*
X49530000Y-55245000D03*
D27*
X13118000Y-18613000D03*
X13118000Y-16113000D03*
X13118000Y-36113000D03*
X13118000Y-33613000D03*
X13118000Y-53613000D03*
X13118000Y-51113000D03*
G36*
G01*
X34643000Y-81838000D02*
X34643000Y-81288000D01*
G75*
G02*
X34843000Y-81088000I200000J0D01*
G01*
X35243000Y-81088000D01*
G75*
G02*
X35443000Y-81288000I0J-200000D01*
G01*
X35443000Y-81838000D01*
G75*
G02*
X35243000Y-82038000I-200000J0D01*
G01*
X34843000Y-82038000D01*
G75*
G02*
X34643000Y-81838000I0J200000D01*
G01*
G37*
G36*
G01*
X32993000Y-81838000D02*
X32993000Y-81288000D01*
G75*
G02*
X33193000Y-81088000I200000J0D01*
G01*
X33593000Y-81088000D01*
G75*
G02*
X33793000Y-81288000I0J-200000D01*
G01*
X33793000Y-81838000D01*
G75*
G02*
X33593000Y-82038000I-200000J0D01*
G01*
X33193000Y-82038000D01*
G75*
G02*
X32993000Y-81838000I0J200000D01*
G01*
G37*
D19*
X19418000Y-32183000D03*
X19418000Y-34723000D03*
D20*
X19418000Y-37263000D03*
D28*
X90574000Y-28627000D03*
X90574000Y-20499000D03*
X83462000Y-20499000D03*
X83462000Y-28627000D03*
G36*
G01*
X58693000Y-12813000D02*
X60143000Y-12813000D01*
G75*
G02*
X60393000Y-13063000I0J-250000D01*
G01*
X60393000Y-14263000D01*
G75*
G02*
X60143000Y-14513000I-250000J0D01*
G01*
X58693000Y-14513000D01*
G75*
G02*
X58443000Y-14263000I0J250000D01*
G01*
X58443000Y-13063000D01*
G75*
G02*
X58693000Y-12813000I250000J0D01*
G01*
G37*
D14*
X59418000Y-16163000D03*
X59418000Y-18663000D03*
D13*
X62418000Y-91163000D03*
G36*
G01*
X61668000Y-87813000D02*
X63168000Y-87813000D01*
G75*
G02*
X63418000Y-88063000I0J-250000D01*
G01*
X63418000Y-89263000D01*
G75*
G02*
X63168000Y-89513000I-250000J0D01*
G01*
X61668000Y-89513000D01*
G75*
G02*
X61418000Y-89263000I0J250000D01*
G01*
X61418000Y-88063000D01*
G75*
G02*
X61668000Y-87813000I250000J0D01*
G01*
G37*
D29*
X13118000Y-12359200D03*
X13118000Y-22366800D03*
G36*
G01*
X34643000Y-83338000D02*
X34643000Y-82788000D01*
G75*
G02*
X34843000Y-82588000I200000J0D01*
G01*
X35243000Y-82588000D01*
G75*
G02*
X35443000Y-82788000I0J-200000D01*
G01*
X35443000Y-83338000D01*
G75*
G02*
X35243000Y-83538000I-200000J0D01*
G01*
X34843000Y-83538000D01*
G75*
G02*
X34643000Y-83338000I0J200000D01*
G01*
G37*
G36*
G01*
X32993000Y-83338000D02*
X32993000Y-82788000D01*
G75*
G02*
X33193000Y-82588000I200000J0D01*
G01*
X33593000Y-82588000D01*
G75*
G02*
X33793000Y-82788000I0J-200000D01*
G01*
X33793000Y-83338000D01*
G75*
G02*
X33593000Y-83538000I-200000J0D01*
G01*
X33193000Y-83538000D01*
G75*
G02*
X32993000Y-83338000I0J200000D01*
G01*
G37*
G36*
G01*
X34643000Y-84838000D02*
X34643000Y-84288000D01*
G75*
G02*
X34843000Y-84088000I200000J0D01*
G01*
X35243000Y-84088000D01*
G75*
G02*
X35443000Y-84288000I0J-200000D01*
G01*
X35443000Y-84838000D01*
G75*
G02*
X35243000Y-85038000I-200000J0D01*
G01*
X34843000Y-85038000D01*
G75*
G02*
X34643000Y-84838000I0J200000D01*
G01*
G37*
G36*
G01*
X32993000Y-84838000D02*
X32993000Y-84288000D01*
G75*
G02*
X33193000Y-84088000I200000J0D01*
G01*
X33593000Y-84088000D01*
G75*
G02*
X33793000Y-84288000I0J-200000D01*
G01*
X33793000Y-84838000D01*
G75*
G02*
X33593000Y-85038000I-200000J0D01*
G01*
X33193000Y-85038000D01*
G75*
G02*
X32993000Y-84838000I0J200000D01*
G01*
G37*
G36*
G01*
X34643000Y-86338000D02*
X34643000Y-85788000D01*
G75*
G02*
X34843000Y-85588000I200000J0D01*
G01*
X35243000Y-85588000D01*
G75*
G02*
X35443000Y-85788000I0J-200000D01*
G01*
X35443000Y-86338000D01*
G75*
G02*
X35243000Y-86538000I-200000J0D01*
G01*
X34843000Y-86538000D01*
G75*
G02*
X34643000Y-86338000I0J200000D01*
G01*
G37*
G36*
G01*
X32993000Y-86338000D02*
X32993000Y-85788000D01*
G75*
G02*
X33193000Y-85588000I200000J0D01*
G01*
X33593000Y-85588000D01*
G75*
G02*
X33793000Y-85788000I0J-200000D01*
G01*
X33793000Y-86338000D01*
G75*
G02*
X33593000Y-86538000I-200000J0D01*
G01*
X33193000Y-86538000D01*
G75*
G02*
X32993000Y-86338000I0J200000D01*
G01*
G37*
D30*
X46518000Y-4463000D03*
G36*
G01*
X47018000Y-8263000D02*
X47018000Y-9063000D01*
G75*
G02*
X46518000Y-9563000I-500000J0D01*
G01*
X46518000Y-9563000D01*
G75*
G02*
X46018000Y-9063000I0J500000D01*
G01*
X46018000Y-8263000D01*
G75*
G02*
X46518000Y-7763000I500000J0D01*
G01*
X46518000Y-7763000D01*
G75*
G02*
X47018000Y-8263000I0J-500000D01*
G01*
G37*
X37918000Y-4463000D03*
G36*
G01*
X38418000Y-8263000D02*
X38418000Y-9063000D01*
G75*
G02*
X37918000Y-9563000I-500000J0D01*
G01*
X37918000Y-9563000D01*
G75*
G02*
X37418000Y-9063000I0J500000D01*
G01*
X37418000Y-8263000D01*
G75*
G02*
X37918000Y-7763000I500000J0D01*
G01*
X37918000Y-7763000D01*
G75*
G02*
X38418000Y-8263000I0J-500000D01*
G01*
G37*
D31*
X18918000Y-95263000D03*
X39918000Y-95263000D03*
X39918000Y-72263000D03*
D28*
X33240700Y-71786900D03*
X30700700Y-71786900D03*
X28160700Y-71786900D03*
X25620700Y-71786900D03*
D31*
X18918000Y-72263000D03*
D32*
X19118000Y-7163000D03*
X19218000Y-61963000D03*
X88818000Y-7263000D03*
X88818000Y-62163000D03*
D29*
X13118000Y-29859200D03*
X13118000Y-39866800D03*
X13118000Y-47259200D03*
X13118000Y-57266800D03*
M02*
