G04 #@! TF.GenerationSoftware,KiCad,Pcbnew,(5.1.9-13-g2d491f9cbd)-1*
G04 #@! TF.CreationDate,2021-06-08T14:19:33+02:00*
G04 #@! TF.ProjectId,Load,4c6f6164-2e6b-4696-9361-645f70636258,rev?*
G04 #@! TF.SameCoordinates,Original*
G04 #@! TF.FileFunction,Legend,Top*
G04 #@! TF.FilePolarity,Positive*
%FSLAX46Y46*%
G04 Gerber Fmt 4.6, Leading zero omitted, Abs format (unit mm)*
G04 Created by KiCad (PCBNEW (5.1.9-13-g2d491f9cbd)-1) date 2021-06-08 14:19:33*
%MOMM*%
%LPD*%
G01*
G04 APERTURE LIST*
%ADD10C,0.300000*%
%ADD11C,0.120000*%
%ADD12C,0.150000*%
%ADD13C,0.200000*%
%ADD14C,0.127000*%
%ADD15C,0.600000*%
%ADD16C,0.152400*%
G04 APERTURE END LIST*
D10*
X37374000Y-65829571D02*
X37374000Y-64329571D01*
X37731142Y-64329571D01*
X37945428Y-64401000D01*
X38088285Y-64543857D01*
X38159714Y-64686714D01*
X38231142Y-64972428D01*
X38231142Y-65186714D01*
X38159714Y-65472428D01*
X38088285Y-65615285D01*
X37945428Y-65758142D01*
X37731142Y-65829571D01*
X37374000Y-65829571D01*
X38802571Y-65401000D02*
X39516857Y-65401000D01*
X38659714Y-65829571D02*
X39159714Y-64329571D01*
X39659714Y-65829571D01*
X39945428Y-64329571D02*
X40802571Y-64329571D01*
X40374000Y-65829571D02*
X40374000Y-64329571D01*
X41231142Y-65401000D02*
X41945428Y-65401000D01*
X41088285Y-65829571D02*
X41588285Y-64329571D01*
X42088285Y-65829571D01*
X30766000Y-64329571D02*
X31266000Y-65829571D01*
X31766000Y-64329571D01*
X32266000Y-65829571D02*
X32266000Y-64329571D01*
X32623142Y-64329571D01*
X32837428Y-64401000D01*
X32980285Y-64543857D01*
X33051714Y-64686714D01*
X33123142Y-64972428D01*
X33123142Y-65186714D01*
X33051714Y-65472428D01*
X32980285Y-65615285D01*
X32837428Y-65758142D01*
X32623142Y-65829571D01*
X32266000Y-65829571D01*
X34623142Y-65686714D02*
X34551714Y-65758142D01*
X34337428Y-65829571D01*
X34194571Y-65829571D01*
X33980285Y-65758142D01*
X33837428Y-65615285D01*
X33766000Y-65472428D01*
X33694571Y-65186714D01*
X33694571Y-64972428D01*
X33766000Y-64686714D01*
X33837428Y-64543857D01*
X33980285Y-64401000D01*
X34194571Y-64329571D01*
X34337428Y-64329571D01*
X34551714Y-64401000D01*
X34623142Y-64472428D01*
X24320714Y-65702571D02*
X23606428Y-65702571D01*
X23606428Y-64202571D01*
X25106428Y-64202571D02*
X25392142Y-64202571D01*
X25535000Y-64274000D01*
X25677857Y-64416857D01*
X25749285Y-64702571D01*
X25749285Y-65202571D01*
X25677857Y-65488285D01*
X25535000Y-65631142D01*
X25392142Y-65702571D01*
X25106428Y-65702571D01*
X24963571Y-65631142D01*
X24820714Y-65488285D01*
X24749285Y-65202571D01*
X24749285Y-64702571D01*
X24820714Y-64416857D01*
X24963571Y-64274000D01*
X25106428Y-64202571D01*
X26320714Y-65274000D02*
X27035000Y-65274000D01*
X26177857Y-65702571D02*
X26677857Y-64202571D01*
X27177857Y-65702571D01*
X27677857Y-65702571D02*
X27677857Y-64202571D01*
X28035000Y-64202571D01*
X28249285Y-64274000D01*
X28392142Y-64416857D01*
X28463571Y-64559714D01*
X28535000Y-64845428D01*
X28535000Y-65059714D01*
X28463571Y-65345428D01*
X28392142Y-65488285D01*
X28249285Y-65631142D01*
X28035000Y-65702571D01*
X27677857Y-65702571D01*
X55142285Y-22308428D02*
X55213714Y-22237000D01*
X55356571Y-22165571D01*
X55713714Y-22165571D01*
X55856571Y-22237000D01*
X55928000Y-22308428D01*
X55999428Y-22451285D01*
X55999428Y-22594142D01*
X55928000Y-22808428D01*
X55070857Y-23665571D01*
X55999428Y-23665571D01*
X56499428Y-22165571D02*
X57428000Y-22165571D01*
X56928000Y-22737000D01*
X57142285Y-22737000D01*
X57285142Y-22808428D01*
X57356571Y-22879857D01*
X57428000Y-23022714D01*
X57428000Y-23379857D01*
X57356571Y-23522714D01*
X57285142Y-23594142D01*
X57142285Y-23665571D01*
X56713714Y-23665571D01*
X56570857Y-23594142D01*
X56499428Y-23522714D01*
X58356571Y-22165571D02*
X58499428Y-22165571D01*
X58642285Y-22237000D01*
X58713714Y-22308428D01*
X58785142Y-22451285D01*
X58856571Y-22737000D01*
X58856571Y-23094142D01*
X58785142Y-23379857D01*
X58713714Y-23522714D01*
X58642285Y-23594142D01*
X58499428Y-23665571D01*
X58356571Y-23665571D01*
X58213714Y-23594142D01*
X58142285Y-23522714D01*
X58070857Y-23379857D01*
X57999428Y-23094142D01*
X57999428Y-22737000D01*
X58070857Y-22451285D01*
X58142285Y-22308428D01*
X58213714Y-22237000D01*
X58356571Y-22165571D01*
X59285142Y-22165571D02*
X59785142Y-23665571D01*
X60285142Y-22165571D01*
X61928000Y-23522714D02*
X61999428Y-23594142D01*
X61928000Y-23665571D01*
X61856571Y-23594142D01*
X61928000Y-23522714D01*
X61928000Y-23665571D01*
X61928000Y-23094142D02*
X61856571Y-22237000D01*
X61928000Y-22165571D01*
X61999428Y-22237000D01*
X61928000Y-23094142D01*
X61928000Y-22165571D01*
X62642285Y-23522714D02*
X62713714Y-23594142D01*
X62642285Y-23665571D01*
X62570857Y-23594142D01*
X62642285Y-23522714D01*
X62642285Y-23665571D01*
X62642285Y-23094142D02*
X62570857Y-22237000D01*
X62642285Y-22165571D01*
X62713714Y-22237000D01*
X62642285Y-23094142D01*
X62642285Y-22165571D01*
X54189428Y-19341571D02*
X54189428Y-17841571D01*
X55046571Y-19341571D01*
X55046571Y-17841571D01*
X54196571Y-16055857D02*
X54696571Y-16055857D01*
X54910857Y-16841571D02*
X54196571Y-16841571D01*
X54196571Y-15341571D01*
X54910857Y-15341571D01*
X54882285Y-14441571D02*
X54168000Y-14441571D01*
X54168000Y-12941571D01*
D11*
X44337500Y-52975742D02*
X44337500Y-53450258D01*
X43292500Y-52975742D02*
X43292500Y-53450258D01*
X47006742Y-20940500D02*
X47481258Y-20940500D01*
X47006742Y-21985500D02*
X47481258Y-21985500D01*
X47006742Y-18683500D02*
X47481258Y-18683500D01*
X47006742Y-17638500D02*
X47481258Y-17638500D01*
X70118000Y-52513000D02*
X70048000Y-52513000D01*
X70048000Y-45493000D02*
X70048000Y-52513000D01*
X75388000Y-52433000D02*
X75388000Y-45493000D01*
X70048000Y-45493000D02*
X70718000Y-45493000D01*
X74718000Y-45493000D02*
X75388000Y-45493000D01*
X74718000Y-52433000D02*
X75388000Y-52433000D01*
X70118000Y-52513000D02*
X70118000Y-54603000D01*
X92119000Y-55259000D02*
X89706000Y-55259000D01*
X92119000Y-43067000D02*
X89706000Y-43067000D01*
X92119000Y-55259000D02*
X92119000Y-43067000D01*
X76117000Y-55259000D02*
X78530000Y-55259000D01*
X76117000Y-43067000D02*
X78530000Y-43067000D01*
X76117000Y-55259000D02*
X76117000Y-43067000D01*
X57545500Y-63262742D02*
X57545500Y-63737258D01*
X56500500Y-63262742D02*
X56500500Y-63737258D01*
X58202000Y-62163000D02*
X58202000Y-64163000D01*
X58202000Y-64163000D02*
X62102000Y-64163000D01*
X58202000Y-62163000D02*
X62102000Y-62163000D01*
X89127000Y-37463000D02*
X89197000Y-37463000D01*
X89127000Y-37463000D02*
G75*
G03*
X89127000Y-37463000I-1370000J0D01*
G01*
X88546000Y-40563000D02*
X88476000Y-40563000D01*
X91286000Y-40563000D02*
G75*
G03*
X91286000Y-40563000I-1370000J0D01*
G01*
X59874000Y-4547000D02*
X62160000Y-4547000D01*
X59874000Y-3785000D02*
X59874000Y-4547000D01*
X52762000Y-3785000D02*
X59874000Y-3785000D01*
X52762000Y-4547000D02*
X52762000Y-3785000D01*
X50476000Y-4547000D02*
X52762000Y-4547000D01*
X50603000Y-6579000D02*
X50476000Y-6579000D01*
X59874000Y-6579000D02*
X62160000Y-6579000D01*
X59874000Y-7341000D02*
X59874000Y-6579000D01*
X52762000Y-6579000D02*
X50603000Y-6579000D01*
X52762000Y-7341000D02*
X52762000Y-6579000D01*
X59874000Y-7341000D02*
X52762000Y-7341000D01*
X31895500Y-53500258D02*
X31895500Y-53025742D01*
X32940500Y-53500258D02*
X32940500Y-53025742D01*
X28958000Y-53403580D02*
X28958000Y-53122420D01*
X27938000Y-53403580D02*
X27938000Y-53122420D01*
X35734000Y-56153000D02*
X29764000Y-56153000D01*
X29764000Y-56153000D02*
X29764000Y-63773000D01*
X29764000Y-63773000D02*
X35734000Y-63773000D01*
X35734000Y-63773000D02*
X35734000Y-56153000D01*
X35724000Y-59463000D02*
X34974000Y-59463000D01*
X34974000Y-59463000D02*
X34974000Y-60463000D01*
X34974000Y-60463000D02*
X35724000Y-60463000D01*
X35724000Y-60463000D02*
X35724000Y-59463000D01*
X35724000Y-56163000D02*
X34974000Y-56163000D01*
X34974000Y-56163000D02*
X34974000Y-57963000D01*
X34974000Y-57963000D02*
X35724000Y-57963000D01*
X35724000Y-57963000D02*
X35724000Y-56163000D01*
X35724000Y-61963000D02*
X34974000Y-61963000D01*
X34974000Y-61963000D02*
X34974000Y-63763000D01*
X34974000Y-63763000D02*
X35724000Y-63763000D01*
X35724000Y-63763000D02*
X35724000Y-61963000D01*
X33474000Y-56163000D02*
X33474000Y-56913000D01*
X33474000Y-56913000D02*
X32134000Y-56913000D01*
X30524000Y-59963000D02*
X30524000Y-57973000D01*
X33474000Y-63763000D02*
X33474000Y-63013000D01*
X33474000Y-63013000D02*
X30524000Y-63013000D01*
X30524000Y-63013000D02*
X30524000Y-59963000D01*
X36024000Y-57113000D02*
X36024000Y-55863000D01*
X36024000Y-55863000D02*
X34774000Y-55863000D01*
X36268000Y-64113000D02*
X37518000Y-64113000D01*
X36268000Y-62863000D02*
X36268000Y-64113000D01*
X41768000Y-54463000D02*
X41768000Y-58763000D01*
X38818000Y-54463000D02*
X41768000Y-54463000D01*
X38818000Y-53713000D02*
X38818000Y-54463000D01*
X41768000Y-58763000D02*
X41768000Y-62003000D01*
X38818000Y-63063000D02*
X40158000Y-63063000D01*
X38818000Y-63813000D02*
X38818000Y-63063000D01*
X36568000Y-53713000D02*
X36568000Y-55513000D01*
X37318000Y-53713000D02*
X36568000Y-53713000D01*
X37318000Y-55513000D02*
X37318000Y-53713000D01*
X36568000Y-55513000D02*
X37318000Y-55513000D01*
X36568000Y-62013000D02*
X36568000Y-63813000D01*
X37318000Y-62013000D02*
X36568000Y-62013000D01*
X37318000Y-63813000D02*
X37318000Y-62013000D01*
X36568000Y-63813000D02*
X37318000Y-63813000D01*
X36568000Y-57013000D02*
X36568000Y-60513000D01*
X37318000Y-57013000D02*
X36568000Y-57013000D01*
X37318000Y-60513000D02*
X37318000Y-57013000D01*
X36568000Y-60513000D02*
X37318000Y-60513000D01*
X36558000Y-53703000D02*
X36558000Y-63823000D01*
X42528000Y-53703000D02*
X36558000Y-53703000D01*
X42528000Y-63823000D02*
X42528000Y-53703000D01*
X36558000Y-63823000D02*
X42528000Y-63823000D01*
X47006742Y-23636500D02*
X47481258Y-23636500D01*
X47006742Y-22591500D02*
X47481258Y-22591500D01*
X40108000Y-35683000D02*
X41568000Y-35683000D01*
X40108000Y-38843000D02*
X42268000Y-38843000D01*
X40108000Y-38843000D02*
X40108000Y-37913000D01*
X40108000Y-35683000D02*
X40108000Y-36613000D01*
X35778000Y-19623000D02*
X35778000Y-13653000D01*
X35778000Y-13653000D02*
X28158000Y-13653000D01*
X28158000Y-13653000D02*
X28158000Y-19623000D01*
X28158000Y-19623000D02*
X35778000Y-19623000D01*
X32468000Y-19613000D02*
X32468000Y-18863000D01*
X32468000Y-18863000D02*
X31468000Y-18863000D01*
X31468000Y-18863000D02*
X31468000Y-19613000D01*
X31468000Y-19613000D02*
X32468000Y-19613000D01*
X35768000Y-19613000D02*
X35768000Y-18863000D01*
X35768000Y-18863000D02*
X33968000Y-18863000D01*
X33968000Y-18863000D02*
X33968000Y-19613000D01*
X33968000Y-19613000D02*
X35768000Y-19613000D01*
X29968000Y-19613000D02*
X29968000Y-18863000D01*
X29968000Y-18863000D02*
X28168000Y-18863000D01*
X28168000Y-18863000D02*
X28168000Y-19613000D01*
X28168000Y-19613000D02*
X29968000Y-19613000D01*
X35768000Y-17363000D02*
X35018000Y-17363000D01*
X35018000Y-17363000D02*
X35018000Y-16023000D01*
X31968000Y-14413000D02*
X33958000Y-14413000D01*
X28168000Y-17363000D02*
X28918000Y-17363000D01*
X28918000Y-17363000D02*
X28918000Y-14413000D01*
X28918000Y-14413000D02*
X31968000Y-14413000D01*
X34818000Y-19913000D02*
X36068000Y-19913000D01*
X36068000Y-19913000D02*
X36068000Y-18663000D01*
X36068000Y-12413000D02*
X36068000Y-11163000D01*
X34818000Y-12413000D02*
X36068000Y-12413000D01*
X23918000Y-6913000D02*
X29468000Y-6913000D01*
X23918000Y-9863000D02*
X23918000Y-6913000D01*
X23168000Y-9863000D02*
X23918000Y-9863000D01*
X35018000Y-6913000D02*
X29468000Y-6913000D01*
X35018000Y-9863000D02*
X35018000Y-6913000D01*
X35768000Y-9863000D02*
X35018000Y-9863000D01*
X23168000Y-12113000D02*
X24968000Y-12113000D01*
X23168000Y-11363000D02*
X23168000Y-12113000D01*
X24968000Y-11363000D02*
X23168000Y-11363000D01*
X24968000Y-12113000D02*
X24968000Y-11363000D01*
X33968000Y-12113000D02*
X35768000Y-12113000D01*
X33968000Y-11363000D02*
X33968000Y-12113000D01*
X35768000Y-11363000D02*
X33968000Y-11363000D01*
X35768000Y-12113000D02*
X35768000Y-11363000D01*
X26468000Y-12113000D02*
X32468000Y-12113000D01*
X26468000Y-11363000D02*
X26468000Y-12113000D01*
X32468000Y-11363000D02*
X26468000Y-11363000D01*
X32468000Y-12113000D02*
X32468000Y-11363000D01*
X23158000Y-12123000D02*
X35778000Y-12123000D01*
X23158000Y-6153000D02*
X23158000Y-12123000D01*
X35778000Y-6153000D02*
X23158000Y-6153000D01*
X35778000Y-12123000D02*
X35778000Y-6153000D01*
X43323000Y-25237000D02*
X43323000Y-21337000D01*
X45323000Y-25237000D02*
X45323000Y-21337000D01*
X43323000Y-25237000D02*
X45323000Y-25237000D01*
X65135000Y-42113000D02*
X65135000Y-46013000D01*
X63135000Y-42113000D02*
X63135000Y-46013000D01*
X65135000Y-42113000D02*
X63135000Y-42113000D01*
D12*
X73643000Y-40838000D02*
X73693000Y-40838000D01*
X73643000Y-36688000D02*
X73788000Y-36688000D01*
X78793000Y-36688000D02*
X78648000Y-36688000D01*
X78793000Y-40838000D02*
X78648000Y-40838000D01*
X73643000Y-40838000D02*
X73643000Y-36688000D01*
X78793000Y-40838000D02*
X78793000Y-36688000D01*
X73693000Y-40838000D02*
X73693000Y-42238000D01*
D11*
X32718000Y-40773000D02*
X34668000Y-40773000D01*
X32718000Y-40773000D02*
X30768000Y-40773000D01*
X32718000Y-35653000D02*
X34668000Y-35653000D01*
X32718000Y-35653000D02*
X29268000Y-35653000D01*
X32918000Y-46203000D02*
X30968000Y-46203000D01*
X32918000Y-46203000D02*
X34868000Y-46203000D01*
X32918000Y-51323000D02*
X30968000Y-51323000D01*
X32918000Y-51323000D02*
X36368000Y-51323000D01*
X41468000Y-51323000D02*
X42268000Y-51323000D01*
X41468000Y-51323000D02*
X40668000Y-51323000D01*
X41468000Y-48203000D02*
X42268000Y-48203000D01*
X41468000Y-48203000D02*
X39668000Y-48203000D01*
X41433000Y-19523000D02*
X40708000Y-19523000D01*
X40708000Y-19523000D02*
X40708000Y-18798000D01*
X44203000Y-15303000D02*
X44928000Y-15303000D01*
X44928000Y-15303000D02*
X44928000Y-16028000D01*
X41433000Y-15303000D02*
X40708000Y-15303000D01*
X40708000Y-15303000D02*
X40708000Y-16028000D01*
X44203000Y-19523000D02*
X44928000Y-19523000D01*
D12*
X69567000Y-16302000D02*
X69567000Y-27224000D01*
X72869000Y-16302000D02*
X72869000Y-27224000D01*
X72869000Y-27224000D02*
X69567000Y-27224000D01*
X72869000Y-16302000D02*
X69567000Y-16302000D01*
D11*
X42548000Y-27948000D02*
X42548000Y-34898000D01*
X37808000Y-27948000D02*
X37808000Y-34898000D01*
X42548000Y-27948000D02*
X40762000Y-27948000D01*
X39772000Y-27948000D02*
X37808000Y-27948000D01*
X42548000Y-34898000D02*
X40762000Y-34898000D01*
X39772000Y-34898000D02*
X37808000Y-34898000D01*
X77598000Y-63145641D02*
X77598000Y-62838359D01*
X78358000Y-63145641D02*
X78358000Y-62838359D01*
X76976500Y-62754742D02*
X76976500Y-63229258D01*
X75931500Y-62754742D02*
X75931500Y-63229258D01*
X83408000Y-58690064D02*
X83408000Y-57235936D01*
X85228000Y-58690064D02*
X85228000Y-57235936D01*
X70228000Y-6385936D02*
X70228000Y-10740064D01*
X66808000Y-6385936D02*
X66808000Y-10740064D01*
X24145064Y-15673000D02*
X22690936Y-15673000D01*
X24145064Y-13853000D02*
X22690936Y-13853000D01*
X24145064Y-33073000D02*
X22690936Y-33073000D01*
X24145064Y-31253000D02*
X22690936Y-31253000D01*
X28228000Y-37085936D02*
X28228000Y-38540064D01*
X26408000Y-37085936D02*
X26408000Y-38540064D01*
X24145064Y-50673000D02*
X22690936Y-50673000D01*
X24145064Y-48853000D02*
X22690936Y-48853000D01*
X29957500Y-53450258D02*
X29957500Y-52975742D01*
X31002500Y-53450258D02*
X31002500Y-52975742D01*
X49855258Y-60585500D02*
X49380742Y-60585500D01*
X49855258Y-59540500D02*
X49380742Y-59540500D01*
X44095500Y-13050258D02*
X44095500Y-12575742D01*
X45140500Y-13050258D02*
X45140500Y-12575742D01*
X16148000Y-22443000D02*
X16148000Y-12203000D01*
X20789000Y-22443000D02*
X20789000Y-12203000D01*
X16148000Y-22443000D02*
X20789000Y-22443000D01*
X16148000Y-12203000D02*
X20789000Y-12203000D01*
X17658000Y-22443000D02*
X17658000Y-12203000D01*
X16148000Y-19173000D02*
X17658000Y-19173000D01*
X16148000Y-15472000D02*
X17658000Y-15472000D01*
X16148000Y-57443000D02*
X16148000Y-47203000D01*
X20789000Y-57443000D02*
X20789000Y-47203000D01*
X16148000Y-57443000D02*
X20789000Y-57443000D01*
X16148000Y-47203000D02*
X20789000Y-47203000D01*
X17658000Y-57443000D02*
X17658000Y-47203000D01*
X16148000Y-54173000D02*
X17658000Y-54173000D01*
X16148000Y-50472000D02*
X17658000Y-50472000D01*
X32018000Y-27363000D02*
X38218000Y-27363000D01*
X38218000Y-27363000D02*
X38218000Y-20663000D01*
X38218000Y-20663000D02*
X32018000Y-20663000D01*
X32018000Y-20663000D02*
X32018000Y-27363000D01*
X30718000Y-22263000D02*
X30718000Y-25763000D01*
X31518000Y-26763000D02*
X32018000Y-26763000D01*
X31568000Y-21263000D02*
X32018000Y-21263000D01*
X31568000Y-21263000D02*
X30718000Y-22263000D01*
X31518000Y-26763000D02*
X30718000Y-25763000D01*
X40108000Y-39533000D02*
X40108000Y-40463000D01*
X40108000Y-42693000D02*
X40108000Y-41763000D01*
X40108000Y-42693000D02*
X42268000Y-42693000D01*
X40108000Y-39533000D02*
X41568000Y-39533000D01*
X29166000Y-55863000D02*
X27916000Y-55863000D01*
X29166000Y-57113000D02*
X29166000Y-55863000D01*
X23666000Y-63013000D02*
X23666000Y-59963000D01*
X26616000Y-63013000D02*
X23666000Y-63013000D01*
X26616000Y-63763000D02*
X26616000Y-63013000D01*
X23666000Y-59963000D02*
X23666000Y-57973000D01*
X26616000Y-56913000D02*
X25276000Y-56913000D01*
X26616000Y-56163000D02*
X26616000Y-56913000D01*
X28866000Y-63763000D02*
X28866000Y-61963000D01*
X28116000Y-63763000D02*
X28866000Y-63763000D01*
X28116000Y-61963000D02*
X28116000Y-63763000D01*
X28866000Y-61963000D02*
X28116000Y-61963000D01*
X28866000Y-57963000D02*
X28866000Y-56163000D01*
X28116000Y-57963000D02*
X28866000Y-57963000D01*
X28116000Y-56163000D02*
X28116000Y-57963000D01*
X28866000Y-56163000D02*
X28116000Y-56163000D01*
X28866000Y-60463000D02*
X28866000Y-59463000D01*
X28116000Y-60463000D02*
X28866000Y-60463000D01*
X28116000Y-59463000D02*
X28116000Y-60463000D01*
X28866000Y-59463000D02*
X28116000Y-59463000D01*
X28876000Y-63773000D02*
X28876000Y-56153000D01*
X22906000Y-63773000D02*
X28876000Y-63773000D01*
X22906000Y-56153000D02*
X22906000Y-63773000D01*
X28876000Y-56153000D02*
X22906000Y-56153000D01*
X86077000Y-42013000D02*
X86077000Y-38713000D01*
X86077000Y-38713000D02*
X80677000Y-38713000D01*
X86077000Y-42013000D02*
X80677000Y-42013000D01*
X76673000Y-14038000D02*
X76673000Y-7688000D01*
X76673000Y-7688000D02*
X77689000Y-7688000D01*
X77181000Y-7688000D02*
X77181000Y-14038000D01*
X77689000Y-14038000D02*
X76673000Y-14038000D01*
X84801000Y-14038000D02*
X85563000Y-14038000D01*
X85563000Y-14038000D02*
X85563000Y-7688000D01*
X85563000Y-7688000D02*
X84801000Y-7688000D01*
X77689000Y-13149000D02*
X78705000Y-13149000D01*
X78197000Y-13530000D02*
X78197000Y-12768000D01*
X78197000Y-13657000D02*
X78197000Y-12641000D01*
X84039000Y-13530000D02*
X84039000Y-12641000D01*
X26218000Y-27463000D02*
X29518000Y-27463000D01*
X29518000Y-27463000D02*
X29518000Y-22063000D01*
X26218000Y-27463000D02*
X26218000Y-22063000D01*
X48044000Y-15775000D02*
X45759000Y-15775000D01*
X45759000Y-15775000D02*
X45759000Y-17245000D01*
X45759000Y-17245000D02*
X48044000Y-17245000D01*
X37518000Y-16248000D02*
X39803000Y-16248000D01*
X39803000Y-16248000D02*
X39803000Y-14778000D01*
X39803000Y-14778000D02*
X37518000Y-14778000D01*
D13*
X51418000Y-62163000D02*
G75*
G03*
X51418000Y-62163000I-100000J0D01*
G01*
D14*
X47788000Y-61413000D02*
X49448000Y-61413000D01*
X49448000Y-62913000D02*
X47788000Y-62913000D01*
D11*
X62892000Y-30950000D02*
X62892000Y-33410000D01*
X62892000Y-33410000D02*
X64362000Y-33410000D01*
X64362000Y-33410000D02*
X64362000Y-30950000D01*
X64723000Y-57134000D02*
G75*
G03*
X64723000Y-57134000I-2620000J0D01*
G01*
X61063000Y-57134000D02*
X59523000Y-57134000D01*
X64683000Y-57134000D02*
X63143000Y-57134000D01*
X61063000Y-57174000D02*
X59523000Y-57174000D01*
X64683000Y-57174000D02*
X63143000Y-57174000D01*
X64682000Y-57214000D02*
X63143000Y-57214000D01*
X61063000Y-57214000D02*
X59524000Y-57214000D01*
X64681000Y-57254000D02*
X63143000Y-57254000D01*
X61063000Y-57254000D02*
X59525000Y-57254000D01*
X64679000Y-57294000D02*
X63143000Y-57294000D01*
X61063000Y-57294000D02*
X59527000Y-57294000D01*
X64676000Y-57334000D02*
X63143000Y-57334000D01*
X61063000Y-57334000D02*
X59530000Y-57334000D01*
X64672000Y-57374000D02*
X63143000Y-57374000D01*
X61063000Y-57374000D02*
X59534000Y-57374000D01*
X64668000Y-57414000D02*
X63143000Y-57414000D01*
X61063000Y-57414000D02*
X59538000Y-57414000D01*
X64664000Y-57454000D02*
X63143000Y-57454000D01*
X61063000Y-57454000D02*
X59542000Y-57454000D01*
X64659000Y-57494000D02*
X63143000Y-57494000D01*
X61063000Y-57494000D02*
X59547000Y-57494000D01*
X64653000Y-57534000D02*
X63143000Y-57534000D01*
X61063000Y-57534000D02*
X59553000Y-57534000D01*
X64646000Y-57574000D02*
X63143000Y-57574000D01*
X61063000Y-57574000D02*
X59560000Y-57574000D01*
X64639000Y-57614000D02*
X63143000Y-57614000D01*
X61063000Y-57614000D02*
X59567000Y-57614000D01*
X64631000Y-57654000D02*
X63143000Y-57654000D01*
X61063000Y-57654000D02*
X59575000Y-57654000D01*
X64623000Y-57694000D02*
X63143000Y-57694000D01*
X61063000Y-57694000D02*
X59583000Y-57694000D01*
X64614000Y-57734000D02*
X63143000Y-57734000D01*
X61063000Y-57734000D02*
X59592000Y-57734000D01*
X64604000Y-57774000D02*
X63143000Y-57774000D01*
X61063000Y-57774000D02*
X59602000Y-57774000D01*
X64594000Y-57814000D02*
X63143000Y-57814000D01*
X61063000Y-57814000D02*
X59612000Y-57814000D01*
X64583000Y-57855000D02*
X63143000Y-57855000D01*
X61063000Y-57855000D02*
X59623000Y-57855000D01*
X64571000Y-57895000D02*
X63143000Y-57895000D01*
X61063000Y-57895000D02*
X59635000Y-57895000D01*
X64558000Y-57935000D02*
X63143000Y-57935000D01*
X61063000Y-57935000D02*
X59648000Y-57935000D01*
X64545000Y-57975000D02*
X63143000Y-57975000D01*
X61063000Y-57975000D02*
X59661000Y-57975000D01*
X64531000Y-58015000D02*
X63143000Y-58015000D01*
X61063000Y-58015000D02*
X59675000Y-58015000D01*
X64517000Y-58055000D02*
X63143000Y-58055000D01*
X61063000Y-58055000D02*
X59689000Y-58055000D01*
X64501000Y-58095000D02*
X63143000Y-58095000D01*
X61063000Y-58095000D02*
X59705000Y-58095000D01*
X64485000Y-58135000D02*
X63143000Y-58135000D01*
X61063000Y-58135000D02*
X59721000Y-58135000D01*
X64468000Y-58175000D02*
X63143000Y-58175000D01*
X61063000Y-58175000D02*
X59738000Y-58175000D01*
X64451000Y-58215000D02*
X63143000Y-58215000D01*
X61063000Y-58215000D02*
X59755000Y-58215000D01*
X64432000Y-58255000D02*
X63143000Y-58255000D01*
X61063000Y-58255000D02*
X59774000Y-58255000D01*
X64413000Y-58295000D02*
X63143000Y-58295000D01*
X61063000Y-58295000D02*
X59793000Y-58295000D01*
X64393000Y-58335000D02*
X63143000Y-58335000D01*
X61063000Y-58335000D02*
X59813000Y-58335000D01*
X64371000Y-58375000D02*
X63143000Y-58375000D01*
X61063000Y-58375000D02*
X59835000Y-58375000D01*
X64350000Y-58415000D02*
X63143000Y-58415000D01*
X61063000Y-58415000D02*
X59856000Y-58415000D01*
X64327000Y-58455000D02*
X63143000Y-58455000D01*
X61063000Y-58455000D02*
X59879000Y-58455000D01*
X64303000Y-58495000D02*
X63143000Y-58495000D01*
X61063000Y-58495000D02*
X59903000Y-58495000D01*
X64278000Y-58535000D02*
X63143000Y-58535000D01*
X61063000Y-58535000D02*
X59928000Y-58535000D01*
X64252000Y-58575000D02*
X63143000Y-58575000D01*
X61063000Y-58575000D02*
X59954000Y-58575000D01*
X64225000Y-58615000D02*
X63143000Y-58615000D01*
X61063000Y-58615000D02*
X59981000Y-58615000D01*
X64198000Y-58655000D02*
X63143000Y-58655000D01*
X61063000Y-58655000D02*
X60008000Y-58655000D01*
X64168000Y-58695000D02*
X63143000Y-58695000D01*
X61063000Y-58695000D02*
X60038000Y-58695000D01*
X64138000Y-58735000D02*
X63143000Y-58735000D01*
X61063000Y-58735000D02*
X60068000Y-58735000D01*
X64107000Y-58775000D02*
X63143000Y-58775000D01*
X61063000Y-58775000D02*
X60099000Y-58775000D01*
X64074000Y-58815000D02*
X63143000Y-58815000D01*
X61063000Y-58815000D02*
X60132000Y-58815000D01*
X64040000Y-58855000D02*
X63143000Y-58855000D01*
X61063000Y-58855000D02*
X60166000Y-58855000D01*
X64004000Y-58895000D02*
X63143000Y-58895000D01*
X61063000Y-58895000D02*
X60202000Y-58895000D01*
X63967000Y-58935000D02*
X63143000Y-58935000D01*
X61063000Y-58935000D02*
X60239000Y-58935000D01*
X63929000Y-58975000D02*
X63143000Y-58975000D01*
X61063000Y-58975000D02*
X60277000Y-58975000D01*
X63888000Y-59015000D02*
X63143000Y-59015000D01*
X61063000Y-59015000D02*
X60318000Y-59015000D01*
X63846000Y-59055000D02*
X63143000Y-59055000D01*
X61063000Y-59055000D02*
X60360000Y-59055000D01*
X63802000Y-59095000D02*
X63143000Y-59095000D01*
X61063000Y-59095000D02*
X60404000Y-59095000D01*
X63756000Y-59135000D02*
X63143000Y-59135000D01*
X61063000Y-59135000D02*
X60450000Y-59135000D01*
X63708000Y-59175000D02*
X60498000Y-59175000D01*
X63657000Y-59215000D02*
X60549000Y-59215000D01*
X63603000Y-59255000D02*
X60603000Y-59255000D01*
X63546000Y-59295000D02*
X60660000Y-59295000D01*
X63486000Y-59335000D02*
X60720000Y-59335000D01*
X63422000Y-59375000D02*
X60784000Y-59375000D01*
X63354000Y-59415000D02*
X60852000Y-59415000D01*
X63281000Y-59455000D02*
X60925000Y-59455000D01*
X63201000Y-59495000D02*
X61005000Y-59495000D01*
X63114000Y-59535000D02*
X61092000Y-59535000D01*
X63018000Y-59575000D02*
X61188000Y-59575000D01*
X62908000Y-59615000D02*
X61298000Y-59615000D01*
X62780000Y-59655000D02*
X61426000Y-59655000D01*
X62621000Y-59695000D02*
X61585000Y-59695000D01*
X62387000Y-59735000D02*
X61819000Y-59735000D01*
X63578000Y-54329225D02*
X63578000Y-54829225D01*
X63828000Y-54579225D02*
X63328000Y-54579225D01*
X83568000Y-62822420D02*
X83568000Y-63103580D01*
X82548000Y-62822420D02*
X82548000Y-63103580D01*
X74589000Y-60663000D02*
G75*
G03*
X74589000Y-60663000I-5120000J0D01*
G01*
X74549000Y-60663000D02*
X64389000Y-60663000D01*
X74549000Y-60703000D02*
X64389000Y-60703000D01*
X74549000Y-60743000D02*
X64389000Y-60743000D01*
X74548000Y-60783000D02*
X64390000Y-60783000D01*
X74547000Y-60823000D02*
X64391000Y-60823000D01*
X74546000Y-60863000D02*
X64392000Y-60863000D01*
X74544000Y-60903000D02*
X64394000Y-60903000D01*
X74542000Y-60943000D02*
X64396000Y-60943000D01*
X74539000Y-60983000D02*
X64399000Y-60983000D01*
X74537000Y-61023000D02*
X64401000Y-61023000D01*
X74534000Y-61063000D02*
X64404000Y-61063000D01*
X74531000Y-61103000D02*
X64407000Y-61103000D01*
X74527000Y-61143000D02*
X64411000Y-61143000D01*
X74523000Y-61183000D02*
X64415000Y-61183000D01*
X74519000Y-61223000D02*
X64419000Y-61223000D01*
X74514000Y-61263000D02*
X64424000Y-61263000D01*
X74509000Y-61303000D02*
X64429000Y-61303000D01*
X74504000Y-61343000D02*
X64434000Y-61343000D01*
X74499000Y-61384000D02*
X64439000Y-61384000D01*
X74493000Y-61424000D02*
X64445000Y-61424000D01*
X74487000Y-61464000D02*
X64451000Y-61464000D01*
X74480000Y-61504000D02*
X64458000Y-61504000D01*
X74473000Y-61544000D02*
X64465000Y-61544000D01*
X74466000Y-61584000D02*
X64472000Y-61584000D01*
X74459000Y-61624000D02*
X64479000Y-61624000D01*
X74451000Y-61664000D02*
X64487000Y-61664000D01*
X74443000Y-61704000D02*
X64495000Y-61704000D01*
X74434000Y-61744000D02*
X64504000Y-61744000D01*
X74425000Y-61784000D02*
X64513000Y-61784000D01*
X74416000Y-61824000D02*
X64522000Y-61824000D01*
X74407000Y-61864000D02*
X64531000Y-61864000D01*
X74397000Y-61904000D02*
X64541000Y-61904000D01*
X74387000Y-61944000D02*
X70710000Y-61944000D01*
X68228000Y-61944000D02*
X64551000Y-61944000D01*
X74376000Y-61984000D02*
X70710000Y-61984000D01*
X68228000Y-61984000D02*
X64562000Y-61984000D01*
X74366000Y-62024000D02*
X70710000Y-62024000D01*
X68228000Y-62024000D02*
X64572000Y-62024000D01*
X74354000Y-62064000D02*
X70710000Y-62064000D01*
X68228000Y-62064000D02*
X64584000Y-62064000D01*
X74343000Y-62104000D02*
X70710000Y-62104000D01*
X68228000Y-62104000D02*
X64595000Y-62104000D01*
X74331000Y-62144000D02*
X70710000Y-62144000D01*
X68228000Y-62144000D02*
X64607000Y-62144000D01*
X74319000Y-62184000D02*
X70710000Y-62184000D01*
X68228000Y-62184000D02*
X64619000Y-62184000D01*
X74306000Y-62224000D02*
X70710000Y-62224000D01*
X68228000Y-62224000D02*
X64632000Y-62224000D01*
X74293000Y-62264000D02*
X70710000Y-62264000D01*
X68228000Y-62264000D02*
X64645000Y-62264000D01*
X74280000Y-62304000D02*
X70710000Y-62304000D01*
X68228000Y-62304000D02*
X64658000Y-62304000D01*
X74266000Y-62344000D02*
X70710000Y-62344000D01*
X68228000Y-62344000D02*
X64672000Y-62344000D01*
X74252000Y-62384000D02*
X70710000Y-62384000D01*
X68228000Y-62384000D02*
X64686000Y-62384000D01*
X74237000Y-62424000D02*
X70710000Y-62424000D01*
X68228000Y-62424000D02*
X64701000Y-62424000D01*
X74223000Y-62464000D02*
X70710000Y-62464000D01*
X68228000Y-62464000D02*
X64715000Y-62464000D01*
X74207000Y-62504000D02*
X70710000Y-62504000D01*
X68228000Y-62504000D02*
X64731000Y-62504000D01*
X74192000Y-62544000D02*
X70710000Y-62544000D01*
X68228000Y-62544000D02*
X64746000Y-62544000D01*
X74176000Y-62584000D02*
X70710000Y-62584000D01*
X68228000Y-62584000D02*
X64762000Y-62584000D01*
X74159000Y-62624000D02*
X70710000Y-62624000D01*
X68228000Y-62624000D02*
X64779000Y-62624000D01*
X74143000Y-62664000D02*
X70710000Y-62664000D01*
X68228000Y-62664000D02*
X64795000Y-62664000D01*
X74126000Y-62704000D02*
X70710000Y-62704000D01*
X68228000Y-62704000D02*
X64812000Y-62704000D01*
X74108000Y-62744000D02*
X70710000Y-62744000D01*
X68228000Y-62744000D02*
X64830000Y-62744000D01*
X74090000Y-62784000D02*
X70710000Y-62784000D01*
X68228000Y-62784000D02*
X64848000Y-62784000D01*
X74072000Y-62824000D02*
X70710000Y-62824000D01*
X68228000Y-62824000D02*
X64866000Y-62824000D01*
X74053000Y-62864000D02*
X70710000Y-62864000D01*
X68228000Y-62864000D02*
X64885000Y-62864000D01*
X74033000Y-62904000D02*
X70710000Y-62904000D01*
X68228000Y-62904000D02*
X64905000Y-62904000D01*
X74014000Y-62944000D02*
X70710000Y-62944000D01*
X68228000Y-62944000D02*
X64924000Y-62944000D01*
X73994000Y-62984000D02*
X70710000Y-62984000D01*
X68228000Y-62984000D02*
X64944000Y-62984000D01*
X73973000Y-63024000D02*
X70710000Y-63024000D01*
X68228000Y-63024000D02*
X64965000Y-63024000D01*
X73952000Y-63064000D02*
X70710000Y-63064000D01*
X68228000Y-63064000D02*
X64986000Y-63064000D01*
X73931000Y-63104000D02*
X70710000Y-63104000D01*
X68228000Y-63104000D02*
X65007000Y-63104000D01*
X73909000Y-63144000D02*
X70710000Y-63144000D01*
X68228000Y-63144000D02*
X65029000Y-63144000D01*
X73886000Y-63184000D02*
X70710000Y-63184000D01*
X68228000Y-63184000D02*
X65052000Y-63184000D01*
X73864000Y-63224000D02*
X70710000Y-63224000D01*
X68228000Y-63224000D02*
X65074000Y-63224000D01*
X73840000Y-63264000D02*
X70710000Y-63264000D01*
X68228000Y-63264000D02*
X65098000Y-63264000D01*
X73816000Y-63304000D02*
X70710000Y-63304000D01*
X68228000Y-63304000D02*
X65122000Y-63304000D01*
X73792000Y-63344000D02*
X70710000Y-63344000D01*
X68228000Y-63344000D02*
X65146000Y-63344000D01*
X73767000Y-63384000D02*
X70710000Y-63384000D01*
X68228000Y-63384000D02*
X65171000Y-63384000D01*
X73742000Y-63424000D02*
X70710000Y-63424000D01*
X68228000Y-63424000D02*
X65196000Y-63424000D01*
X73716000Y-63464000D02*
X70710000Y-63464000D01*
X68228000Y-63464000D02*
X65222000Y-63464000D01*
X73690000Y-63504000D02*
X70710000Y-63504000D01*
X68228000Y-63504000D02*
X65248000Y-63504000D01*
X73663000Y-63544000D02*
X70710000Y-63544000D01*
X68228000Y-63544000D02*
X65275000Y-63544000D01*
X73635000Y-63584000D02*
X70710000Y-63584000D01*
X68228000Y-63584000D02*
X65303000Y-63584000D01*
X73607000Y-63624000D02*
X70710000Y-63624000D01*
X68228000Y-63624000D02*
X65331000Y-63624000D01*
X73579000Y-63664000D02*
X70710000Y-63664000D01*
X68228000Y-63664000D02*
X65359000Y-63664000D01*
X73549000Y-63704000D02*
X70710000Y-63704000D01*
X68228000Y-63704000D02*
X65389000Y-63704000D01*
X73519000Y-63744000D02*
X70710000Y-63744000D01*
X68228000Y-63744000D02*
X65419000Y-63744000D01*
X73489000Y-63784000D02*
X70710000Y-63784000D01*
X68228000Y-63784000D02*
X65449000Y-63784000D01*
X73458000Y-63824000D02*
X70710000Y-63824000D01*
X68228000Y-63824000D02*
X65480000Y-63824000D01*
X73426000Y-63864000D02*
X70710000Y-63864000D01*
X68228000Y-63864000D02*
X65512000Y-63864000D01*
X73394000Y-63904000D02*
X70710000Y-63904000D01*
X68228000Y-63904000D02*
X65544000Y-63904000D01*
X73361000Y-63944000D02*
X70710000Y-63944000D01*
X68228000Y-63944000D02*
X65577000Y-63944000D01*
X73327000Y-63984000D02*
X70710000Y-63984000D01*
X68228000Y-63984000D02*
X65611000Y-63984000D01*
X73293000Y-64024000D02*
X70710000Y-64024000D01*
X68228000Y-64024000D02*
X65645000Y-64024000D01*
X73258000Y-64064000D02*
X70710000Y-64064000D01*
X68228000Y-64064000D02*
X65680000Y-64064000D01*
X73222000Y-64104000D02*
X70710000Y-64104000D01*
X68228000Y-64104000D02*
X65716000Y-64104000D01*
X73185000Y-64144000D02*
X70710000Y-64144000D01*
X68228000Y-64144000D02*
X65753000Y-64144000D01*
X73148000Y-64184000D02*
X70710000Y-64184000D01*
X68228000Y-64184000D02*
X65790000Y-64184000D01*
X73109000Y-64224000D02*
X70710000Y-64224000D01*
X68228000Y-64224000D02*
X65829000Y-64224000D01*
X73070000Y-64264000D02*
X70710000Y-64264000D01*
X68228000Y-64264000D02*
X65868000Y-64264000D01*
X73030000Y-64304000D02*
X70710000Y-64304000D01*
X68228000Y-64304000D02*
X65908000Y-64304000D01*
X72989000Y-64344000D02*
X70710000Y-64344000D01*
X68228000Y-64344000D02*
X65949000Y-64344000D01*
X72947000Y-64384000D02*
X70710000Y-64384000D01*
X68228000Y-64384000D02*
X65991000Y-64384000D01*
X72905000Y-64424000D02*
X66033000Y-64424000D01*
X72861000Y-64464000D02*
X66077000Y-64464000D01*
X72816000Y-64504000D02*
X66122000Y-64504000D01*
X72770000Y-64544000D02*
X66168000Y-64544000D01*
X72723000Y-64584000D02*
X66215000Y-64584000D01*
X72675000Y-64624000D02*
X66263000Y-64624000D01*
X72625000Y-64664000D02*
X66313000Y-64664000D01*
X72575000Y-64704000D02*
X66363000Y-64704000D01*
X72523000Y-64744000D02*
X66415000Y-64744000D01*
X72469000Y-64784000D02*
X66469000Y-64784000D01*
X72414000Y-64824000D02*
X66524000Y-64824000D01*
X72358000Y-64864000D02*
X66580000Y-64864000D01*
X72299000Y-64904000D02*
X66639000Y-64904000D01*
X72239000Y-64944000D02*
X66699000Y-64944000D01*
X72178000Y-64984000D02*
X66760000Y-64984000D01*
X72114000Y-65024000D02*
X66824000Y-65024000D01*
X72048000Y-65064000D02*
X66890000Y-65064000D01*
X71979000Y-65104000D02*
X66959000Y-65104000D01*
X71908000Y-65144000D02*
X67030000Y-65144000D01*
X71834000Y-65184000D02*
X67104000Y-65184000D01*
X71758000Y-65224000D02*
X67180000Y-65224000D01*
X71678000Y-65264000D02*
X67260000Y-65264000D01*
X71594000Y-65304000D02*
X67344000Y-65304000D01*
X71506000Y-65344000D02*
X67432000Y-65344000D01*
X71413000Y-65384000D02*
X67525000Y-65384000D01*
X71315000Y-65424000D02*
X67623000Y-65424000D01*
X71211000Y-65464000D02*
X67727000Y-65464000D01*
X71099000Y-65504000D02*
X67839000Y-65504000D01*
X70979000Y-65544000D02*
X67959000Y-65544000D01*
X70847000Y-65584000D02*
X68091000Y-65584000D01*
X70699000Y-65624000D02*
X68239000Y-65624000D01*
X70531000Y-65664000D02*
X68407000Y-65664000D01*
X70331000Y-65704000D02*
X68607000Y-65704000D01*
X70068000Y-65744000D02*
X68870000Y-65744000D01*
X72344000Y-55183354D02*
X72344000Y-56183354D01*
X72844000Y-55683354D02*
X71844000Y-55683354D01*
X71808000Y-39103580D02*
X71808000Y-38822420D01*
X72828000Y-39103580D02*
X72828000Y-38822420D01*
X83062000Y-32285000D02*
X90174000Y-32285000D01*
X90174000Y-32285000D02*
X90174000Y-33047000D01*
X90174000Y-33047000D02*
X92333000Y-33047000D01*
X83062000Y-32285000D02*
X83062000Y-33047000D01*
X83062000Y-33047000D02*
X80776000Y-33047000D01*
X92333000Y-33047000D02*
X92460000Y-33047000D01*
X92460000Y-35079000D02*
X90174000Y-35079000D01*
X90174000Y-35079000D02*
X90174000Y-35841000D01*
X90174000Y-35841000D02*
X83062000Y-35841000D01*
X83062000Y-35841000D02*
X83062000Y-35079000D01*
X83062000Y-35079000D02*
X80776000Y-35079000D01*
X81618000Y-30099000D02*
G75*
G03*
X81618000Y-30099000I-4120000J0D01*
G01*
X77498000Y-34179000D02*
X77498000Y-26019000D01*
X77458000Y-34179000D02*
X77458000Y-26019000D01*
X77418000Y-34179000D02*
X77418000Y-26019000D01*
X77378000Y-34178000D02*
X77378000Y-26020000D01*
X77338000Y-34176000D02*
X77338000Y-26022000D01*
X77298000Y-34175000D02*
X77298000Y-26023000D01*
X77258000Y-34173000D02*
X77258000Y-26025000D01*
X77218000Y-34170000D02*
X77218000Y-26028000D01*
X77178000Y-34167000D02*
X77178000Y-26031000D01*
X77138000Y-34164000D02*
X77138000Y-26034000D01*
X77098000Y-34160000D02*
X77098000Y-26038000D01*
X77058000Y-34156000D02*
X77058000Y-26042000D01*
X77018000Y-34151000D02*
X77018000Y-26047000D01*
X76978000Y-34147000D02*
X76978000Y-26051000D01*
X76938000Y-34141000D02*
X76938000Y-26057000D01*
X76898000Y-34136000D02*
X76898000Y-26062000D01*
X76858000Y-34129000D02*
X76858000Y-26069000D01*
X76818000Y-34123000D02*
X76818000Y-26075000D01*
X76777000Y-34116000D02*
X76777000Y-31139000D01*
X76777000Y-29059000D02*
X76777000Y-26082000D01*
X76737000Y-34109000D02*
X76737000Y-31139000D01*
X76737000Y-29059000D02*
X76737000Y-26089000D01*
X76697000Y-34101000D02*
X76697000Y-31139000D01*
X76697000Y-29059000D02*
X76697000Y-26097000D01*
X76657000Y-34093000D02*
X76657000Y-31139000D01*
X76657000Y-29059000D02*
X76657000Y-26105000D01*
X76617000Y-34084000D02*
X76617000Y-31139000D01*
X76617000Y-29059000D02*
X76617000Y-26114000D01*
X76577000Y-34075000D02*
X76577000Y-31139000D01*
X76577000Y-29059000D02*
X76577000Y-26123000D01*
X76537000Y-34066000D02*
X76537000Y-31139000D01*
X76537000Y-29059000D02*
X76537000Y-26132000D01*
X76497000Y-34056000D02*
X76497000Y-31139000D01*
X76497000Y-29059000D02*
X76497000Y-26142000D01*
X76457000Y-34046000D02*
X76457000Y-31139000D01*
X76457000Y-29059000D02*
X76457000Y-26152000D01*
X76417000Y-34035000D02*
X76417000Y-31139000D01*
X76417000Y-29059000D02*
X76417000Y-26163000D01*
X76377000Y-34024000D02*
X76377000Y-31139000D01*
X76377000Y-29059000D02*
X76377000Y-26174000D01*
X76337000Y-34013000D02*
X76337000Y-31139000D01*
X76337000Y-29059000D02*
X76337000Y-26185000D01*
X76297000Y-34001000D02*
X76297000Y-31139000D01*
X76297000Y-29059000D02*
X76297000Y-26197000D01*
X76257000Y-33988000D02*
X76257000Y-31139000D01*
X76257000Y-29059000D02*
X76257000Y-26210000D01*
X76217000Y-33976000D02*
X76217000Y-31139000D01*
X76217000Y-29059000D02*
X76217000Y-26222000D01*
X76177000Y-33962000D02*
X76177000Y-31139000D01*
X76177000Y-29059000D02*
X76177000Y-26236000D01*
X76137000Y-33949000D02*
X76137000Y-31139000D01*
X76137000Y-29059000D02*
X76137000Y-26249000D01*
X76097000Y-33934000D02*
X76097000Y-31139000D01*
X76097000Y-29059000D02*
X76097000Y-26264000D01*
X76057000Y-33920000D02*
X76057000Y-31139000D01*
X76057000Y-29059000D02*
X76057000Y-26278000D01*
X76017000Y-33904000D02*
X76017000Y-31139000D01*
X76017000Y-29059000D02*
X76017000Y-26294000D01*
X75977000Y-33889000D02*
X75977000Y-31139000D01*
X75977000Y-29059000D02*
X75977000Y-26309000D01*
X75937000Y-33873000D02*
X75937000Y-31139000D01*
X75937000Y-29059000D02*
X75937000Y-26325000D01*
X75897000Y-33856000D02*
X75897000Y-31139000D01*
X75897000Y-29059000D02*
X75897000Y-26342000D01*
X75857000Y-33839000D02*
X75857000Y-31139000D01*
X75857000Y-29059000D02*
X75857000Y-26359000D01*
X75817000Y-33821000D02*
X75817000Y-31139000D01*
X75817000Y-29059000D02*
X75817000Y-26377000D01*
X75777000Y-33803000D02*
X75777000Y-31139000D01*
X75777000Y-29059000D02*
X75777000Y-26395000D01*
X75737000Y-33785000D02*
X75737000Y-31139000D01*
X75737000Y-29059000D02*
X75737000Y-26413000D01*
X75697000Y-33765000D02*
X75697000Y-31139000D01*
X75697000Y-29059000D02*
X75697000Y-26433000D01*
X75657000Y-33746000D02*
X75657000Y-31139000D01*
X75657000Y-29059000D02*
X75657000Y-26452000D01*
X75617000Y-33726000D02*
X75617000Y-31139000D01*
X75617000Y-29059000D02*
X75617000Y-26472000D01*
X75577000Y-33705000D02*
X75577000Y-31139000D01*
X75577000Y-29059000D02*
X75577000Y-26493000D01*
X75537000Y-33683000D02*
X75537000Y-31139000D01*
X75537000Y-29059000D02*
X75537000Y-26515000D01*
X75497000Y-33661000D02*
X75497000Y-31139000D01*
X75497000Y-29059000D02*
X75497000Y-26537000D01*
X75457000Y-33639000D02*
X75457000Y-31139000D01*
X75457000Y-29059000D02*
X75457000Y-26559000D01*
X75417000Y-33616000D02*
X75417000Y-31139000D01*
X75417000Y-29059000D02*
X75417000Y-26582000D01*
X75377000Y-33592000D02*
X75377000Y-31139000D01*
X75377000Y-29059000D02*
X75377000Y-26606000D01*
X75337000Y-33568000D02*
X75337000Y-31139000D01*
X75337000Y-29059000D02*
X75337000Y-26630000D01*
X75297000Y-33543000D02*
X75297000Y-31139000D01*
X75297000Y-29059000D02*
X75297000Y-26655000D01*
X75257000Y-33517000D02*
X75257000Y-31139000D01*
X75257000Y-29059000D02*
X75257000Y-26681000D01*
X75217000Y-33491000D02*
X75217000Y-31139000D01*
X75217000Y-29059000D02*
X75217000Y-26707000D01*
X75177000Y-33464000D02*
X75177000Y-31139000D01*
X75177000Y-29059000D02*
X75177000Y-26734000D01*
X75137000Y-33437000D02*
X75137000Y-31139000D01*
X75137000Y-29059000D02*
X75137000Y-26761000D01*
X75097000Y-33408000D02*
X75097000Y-31139000D01*
X75097000Y-29059000D02*
X75097000Y-26790000D01*
X75057000Y-33379000D02*
X75057000Y-31139000D01*
X75057000Y-29059000D02*
X75057000Y-26819000D01*
X75017000Y-33349000D02*
X75017000Y-31139000D01*
X75017000Y-29059000D02*
X75017000Y-26849000D01*
X74977000Y-33319000D02*
X74977000Y-31139000D01*
X74977000Y-29059000D02*
X74977000Y-26879000D01*
X74937000Y-33288000D02*
X74937000Y-31139000D01*
X74937000Y-29059000D02*
X74937000Y-26910000D01*
X74897000Y-33255000D02*
X74897000Y-31139000D01*
X74897000Y-29059000D02*
X74897000Y-26943000D01*
X74857000Y-33223000D02*
X74857000Y-31139000D01*
X74857000Y-29059000D02*
X74857000Y-26975000D01*
X74817000Y-33189000D02*
X74817000Y-31139000D01*
X74817000Y-29059000D02*
X74817000Y-27009000D01*
X74777000Y-33154000D02*
X74777000Y-31139000D01*
X74777000Y-29059000D02*
X74777000Y-27044000D01*
X74737000Y-33118000D02*
X74737000Y-31139000D01*
X74737000Y-29059000D02*
X74737000Y-27080000D01*
X74697000Y-33082000D02*
X74697000Y-27116000D01*
X74657000Y-33044000D02*
X74657000Y-27154000D01*
X74617000Y-33006000D02*
X74617000Y-27192000D01*
X74577000Y-32966000D02*
X74577000Y-27232000D01*
X74537000Y-32925000D02*
X74537000Y-27273000D01*
X74497000Y-32883000D02*
X74497000Y-27315000D01*
X74457000Y-32840000D02*
X74457000Y-27358000D01*
X74417000Y-32796000D02*
X74417000Y-27402000D01*
X74377000Y-32750000D02*
X74377000Y-27448000D01*
X74337000Y-32703000D02*
X74337000Y-27495000D01*
X74297000Y-32655000D02*
X74297000Y-27543000D01*
X74257000Y-32604000D02*
X74257000Y-27594000D01*
X74217000Y-32553000D02*
X74217000Y-27645000D01*
X74177000Y-32499000D02*
X74177000Y-27699000D01*
X74137000Y-32444000D02*
X74137000Y-27754000D01*
X74097000Y-32386000D02*
X74097000Y-27812000D01*
X74057000Y-32327000D02*
X74057000Y-27871000D01*
X74017000Y-32265000D02*
X74017000Y-27933000D01*
X73977000Y-32201000D02*
X73977000Y-27997000D01*
X73937000Y-32133000D02*
X73937000Y-28065000D01*
X73897000Y-32063000D02*
X73897000Y-28135000D01*
X73857000Y-31989000D02*
X73857000Y-28209000D01*
X73817000Y-31912000D02*
X73817000Y-28286000D01*
X73777000Y-31830000D02*
X73777000Y-28368000D01*
X73737000Y-31744000D02*
X73737000Y-28454000D01*
X73697000Y-31651000D02*
X73697000Y-28547000D01*
X73657000Y-31552000D02*
X73657000Y-28646000D01*
X73617000Y-31445000D02*
X73617000Y-28753000D01*
X73577000Y-31328000D02*
X73577000Y-28870000D01*
X73537000Y-31197000D02*
X73537000Y-29001000D01*
X73497000Y-31047000D02*
X73497000Y-29151000D01*
X73457000Y-30867000D02*
X73457000Y-29331000D01*
X73417000Y-30632000D02*
X73417000Y-29566000D01*
X81907698Y-32414000D02*
X81107698Y-32414000D01*
X81507698Y-32814000D02*
X81507698Y-32014000D01*
X81638000Y-21413000D02*
G75*
G03*
X81638000Y-21413000I-4120000J0D01*
G01*
X81598000Y-21413000D02*
X73438000Y-21413000D01*
X81598000Y-21453000D02*
X73438000Y-21453000D01*
X81598000Y-21493000D02*
X73438000Y-21493000D01*
X81597000Y-21533000D02*
X73439000Y-21533000D01*
X81595000Y-21573000D02*
X73441000Y-21573000D01*
X81594000Y-21613000D02*
X73442000Y-21613000D01*
X81592000Y-21653000D02*
X73444000Y-21653000D01*
X81589000Y-21693000D02*
X73447000Y-21693000D01*
X81586000Y-21733000D02*
X73450000Y-21733000D01*
X81583000Y-21773000D02*
X73453000Y-21773000D01*
X81579000Y-21813000D02*
X73457000Y-21813000D01*
X81575000Y-21853000D02*
X73461000Y-21853000D01*
X81570000Y-21893000D02*
X73466000Y-21893000D01*
X81566000Y-21933000D02*
X73470000Y-21933000D01*
X81560000Y-21973000D02*
X73476000Y-21973000D01*
X81555000Y-22013000D02*
X73481000Y-22013000D01*
X81548000Y-22053000D02*
X73488000Y-22053000D01*
X81542000Y-22093000D02*
X73494000Y-22093000D01*
X81535000Y-22134000D02*
X78558000Y-22134000D01*
X76478000Y-22134000D02*
X73501000Y-22134000D01*
X81528000Y-22174000D02*
X78558000Y-22174000D01*
X76478000Y-22174000D02*
X73508000Y-22174000D01*
X81520000Y-22214000D02*
X78558000Y-22214000D01*
X76478000Y-22214000D02*
X73516000Y-22214000D01*
X81512000Y-22254000D02*
X78558000Y-22254000D01*
X76478000Y-22254000D02*
X73524000Y-22254000D01*
X81503000Y-22294000D02*
X78558000Y-22294000D01*
X76478000Y-22294000D02*
X73533000Y-22294000D01*
X81494000Y-22334000D02*
X78558000Y-22334000D01*
X76478000Y-22334000D02*
X73542000Y-22334000D01*
X81485000Y-22374000D02*
X78558000Y-22374000D01*
X76478000Y-22374000D02*
X73551000Y-22374000D01*
X81475000Y-22414000D02*
X78558000Y-22414000D01*
X76478000Y-22414000D02*
X73561000Y-22414000D01*
X81465000Y-22454000D02*
X78558000Y-22454000D01*
X76478000Y-22454000D02*
X73571000Y-22454000D01*
X81454000Y-22494000D02*
X78558000Y-22494000D01*
X76478000Y-22494000D02*
X73582000Y-22494000D01*
X81443000Y-22534000D02*
X78558000Y-22534000D01*
X76478000Y-22534000D02*
X73593000Y-22534000D01*
X81432000Y-22574000D02*
X78558000Y-22574000D01*
X76478000Y-22574000D02*
X73604000Y-22574000D01*
X81420000Y-22614000D02*
X78558000Y-22614000D01*
X76478000Y-22614000D02*
X73616000Y-22614000D01*
X81407000Y-22654000D02*
X78558000Y-22654000D01*
X76478000Y-22654000D02*
X73629000Y-22654000D01*
X81395000Y-22694000D02*
X78558000Y-22694000D01*
X76478000Y-22694000D02*
X73641000Y-22694000D01*
X81381000Y-22734000D02*
X78558000Y-22734000D01*
X76478000Y-22734000D02*
X73655000Y-22734000D01*
X81368000Y-22774000D02*
X78558000Y-22774000D01*
X76478000Y-22774000D02*
X73668000Y-22774000D01*
X81353000Y-22814000D02*
X78558000Y-22814000D01*
X76478000Y-22814000D02*
X73683000Y-22814000D01*
X81339000Y-22854000D02*
X78558000Y-22854000D01*
X76478000Y-22854000D02*
X73697000Y-22854000D01*
X81323000Y-22894000D02*
X78558000Y-22894000D01*
X76478000Y-22894000D02*
X73713000Y-22894000D01*
X81308000Y-22934000D02*
X78558000Y-22934000D01*
X76478000Y-22934000D02*
X73728000Y-22934000D01*
X81292000Y-22974000D02*
X78558000Y-22974000D01*
X76478000Y-22974000D02*
X73744000Y-22974000D01*
X81275000Y-23014000D02*
X78558000Y-23014000D01*
X76478000Y-23014000D02*
X73761000Y-23014000D01*
X81258000Y-23054000D02*
X78558000Y-23054000D01*
X76478000Y-23054000D02*
X73778000Y-23054000D01*
X81240000Y-23094000D02*
X78558000Y-23094000D01*
X76478000Y-23094000D02*
X73796000Y-23094000D01*
X81222000Y-23134000D02*
X78558000Y-23134000D01*
X76478000Y-23134000D02*
X73814000Y-23134000D01*
X81204000Y-23174000D02*
X78558000Y-23174000D01*
X76478000Y-23174000D02*
X73832000Y-23174000D01*
X81184000Y-23214000D02*
X78558000Y-23214000D01*
X76478000Y-23214000D02*
X73852000Y-23214000D01*
X81165000Y-23254000D02*
X78558000Y-23254000D01*
X76478000Y-23254000D02*
X73871000Y-23254000D01*
X81145000Y-23294000D02*
X78558000Y-23294000D01*
X76478000Y-23294000D02*
X73891000Y-23294000D01*
X81124000Y-23334000D02*
X78558000Y-23334000D01*
X76478000Y-23334000D02*
X73912000Y-23334000D01*
X81102000Y-23374000D02*
X78558000Y-23374000D01*
X76478000Y-23374000D02*
X73934000Y-23374000D01*
X81080000Y-23414000D02*
X78558000Y-23414000D01*
X76478000Y-23414000D02*
X73956000Y-23414000D01*
X81058000Y-23454000D02*
X78558000Y-23454000D01*
X76478000Y-23454000D02*
X73978000Y-23454000D01*
X81035000Y-23494000D02*
X78558000Y-23494000D01*
X76478000Y-23494000D02*
X74001000Y-23494000D01*
X81011000Y-23534000D02*
X78558000Y-23534000D01*
X76478000Y-23534000D02*
X74025000Y-23534000D01*
X80987000Y-23574000D02*
X78558000Y-23574000D01*
X76478000Y-23574000D02*
X74049000Y-23574000D01*
X80962000Y-23614000D02*
X78558000Y-23614000D01*
X76478000Y-23614000D02*
X74074000Y-23614000D01*
X80936000Y-23654000D02*
X78558000Y-23654000D01*
X76478000Y-23654000D02*
X74100000Y-23654000D01*
X80910000Y-23694000D02*
X78558000Y-23694000D01*
X76478000Y-23694000D02*
X74126000Y-23694000D01*
X80883000Y-23734000D02*
X78558000Y-23734000D01*
X76478000Y-23734000D02*
X74153000Y-23734000D01*
X80856000Y-23774000D02*
X78558000Y-23774000D01*
X76478000Y-23774000D02*
X74180000Y-23774000D01*
X80827000Y-23814000D02*
X78558000Y-23814000D01*
X76478000Y-23814000D02*
X74209000Y-23814000D01*
X80798000Y-23854000D02*
X78558000Y-23854000D01*
X76478000Y-23854000D02*
X74238000Y-23854000D01*
X80768000Y-23894000D02*
X78558000Y-23894000D01*
X76478000Y-23894000D02*
X74268000Y-23894000D01*
X80738000Y-23934000D02*
X78558000Y-23934000D01*
X76478000Y-23934000D02*
X74298000Y-23934000D01*
X80707000Y-23974000D02*
X78558000Y-23974000D01*
X76478000Y-23974000D02*
X74329000Y-23974000D01*
X80674000Y-24014000D02*
X78558000Y-24014000D01*
X76478000Y-24014000D02*
X74362000Y-24014000D01*
X80642000Y-24054000D02*
X78558000Y-24054000D01*
X76478000Y-24054000D02*
X74394000Y-24054000D01*
X80608000Y-24094000D02*
X78558000Y-24094000D01*
X76478000Y-24094000D02*
X74428000Y-24094000D01*
X80573000Y-24134000D02*
X78558000Y-24134000D01*
X76478000Y-24134000D02*
X74463000Y-24134000D01*
X80537000Y-24174000D02*
X78558000Y-24174000D01*
X76478000Y-24174000D02*
X74499000Y-24174000D01*
X80501000Y-24214000D02*
X74535000Y-24214000D01*
X80463000Y-24254000D02*
X74573000Y-24254000D01*
X80425000Y-24294000D02*
X74611000Y-24294000D01*
X80385000Y-24334000D02*
X74651000Y-24334000D01*
X80344000Y-24374000D02*
X74692000Y-24374000D01*
X80302000Y-24414000D02*
X74734000Y-24414000D01*
X80259000Y-24454000D02*
X74777000Y-24454000D01*
X80215000Y-24494000D02*
X74821000Y-24494000D01*
X80169000Y-24534000D02*
X74867000Y-24534000D01*
X80122000Y-24574000D02*
X74914000Y-24574000D01*
X80074000Y-24614000D02*
X74962000Y-24614000D01*
X80023000Y-24654000D02*
X75013000Y-24654000D01*
X79972000Y-24694000D02*
X75064000Y-24694000D01*
X79918000Y-24734000D02*
X75118000Y-24734000D01*
X79863000Y-24774000D02*
X75173000Y-24774000D01*
X79805000Y-24814000D02*
X75231000Y-24814000D01*
X79746000Y-24854000D02*
X75290000Y-24854000D01*
X79684000Y-24894000D02*
X75352000Y-24894000D01*
X79620000Y-24934000D02*
X75416000Y-24934000D01*
X79552000Y-24974000D02*
X75484000Y-24974000D01*
X79482000Y-25014000D02*
X75554000Y-25014000D01*
X79408000Y-25054000D02*
X75628000Y-25054000D01*
X79331000Y-25094000D02*
X75705000Y-25094000D01*
X79249000Y-25134000D02*
X75787000Y-25134000D01*
X79163000Y-25174000D02*
X75873000Y-25174000D01*
X79070000Y-25214000D02*
X75966000Y-25214000D01*
X78971000Y-25254000D02*
X76065000Y-25254000D01*
X78864000Y-25294000D02*
X76172000Y-25294000D01*
X78747000Y-25334000D02*
X76289000Y-25334000D01*
X78616000Y-25374000D02*
X76420000Y-25374000D01*
X78466000Y-25414000D02*
X76570000Y-25414000D01*
X78286000Y-25454000D02*
X76750000Y-25454000D01*
X78051000Y-25494000D02*
X76985000Y-25494000D01*
X79833000Y-17003302D02*
X79833000Y-17803302D01*
X80233000Y-17403302D02*
X79433000Y-17403302D01*
X52478000Y-8603000D02*
X51278000Y-8603000D01*
X47958000Y-8603000D02*
X49158000Y-8603000D01*
X47958000Y-12058563D02*
X47958000Y-8603000D01*
X52478000Y-12058563D02*
X52478000Y-8603000D01*
X51413563Y-13123000D02*
X51278000Y-13123000D01*
X49022437Y-13123000D02*
X49158000Y-13123000D01*
X49022437Y-13123000D02*
X47958000Y-12058563D01*
X51413563Y-13123000D02*
X52478000Y-12058563D01*
X73518000Y-4863900D02*
X76108800Y-4863900D01*
X76108800Y-4863900D02*
X76108800Y-15824000D01*
X76108800Y-15849400D02*
X70927200Y-15849400D01*
X70927200Y-15849400D02*
X70927200Y-4863900D01*
X70927200Y-4863900D02*
X73518000Y-4863900D01*
X65540000Y-23219000D02*
X65540000Y-16107000D01*
X65540000Y-16107000D02*
X66302000Y-16107000D01*
X66302000Y-16107000D02*
X66302000Y-13948000D01*
X65540000Y-23219000D02*
X66302000Y-23219000D01*
X66302000Y-23219000D02*
X66302000Y-25505000D01*
X66302000Y-13948000D02*
X66302000Y-13821000D01*
X68334000Y-13821000D02*
X68334000Y-16107000D01*
X68334000Y-16107000D02*
X69096000Y-16107000D01*
X69096000Y-16107000D02*
X69096000Y-23219000D01*
X69096000Y-23219000D02*
X68334000Y-23219000D01*
X68334000Y-23219000D02*
X68334000Y-25505000D01*
X62840000Y-13319000D02*
X62840000Y-6207000D01*
X62840000Y-6207000D02*
X63602000Y-6207000D01*
X63602000Y-6207000D02*
X63602000Y-4048000D01*
X62840000Y-13319000D02*
X63602000Y-13319000D01*
X63602000Y-13319000D02*
X63602000Y-15605000D01*
X63602000Y-4048000D02*
X63602000Y-3921000D01*
X65634000Y-3921000D02*
X65634000Y-6207000D01*
X65634000Y-6207000D02*
X66396000Y-6207000D01*
X66396000Y-6207000D02*
X66396000Y-13319000D01*
X66396000Y-13319000D02*
X65634000Y-13319000D01*
X65634000Y-13319000D02*
X65634000Y-15605000D01*
X26708000Y-30920836D02*
X26708000Y-30705164D01*
X27428000Y-30920836D02*
X27428000Y-30705164D01*
X51550000Y-55245000D02*
G75*
G03*
X51550000Y-55245000I-3270000J0D01*
G01*
X48280000Y-58475000D02*
X48280000Y-52015000D01*
X48240000Y-58475000D02*
X48240000Y-52015000D01*
X48200000Y-58475000D02*
X48200000Y-52015000D01*
X48160000Y-58473000D02*
X48160000Y-52017000D01*
X48120000Y-58472000D02*
X48120000Y-52018000D01*
X48080000Y-58469000D02*
X48080000Y-52021000D01*
X48040000Y-58467000D02*
X48040000Y-56285000D01*
X48040000Y-54205000D02*
X48040000Y-52023000D01*
X48000000Y-58463000D02*
X48000000Y-56285000D01*
X48000000Y-54205000D02*
X48000000Y-52027000D01*
X47960000Y-58460000D02*
X47960000Y-56285000D01*
X47960000Y-54205000D02*
X47960000Y-52030000D01*
X47920000Y-58456000D02*
X47920000Y-56285000D01*
X47920000Y-54205000D02*
X47920000Y-52034000D01*
X47880000Y-58451000D02*
X47880000Y-56285000D01*
X47880000Y-54205000D02*
X47880000Y-52039000D01*
X47840000Y-58446000D02*
X47840000Y-56285000D01*
X47840000Y-54205000D02*
X47840000Y-52044000D01*
X47800000Y-58440000D02*
X47800000Y-56285000D01*
X47800000Y-54205000D02*
X47800000Y-52050000D01*
X47760000Y-58434000D02*
X47760000Y-56285000D01*
X47760000Y-54205000D02*
X47760000Y-52056000D01*
X47720000Y-58427000D02*
X47720000Y-56285000D01*
X47720000Y-54205000D02*
X47720000Y-52063000D01*
X47680000Y-58420000D02*
X47680000Y-56285000D01*
X47680000Y-54205000D02*
X47680000Y-52070000D01*
X47640000Y-58412000D02*
X47640000Y-56285000D01*
X47640000Y-54205000D02*
X47640000Y-52078000D01*
X47600000Y-58404000D02*
X47600000Y-56285000D01*
X47600000Y-54205000D02*
X47600000Y-52086000D01*
X47559000Y-58395000D02*
X47559000Y-56285000D01*
X47559000Y-54205000D02*
X47559000Y-52095000D01*
X47519000Y-58386000D02*
X47519000Y-56285000D01*
X47519000Y-54205000D02*
X47519000Y-52104000D01*
X47479000Y-58376000D02*
X47479000Y-56285000D01*
X47479000Y-54205000D02*
X47479000Y-52114000D01*
X47439000Y-58366000D02*
X47439000Y-56285000D01*
X47439000Y-54205000D02*
X47439000Y-52124000D01*
X47399000Y-58355000D02*
X47399000Y-56285000D01*
X47399000Y-54205000D02*
X47399000Y-52135000D01*
X47359000Y-58343000D02*
X47359000Y-56285000D01*
X47359000Y-54205000D02*
X47359000Y-52147000D01*
X47319000Y-58331000D02*
X47319000Y-56285000D01*
X47319000Y-54205000D02*
X47319000Y-52159000D01*
X47279000Y-58319000D02*
X47279000Y-56285000D01*
X47279000Y-54205000D02*
X47279000Y-52171000D01*
X47239000Y-58306000D02*
X47239000Y-56285000D01*
X47239000Y-54205000D02*
X47239000Y-52184000D01*
X47199000Y-58292000D02*
X47199000Y-56285000D01*
X47199000Y-54205000D02*
X47199000Y-52198000D01*
X47159000Y-58278000D02*
X47159000Y-56285000D01*
X47159000Y-54205000D02*
X47159000Y-52212000D01*
X47119000Y-58263000D02*
X47119000Y-56285000D01*
X47119000Y-54205000D02*
X47119000Y-52227000D01*
X47079000Y-58247000D02*
X47079000Y-56285000D01*
X47079000Y-54205000D02*
X47079000Y-52243000D01*
X47039000Y-58231000D02*
X47039000Y-56285000D01*
X47039000Y-54205000D02*
X47039000Y-52259000D01*
X46999000Y-58215000D02*
X46999000Y-56285000D01*
X46999000Y-54205000D02*
X46999000Y-52275000D01*
X46959000Y-58197000D02*
X46959000Y-56285000D01*
X46959000Y-54205000D02*
X46959000Y-52293000D01*
X46919000Y-58179000D02*
X46919000Y-56285000D01*
X46919000Y-54205000D02*
X46919000Y-52311000D01*
X46879000Y-58161000D02*
X46879000Y-56285000D01*
X46879000Y-54205000D02*
X46879000Y-52329000D01*
X46839000Y-58141000D02*
X46839000Y-56285000D01*
X46839000Y-54205000D02*
X46839000Y-52349000D01*
X46799000Y-58121000D02*
X46799000Y-56285000D01*
X46799000Y-54205000D02*
X46799000Y-52369000D01*
X46759000Y-58101000D02*
X46759000Y-56285000D01*
X46759000Y-54205000D02*
X46759000Y-52389000D01*
X46719000Y-58079000D02*
X46719000Y-56285000D01*
X46719000Y-54205000D02*
X46719000Y-52411000D01*
X46679000Y-58057000D02*
X46679000Y-56285000D01*
X46679000Y-54205000D02*
X46679000Y-52433000D01*
X46639000Y-58035000D02*
X46639000Y-56285000D01*
X46639000Y-54205000D02*
X46639000Y-52455000D01*
X46599000Y-58011000D02*
X46599000Y-56285000D01*
X46599000Y-54205000D02*
X46599000Y-52479000D01*
X46559000Y-57987000D02*
X46559000Y-56285000D01*
X46559000Y-54205000D02*
X46559000Y-52503000D01*
X46519000Y-57961000D02*
X46519000Y-56285000D01*
X46519000Y-54205000D02*
X46519000Y-52529000D01*
X46479000Y-57935000D02*
X46479000Y-56285000D01*
X46479000Y-54205000D02*
X46479000Y-52555000D01*
X46439000Y-57909000D02*
X46439000Y-56285000D01*
X46439000Y-54205000D02*
X46439000Y-52581000D01*
X46399000Y-57881000D02*
X46399000Y-56285000D01*
X46399000Y-54205000D02*
X46399000Y-52609000D01*
X46359000Y-57852000D02*
X46359000Y-56285000D01*
X46359000Y-54205000D02*
X46359000Y-52638000D01*
X46319000Y-57823000D02*
X46319000Y-56285000D01*
X46319000Y-54205000D02*
X46319000Y-52667000D01*
X46279000Y-57793000D02*
X46279000Y-56285000D01*
X46279000Y-54205000D02*
X46279000Y-52697000D01*
X46239000Y-57761000D02*
X46239000Y-56285000D01*
X46239000Y-54205000D02*
X46239000Y-52729000D01*
X46199000Y-57729000D02*
X46199000Y-56285000D01*
X46199000Y-54205000D02*
X46199000Y-52761000D01*
X46159000Y-57695000D02*
X46159000Y-56285000D01*
X46159000Y-54205000D02*
X46159000Y-52795000D01*
X46119000Y-57661000D02*
X46119000Y-56285000D01*
X46119000Y-54205000D02*
X46119000Y-52829000D01*
X46079000Y-57625000D02*
X46079000Y-56285000D01*
X46079000Y-54205000D02*
X46079000Y-52865000D01*
X46039000Y-57588000D02*
X46039000Y-56285000D01*
X46039000Y-54205000D02*
X46039000Y-52902000D01*
X45999000Y-57550000D02*
X45999000Y-56285000D01*
X45999000Y-54205000D02*
X45999000Y-52940000D01*
X45959000Y-57510000D02*
X45959000Y-52980000D01*
X45919000Y-57469000D02*
X45919000Y-53021000D01*
X45879000Y-57427000D02*
X45879000Y-53063000D01*
X45839000Y-57382000D02*
X45839000Y-53108000D01*
X45799000Y-57337000D02*
X45799000Y-53153000D01*
X45759000Y-57289000D02*
X45759000Y-53201000D01*
X45719000Y-57240000D02*
X45719000Y-53250000D01*
X45679000Y-57189000D02*
X45679000Y-53301000D01*
X45639000Y-57135000D02*
X45639000Y-53355000D01*
X45599000Y-57079000D02*
X45599000Y-53411000D01*
X45559000Y-57021000D02*
X45559000Y-53469000D01*
X45519000Y-56959000D02*
X45519000Y-53531000D01*
X45479000Y-56895000D02*
X45479000Y-53595000D01*
X45439000Y-56826000D02*
X45439000Y-53664000D01*
X45399000Y-56754000D02*
X45399000Y-53736000D01*
X45359000Y-56677000D02*
X45359000Y-53813000D01*
X45319000Y-56595000D02*
X45319000Y-53895000D01*
X45279000Y-56507000D02*
X45279000Y-53983000D01*
X45239000Y-56410000D02*
X45239000Y-54080000D01*
X45199000Y-56304000D02*
X45199000Y-54186000D01*
X45159000Y-56185000D02*
X45159000Y-54305000D01*
X45119000Y-56047000D02*
X45119000Y-54443000D01*
X45079000Y-55878000D02*
X45079000Y-54612000D01*
X45039000Y-55647000D02*
X45039000Y-54843000D01*
X51780241Y-57084000D02*
X51150241Y-57084000D01*
X51465241Y-57399000D02*
X51465241Y-56769000D01*
X47103420Y-19302000D02*
X47384580Y-19302000D01*
X47103420Y-20322000D02*
X47384580Y-20322000D01*
X46978000Y-13922420D02*
X46978000Y-14203580D01*
X45958000Y-13922420D02*
X45958000Y-14203580D01*
X46510164Y-11403000D02*
X46725836Y-11403000D01*
X46510164Y-12123000D02*
X46725836Y-12123000D01*
X43278000Y-12672420D02*
X43278000Y-12953580D01*
X42258000Y-12672420D02*
X42258000Y-12953580D01*
X52108000Y-61263000D02*
X52108000Y-55253000D01*
X58928000Y-59013000D02*
X58928000Y-55253000D01*
X52108000Y-55253000D02*
X53368000Y-55253000D01*
X58928000Y-55253000D02*
X57668000Y-55253000D01*
X78811000Y-63625000D02*
X78811000Y-62165000D01*
X81971000Y-63625000D02*
X81971000Y-61465000D01*
X81971000Y-63625000D02*
X81041000Y-63625000D01*
X78811000Y-63625000D02*
X79741000Y-63625000D01*
X33568000Y-29803000D02*
X30118000Y-29803000D01*
X33568000Y-29803000D02*
X35518000Y-29803000D01*
X33568000Y-34923000D02*
X31618000Y-34923000D01*
X33568000Y-34923000D02*
X35518000Y-34923000D01*
D14*
X12118000Y-19463000D02*
X14118000Y-19463000D01*
X14118000Y-19463000D02*
X14118000Y-15263000D01*
X14118000Y-15263000D02*
X12118000Y-15263000D01*
X12118000Y-15263000D02*
X12118000Y-19463000D01*
X12118000Y-36963000D02*
X14118000Y-36963000D01*
X14118000Y-36963000D02*
X14118000Y-32763000D01*
X14118000Y-32763000D02*
X12118000Y-32763000D01*
X12118000Y-32763000D02*
X12118000Y-36963000D01*
X12118000Y-54463000D02*
X14118000Y-54463000D01*
X14118000Y-54463000D02*
X14118000Y-50263000D01*
X14118000Y-50263000D02*
X12118000Y-50263000D01*
X12118000Y-50263000D02*
X12118000Y-54463000D01*
D11*
X84186500Y-62754742D02*
X84186500Y-63229258D01*
X85231500Y-62754742D02*
X85231500Y-63229258D01*
X77994742Y-60847500D02*
X78469258Y-60847500D01*
X77994742Y-59802500D02*
X78469258Y-59802500D01*
X22440500Y-19300258D02*
X22440500Y-18825742D01*
X21395500Y-19300258D02*
X21395500Y-18825742D01*
X21355258Y-25540500D02*
X20880742Y-25540500D01*
X21355258Y-26585500D02*
X20880742Y-26585500D01*
X38540500Y-37250258D02*
X38540500Y-36775742D01*
X37495500Y-37250258D02*
X37495500Y-36775742D01*
X30955258Y-41640500D02*
X30480742Y-41640500D01*
X30955258Y-42685500D02*
X30480742Y-42685500D01*
X38540500Y-48800258D02*
X38540500Y-48325742D01*
X37495500Y-48800258D02*
X37495500Y-48325742D01*
X28195500Y-30025742D02*
X28195500Y-30500258D01*
X29240500Y-30025742D02*
X29240500Y-30500258D01*
X29240500Y-33800258D02*
X29240500Y-33325742D01*
X28195500Y-33800258D02*
X28195500Y-33325742D01*
X38130742Y-14285500D02*
X38605258Y-14285500D01*
X38130742Y-13240500D02*
X38605258Y-13240500D01*
X26345500Y-33325742D02*
X26345500Y-33800258D01*
X27390500Y-33325742D02*
X27390500Y-33800258D01*
X43575500Y-46465258D02*
X43575500Y-45990742D01*
X42530500Y-46465258D02*
X42530500Y-45990742D01*
X40273500Y-45449258D02*
X40273500Y-44974742D01*
X39228500Y-45449258D02*
X39228500Y-44974742D01*
X41924500Y-45400258D02*
X41924500Y-44925742D01*
X40879500Y-45400258D02*
X40879500Y-44925742D01*
X16148000Y-32872000D02*
X17658000Y-32872000D01*
X16148000Y-36573000D02*
X17658000Y-36573000D01*
X17658000Y-39843000D02*
X17658000Y-29603000D01*
X16148000Y-29603000D02*
X20789000Y-29603000D01*
X16148000Y-39843000D02*
X20789000Y-39843000D01*
X20789000Y-39843000D02*
X20789000Y-29603000D01*
X16148000Y-39843000D02*
X16148000Y-29603000D01*
X68053242Y-52853000D02*
X66382758Y-52853000D01*
X68053242Y-54673000D02*
X66382758Y-54673000D01*
D15*
X91410609Y-19102000D02*
G75*
G03*
X91410609Y-19102000I-201609J0D01*
G01*
D13*
X82954000Y-30278000D02*
G75*
G03*
X82954000Y-30278000I-127000J0D01*
G01*
X82954000Y-18848000D02*
G75*
G03*
X82954000Y-18848000I-127000J0D01*
G01*
D11*
X88542000Y-31040000D02*
X92098000Y-31040000D01*
X81938000Y-31040000D02*
X85494000Y-31040000D01*
X85494000Y-18086000D02*
X81938000Y-18086000D01*
X92098000Y-18086000D02*
X88542000Y-18086000D01*
X88542000Y-32056000D02*
X88542000Y-31040000D01*
X85494000Y-32056000D02*
X88542000Y-32056000D01*
X85494000Y-31040000D02*
X85494000Y-32056000D01*
X85494000Y-17197000D02*
X85494000Y-18086000D01*
X88542000Y-17197000D02*
X88542000Y-18086000D01*
X85494000Y-17197000D02*
X88542000Y-17197000D01*
X81938000Y-31040000D02*
X81938000Y-18086000D01*
X92098000Y-18086000D02*
X92098000Y-31040000D01*
X62168000Y-10813000D02*
X60918000Y-10813000D01*
X62168000Y-12063000D02*
X62168000Y-10813000D01*
X56668000Y-20463000D02*
X56668000Y-16163000D01*
X59618000Y-20463000D02*
X56668000Y-20463000D01*
X59618000Y-21213000D02*
X59618000Y-20463000D01*
X56668000Y-16163000D02*
X56668000Y-12923000D01*
X59618000Y-11863000D02*
X58278000Y-11863000D01*
X59618000Y-11113000D02*
X59618000Y-11863000D01*
X61868000Y-21213000D02*
X61868000Y-19413000D01*
X61118000Y-21213000D02*
X61868000Y-21213000D01*
X61118000Y-19413000D02*
X61118000Y-21213000D01*
X61868000Y-19413000D02*
X61118000Y-19413000D01*
X61868000Y-12913000D02*
X61868000Y-11113000D01*
X61118000Y-12913000D02*
X61868000Y-12913000D01*
X61118000Y-11113000D02*
X61118000Y-12913000D01*
X61868000Y-11113000D02*
X61118000Y-11113000D01*
X61868000Y-17913000D02*
X61868000Y-14413000D01*
X61118000Y-17913000D02*
X61868000Y-17913000D01*
X61118000Y-14413000D02*
X61118000Y-17913000D01*
X61868000Y-14413000D02*
X61118000Y-14413000D01*
X61878000Y-21223000D02*
X61878000Y-11103000D01*
X55908000Y-21223000D02*
X61878000Y-21223000D01*
X55908000Y-11103000D02*
X55908000Y-21223000D01*
X61878000Y-11103000D02*
X55908000Y-11103000D01*
X16115200Y-17363000D02*
X15632600Y-17363000D01*
X16115200Y-25872000D02*
X16115200Y-8854000D01*
X16115200Y-8854000D02*
X113200Y-8828600D01*
X113200Y-8828600D02*
X113200Y-25872000D01*
X113200Y-25872000D02*
X16115200Y-25872000D01*
X59720064Y-8053000D02*
X58515936Y-8053000D01*
X59720064Y-9873000D02*
X58515936Y-9873000D01*
X75818000Y-55813000D02*
X81218000Y-55813000D01*
X75818000Y-59113000D02*
X81218000Y-59113000D01*
X75818000Y-55813000D02*
X75818000Y-59113000D01*
X61200420Y-61673000D02*
X61481580Y-61673000D01*
X61200420Y-60653000D02*
X61481580Y-60653000D01*
X81177420Y-60773000D02*
X81458580Y-60773000D01*
X81177420Y-59753000D02*
X81458580Y-59753000D01*
X35627420Y-29123000D02*
X35908580Y-29123000D01*
X35627420Y-28103000D02*
X35908580Y-28103000D01*
X37508000Y-51548420D02*
X37508000Y-51829580D01*
X38528000Y-51548420D02*
X38528000Y-51829580D01*
X37508000Y-40172420D02*
X37508000Y-40453580D01*
X38528000Y-40172420D02*
X38528000Y-40453580D01*
X20977420Y-24773000D02*
X21258580Y-24773000D01*
X20977420Y-23753000D02*
X21258580Y-23753000D01*
X33952420Y-42673000D02*
X34233580Y-42673000D01*
X33952420Y-41653000D02*
X34233580Y-41653000D01*
X20977420Y-42273000D02*
X21258580Y-42273000D01*
X20977420Y-41253000D02*
X21258580Y-41253000D01*
X24558580Y-53553000D02*
X24277420Y-53553000D01*
X24558580Y-54573000D02*
X24277420Y-54573000D01*
X21395500Y-36600258D02*
X21395500Y-36125742D01*
X22440500Y-36600258D02*
X22440500Y-36125742D01*
X21380258Y-44085500D02*
X20905742Y-44085500D01*
X21380258Y-43040500D02*
X20905742Y-43040500D01*
X21395500Y-54200258D02*
X21395500Y-53725742D01*
X22440500Y-54200258D02*
X22440500Y-53725742D01*
X24655258Y-52785500D02*
X24180742Y-52785500D01*
X24655258Y-51740500D02*
X24180742Y-51740500D01*
X27495500Y-48900258D02*
X27495500Y-48425742D01*
X28540500Y-48900258D02*
X28540500Y-48425742D01*
X26245500Y-15000258D02*
X26245500Y-14525742D01*
X27290500Y-15000258D02*
X27290500Y-14525742D01*
X28540500Y-44925742D02*
X28540500Y-45400258D01*
X27495500Y-44925742D02*
X27495500Y-45400258D01*
X30955258Y-44985500D02*
X30480742Y-44985500D01*
X30955258Y-43940500D02*
X30480742Y-43940500D01*
X38540500Y-44925742D02*
X38540500Y-45400258D01*
X37495500Y-44925742D02*
X37495500Y-45400258D01*
X64149500Y-34814742D02*
X64149500Y-35289258D01*
X63104500Y-34814742D02*
X63104500Y-35289258D01*
X64145742Y-40140500D02*
X64620258Y-40140500D01*
X64145742Y-41185500D02*
X64620258Y-41185500D01*
X46718000Y-7463000D02*
X46718000Y-5313000D01*
X37718000Y-5313000D02*
X37718000Y-7463000D01*
X46718000Y-1863000D02*
X37718000Y-1863000D01*
X46718000Y-1863000D02*
X46718000Y-3613000D01*
X37718000Y-1863000D02*
X37718000Y-3613000D01*
X38130742Y-11540500D02*
X38605258Y-11540500D01*
X38130742Y-12585500D02*
X38605258Y-12585500D01*
D12*
X16908500Y-97263100D02*
X16908500Y-70262900D01*
X41927500Y-97263100D02*
X16908500Y-97263100D01*
X41927500Y-70262900D02*
X41927500Y-97263100D01*
X16908500Y-70262900D02*
X41927500Y-70262900D01*
D16*
X61434000Y-51063000D02*
X45432000Y-51063000D01*
X45432000Y-51063000D02*
X45432000Y-43552000D01*
X61434000Y-51063000D02*
X61434000Y-43679000D01*
X61434000Y-27804000D02*
X61434000Y-27042000D01*
X61434000Y-27042000D02*
X45432000Y-27042000D01*
X45432000Y-27042000D02*
X45432000Y-27804000D01*
X45432000Y-51063000D02*
X61426000Y-45263000D01*
X61434000Y-51063000D02*
X45426000Y-45263000D01*
X61426000Y-45263000D02*
X45426000Y-45263000D01*
D11*
X33880742Y-43940500D02*
X34355258Y-43940500D01*
X33880742Y-44985500D02*
X34355258Y-44985500D01*
X38655258Y-19885500D02*
X38180742Y-19885500D01*
X38655258Y-18840500D02*
X38180742Y-18840500D01*
X31130742Y-28090500D02*
X31605258Y-28090500D01*
X31130742Y-29135500D02*
X31605258Y-29135500D01*
X40395500Y-13050258D02*
X40395500Y-12575742D01*
X41440500Y-13050258D02*
X41440500Y-12575742D01*
X38508580Y-17773000D02*
X38227420Y-17773000D01*
X38508580Y-16753000D02*
X38227420Y-16753000D01*
X60977420Y-25253000D02*
X61258580Y-25253000D01*
X60977420Y-26273000D02*
X61258580Y-26273000D01*
X113200Y-43372000D02*
X16115200Y-43372000D01*
X113200Y-26328600D02*
X113200Y-43372000D01*
X16115200Y-26354000D02*
X113200Y-26328600D01*
X16115200Y-43372000D02*
X16115200Y-26354000D01*
X16115200Y-34863000D02*
X15632600Y-34863000D01*
X113200Y-60772000D02*
X16115200Y-60772000D01*
X113200Y-43728600D02*
X113200Y-60772000D01*
X16115200Y-43754000D02*
X113200Y-43728600D01*
X16115200Y-60772000D02*
X16115200Y-43754000D01*
X16115200Y-52263000D02*
X15632600Y-52263000D01*
D12*
X9004428Y-9340904D02*
X9461571Y-9340904D01*
X9233000Y-10140904D02*
X9233000Y-9340904D01*
X9728238Y-10140904D02*
X9728238Y-9340904D01*
X9728238Y-9721857D02*
X10185380Y-9721857D01*
X10185380Y-10140904D02*
X10185380Y-9340904D01*
X10490142Y-9340904D02*
X10985380Y-9340904D01*
X10718714Y-9645666D01*
X10833000Y-9645666D01*
X10909190Y-9683761D01*
X10947285Y-9721857D01*
X10985380Y-9798047D01*
X10985380Y-9988523D01*
X10947285Y-10064714D01*
X10909190Y-10102809D01*
X10833000Y-10140904D01*
X10604428Y-10140904D01*
X10528238Y-10102809D01*
X10490142Y-10064714D01*
X9004428Y-26612904D02*
X9461571Y-26612904D01*
X9233000Y-27412904D02*
X9233000Y-26612904D01*
X9728238Y-27412904D02*
X9728238Y-26612904D01*
X9728238Y-26993857D02*
X10185380Y-26993857D01*
X10185380Y-27412904D02*
X10185380Y-26612904D01*
X10528238Y-26689095D02*
X10566333Y-26651000D01*
X10642523Y-26612904D01*
X10833000Y-26612904D01*
X10909190Y-26651000D01*
X10947285Y-26689095D01*
X10985380Y-26765285D01*
X10985380Y-26841476D01*
X10947285Y-26955761D01*
X10490142Y-27412904D01*
X10985380Y-27412904D01*
X9004428Y-44265904D02*
X9461571Y-44265904D01*
X9233000Y-45065904D02*
X9233000Y-44265904D01*
X9728238Y-45065904D02*
X9728238Y-44265904D01*
X9728238Y-44646857D02*
X10185380Y-44646857D01*
X10185380Y-45065904D02*
X10185380Y-44265904D01*
X10985380Y-45065904D02*
X10528238Y-45065904D01*
X10756809Y-45065904D02*
X10756809Y-44265904D01*
X10680619Y-44380190D01*
X10604428Y-44456380D01*
X10528238Y-44494476D01*
X40854333Y-13406380D02*
X40521000Y-12930190D01*
X40282904Y-13406380D02*
X40282904Y-12406380D01*
X40663857Y-12406380D01*
X40759095Y-12454000D01*
X40806714Y-12501619D01*
X40854333Y-12596857D01*
X40854333Y-12739714D01*
X40806714Y-12834952D01*
X40759095Y-12882571D01*
X40663857Y-12930190D01*
X40282904Y-12930190D01*
X41711476Y-12739714D02*
X41711476Y-13406380D01*
X41473380Y-12358761D02*
X41235285Y-13073047D01*
X41854333Y-13073047D01*
M02*
