M48
; DRILL file {KiCad (5.1.9-13-g2d491f9cbd)-1} date 06/08/21 14:19:40
; FORMAT={3:3/ absolute / metric / suppress leading zeros}
; #@! TF.CreationDate,2021-06-08T14:19:40+02:00
; #@! TF.GenerationSoftware,Kicad,Pcbnew,(5.1.9-13-g2d491f9cbd)-1
FMAT,2
METRIC,TZ
T1C0.400
T2C0.600
T3C0.650
T4C0.762
T5C0.800
T6C0.950
T7C1.000
T8C1.100
T9C1.500
T10C3.200
T11C0.700
T12C2.000
%
G90
G05
T1
X10541Y-64262
X12954Y-43434
X13081Y-26035
X18796Y-24257
X19939Y-39624
X19939Y-46228
X21844Y-28829
X22987Y-21717
X25146Y-55880
X27432Y-42037
X27940Y-18542
X28448Y-65638
X28511Y-51117
X29845Y-45720
X29845Y-57404
X29845Y-58547
X29845Y-59690
X29845Y-60706
X29845Y-61849
X31877Y-38848
X32616Y-40132
X32766Y-36322
X33069Y-51270
X33655Y-28702
X33655Y-30607
X34153Y-32998
X34544Y-53975
X34925Y-87630
X34925Y-88773
X34925Y-89916
X34925Y-92075
X35433Y-45720
X35687Y-90932
X36449Y-16383
X36449Y-18542
X36576Y-51943
X37084Y-36830
X37084Y-42672
X37846Y-10414
X38100Y-25781
X38354Y-33020
X38481Y-42418
X38862Y-6985
X38862Y-43561
X39116Y-47752
X39116Y-50165
X39134Y-51872
X40259Y-43180
X40513Y-35687
X40640Y-40005
X40767Y-15367
X40767Y-19939
X40767Y-38862
X40767Y-47498
X40767Y-54102
X41656Y-65638
X41768Y-12813
X42164Y-16764
X42799Y-42037
X42799Y-55499
X43307Y-40386
X43434Y-18034
X43434Y-18034
X43561Y-48260
X43718Y-12813
X44069Y-57404
X44069Y-58547
X44069Y-59690
X44069Y-60706
X44069Y-61849
X44323Y-22987
X44704Y-15494
X44704Y-19431
X44958Y-26670
X45118Y-85463
X45118Y-86663
X45143Y-87938
X45339Y-22352
X45847Y-6985
X46101Y-52578
X46609Y-26670
X46990Y-10414
X47498Y-15367
X47879Y-35687
X47879Y-40640
X48768Y-31623
X48768Y-42672
X50800Y-15367
X50800Y-20066
X50800Y-23749
X50800Y-31750
X51054Y-40386
X51181Y-35814
X52070Y-52578
X52197Y-55753
X52197Y-56896
X52197Y-58039
X53213Y-55753
X53213Y-56896
X53213Y-58039
X54229Y-43180
X54229Y-55753
X54229Y-56896
X54229Y-58039
X55918Y-79763
X56134Y-30353
X56896Y-32639
X56896Y-36576
X57658Y-6223
X57658Y-16383
X58166Y-38862
X58293Y-43180
X59055Y-29464
X59055Y-42037
X60198Y-11303
X60325Y-27178
X61722Y-54102
X62738Y-13843
X62738Y-16383
X63881Y-51181
X64643Y-59944
X64643Y-65024
X65278Y-11303
X65405Y-30988
X65405Y-34290
X65405Y-38100
X65405Y-47117
X67818Y-8763
X67818Y-16383
X70358Y-18923
X70358Y-24003
X72218Y-87563
X72263Y-36322
X72898Y-8763
X72898Y-11303
X72898Y-21463
X72898Y-26543
X72898Y-31623
X73279Y-58928
X73533Y-65024
X75438Y-11303
X77978Y-44323
X80518Y-6223
X80518Y-11303
X80518Y-16383
X80518Y-36703
X83058Y-24384
X85598Y-18923
X85598Y-29083
X85598Y-34163
X85718Y-4463
X85718Y-11303
X88138Y-13843
X90678Y-11303
X90678Y-16383
X90678Y-24003
X90678Y-31623
X90678Y-44323
T3
X13118Y-16113
X13118Y-18613
X13118Y-33613
X13118Y-36113
X13118Y-51113
X13118Y-53613
T4
X81197Y-44718
X81197Y-53713
X84118Y-44718
X87039Y-44718
X87039Y-53713
T5
X40268Y-28883
X40268Y-31423
X40268Y-33963
X47030Y-55245
X49530Y-55245
X51238Y-5563
X61398Y-5563
X62103Y-56134
X62103Y-58134
X64618Y-4683
X64618Y-14843
X67318Y-14583
X67318Y-24743
X70329Y-25827
X72107Y-17699
X73518Y-5613
X73518Y-15113
X75748Y-30099
X77518Y-19663
X77518Y-23163
X79248Y-30099
X81538Y-34063
X83462Y-20499
X83462Y-28627
X87376Y-40563
X87757Y-37463
X89916Y-40563
X90297Y-37463
X90574Y-20499
X90574Y-28627
X91698Y-34063
T6
X25718Y-9663
X28218Y-9663
X30718Y-9663
X33218Y-9663
X39018Y-56263
X39018Y-58763
X39018Y-61263
X59418Y-13663
X59418Y-16163
X59418Y-18663
X75918Y-88663
X75918Y-91163
X75918Y-93663
T7
X25621Y-71787
X26416Y-58713
X26416Y-61213
X28161Y-71787
X30701Y-71787
X30718Y-17163
X33218Y-17163
X33241Y-71787
X33274Y-58713
X33274Y-61213
X59218Y-80163
X61758Y-80163
X62418Y-88663
X62418Y-91163
X64298Y-80163
X66838Y-80163
X69378Y-80163
X69469Y-58163
X69469Y-63163
X71918Y-80163
X74458Y-80163
X76998Y-80163
X79538Y-80163
T8
X19418Y-14783
X19418Y-17323
X19418Y-19863
X19418Y-32183
X19418Y-34723
X19418Y-37263
X19418Y-49783
X19418Y-52323
X19418Y-54863
T9
X13118Y-12359
X13118Y-22367
X13118Y-29859
X13118Y-39867
X13118Y-47259
X13118Y-57267
T10
X12918Y-72363
X12918Y-95263
X19118Y-7163
X19218Y-61963
X88518Y-72363
X88518Y-95263
X88818Y-7263
X88818Y-62163
T11
X39318Y-8113
X45118Y-8113
T12
X18918Y-72263
X18918Y-95263
X39918Y-72263
X39918Y-95263
T2
G00X37918Y-4663
M15
G01X37918Y-4263
M16
G05
G00X37918Y-9063
M15
G01X37918Y-8263
M16
G05
G00X46518Y-4663
M15
G01X46518Y-4263
M16
G05
G00X46518Y-9063
M15
G01X46518Y-8263
M16
G05
T0
M30
